<?xml version="1.0" encoding="UTF-8" standalone="no"?>
<!-- Created with Inkscape (http://www.inkscape.org/) -->

<svg
   xmlns:dc="http://purl.org/dc/elements/1.1/"
   xmlns:cc="http://creativecommons.org/ns#"
   xmlns:rdf="http://www.w3.org/1999/02/22-rdf-syntax-ns#"
   xmlns:svg="http://www.w3.org/2000/svg"
   xmlns="http://www.w3.org/2000/svg"
   xmlns:sodipodi="http://sodipodi.sourceforge.net/DTD/sodipodi-0.dtd"
   xmlns:inkscape="http://www.inkscape.org/namespaces/inkscape"
   version="1.1"
   id="svg2"
   xml:space="preserve"
   width="551.84668"
   height="193.93333"
   viewBox="0 0 551.84668 193.93333"
   sodipodi:docname="message broker work queue.svg"
   inkscape:version="0.92.2 5c3e80d, 2017-08-06"><metadata
     id="metadata8"><rdf:RDF><cc:Work
         rdf:about=""><dc:format>image/svg+xml</dc:format><dc:type
           rdf:resource="http://purl.org/dc/dcmitype/StillImage" /><dc:title></dc:title><dc:subject><rdf:Bag><rdf:li>message</rdf:li><rdf:li>broker</rdf:li><rdf:li>rabbitmq</rdf:li></rdf:Bag></dc:subject></cc:Work></rdf:RDF></metadata><defs
     id="defs6"><clipPath
       clipPathUnits="userSpaceOnUse"
       id="clipPath20"><path
         d="M 0,145.45 H 413.885 V 0 H 0 Z"
         id="path18"
         inkscape:connector-curvature="0" /></clipPath></defs><sodipodi:namedview
     pagecolor="#ffffff"
     bordercolor="#666666"
     borderopacity="1"
     objecttolerance="10"
     gridtolerance="10"
     guidetolerance="10"
     inkscape:pageopacity="0"
     inkscape:pageshadow="2"
     inkscape:window-width="640"
     inkscape:window-height="480"
     id="namedview4"
     showgrid="false"
     inkscape:zoom="0.78645032"
     inkscape:cx="275.92334"
     inkscape:cy="96.966667"
     inkscape:window-x="0"
     inkscape:window-y="0"
     inkscape:window-maximized="0"
     inkscape:current-layer="g10" /><g
     id="g10"
     inkscape:groupmode="layer"
     inkscape:label="message broker work queue"
     transform="matrix(1.3333333,0,0,-1.3333333,0,193.93333)"><path
       d="M 236.494,133.164 H 92.753 V 33.291 h 143.741 z"
       style="fill:#e6e6e6;fill-opacity:1;fill-rule:evenodd;stroke:none"
       id="path12"
       inkscape:connector-curvature="0" /><g
       id="g14"><g
         id="g16"
         clip-path="url(#clipPath20)"><g
           id="g22"
           transform="translate(106.2482,118.8646)"><path
             d="M 0,0 V 2.659 C 0,3.052 0.021,3.973 0.021,4.252 -0.083,3.983 -0.3,3.466 -0.486,3.052 l -1.469,-3.218 -1.469,3.218 c -0.186,0.414 -0.404,0.931 -0.507,1.2 0,-0.279 0.021,-1.2 0.021,-1.593 V 0 h -1.418 v 7.242 h 1.397 l 1.511,-3.28 c 0.186,-0.403 0.403,-0.951 0.496,-1.21 0.093,0.269 0.3,0.796 0.486,1.21 l 1.459,3.28 H 1.449 V 0 Z"
             style="fill:#4c4c4c;fill-opacity:1;fill-rule:nonzero;stroke:none"
             id="path24"
             inkscape:connector-curvature="0" /></g><g
           id="g26"
           transform="translate(111.384,123.1683)"><path
             d="M 0,0 C -0.517,0 -0.838,-0.424 -0.89,-0.973 H 0.973 C 0.931,-0.486 0.642,0 0,0 M 2.338,-2.048 H -0.91 c 0.052,-0.745 0.599,-1.025 1.117,-1.025 0.393,0 0.724,0.145 0.931,0.383 L 2.152,-3.538 C 1.717,-4.097 0.931,-4.417 0.207,-4.417 c -1.562,0 -2.556,1.106 -2.556,2.824 0,1.665 1.045,2.834 2.421,2.834 1.449,0 2.287,-1.283 2.287,-2.834 0,-0.207 -0.01,-0.352 -0.021,-0.455"
             style="fill:#4c4c4c;fill-opacity:1;fill-rule:nonzero;stroke:none"
             id="path28"
             inkscape:connector-curvature="0" /></g><g
           id="g30"
           transform="translate(116.8527,118.7508)"><path
             d="M 0,0 C -0.858,0 -1.696,0.248 -2.276,0.631 L -1.8,1.717 c 0.579,-0.321 1.19,-0.496 1.883,-0.496 0.559,0 0.724,0.134 0.724,0.414 0,0.248 -0.197,0.372 -0.797,0.548 -1.303,0.393 -2.141,0.713 -2.141,1.862 0,1.128 0.9,1.614 2.173,1.614 0.682,0 1.427,-0.207 2.006,-0.528 L 1.593,4.003 C 1.055,4.293 0.466,4.438 0.01,4.438 c -0.579,0 -0.734,-0.114 -0.734,-0.352 0,-0.227 0.165,-0.32 1.128,-0.63 C 1.376,3.135 2.214,2.783 2.214,1.697 2.214,0.445 1.221,0 0,0"
             style="fill:#4c4c4c;fill-opacity:1;fill-rule:nonzero;stroke:none"
             id="path32"
             inkscape:connector-curvature="0" /></g><g
           id="g34"
           transform="translate(122.2805,118.7508)"><path
             d="M 0,0 C -0.858,0 -1.696,0.248 -2.276,0.631 L -1.8,1.717 c 0.579,-0.321 1.19,-0.496 1.883,-0.496 0.559,0 0.724,0.134 0.724,0.414 0,0.248 -0.197,0.372 -0.797,0.548 -1.303,0.393 -2.141,0.713 -2.141,1.862 0,1.128 0.9,1.614 2.173,1.614 0.682,0 1.427,-0.207 2.006,-0.528 L 1.593,4.003 C 1.055,4.293 0.466,4.438 0.01,4.438 c -0.579,0 -0.734,-0.114 -0.734,-0.352 0,-0.227 0.165,-0.32 1.128,-0.63 C 1.376,3.135 2.214,2.783 2.214,1.697 2.214,0.445 1.221,0 0,0"
             style="fill:#4c4c4c;fill-opacity:1;fill-rule:nonzero;stroke:none"
             id="path36"
             inkscape:connector-curvature="0" /></g><g
           id="g38"
           transform="translate(128.6916,121.1405)"><path
             d="m 0,0 c -0.249,0.155 -0.486,0.228 -0.993,0.228 -0.538,0 -0.828,-0.249 -0.828,-0.683 0,-0.383 0.217,-0.724 0.828,-0.724 0.465,0 0.838,0.238 0.993,0.496 z m 0,-2.276 v 0.362 c -0.259,-0.269 -0.714,-0.476 -1.221,-0.476 -1.014,0 -2.028,0.621 -2.028,1.935 0,1.2 0.973,1.8 2.204,1.8 0.497,0 0.817,-0.103 1.045,-0.217 V 1.397 C 0,1.78 -0.259,2.09 -0.776,2.09 c -0.652,0 -0.993,-0.093 -1.49,-0.362 l -0.548,0.993 c 0.631,0.362 1.159,0.548 2.038,0.548 1.314,0 2.204,-0.683 2.204,-1.903 v -3.642 z"
             style="fill:#4c4c4c;fill-opacity:1;fill-rule:nonzero;stroke:none"
             id="path40"
             inkscape:connector-curvature="0" /></g><g
           id="g42"
           transform="translate(134.4294,122.5995)"><path
             d="m 0,0 c -0.217,0.3 -0.548,0.465 -0.962,0.465 -0.549,0 -0.849,-0.475 -0.849,-1.386 0,-1.117 0.373,-1.583 0.932,-1.583 0.444,0 0.672,0.187 0.879,0.456 z m -0.911,-5.731 -0.506,1.075 C -0.3,-4.5 0,-4.231 0,-3.394 c -0.269,-0.237 -0.631,-0.455 -1.148,-0.455 -1.159,0 -2.111,0.87 -2.111,2.897 0,1.624 0.765,2.762 2.111,2.762 0.475,0 0.889,-0.186 1.148,-0.424 v 0.31 h 1.427 v -4.51 c 0,-1.79 -0.434,-2.71 -2.338,-2.917"
             style="fill:#4c4c4c;fill-opacity:1;fill-rule:nonzero;stroke:none"
             id="path44"
             inkscape:connector-curvature="0" /></g><g
           id="g46"
           transform="translate(139.3288,123.1683)"><path
             d="M 0,0 C -0.517,0 -0.838,-0.424 -0.89,-0.973 H 0.973 C 0.931,-0.486 0.642,0 0,0 M 2.338,-2.048 H -0.91 c 0.051,-0.745 0.599,-1.025 1.117,-1.025 0.393,0 0.724,0.145 0.931,0.383 L 2.152,-3.538 C 1.717,-4.097 0.931,-4.417 0.207,-4.417 c -1.562,0 -2.555,1.106 -2.555,2.824 0,1.665 1.044,2.834 2.42,2.834 1.449,0 2.287,-1.283 2.287,-2.834 0,-0.207 -0.01,-0.352 -0.021,-0.455"
             style="fill:#4c4c4c;fill-opacity:1;fill-rule:nonzero;stroke:none"
             id="path48"
             inkscape:connector-curvature="0" /></g><g
           id="g50"
           transform="translate(149.3991,122.1131)"><path
             d="M 0,0 H -1.924 V -1.873 H 0 c 0.704,0 1.035,0.373 1.035,0.942 C 1.035,-0.311 0.704,0 0,0 M -0.083,2.659 H -1.924 V 1.283 h 1.914 c 0.6,0 0.817,0.279 0.817,0.682 0,0.456 -0.259,0.694 -0.89,0.694 m 0.032,-5.908 h -3.29 v 7.242 h 3.32 c 1.408,0 2.297,-0.672 2.297,-1.913 0,-0.622 -0.29,-1.118 -0.765,-1.408 0.579,-0.258 1.013,-0.786 1.013,-1.583 0,-1.52 -1.024,-2.338 -2.575,-2.338"
             style="fill:#4c4c4c;fill-opacity:1;fill-rule:nonzero;stroke:none"
             id="path52"
             inkscape:connector-curvature="0" /></g><g
           id="g54"
           transform="translate(156.3356,122.6302)"><path
             d="m 0,0 c -0.228,0.207 -0.507,0.352 -0.828,0.352 -0.558,0 -0.921,-0.238 -0.921,-1.18 v -2.938 h -1.427 v 5.432 h 1.427 V 1.304 c 0.249,0.258 0.611,0.475 1.118,0.475 0.465,0 0.817,-0.186 1.004,-0.382 z"
             style="fill:#4c4c4c;fill-opacity:1;fill-rule:nonzero;stroke:none"
             id="path56"
             inkscape:connector-curvature="0" /></g><g
           id="g58"
           transform="translate(159.6032,123.034)"><path
             d="m 0,0 c -0.683,0 -1.003,-0.621 -1.003,-1.459 0,-0.838 0.32,-1.448 1.003,-1.448 0.683,0 1.014,0.693 1.014,1.448 C 1.014,-0.631 0.683,0 0,0 m 0,-4.283 c -1.417,0 -2.452,1.158 -2.452,2.824 0,1.666 1.035,2.834 2.452,2.834 1.417,0 2.462,-1.168 2.462,-2.834 0,-1.666 -1.045,-2.824 -2.462,-2.824"
             style="fill:#4c4c4c;fill-opacity:1;fill-rule:nonzero;stroke:none"
             id="path60"
             inkscape:connector-curvature="0" /></g><g
           id="g62"
           transform="translate(166.3234,118.8646)"><path
             d="M 0,0 -1.035,2.503 -1.728,1.645 V 0 h -1.427 v 6.828 l 1.427,0.714 V 4.655 c 0,-0.331 -0.01,-0.889 -0.021,-1.158 0.145,0.217 0.394,0.559 0.58,0.796 L -0.29,5.431 H 1.396 L 0,3.704 1.562,0 Z"
             style="fill:#4c4c4c;fill-opacity:1;fill-rule:nonzero;stroke:none"
             id="path64"
             inkscape:connector-curvature="0" /></g><g
           id="g66"
           transform="translate(170.6657,123.1683)"><path
             d="M 0,0 C -0.517,0 -0.838,-0.424 -0.89,-0.973 H 0.973 C 0.931,-0.486 0.642,0 0,0 M 2.338,-2.048 H -0.91 c 0.051,-0.745 0.599,-1.025 1.117,-1.025 0.393,0 0.724,0.145 0.931,0.383 L 2.152,-3.538 C 1.717,-4.097 0.931,-4.417 0.207,-4.417 c -1.562,0 -2.555,1.106 -2.555,2.824 0,1.665 1.044,2.834 2.42,2.834 1.449,0 2.287,-1.283 2.287,-2.834 0,-0.207 -0.01,-0.352 -0.021,-0.455"
             style="fill:#4c4c4c;fill-opacity:1;fill-rule:nonzero;stroke:none"
             id="path68"
             inkscape:connector-curvature="0" /></g><g
           id="g70"
           transform="translate(177.3347,122.6302)"><path
             d="m 0,0 c -0.228,0.207 -0.507,0.352 -0.828,0.352 -0.558,0 -0.921,-0.238 -0.921,-1.18 v -2.938 h -1.427 v 5.432 h 1.427 V 1.304 c 0.249,0.258 0.611,0.475 1.118,0.475 0.465,0 0.817,-0.186 1.004,-0.382 z"
             style="fill:#4c4c4c;fill-opacity:1;fill-rule:nonzero;stroke:none"
             id="path72"
             inkscape:connector-curvature="0" /></g><g
           id="g74"
           transform="translate(32.1535,84.869)"><path
             d="M 0,0 C 3.633,2.344 8.863,6.162 12.592,8.988 H 12.65 V -11.585 C 9.033,-8.078 3.689,-3.073 0,0 m -0.355,0.341 c -0.216,-0.14 -0.426,-0.272 -0.629,-0.4 -0.815,-0.511 -1.417,-0.858 -1.862,-1.092 -0.649,-0.293 -0.992,-0.379 -1.169,-0.379 -0.142,0 -0.46,0.069 -1.16,0.388 -0.421,0.225 -0.983,0.551 -1.74,1.022 l -0.075,0.047 c -0.18,0.114 -0.368,0.232 -0.56,0.355 -3.471,2.222 -8.531,5.874 -12.318,8.706 H 11.797 C 8.086,6.187 3.111,2.569 -0.355,0.341 m -7.228,-0.758 c 1,-0.571 1.715,-0.938 2.237,-1.175 0.826,-0.435 1.154,-0.507 1.331,-0.507 0.19,0 0.54,0.075 1.404,0.53 0.604,0.273 1.365,0.672 2.298,1.207 3.699,-3.081 9.083,-8.125 12.696,-11.631 -0.169,-0.093 -0.363,-0.143 -0.568,-0.143 h -31.681 c -0.124,0 -0.244,0.019 -0.359,0.055 3.603,3.53 8.952,8.582 12.642,11.664 m -13.005,9.345 c 3.801,-2.852 9.072,-6.668 12.685,-8.989 -3.712,-3.101 -9.079,-8.17 -12.685,-11.705 z m -0.719,-21.917 H 13.37 V 9.708 h -34.677 z"
             style="fill:#4c4c4c;fill-opacity:1;fill-rule:nonzero;stroke:none"
             id="path76"
             inkscape:connector-curvature="0" /></g><path
           d="M 104.909,83.072 H 45.374 v 1 h 59.535 z"
           style="fill:#4c4c4c;fill-opacity:1;fill-rule:nonzero;stroke:none"
           id="path78"
           inkscape:connector-curvature="0" /><g
           id="g80"
           transform="translate(103.9611,86.8129)"><path
             d="M 0,0 5.613,-3.241 0,-6.482 Z"
             style="fill:#4c4c4c;fill-opacity:1;fill-rule:nonzero;stroke:none"
             id="path82"
             inkscape:connector-curvature="0" /></g><g
           id="g84"
           transform="translate(9.9518,66.5253)"><path
             d="m 0,0 c -0.507,0 -0.952,-0.341 -1.231,-0.693 v -2.286 c 0.238,-0.321 0.734,-0.714 1.272,-0.714 0.766,0 1.18,0.579 1.18,1.727 C 1.221,-0.6 0.786,0 0,0 m 0.145,-4.676 c -0.549,0 -1.066,0.289 -1.366,0.62 v -1.955 l -1.055,-0.548 v 7.428 h 1.055 V 0.352 c 0.393,0.362 0.848,0.631 1.417,0.631 1.169,0 2.09,-0.848 2.09,-2.918 0,-1.862 -1.014,-2.741 -2.141,-2.741"
             style="fill:#4c4c4c;fill-opacity:1;fill-rule:nonzero;stroke:none"
             id="path86"
             inkscape:connector-curvature="0" /></g><g
           id="g88"
           transform="translate(16.8268,61.9628)"><path
             d="m 0,0 v 0.518 c -0.269,-0.394 -0.807,-0.631 -1.365,-0.631 -1.262,0 -1.935,0.827 -1.935,2.43 v 3.115 h 1.066 V 2.359 c 0,-1.096 0.413,-1.49 1.117,-1.49 C -0.403,0.869 0,1.376 0,2.256 V 5.432 H 1.066 V 0 Z"
             style="fill:#4c4c4c;fill-opacity:1;fill-rule:nonzero;stroke:none"
             id="path90"
             inkscape:connector-curvature="0" /></g><g
           id="g92"
           transform="translate(21.737,66.5253)"><path
             d="m 0,0 c -0.507,0 -0.952,-0.341 -1.231,-0.693 v -2.286 c 0.238,-0.321 0.734,-0.714 1.272,-0.714 0.766,0 1.18,0.579 1.18,1.727 C 1.221,-0.6 0.786,0 0,0 m 0.145,-4.676 c -0.549,0 -1.066,0.289 -1.366,0.62 v -0.506 h -1.055 v 6.994 l 1.055,0.547 V 0.352 c 0.393,0.362 0.848,0.631 1.417,0.631 1.169,0 2.09,-0.848 2.09,-2.918 0,-1.862 -1.014,-2.741 -2.141,-2.741"
             style="fill:#4c4c4c;fill-opacity:1;fill-rule:nonzero;stroke:none"
             id="path94"
             inkscape:connector-curvature="0" /></g><g
           id="g96"
           transform="translate(25.405,61.9628)"><path
             d="M 0,0 V 6.983 L 1.065,7.542 V 0 Z"
             style="fill:#4c4c4c;fill-opacity:1;fill-rule:nonzero;stroke:none"
             id="path98"
             inkscape:connector-curvature="0" /></g><path
           d="m 28.145,67.394 h 1.066 v -5.432 h -1.066 z m 0.538,0.704 c -0.383,0 -0.694,0.31 -0.694,0.683 0,0.383 0.311,0.692 0.694,0.692 0.372,0 0.682,-0.309 0.682,-0.692 0,-0.373 -0.31,-0.683 -0.682,-0.683"
           style="fill:#4c4c4c;fill-opacity:1;fill-rule:nonzero;stroke:none"
           id="path100"
           inkscape:connector-curvature="0" /><g
           id="g102"
           transform="translate(32.5915,61.8495)"><path
             d="M 0,0 C -0.734,0 -1.531,0.289 -2.08,0.693 L -1.593,1.5 c 0.507,-0.352 1.076,-0.538 1.583,-0.538 0.672,0 0.993,0.217 0.993,0.6 0,0.414 -0.476,0.61 -1.262,0.911 -1.169,0.455 -1.594,0.847 -1.594,1.707 0,0.971 0.766,1.479 1.852,1.479 0.683,0 1.355,-0.249 1.842,-0.6 L 1.355,4.241 C 0.911,4.552 0.466,4.707 -0.052,4.707 -0.569,4.707 -0.796,4.5 -0.796,4.21 -0.796,3.941 -0.61,3.745 0.207,3.424 1.417,2.959 2.038,2.628 2.038,1.604 2.038,0.403 1.065,0 0,0"
             style="fill:#4c4c4c;fill-opacity:1;fill-rule:nonzero;stroke:none"
             id="path104"
             inkscape:connector-curvature="0" /></g><g
           id="g106"
           transform="translate(39.2917,61.9628)"><path
             d="m 0,0 v 3.073 c 0,1.097 -0.414,1.489 -1.117,1.489 -0.714,0 -1.117,-0.506 -1.117,-1.385 V 0 H -3.3 v 6.983 l 1.066,0.559 V 4.914 c 0.268,0.394 0.806,0.632 1.365,0.632 1.262,0 1.934,-0.828 1.934,-2.432 V 0 Z"
             style="fill:#4c4c4c;fill-opacity:1;fill-rule:nonzero;stroke:none"
             id="path108"
             inkscape:connector-curvature="0" /></g><g
           id="g110"
           transform="translate(43.9323,66.5458)"><path
             d="M 0,0 C -0.714,0 -1.148,-0.496 -1.241,-1.365 H 1.283 C 1.231,-0.62 0.879,0 0,0 m 2.328,-2.245 h -3.59 c 0.114,-1.045 0.703,-1.489 1.366,-1.489 0.455,0 0.817,0.165 1.179,0.434 L 1.914,-3.982 C 1.438,-4.437 0.869,-4.696 0.042,-4.696 c -1.273,0 -2.349,1.024 -2.349,2.824 0,1.842 0.973,2.835 2.38,2.835 1.541,0 2.286,-1.252 2.286,-2.722 0,-0.196 -0.021,-0.372 -0.031,-0.486"
             style="fill:#4c4c4c;fill-opacity:1;fill-rule:nonzero;stroke:none"
             id="path112"
             inkscape:connector-curvature="0" /></g><g
           id="g114"
           transform="translate(50.5598,66.2665)"><path
             d="m 0,0 c -0.228,0.124 -0.466,0.197 -0.817,0.197 -0.673,0 -1.066,-0.476 -1.066,-1.397 v -3.104 h -1.066 v 5.432 h 1.066 V 0.61 c 0.248,0.363 0.703,0.632 1.241,0.632 0.435,0 0.704,-0.083 0.921,-0.228 z"
             style="fill:#4c4c4c;fill-opacity:1;fill-rule:nonzero;stroke:none"
             id="path116"
             inkscape:connector-curvature="0" /></g><path
           d="m 11.541,17.116 h 1.086 V 9.874 h -1.086 z"
           style="fill:#4c4c4c;fill-opacity:1;fill-rule:nonzero;stroke:none"
           id="path118"
           inkscape:connector-curvature="0" /><g
           id="g120"
           transform="translate(17.7043,9.8739)"><path
             d="m 0,0 v 3.073 c 0,1.097 -0.414,1.489 -1.117,1.489 -0.714,0 -1.117,-0.506 -1.117,-1.385 V 0 H -3.3 v 5.432 h 1.066 V 4.914 c 0.268,0.394 0.806,0.632 1.365,0.632 1.262,0 1.934,-0.828 1.934,-2.432 V 0 Z"
             style="fill:#4c4c4c;fill-opacity:1;fill-rule:nonzero;stroke:none"
             id="path122"
             inkscape:connector-curvature="0" /></g><g
           id="g124"
           transform="translate(22.6052,9.8739)"><path
             d="m 0,0 h -1.066 l -1.945,5.432 h 1.117 l 0.973,-2.949 c 0.176,-0.528 0.331,-1.035 0.403,-1.335 0.063,0.3 0.207,0.807 0.373,1.335 l 0.931,2.949 h 1.128 z"
             style="fill:#4c4c4c;fill-opacity:1;fill-rule:nonzero;stroke:none"
             id="path126"
             inkscape:connector-curvature="0" /></g><g
           id="g128"
           transform="translate(27.5764,14.4051)"><path
             d="m 0,0 c -0.807,0 -1.304,-0.714 -1.304,-1.789 0,-1.19 0.549,-1.842 1.356,-1.842 0.806,0 1.334,0.818 1.334,1.811 C 1.386,-0.714 0.858,0 0,0 m 0.01,-4.645 c -1.365,0 -2.389,1.127 -2.389,2.825 0,1.779 1.055,2.835 2.42,2.835 1.387,0 2.421,-1.108 2.421,-2.804 0,-1.801 -1.055,-2.856 -2.452,-2.856"
             style="fill:#4c4c4c;fill-opacity:1;fill-rule:nonzero;stroke:none"
             id="path130"
             inkscape:connector-curvature="0" /></g><g
           id="g132"
           transform="translate(34.4411,9.8739)"><path
             d="M 0,0 -1.2,2.7 -2.027,1.604 V 0 h -1.066 v 6.983 l 1.066,0.559 V 4.118 c 0,-0.331 -0.011,-0.889 -0.011,-1.159 0.145,0.218 0.424,0.631 0.6,0.89 L -0.31,5.432 H 0.9 L -0.476,3.61 1.159,0 Z"
             style="fill:#4c4c4c;fill-opacity:1;fill-rule:nonzero;stroke:none"
             id="path134"
             inkscape:connector-curvature="0" /></g><g
           id="g136"
           transform="translate(38.6076,14.4569)"><path
             d="M 0,0 C -0.714,0 -1.148,-0.496 -1.241,-1.365 H 1.283 C 1.231,-0.62 0.879,0 0,0 m 2.328,-2.245 h -3.59 c 0.114,-1.045 0.703,-1.489 1.366,-1.489 0.455,0 0.817,0.165 1.179,0.434 L 1.914,-3.982 C 1.438,-4.437 0.869,-4.696 0.042,-4.696 c -1.273,0 -2.349,1.024 -2.349,2.824 0,1.842 0.973,2.835 2.38,2.835 1.541,0 2.286,-1.252 2.286,-2.722 0,-0.196 -0.021,-0.372 -0.031,-0.486"
             style="fill:#4c4c4c;fill-opacity:1;fill-rule:nonzero;stroke:none"
             id="path138"
             inkscape:connector-curvature="0" /></g><g
           id="g140"
           transform="translate(45.235,14.1776)"><path
             d="m 0,0 c -0.228,0.124 -0.466,0.197 -0.817,0.197 -0.673,0 -1.066,-0.476 -1.066,-1.397 v -3.104 h -1.066 v 5.432 h 1.066 V 0.61 c 0.248,0.363 0.703,0.632 1.241,0.632 0.435,0 0.704,-0.083 0.921,-0.228 z"
             style="fill:#4c4c4c;fill-opacity:1;fill-rule:nonzero;stroke:none"
             id="path142"
             inkscape:connector-curvature="0" /></g><g
           id="g144"
           transform="translate(142.8049,9.8739)"><path
             d="M 0,0 H -1.097 L -2.225,4.677 C -2.287,4.925 -2.4,5.463 -2.431,5.639 -2.462,5.463 -2.576,4.925 -2.638,4.677 L -3.818,0 h -1.076 l -1.479,7.242 h 1.097 l 0.869,-4.573 c 0.041,-0.217 0.134,-0.714 0.165,-0.951 0.042,0.237 0.145,0.723 0.197,0.941 l 1.158,4.583 h 0.931 l 1.18,-4.686 c 0.051,-0.197 0.134,-0.579 0.176,-0.838 0.052,0.268 0.114,0.672 0.144,0.848 l 0.88,4.676 h 1.055 z"
             style="fill:#4c4c4c;fill-opacity:1;fill-rule:nonzero;stroke:none"
             id="path146"
             inkscape:connector-curvature="0" /></g><g
           id="g148"
           transform="translate(147.238,14.4051)"><path
             d="m 0,0 c -0.807,0 -1.304,-0.714 -1.304,-1.789 0,-1.19 0.549,-1.842 1.356,-1.842 0.806,0 1.334,0.818 1.334,1.811 C 1.386,-0.714 0.858,0 0,0 m 0.01,-4.645 c -1.365,0 -2.389,1.127 -2.389,2.825 0,1.779 1.055,2.835 2.42,2.835 1.387,0 2.421,-1.108 2.421,-2.804 0,-1.801 -1.055,-2.856 -2.452,-2.856"
             style="fill:#4c4c4c;fill-opacity:1;fill-rule:nonzero;stroke:none"
             id="path150"
             inkscape:connector-curvature="0" /></g><g
           id="g152"
           transform="translate(153.9582,14.1776)"><path
             d="m 0,0 c -0.228,0.124 -0.466,0.197 -0.817,0.197 -0.673,0 -1.066,-0.476 -1.066,-1.397 v -3.104 h -1.066 v 5.432 h 1.066 V 0.61 c 0.248,0.363 0.703,0.632 1.241,0.632 0.435,0 0.704,-0.083 0.921,-0.228 z"
             style="fill:#4c4c4c;fill-opacity:1;fill-rule:nonzero;stroke:none"
             id="path154"
             inkscape:connector-curvature="0" /></g><g
           id="g156"
           transform="translate(158.424,9.8739)"><path
             d="M 0,0 -1.2,2.7 -2.027,1.604 V 0 h -1.066 v 6.983 l 1.066,0.559 V 4.118 c 0,-0.331 -0.011,-0.889 -0.011,-1.159 0.145,0.218 0.424,0.631 0.6,0.89 L -0.31,5.432 H 0.9 L -0.476,3.61 1.159,0 Z"
             style="fill:#4c4c4c;fill-opacity:1;fill-rule:nonzero;stroke:none"
             id="path158"
             inkscape:connector-curvature="0" /></g><g
           id="g160"
           transform="translate(166.4665,16.1434)"><path
             d="m 0,0 c -1.262,0 -1.955,-1.024 -1.955,-2.648 0,-1.624 0.693,-2.669 1.955,-2.669 0.197,0 0.342,0.02 0.486,0.051 l -0.527,0.818 0.89,0.558 0.527,-0.828 c 0.414,0.455 0.59,1.169 0.59,2.07 C 1.966,-1.024 1.272,0 0,0 M 1.956,-5.617 2.442,-6.373 1.552,-6.932 1.066,-6.187 C 0.745,-6.311 0.383,-6.383 0,-6.383 c -1.873,0 -3.062,1.541 -3.062,3.735 0,2.193 1.189,3.734 3.062,3.734 1.883,0 3.073,-1.541 3.073,-3.734 0,-1.273 -0.425,-2.318 -1.117,-2.969"
             style="fill:#4c4c4c;fill-opacity:1;fill-rule:nonzero;stroke:none"
             id="path162"
             inkscape:connector-curvature="0" /></g><g
           id="g164"
           transform="translate(174.1789,9.8739)"><path
             d="m 0,0 v 0.518 c -0.269,-0.394 -0.807,-0.631 -1.365,-0.631 -1.262,0 -1.935,0.827 -1.935,2.43 v 3.115 h 1.066 V 2.359 c 0,-1.096 0.413,-1.49 1.117,-1.49 C -0.403,0.869 0,1.376 0,2.256 V 5.432 H 1.066 V 0 Z"
             style="fill:#4c4c4c;fill-opacity:1;fill-rule:nonzero;stroke:none"
             id="path166"
             inkscape:connector-curvature="0" /></g><g
           id="g168"
           transform="translate(178.861,14.4569)"><path
             d="M 0,0 C -0.714,0 -1.148,-0.496 -1.241,-1.365 H 1.283 C 1.231,-0.62 0.879,0 0,0 m 2.328,-2.245 h -3.59 c 0.114,-1.045 0.703,-1.489 1.366,-1.489 0.455,0 0.817,0.165 1.179,0.434 L 1.914,-3.982 C 1.438,-4.437 0.869,-4.696 0.042,-4.696 c -1.273,0 -2.349,1.024 -2.349,2.824 0,1.842 0.973,2.835 2.38,2.835 1.541,0 2.286,-1.252 2.286,-2.722 0,-0.196 -0.021,-0.372 -0.031,-0.486"
             style="fill:#4c4c4c;fill-opacity:1;fill-rule:nonzero;stroke:none"
             id="path170"
             inkscape:connector-curvature="0" /></g><g
           id="g172"
           transform="translate(185.7985,9.8739)"><path
             d="m 0,0 v 0.518 c -0.269,-0.394 -0.807,-0.631 -1.365,-0.631 -1.262,0 -1.935,0.827 -1.935,2.43 v 3.115 h 1.066 V 2.359 c 0,-1.096 0.413,-1.49 1.117,-1.49 C -0.403,0.869 0,1.376 0,2.256 V 5.432 H 1.066 V 0 Z"
             style="fill:#4c4c4c;fill-opacity:1;fill-rule:nonzero;stroke:none"
             id="path174"
             inkscape:connector-curvature="0" /></g><g
           id="g176"
           transform="translate(190.4807,14.4569)"><path
             d="M 0,0 C -0.714,0 -1.148,-0.496 -1.241,-1.365 H 1.283 C 1.231,-0.62 0.879,0 0,0 m 2.328,-2.245 h -3.59 c 0.114,-1.045 0.703,-1.489 1.366,-1.489 0.455,0 0.817,0.165 1.179,0.434 L 1.914,-3.982 C 1.438,-4.437 0.869,-4.696 0.042,-4.696 c -1.273,0 -2.349,1.024 -2.349,2.824 0,1.842 0.973,2.835 2.38,2.835 1.541,0 2.286,-1.252 2.286,-2.722 0,-0.196 -0.021,-0.372 -0.031,-0.486"
             style="fill:#4c4c4c;fill-opacity:1;fill-rule:nonzero;stroke:none"
             id="path178"
             inkscape:connector-curvature="0" /></g><g
           id="g180"
           transform="translate(342.9753,9.8739)"><path
             d="M 0,0 H -1.097 L -2.225,4.677 C -2.287,4.925 -2.4,5.463 -2.432,5.639 -2.463,5.463 -2.576,4.925 -2.639,4.677 L -3.818,0 h -1.076 l -1.479,7.242 h 1.097 l 0.869,-4.573 c 0.041,-0.217 0.134,-0.714 0.165,-0.951 0.042,0.237 0.144,0.723 0.196,0.941 l 1.159,4.583 h 0.931 l 1.18,-4.686 c 0.051,-0.197 0.134,-0.579 0.175,-0.838 0.052,0.268 0.115,0.672 0.145,0.848 l 0.88,4.676 h 1.055 z"
             style="fill:#4c4c4c;fill-opacity:1;fill-rule:nonzero;stroke:none"
             id="path182"
             inkscape:connector-curvature="0" /></g><g
           id="g184"
           transform="translate(347.4079,14.4051)"><path
             d="m 0,0 c -0.807,0 -1.304,-0.714 -1.304,-1.789 0,-1.19 0.549,-1.842 1.356,-1.842 0.806,0 1.335,0.818 1.335,1.811 C 1.387,-0.714 0.858,0 0,0 m 0.011,-4.645 c -1.366,0 -2.39,1.127 -2.39,2.825 0,1.779 1.055,2.835 2.42,2.835 1.387,0 2.421,-1.108 2.421,-2.804 0,-1.801 -1.055,-2.856 -2.451,-2.856"
             style="fill:#4c4c4c;fill-opacity:1;fill-rule:nonzero;stroke:none"
             id="path186"
             inkscape:connector-curvature="0" /></g><g
           id="g188"
           transform="translate(354.1286,14.1776)"><path
             d="m 0,0 c -0.228,0.124 -0.466,0.197 -0.817,0.197 -0.673,0 -1.066,-0.476 -1.066,-1.397 v -3.104 h -1.066 v 5.432 h 1.066 V 0.61 c 0.248,0.363 0.703,0.632 1.241,0.632 0.435,0 0.704,-0.083 0.921,-0.228 z"
             style="fill:#4c4c4c;fill-opacity:1;fill-rule:nonzero;stroke:none"
             id="path190"
             inkscape:connector-curvature="0" /></g><g
           id="g192"
           transform="translate(358.5944,9.8739)"><path
             d="M 0,0 -1.2,2.7 -2.027,1.604 V 0 h -1.067 v 6.983 l 1.067,0.559 V 4.118 c 0,-0.331 -0.011,-0.889 -0.011,-1.159 0.144,0.218 0.424,0.631 0.6,0.89 l 1.127,1.583 H 0.9 L -0.476,3.61 1.158,0 Z"
             style="fill:#4c4c4c;fill-opacity:1;fill-rule:nonzero;stroke:none"
             id="path194"
             inkscape:connector-curvature="0" /></g><g
           id="g196"
           transform="translate(362.7604,14.4569)"><path
             d="M 0,0 C -0.714,0 -1.147,-0.496 -1.241,-1.365 H 1.283 C 1.231,-0.62 0.88,0 0,0 m 2.328,-2.245 h -3.59 c 0.115,-1.045 0.703,-1.489 1.366,-1.489 0.456,0 0.817,0.165 1.179,0.434 L 1.914,-3.982 C 1.438,-4.437 0.869,-4.696 0.042,-4.696 c -1.272,0 -2.349,1.024 -2.349,2.824 0,1.842 0.973,2.835 2.38,2.835 1.541,0 2.286,-1.252 2.286,-2.722 0,-0.196 -0.02,-0.372 -0.031,-0.486"
             style="fill:#4c4c4c;fill-opacity:1;fill-rule:nonzero;stroke:none"
             id="path198"
             inkscape:connector-curvature="0" /></g><g
           id="g200"
           transform="translate(369.3884,14.1776)"><path
             d="m 0,0 c -0.228,0.124 -0.466,0.197 -0.817,0.197 -0.673,0 -1.066,-0.476 -1.066,-1.397 v -3.104 h -1.066 v 5.432 h 1.066 V 0.61 c 0.248,0.363 0.703,0.632 1.241,0.632 0.435,0 0.704,-0.083 0.921,-0.228 z"
             style="fill:#4c4c4c;fill-opacity:1;fill-rule:nonzero;stroke:none"
             id="path202"
             inkscape:connector-curvature="0" /></g><g
           id="g204"
           transform="translate(372.3122,9.7606)"><path
             d="M 0,0 C -0.734,0 -1.531,0.289 -2.079,0.693 L -1.593,1.5 c 0.507,-0.352 1.076,-0.538 1.583,-0.538 0.672,0 0.993,0.217 0.993,0.6 0,0.414 -0.476,0.61 -1.262,0.911 -1.169,0.455 -1.593,0.847 -1.593,1.707 0,0.971 0.766,1.479 1.851,1.479 0.683,0 1.356,-0.249 1.842,-0.6 L 1.355,4.241 C 0.911,4.552 0.466,4.707 -0.052,4.707 -0.568,4.707 -0.796,4.5 -0.796,4.21 -0.796,3.941 -0.61,3.745 0.207,3.424 1.418,2.959 2.038,2.628 2.038,1.604 2.038,0.403 1.065,0 0,0"
             style="fill:#4c4c4c;fill-opacity:1;fill-rule:nonzero;stroke:none"
             id="path206"
             inkscape:connector-curvature="0" /></g><path
           d="m 129.156,97.476 h 17.916 V 70.878 h -17.916 z"
           style="fill:#ffffff;fill-opacity:1;fill-rule:evenodd;stroke:none"
           id="path208"
           inkscape:connector-curvature="0" /><path
           d="m 129.656,71.378 h 16.916 v 25.598 h -16.916 z m 17.416,-1 h -17.916 c -0.276,0 -0.5,0.223 -0.5,0.5 v 26.598 c 0,0.276 0.224,0.5 0.5,0.5 h 17.916 c 0.276,0 0.5,-0.224 0.5,-0.5 V 70.878 c 0,-0.277 -0.224,-0.5 -0.5,-0.5"
           style="fill:#4c4c4c;fill-opacity:1;fill-rule:nonzero;stroke:none"
           id="path210"
           inkscape:connector-curvature="0" /><path
           d="m 147.072,97.476 h 17.917 V 70.878 h -17.917 z"
           style="fill:#ffffff;fill-opacity:1;fill-rule:evenodd;stroke:none"
           id="path212"
           inkscape:connector-curvature="0" /><path
           d="m 147.572,71.378 h 16.917 v 25.598 h -16.917 z m 17.416,-1 h -17.916 c -0.276,0 -0.5,0.223 -0.5,0.5 v 26.598 c 0,0.276 0.224,0.5 0.5,0.5 h 17.916 c 0.277,0 0.5,-0.224 0.5,-0.5 V 70.878 c 0,-0.277 -0.223,-0.5 -0.5,-0.5"
           style="fill:#4c4c4c;fill-opacity:1;fill-rule:nonzero;stroke:none"
           id="path214"
           inkscape:connector-curvature="0" /><path
           d="m 164.988,97.476 h 17.916 V 70.878 h -17.916 z"
           style="fill:#ffffff;fill-opacity:1;fill-rule:evenodd;stroke:none"
           id="path216"
           inkscape:connector-curvature="0" /><path
           d="m 165.488,71.378 h 16.916 v 25.598 h -16.916 z m 17.416,-1 h -17.916 c -0.276,0 -0.5,0.223 -0.5,0.5 v 26.598 c 0,0.276 0.224,0.5 0.5,0.5 h 17.916 c 0.277,0 0.5,-0.224 0.5,-0.5 V 70.878 c 0,-0.277 -0.223,-0.5 -0.5,-0.5"
           style="fill:#4c4c4c;fill-opacity:1;fill-rule:nonzero;stroke:none"
           id="path218"
           inkscape:connector-curvature="0" /><path
           d="m 111.24,97.476 h 17.916 V 70.878 H 111.24 Z"
           style="fill:#ffffff;fill-opacity:1;fill-rule:evenodd;stroke:none"
           id="path220"
           inkscape:connector-curvature="0" /><path
           d="m 111.74,71.378 h 16.916 V 96.976 H 111.74 Z m 17.416,-1 H 111.24 c -0.276,0 -0.5,0.223 -0.5,0.5 v 26.598 c 0,0.276 0.224,0.5 0.5,0.5 h 17.916 c 0.276,0 0.5,-0.224 0.5,-0.5 V 70.878 c 0,-0.277 -0.224,-0.5 -0.5,-0.5"
           style="fill:#4c4c4c;fill-opacity:1;fill-rule:nonzero;stroke:none"
           id="path222"
           inkscape:connector-curvature="0" /><path
           d="M 182.904,97.476 H 200.82 V 70.878 h -17.916 z"
           style="fill:#ffffff;fill-opacity:1;fill-rule:evenodd;stroke:none"
           id="path224"
           inkscape:connector-curvature="0" /><path
           d="m 183.404,71.378 h 16.916 v 25.598 h -16.916 z m 17.416,-1 h -17.916 c -0.276,0 -0.5,0.223 -0.5,0.5 v 26.598 c 0,0.276 0.224,0.5 0.5,0.5 h 17.916 c 0.277,0 0.5,-0.224 0.5,-0.5 V 70.878 c 0,-0.277 -0.223,-0.5 -0.5,-0.5"
           style="fill:#4c4c4c;fill-opacity:1;fill-rule:nonzero;stroke:none"
           id="path226"
           inkscape:connector-curvature="0" /><path
           d="m 200.82,97.476 h 17.917 V 70.878 H 200.82 Z"
           style="fill:#ffffff;fill-opacity:1;fill-rule:evenodd;stroke:none"
           id="path228"
           inkscape:connector-curvature="0" /><path
           d="m 201.32,71.378 h 16.917 V 96.976 H 201.32 Z m 17.417,-1 H 200.82 c -0.276,0 -0.5,0.223 -0.5,0.5 v 26.598 c 0,0.276 0.224,0.5 0.5,0.5 h 17.917 c 0.276,0 0.5,-0.224 0.5,-0.5 V 70.878 c 0,-0.277 -0.224,-0.5 -0.5,-0.5"
           style="fill:#4c4c4c;fill-opacity:1;fill-rule:nonzero;stroke:none"
           id="path230"
           inkscape:connector-curvature="0" /><g
           id="g232"
           transform="translate(351.4313,120.1844)"><path
             d="m 0,0 c -0.43,0.439 -0.81,0.64 -1.279,0.64 -0.75,0 -1.23,-0.67 -1.23,-1.74 0,-1.029 0.44,-1.769 1.26,-1.769 0.489,0 0.779,0.221 1.189,0.65 l 0.66,-0.65 c -0.411,-0.52 -0.93,-0.98 -1.879,-0.98 -1.28,0 -2.269,1.08 -2.269,2.719 0,1.739 1.02,2.749 2.299,2.749 0.77,0 1.369,-0.31 1.858,-0.89 z"
             style="fill:#4c4c4c;fill-opacity:1;fill-rule:nonzero;stroke:none"
             id="path234"
             inkscape:connector-curvature="0" /></g><g
           id="g236"
           transform="translate(355.2311,120.8241)"><path
             d="m 0,0 c -0.78,0 -1.26,-0.69 -1.26,-1.729 0,-1.15 0.531,-1.78 1.31,-1.78 0.779,0 1.289,0.79 1.289,1.749 C 1.339,-0.69 0.829,0 0,0 m 0.01,-4.488 c -1.32,0 -2.309,1.09 -2.309,2.728 0,1.72 1.02,2.739 2.339,2.739 1.339,0 2.338,-1.069 2.338,-2.708 0,-1.74 -1.02,-2.759 -2.368,-2.759"
             style="fill:#4c4c4c;fill-opacity:1;fill-rule:nonzero;stroke:none"
             id="path238"
             inkscape:connector-curvature="0" /></g><g
           id="g240"
           transform="translate(362.07,116.4462)"><path
             d="m 0,0 v 2.969 c 0,1.058 -0.4,1.438 -1.079,1.438 -0.691,0 -1.08,-0.489 -1.08,-1.339 V 0 h -1.029 v 5.247 h 1.029 v -0.5 c 0.26,0.38 0.779,0.61 1.319,0.61 1.22,0 1.869,-0.799 1.869,-2.348 L 1.029,0 Z"
             style="fill:#4c4c4c;fill-opacity:1;fill-rule:nonzero;stroke:none"
             id="path242"
             inkscape:connector-curvature="0" /></g><g
           id="g244"
           transform="translate(366.28,116.3358)"><path
             d="m 0,0 c -0.709,0 -1.479,0.28 -2.009,0.67 l 0.47,0.779 c 0.49,-0.34 1.04,-0.519 1.529,-0.519 0.65,0 0.96,0.21 0.96,0.58 0,0.399 -0.46,0.59 -1.22,0.879 -1.128,0.44 -1.539,0.82 -1.539,1.649 0,0.94 0.74,1.43 1.789,1.43 0.66,0 1.31,-0.24 1.78,-0.58 L 1.31,4.099 c -0.43,0.299 -0.86,0.449 -1.36,0.449 -0.499,0 -0.72,-0.2 -0.72,-0.48 0,-0.259 0.181,-0.45 0.97,-0.759 C 1.37,2.858 1.97,2.539 1.97,1.55 1.97,0.391 1.03,0 0,0"
             style="fill:#4c4c4c;fill-opacity:1;fill-rule:nonzero;stroke:none"
             id="path246"
             inkscape:connector-curvature="0" /></g><g
           id="g248"
           transform="translate(372.7194,116.4462)"><path
             d="m 0,0 v 0.5 c -0.26,-0.38 -0.779,-0.61 -1.319,-0.61 -1.22,0 -1.869,0.799 -1.869,2.348 v 3.009 h 1.029 V 2.278 c 0,-1.058 0.4,-1.438 1.08,-1.438 C -0.39,0.84 0,1.329 0,2.179 V 5.247 H 1.029 V 0 Z"
             style="fill:#4c4c4c;fill-opacity:1;fill-rule:nonzero;stroke:none"
             id="path250"
             inkscape:connector-curvature="0" /></g><g
           id="g252"
           transform="translate(381.3679,116.4462)"><path
             d="m 0,0 v 2.969 c 0,1.058 -0.33,1.438 -1.01,1.438 -0.689,0 -1.01,-0.489 -1.01,-1.339 V 0 h -1.029 v 2.969 c 0,1.058 -0.33,1.438 -1.01,1.438 -0.689,0 -1.008,-0.489 -1.008,-1.339 V 0 h -1.03 v 5.247 h 1.03 v -0.5 c 0.259,0.38 0.709,0.61 1.249,0.61 0.71,0 1.159,-0.27 1.439,-0.769 0.38,0.47 0.789,0.769 1.608,0.769 1.22,0 1.8,-0.799 1.8,-2.348 L 1.029,0 Z"
             style="fill:#4c4c4c;fill-opacity:1;fill-rule:nonzero;stroke:none"
             id="path254"
             inkscape:connector-curvature="0" /></g><g
           id="g256"
           transform="translate(385.8591,120.8739)"><path
             d="M 0,0 C -0.689,0 -1.109,-0.479 -1.199,-1.319 H 1.24 C 1.189,-0.6 0.85,0 0,0 m 2.249,-2.169 h -3.468 c 0.11,-1.01 0.68,-1.439 1.32,-1.439 0.439,0 0.789,0.16 1.139,0.42 l 0.61,-0.66 c -0.46,-0.44 -1.01,-0.69 -1.81,-0.69 -1.228,0 -2.269,0.99 -2.269,2.728 0,1.78 0.94,2.74 2.299,2.74 1.49,0 2.209,-1.21 2.209,-2.629 0,-0.19 -0.02,-0.36 -0.03,-0.47"
             style="fill:#4c4c4c;fill-opacity:1;fill-rule:nonzero;stroke:none"
             id="path258"
             inkscape:connector-curvature="0" /></g><g
           id="g260"
           transform="translate(392.2692,120.6044)"><path
             d="m 0,0 c -0.22,0.119 -0.45,0.189 -0.79,0.189 -0.649,0 -1.029,-0.46 -1.029,-1.349 v -2.998 h -1.03 v 5.247 h 1.03 v -0.5 c 0.24,0.35 0.679,0.61 1.199,0.61 0.42,0 0.68,-0.08 0.89,-0.22 z"
             style="fill:#4c4c4c;fill-opacity:1;fill-rule:nonzero;stroke:none"
             id="path262"
             inkscape:connector-curvature="0" /></g><g
           id="g264"
           transform="translate(399.5983,120.6542)"><path
             d="m 0,0 c -0.17,0.499 -0.449,1.309 -0.529,1.608 -0.08,-0.299 -0.33,-1.098 -0.51,-1.619 l -0.56,-1.598 h 2.16 z m 1.47,-4.208 -0.59,1.659 h -2.799 l -0.579,-1.659 h -1.09 l 2.519,6.996 H 0.04 l 2.549,-6.996 z"
             style="fill:#4c4c4c;fill-opacity:1;fill-rule:nonzero;stroke:none"
             id="path266"
             inkscape:connector-curvature="0" /></g><g
           id="g268"
           transform="translate(351.4313,85.1844)"><path
             d="m 0,0 c -0.43,0.439 -0.81,0.64 -1.279,0.64 -0.75,0 -1.23,-0.67 -1.23,-1.74 0,-1.029 0.44,-1.769 1.26,-1.769 0.489,0 0.779,0.221 1.189,0.65 l 0.66,-0.65 c -0.411,-0.52 -0.93,-0.98 -1.879,-0.98 -1.28,0 -2.269,1.08 -2.269,2.719 0,1.739 1.02,2.749 2.299,2.749 0.77,0 1.369,-0.31 1.858,-0.89 z"
             style="fill:#4c4c4c;fill-opacity:1;fill-rule:nonzero;stroke:none"
             id="path270"
             inkscape:connector-curvature="0" /></g><g
           id="g272"
           transform="translate(355.2311,85.8241)"><path
             d="m 0,0 c -0.78,0 -1.26,-0.69 -1.26,-1.729 0,-1.15 0.531,-1.78 1.31,-1.78 0.779,0 1.289,0.79 1.289,1.749 C 1.339,-0.69 0.829,0 0,0 m 0.01,-4.488 c -1.32,0 -2.309,1.09 -2.309,2.728 0,1.72 1.02,2.739 2.339,2.739 1.339,0 2.338,-1.069 2.338,-2.708 0,-1.74 -1.02,-2.759 -2.368,-2.759"
             style="fill:#4c4c4c;fill-opacity:1;fill-rule:nonzero;stroke:none"
             id="path274"
             inkscape:connector-curvature="0" /></g><g
           id="g276"
           transform="translate(362.07,81.4462)"><path
             d="m 0,0 v 2.969 c 0,1.058 -0.4,1.438 -1.079,1.438 -0.691,0 -1.08,-0.489 -1.08,-1.339 V 0 h -1.029 v 5.247 h 1.029 v -0.5 c 0.26,0.38 0.779,0.61 1.319,0.61 1.22,0 1.869,-0.799 1.869,-2.348 L 1.029,0 Z"
             style="fill:#4c4c4c;fill-opacity:1;fill-rule:nonzero;stroke:none"
             id="path278"
             inkscape:connector-curvature="0" /></g><g
           id="g280"
           transform="translate(366.28,81.3358)"><path
             d="m 0,0 c -0.709,0 -1.479,0.28 -2.009,0.67 l 0.47,0.779 c 0.49,-0.34 1.04,-0.519 1.529,-0.519 0.65,0 0.96,0.21 0.96,0.58 0,0.399 -0.46,0.59 -1.22,0.879 -1.128,0.44 -1.539,0.82 -1.539,1.649 0,0.94 0.74,1.43 1.789,1.43 0.66,0 1.31,-0.24 1.78,-0.58 L 1.31,4.099 c -0.43,0.299 -0.86,0.449 -1.36,0.449 -0.499,0 -0.72,-0.2 -0.72,-0.48 0,-0.259 0.181,-0.45 0.97,-0.759 C 1.37,2.858 1.97,2.539 1.97,1.55 1.97,0.391 1.03,0 0,0"
             style="fill:#4c4c4c;fill-opacity:1;fill-rule:nonzero;stroke:none"
             id="path282"
             inkscape:connector-curvature="0" /></g><g
           id="g284"
           transform="translate(372.7194,81.4462)"><path
             d="m 0,0 v 0.5 c -0.26,-0.38 -0.779,-0.61 -1.319,-0.61 -1.22,0 -1.869,0.799 -1.869,2.348 v 3.009 h 1.029 V 2.278 c 0,-1.058 0.4,-1.438 1.08,-1.438 C -0.39,0.84 0,1.329 0,2.179 V 5.247 H 1.029 V 0 Z"
             style="fill:#4c4c4c;fill-opacity:1;fill-rule:nonzero;stroke:none"
             id="path286"
             inkscape:connector-curvature="0" /></g><g
           id="g288"
           transform="translate(381.3679,81.4462)"><path
             d="m 0,0 v 2.969 c 0,1.058 -0.33,1.438 -1.01,1.438 -0.689,0 -1.01,-0.489 -1.01,-1.339 V 0 h -1.029 v 2.969 c 0,1.058 -0.33,1.438 -1.01,1.438 -0.689,0 -1.008,-0.489 -1.008,-1.339 V 0 h -1.03 v 5.247 h 1.03 v -0.5 c 0.259,0.38 0.709,0.61 1.249,0.61 0.71,0 1.159,-0.27 1.439,-0.769 0.38,0.47 0.789,0.769 1.608,0.769 1.22,0 1.8,-0.799 1.8,-2.348 L 1.029,0 Z"
             style="fill:#4c4c4c;fill-opacity:1;fill-rule:nonzero;stroke:none"
             id="path290"
             inkscape:connector-curvature="0" /></g><g
           id="g292"
           transform="translate(385.8591,85.8739)"><path
             d="M 0,0 C -0.689,0 -1.109,-0.479 -1.199,-1.319 H 1.24 C 1.189,-0.6 0.85,0 0,0 m 2.249,-2.169 h -3.468 c 0.11,-1.01 0.68,-1.439 1.32,-1.439 0.439,0 0.789,0.16 1.139,0.42 l 0.61,-0.66 c -0.46,-0.44 -1.01,-0.69 -1.81,-0.69 -1.228,0 -2.269,0.99 -2.269,2.728 0,1.78 0.94,2.74 2.299,2.74 1.49,0 2.209,-1.21 2.209,-2.629 0,-0.19 -0.02,-0.36 -0.03,-0.47"
             style="fill:#4c4c4c;fill-opacity:1;fill-rule:nonzero;stroke:none"
             id="path294"
             inkscape:connector-curvature="0" /></g><g
           id="g296"
           transform="translate(392.2692,85.6044)"><path
             d="m 0,0 c -0.22,0.119 -0.45,0.189 -0.79,0.189 -0.649,0 -1.029,-0.46 -1.029,-1.349 v -2.998 h -1.03 v 5.247 h 1.03 v -0.5 c 0.24,0.35 0.679,0.61 1.199,0.61 0.42,0 0.68,-0.08 0.89,-0.22 z"
             style="fill:#4c4c4c;fill-opacity:1;fill-rule:nonzero;stroke:none"
             id="path298"
             inkscape:connector-curvature="0" /></g><g
           id="g300"
           transform="translate(399.3386,84.7245)"><path
             d="m 0,0 h -1.898 v -2.319 h 1.869 c 0.928,0 1.268,0.47 1.268,1.16 C 1.239,-0.439 0.79,0 0,0 m -0.02,2.759 h -1.878 v -1.81 h 1.878 c 0.69,0 0.97,0.43 0.97,0.89 0,0.519 -0.27,0.92 -0.97,0.92 m -0.089,-6.037 h -2.779 v 6.996 h 2.878 c 1.22,0 2.009,-0.64 2.009,-1.82 0,-0.709 -0.38,-1.149 -0.89,-1.398 0.55,-0.15 1.18,-0.66 1.18,-1.63 0,-1.419 -0.869,-2.148 -2.398,-2.148"
             style="fill:#4c4c4c;fill-opacity:1;fill-rule:nonzero;stroke:none"
             id="path302"
             inkscape:connector-curvature="0" /></g><g
           id="g304"
           transform="translate(351.4313,49.1844)"><path
             d="m 0,0 c -0.43,0.439 -0.81,0.64 -1.279,0.64 -0.75,0 -1.23,-0.67 -1.23,-1.74 0,-1.029 0.44,-1.769 1.26,-1.769 0.489,0 0.779,0.221 1.189,0.65 l 0.66,-0.65 c -0.411,-0.52 -0.93,-0.98 -1.879,-0.98 -1.28,0 -2.269,1.08 -2.269,2.719 0,1.739 1.02,2.749 2.299,2.749 0.77,0 1.369,-0.31 1.858,-0.89 z"
             style="fill:#4c4c4c;fill-opacity:1;fill-rule:nonzero;stroke:none"
             id="path306"
             inkscape:connector-curvature="0" /></g><g
           id="g308"
           transform="translate(355.2311,49.8241)"><path
             d="m 0,0 c -0.78,0 -1.26,-0.69 -1.26,-1.729 0,-1.15 0.531,-1.78 1.31,-1.78 0.779,0 1.289,0.79 1.289,1.749 C 1.339,-0.69 0.829,0 0,0 m 0.01,-4.488 c -1.32,0 -2.309,1.09 -2.309,2.728 0,1.72 1.02,2.739 2.339,2.739 1.339,0 2.338,-1.069 2.338,-2.708 0,-1.74 -1.02,-2.759 -2.368,-2.759"
             style="fill:#4c4c4c;fill-opacity:1;fill-rule:nonzero;stroke:none"
             id="path310"
             inkscape:connector-curvature="0" /></g><g
           id="g312"
           transform="translate(362.07,45.4462)"><path
             d="m 0,0 v 2.969 c 0,1.058 -0.4,1.438 -1.079,1.438 -0.691,0 -1.08,-0.489 -1.08,-1.339 V 0 h -1.029 v 5.247 h 1.029 v -0.5 c 0.26,0.38 0.779,0.61 1.319,0.61 1.22,0 1.869,-0.799 1.869,-2.348 L 1.029,0 Z"
             style="fill:#4c4c4c;fill-opacity:1;fill-rule:nonzero;stroke:none"
             id="path314"
             inkscape:connector-curvature="0" /></g><g
           id="g316"
           transform="translate(366.28,45.3358)"><path
             d="m 0,0 c -0.709,0 -1.479,0.28 -2.009,0.67 l 0.47,0.779 c 0.49,-0.34 1.04,-0.519 1.529,-0.519 0.65,0 0.96,0.21 0.96,0.58 0,0.399 -0.46,0.59 -1.22,0.879 -1.128,0.44 -1.539,0.82 -1.539,1.649 0,0.94 0.74,1.43 1.789,1.43 0.66,0 1.31,-0.24 1.78,-0.58 L 1.31,4.099 c -0.43,0.299 -0.86,0.449 -1.36,0.449 -0.499,0 -0.72,-0.2 -0.72,-0.48 0,-0.259 0.181,-0.45 0.97,-0.759 C 1.37,2.858 1.97,2.539 1.97,1.55 1.97,0.391 1.03,0 0,0"
             style="fill:#4c4c4c;fill-opacity:1;fill-rule:nonzero;stroke:none"
             id="path318"
             inkscape:connector-curvature="0" /></g><g
           id="g320"
           transform="translate(372.7194,45.4462)"><path
             d="m 0,0 v 0.5 c -0.26,-0.38 -0.779,-0.61 -1.319,-0.61 -1.22,0 -1.869,0.799 -1.869,2.348 v 3.009 h 1.029 V 2.278 c 0,-1.058 0.4,-1.438 1.08,-1.438 C -0.39,0.84 0,1.329 0,2.179 V 5.247 H 1.029 V 0 Z"
             style="fill:#4c4c4c;fill-opacity:1;fill-rule:nonzero;stroke:none"
             id="path322"
             inkscape:connector-curvature="0" /></g><g
           id="g324"
           transform="translate(381.3679,45.4462)"><path
             d="m 0,0 v 2.969 c 0,1.058 -0.33,1.438 -1.01,1.438 -0.689,0 -1.01,-0.489 -1.01,-1.339 V 0 h -1.029 v 2.969 c 0,1.058 -0.33,1.438 -1.01,1.438 -0.689,0 -1.008,-0.489 -1.008,-1.339 V 0 h -1.03 v 5.247 h 1.03 v -0.5 c 0.259,0.38 0.709,0.61 1.249,0.61 0.71,0 1.159,-0.27 1.439,-0.769 0.38,0.47 0.789,0.769 1.608,0.769 1.22,0 1.8,-0.799 1.8,-2.348 L 1.029,0 Z"
             style="fill:#4c4c4c;fill-opacity:1;fill-rule:nonzero;stroke:none"
             id="path326"
             inkscape:connector-curvature="0" /></g><g
           id="g328"
           transform="translate(385.8591,49.8739)"><path
             d="M 0,0 C -0.689,0 -1.109,-0.479 -1.199,-1.319 H 1.24 C 1.189,-0.6 0.85,0 0,0 m 2.249,-2.169 h -3.468 c 0.11,-1.01 0.68,-1.439 1.32,-1.439 0.439,0 0.789,0.16 1.139,0.42 l 0.61,-0.66 c -0.46,-0.44 -1.01,-0.69 -1.81,-0.69 -1.228,0 -2.269,0.99 -2.269,2.728 0,1.78 0.94,2.74 2.299,2.74 1.49,0 2.209,-1.21 2.209,-2.629 0,-0.19 -0.02,-0.36 -0.03,-0.47"
             style="fill:#4c4c4c;fill-opacity:1;fill-rule:nonzero;stroke:none"
             id="path330"
             inkscape:connector-curvature="0" /></g><g
           id="g332"
           transform="translate(392.2692,49.6044)"><path
             d="m 0,0 c -0.22,0.119 -0.45,0.189 -0.79,0.189 -0.649,0 -1.029,-0.46 -1.029,-1.349 v -2.998 h -1.03 v 5.247 h 1.03 v -0.5 c 0.24,0.35 0.679,0.61 1.199,0.61 0.42,0 0.68,-0.08 0.89,-0.22 z"
             style="fill:#4c4c4c;fill-opacity:1;fill-rule:nonzero;stroke:none"
             id="path334"
             inkscape:connector-curvature="0" /></g><g
           id="g336"
           transform="translate(399.0788,45.3358)"><path
             d="m 0,0 c -1.809,0 -2.958,1.489 -2.958,3.608 0,2.12 1.149,3.609 2.958,3.609 1.14,0 1.899,-0.46 2.379,-1.31 L 1.449,5.327 C 1.09,5.897 0.72,6.167 0,6.167 c -1.219,0 -1.879,-0.989 -1.879,-2.559 0,-1.569 0.66,-2.558 1.879,-2.558 0.729,0 1.18,0.3 1.539,0.869 L 2.409,1.34 C 1.909,0.48 1.06,0 0,0"
             style="fill:#4c4c4c;fill-opacity:1;fill-rule:nonzero;stroke:none"
             id="path338"
             inkscape:connector-curvature="0" /></g><g
           id="g340"
           transform="translate(327.4929,130.8495)"><path
             d="m 0,0 h 11.689 v -3.816 c 0,-0.026 0.01,-0.049 0.015,-0.073 -0.005,-0.024 -0.015,-0.047 -0.015,-0.072 0,-0.186 0.151,-0.337 0.337,-0.337 h 3.655 V -21.752 L 0,-21.752 Z M 12.362,-0.493 15.4,-3.625 H 12.362 Z M 12.268,0.571 C 12.204,0.637 12.117,0.673 12.025,0.673 H -0.336 c -0.186,0 -0.337,-0.15 -0.337,-0.336 v -22.425 c 0,-0.186 0.151,-0.336 0.337,-0.336 h 16.353 c 0.186,0 0.337,0.15 0.337,0.336 v 18.312 c 0,0.088 -0.035,0.172 -0.096,0.234 z"
             style="fill:#4c4c4c;fill-opacity:1;fill-rule:nonzero;stroke:none"
             id="path342"
             inkscape:connector-curvature="0" /></g><g
           id="g344"
           transform="translate(340.5368,123.5165)"><path
             d="m 0,0 h -10.6 c -0.139,0 -0.253,0.113 -0.253,0.252 0,0.14 0.114,0.253 0.253,0.253 H 0 C 0.14,0.505 0.253,0.392 0.253,0.252 0.253,0.113 0.14,0 0,0"
             style="fill:#4c4c4c;fill-opacity:1;fill-rule:nonzero;stroke:none"
             id="path346"
             inkscape:connector-curvature="0" /></g><g
           id="g348"
           transform="translate(338.3776,120.9086)"><path
             d="m 0,0 h -8.44 c -0.14,0 -0.253,0.113 -0.253,0.252 0,0.14 0.113,0.253 0.253,0.253 h 8.439 c 0.14,0 0.253,-0.113 0.253,-0.253 C 0.252,0.113 0.139,0 0,0"
             style="fill:#4c4c4c;fill-opacity:1;fill-rule:nonzero;stroke:none"
             id="path350"
             inkscape:connector-curvature="0" /></g><g
           id="g352"
           transform="translate(340.5368,118.3006)"><path
             d="m 0,0 h -10.6 c -0.139,0 -0.253,0.113 -0.253,0.252 0,0.14 0.114,0.253 0.253,0.253 H 0 C 0.14,0.505 0.253,0.392 0.253,0.252 0.253,0.113 0.14,0 0,0"
             style="fill:#4c4c4c;fill-opacity:1;fill-rule:nonzero;stroke:none"
             id="path354"
             inkscape:connector-curvature="0" /></g><g
           id="g356"
           transform="translate(338.3776,115.6927)"><path
             d="m 0,0 h -8.44 c -0.14,0 -0.253,0.113 -0.253,0.252 0,0.14 0.113,0.253 0.253,0.253 h 8.439 c 0.14,0 0.253,-0.113 0.253,-0.253 C 0.252,0.113 0.139,0 0,0"
             style="fill:#4c4c4c;fill-opacity:1;fill-rule:nonzero;stroke:none"
             id="path358"
             inkscape:connector-curvature="0" /></g><g
           id="g360"
           transform="translate(340.5368,113.0848)"><path
             d="m 0,0 h -10.6 c -0.139,0 -0.253,0.113 -0.253,0.252 0,0.14 0.114,0.253 0.253,0.253 H 0 C 0.14,0.505 0.253,0.392 0.253,0.252 0.253,0.113 0.14,0 0,0"
             style="fill:#4c4c4c;fill-opacity:1;fill-rule:nonzero;stroke:none"
             id="path362"
             inkscape:connector-curvature="0" /></g><g
           id="g364"
           transform="translate(327.4929,95.8495)"><path
             d="m 0,0 h 11.689 v -3.816 c 0,-0.026 0.01,-0.049 0.015,-0.073 -0.005,-0.024 -0.015,-0.047 -0.015,-0.072 0,-0.186 0.151,-0.337 0.337,-0.337 h 3.655 V -21.752 L 0,-21.752 Z M 12.362,-0.493 15.4,-3.625 H 12.362 Z M 12.268,0.571 C 12.204,0.637 12.117,0.673 12.025,0.673 H -0.336 c -0.186,0 -0.337,-0.15 -0.337,-0.336 v -22.425 c 0,-0.186 0.151,-0.337 0.337,-0.337 h 16.353 c 0.186,0 0.337,0.151 0.337,0.337 v 18.312 c 0,0.088 -0.035,0.172 -0.096,0.234 z"
             style="fill:#4c4c4c;fill-opacity:1;fill-rule:nonzero;stroke:none"
             id="path366"
             inkscape:connector-curvature="0" /></g><g
           id="g368"
           transform="translate(340.5368,88.5165)"><path
             d="m 0,0 h -10.6 c -0.139,0 -0.253,0.113 -0.253,0.252 0,0.14 0.114,0.253 0.253,0.253 H 0 C 0.14,0.505 0.253,0.392 0.253,0.252 0.253,0.113 0.14,0 0,0"
             style="fill:#4c4c4c;fill-opacity:1;fill-rule:nonzero;stroke:none"
             id="path370"
             inkscape:connector-curvature="0" /></g><g
           id="g372"
           transform="translate(338.3776,85.9086)"><path
             d="m 0,0 h -8.44 c -0.14,0 -0.253,0.113 -0.253,0.252 0,0.14 0.113,0.253 0.253,0.253 h 8.439 c 0.14,0 0.253,-0.113 0.253,-0.253 C 0.252,0.113 0.139,0 0,0"
             style="fill:#4c4c4c;fill-opacity:1;fill-rule:nonzero;stroke:none"
             id="path374"
             inkscape:connector-curvature="0" /></g><g
           id="g376"
           transform="translate(340.5368,83.3006)"><path
             d="m 0,0 h -10.6 c -0.139,0 -0.253,0.113 -0.253,0.252 0,0.14 0.114,0.253 0.253,0.253 H 0 C 0.14,0.505 0.253,0.392 0.253,0.252 0.253,0.113 0.14,0 0,0"
             style="fill:#4c4c4c;fill-opacity:1;fill-rule:nonzero;stroke:none"
             id="path378"
             inkscape:connector-curvature="0" /></g><g
           id="g380"
           transform="translate(338.3776,80.6927)"><path
             d="m 0,0 h -8.44 c -0.14,0 -0.253,0.113 -0.253,0.252 0,0.14 0.113,0.253 0.253,0.253 h 8.439 c 0.14,0 0.253,-0.113 0.253,-0.253 C 0.252,0.113 0.139,0 0,0"
             style="fill:#4c4c4c;fill-opacity:1;fill-rule:nonzero;stroke:none"
             id="path382"
             inkscape:connector-curvature="0" /></g><g
           id="g384"
           transform="translate(340.5368,78.0848)"><path
             d="m 0,0 h -10.6 c -0.139,0 -0.253,0.113 -0.253,0.252 0,0.14 0.114,0.253 0.253,0.253 H 0 C 0.14,0.505 0.253,0.392 0.253,0.252 0.253,0.113 0.14,0 0,0"
             style="fill:#4c4c4c;fill-opacity:1;fill-rule:nonzero;stroke:none"
             id="path386"
             inkscape:connector-curvature="0" /></g><g
           id="g388"
           transform="translate(327.4929,59.8495)"><path
             d="m 0,0 h 11.689 v -3.816 c 0,-0.026 0.01,-0.049 0.015,-0.073 -0.005,-0.024 -0.015,-0.047 -0.015,-0.073 0,-0.185 0.151,-0.336 0.337,-0.336 h 3.655 V -21.752 L 0,-21.752 Z M 12.362,-0.493 15.4,-3.625 H 12.362 Z M 12.268,0.571 C 12.204,0.637 12.117,0.674 12.025,0.674 H -0.336 c -0.186,0 -0.337,-0.151 -0.337,-0.337 v -22.425 c 0,-0.186 0.151,-0.337 0.337,-0.337 h 16.353 c 0.186,0 0.337,0.151 0.337,0.337 v 18.312 c 0,0.088 -0.035,0.172 -0.096,0.234 z"
             style="fill:#4c4c4c;fill-opacity:1;fill-rule:nonzero;stroke:none"
             id="path390"
             inkscape:connector-curvature="0" /></g><g
           id="g392"
           transform="translate(340.5368,52.5165)"><path
             d="m 0,0 h -10.6 c -0.139,0 -0.253,0.113 -0.253,0.253 0,0.139 0.114,0.252 0.253,0.252 H 0 C 0.14,0.505 0.253,0.392 0.253,0.253 0.253,0.113 0.14,0 0,0"
             style="fill:#4c4c4c;fill-opacity:1;fill-rule:nonzero;stroke:none"
             id="path394"
             inkscape:connector-curvature="0" /></g><g
           id="g396"
           transform="translate(338.3776,49.909)"><path
             d="m 0,0 h -8.44 c -0.14,0 -0.253,0.112 -0.253,0.252 0,0.14 0.113,0.253 0.253,0.253 h 8.439 c 0.14,0 0.253,-0.113 0.253,-0.253 C 0.252,0.112 0.139,0 0,0"
             style="fill:#4c4c4c;fill-opacity:1;fill-rule:nonzero;stroke:none"
             id="path398"
             inkscape:connector-curvature="0" /></g><g
           id="g400"
           transform="translate(340.5368,47.3006)"><path
             d="m 0,0 h -10.6 c -0.139,0 -0.253,0.113 -0.253,0.253 0,0.139 0.114,0.252 0.253,0.252 H 0 C 0.14,0.505 0.253,0.392 0.253,0.253 0.253,0.113 0.14,0 0,0"
             style="fill:#4c4c4c;fill-opacity:1;fill-rule:nonzero;stroke:none"
             id="path402"
             inkscape:connector-curvature="0" /></g><g
           id="g404"
           transform="translate(338.3776,44.6932)"><path
             d="m 0,0 h -8.44 c -0.14,0 -0.253,0.112 -0.253,0.252 0,0.14 0.113,0.253 0.253,0.253 h 8.439 c 0.14,0 0.253,-0.113 0.253,-0.253 C 0.252,0.112 0.139,0 0,0"
             style="fill:#4c4c4c;fill-opacity:1;fill-rule:nonzero;stroke:none"
             id="path406"
             inkscape:connector-curvature="0" /></g><g
           id="g408"
           transform="translate(340.5368,42.0848)"><path
             d="m 0,0 h -10.6 c -0.139,0 -0.253,0.113 -0.253,0.253 0,0.139 0.114,0.252 0.253,0.252 H 0 C 0.14,0.505 0.253,0.392 0.253,0.253 0.253,0.113 0.14,0 0,0"
             style="fill:#4c4c4c;fill-opacity:1;fill-rule:nonzero;stroke:none"
             id="path410"
             inkscape:connector-curvature="0" /></g><g
           id="g412"
           transform="translate(256.1315,84.451)"><path
             d="M 0,0 H -34.356 V 1 H -1 v 35.023 h 65.576 v -1 H 0 Z"
             style="fill:#4c4c4c;fill-opacity:1;fill-rule:nonzero;stroke:none"
             id="path414"
             inkscape:connector-curvature="0" /></g><g
           id="g416"
           transform="translate(319.7595,116.7328)"><path
             d="M 0,0 5.612,3.241 0,6.482 Z"
             style="fill:#4c4c4c;fill-opacity:1;fill-rule:nonzero;stroke:none"
             id="path418"
             inkscape:connector-curvature="0" /></g><g
           id="g420"
           transform="translate(320.7077,48.2313)"><path
             d="m 0,0 h -65.576 v 36.244 h -33.357 v 1 h 34.357 V 1 H 0 Z"
             style="fill:#4c4c4c;fill-opacity:1;fill-rule:nonzero;stroke:none"
             id="path422"
             inkscape:connector-curvature="0" /></g><g
           id="g424"
           transform="translate(319.7595,45.4901)"><path
             d="M 0,0 5.612,3.241 0,6.482 Z"
             style="fill:#4c4c4c;fill-opacity:1;fill-rule:nonzero;stroke:none"
             id="path426"
             inkscape:connector-curvature="0" /></g><path
           d="M 320.92,84.475 H 218.737 v 1 H 320.92 Z"
           style="fill:#4c4c4c;fill-opacity:1;fill-rule:nonzero;stroke:none"
           id="path428"
           inkscape:connector-curvature="0" /><g
           id="g430"
           transform="translate(319.9714,88.2162)"><path
             d="M 0,0 5.612,-3.241 0,-6.482 Z"
             style="fill:#4c4c4c;fill-opacity:1;fill-rule:nonzero;stroke:none"
             id="path432"
             inkscape:connector-curvature="0" /></g><g
           id="g434"
           transform="translate(310.0319,119.974)"><path
             d="m 0,0 c 0,-3.71 -3.008,-6.717 -6.717,-6.717 -3.71,0 -6.718,3.007 -6.718,6.717 0,3.71 3.008,6.717 6.718,6.717 C -3.008,6.717 0,3.71 0,0"
             style="fill:#0088ce;fill-opacity:1;fill-rule:nonzero;stroke:none"
             id="path436"
             inkscape:connector-curvature="0" /></g><g
           id="g438"
           transform="translate(303.027,116.578)"><path
             d="M 0,0 V 5.545 H -1.283 V 6.3 c 0.745,0.052 1.355,0.301 1.49,0.942 H 1.086 V 0 Z"
             style="fill:#ffffff;fill-opacity:1;fill-rule:nonzero;stroke:none"
             id="path440"
             inkscape:connector-curvature="0" /></g><g
           id="g442"
           transform="translate(295.5974,84.975)"><path
             d="m 0,0 c 0,-3.709 -3.008,-6.717 -6.718,-6.717 -3.71,0 -6.717,3.008 -6.717,6.717 0,3.71 3.007,6.718 6.717,6.718 C -3.008,6.718 0,3.71 0,0"
             style="fill:#0088ce;fill-opacity:1;fill-rule:nonzero;stroke:none"
             id="path444"
             inkscape:connector-curvature="0" /></g><g
           id="g446"
           transform="translate(286.1052,81.579)"><path
             d="m 0,0 c 0.072,2.121 1.355,3.063 2.782,3.911 0.984,0.579 1.232,0.9 1.232,1.406 0,0.58 -0.393,0.953 -1.386,0.953 -0.61,0 -1.283,-0.28 -1.749,-0.725 L 0.186,6.373 c 0.652,0.61 1.573,0.982 2.472,0.982 1.5,0 2.463,-0.641 2.463,-1.975 C 5.121,4.262 4.572,3.787 3.3,3.031 1.914,2.214 1.521,1.749 1.355,1.055 H 5.193 V 0 Z"
             style="fill:#ffffff;fill-opacity:1;fill-rule:nonzero;stroke:none"
             id="path448"
             inkscape:connector-curvature="0" /></g><g
           id="g450"
           transform="translate(295.5974,48.9745)"><path
             d="m 0,0 c 0,-3.71 -3.008,-6.718 -6.718,-6.718 -3.71,0 -6.717,3.008 -6.717,6.718 0,3.71 3.007,6.717 6.717,6.717 C -3.008,6.717 0,3.71 0,0"
             style="fill:#0088ce;fill-opacity:1;fill-rule:nonzero;stroke:none"
             id="path452"
             inkscape:connector-curvature="0" /></g><g
           id="g454"
           transform="translate(288.6032,45.4637)"><path
             d="m 0,0 c -1.024,0 -2.101,0.455 -2.607,1.201 l 0.828,0.703 C -1.335,1.346 -0.651,1.076 0,1.076 c 1.158,0 1.583,0.445 1.583,1.19 0,0.745 -0.559,1.087 -1.314,1.087 h -0.672 v 1.055 h 0.662 c 0.672,0 1.024,0.445 1.024,0.992 0,0.414 -0.301,0.995 -1.366,0.995 -0.568,0 -1.024,-0.249 -1.428,-0.673 L -2.317,6.487 C -1.707,7.118 -0.973,7.47 -0.062,7.47 1.304,7.47 2.41,6.767 2.41,5.504 2.41,4.635 2.027,4.201 1.531,3.922 2.214,3.725 2.71,3.166 2.71,2.266 2.71,0.787 1.696,0 0,0"
             style="fill:#ffffff;fill-opacity:1;fill-rule:nonzero;stroke:none"
             id="path456"
             inkscape:connector-curvature="0" /></g><g
           id="g458"
           transform="translate(216.4958,84.5067)"><path
             d="m 0,0 c 0,-3.709 -3.008,-6.717 -6.717,-6.717 -3.71,0 -6.718,3.008 -6.718,6.717 0,3.71 3.008,6.718 6.718,6.718 C -3.008,6.718 0,3.71 0,0"
             style="fill:#0088ce;fill-opacity:1;fill-rule:nonzero;stroke:none"
             id="path460"
             inkscape:connector-curvature="0" /></g><g
           id="g462"
           transform="translate(209.5739,80.9969)"><path
             d="m 0,0 c -0.92,0 -1.748,0.217 -2.524,0.714 l 0.528,0.9 c 0.61,-0.342 1.376,-0.559 2.027,-0.559 1.128,0 1.718,0.549 1.718,1.469 0,0.859 -0.569,1.293 -1.47,1.293 -0.61,0 -1.024,-0.175 -1.396,-0.455 l -1.158,0.455 0.248,3.538 H 2.421 V 6.321 H -1.055 L -1.2,4.49 c 0.404,0.227 0.911,0.372 1.562,0.372 1.656,0 2.493,-0.972 2.493,-2.286 C 2.855,0.807 1.676,0 0,0"
             style="fill:#ffffff;fill-opacity:1;fill-rule:nonzero;stroke:none"
             id="path464"
             inkscape:connector-curvature="0" /></g><g
           id="g466"
           transform="translate(198.5798,84.5067)"><path
             d="m 0,0 c 0,-3.709 -3.007,-6.717 -6.717,-6.717 -3.71,0 -6.718,3.008 -6.718,6.717 0,3.71 3.008,6.718 6.718,6.718 C -3.007,6.718 0,3.71 0,0"
             style="fill:#0088ce;fill-opacity:1;fill-rule:nonzero;stroke:none"
             id="path468"
             inkscape:connector-curvature="0" /></g><g
           id="g470"
           transform="translate(191.9582,84.6488)"><path
             d="m 0,0 c -1.055,0 -1.707,-0.424 -1.707,-1.272 0,-0.704 0.569,-1.325 1.655,-1.325 1.097,0 1.697,0.517 1.697,1.335 C 1.645,-0.393 1.035,0 0,0 m -0.093,-3.652 c -1.521,0 -2.721,0.838 -2.721,2.886 0,1.894 1.055,4.48 4.49,4.583 V 2.793 C 0.01,2.721 -1.127,1.956 -1.593,0.445 c 0.507,0.404 1.024,0.579 1.904,0.579 1.314,0 2.431,-0.724 2.431,-2.265 0,-1.583 -1.242,-2.411 -2.835,-2.411"
             style="fill:#ffffff;fill-opacity:1;fill-rule:nonzero;stroke:none"
             id="path472"
             inkscape:connector-curvature="0" /></g><g
           id="g474"
           transform="translate(180.6638,84.5067)"><path
             d="m 0,0 c 0,-3.709 -3.007,-6.717 -6.717,-6.717 -3.71,0 -6.718,3.008 -6.718,6.717 0,3.71 3.008,6.718 6.718,6.718 C -3.007,6.718 0,3.71 0,0"
             style="fill:#0088ce;fill-opacity:1;fill-rule:nonzero;stroke:none"
             id="path476"
             inkscape:connector-curvature="0" /></g><g
           id="g478"
           transform="translate(173.7731,81.1107)"><path
             d="m 0,0 h -1.096 c 0.041,2.493 0.889,4.438 2.244,6.187 H -2.648 V 7.242 H 2.411 V 6.145 C 1.18,4.769 0.052,2.69 0,0"
             style="fill:#ffffff;fill-opacity:1;fill-rule:nonzero;stroke:none"
             id="path480"
             inkscape:connector-curvature="0" /></g><g
           id="g482"
           transform="translate(162.7477,84.5067)"><path
             d="m 0,0 c 0,-3.709 -3.008,-6.717 -6.718,-6.717 -3.709,0 -6.717,3.008 -6.717,6.717 0,3.71 3.008,6.718 6.717,6.718 C -3.008,6.718 0,3.71 0,0"
             style="fill:#0088ce;fill-opacity:1;fill-rule:nonzero;stroke:none"
             id="path484"
             inkscape:connector-curvature="0" /></g><g
           id="g486"
           transform="translate(156.0226,87.473)"><path
             d="m 0,0 c -1.056,0 -1.428,-0.476 -1.428,-1.024 0,-0.58 0.549,-0.993 1.449,-0.993 0.931,0 1.427,0.424 1.427,0.952 C 1.448,-0.517 1.055,0 0,0 m 0,-3.042 c -1.159,0 -1.738,-0.455 -1.738,-1.189 0,-0.766 0.631,-1.252 1.748,-1.252 1.159,0 1.749,0.497 1.749,1.2 0,0.766 -0.549,1.241 -1.759,1.241 m -0.011,-3.434 c -1.748,0 -2.824,0.796 -2.824,2.224 0,0.869 0.445,1.49 1.283,1.8 -0.745,0.31 -0.972,0.962 -0.972,1.397 0,1.397 1.127,2.048 2.545,2.048 1.292,0 2.524,-0.631 2.524,-2.027 0,-0.424 -0.228,-1.118 -0.973,-1.418 0.776,-0.289 1.283,-0.869 1.283,-1.8 0,-1.428 -1.117,-2.224 -2.866,-2.224"
             style="fill:#ffffff;fill-opacity:1;fill-rule:nonzero;stroke:none"
             id="path488"
             inkscape:connector-curvature="0" /></g><g
           id="g490"
           transform="translate(75.8552,84.5067)"><path
             d="m 0,0 c 0,-3.709 -3.007,-6.717 -6.717,-6.717 -3.71,0 -6.718,3.008 -6.718,6.717 0,3.71 3.008,6.718 6.718,6.718 C -3.007,6.718 0,3.71 0,0"
             style="fill:#0088ce;fill-opacity:1;fill-rule:nonzero;stroke:none"
             id="path492"
             inkscape:connector-curvature="0" /></g><g
           id="g494"
           transform="translate(69.0993,87.411)"><path
             d="m 0,0 c -1.097,0 -1.697,-0.517 -1.697,-1.334 0,-0.87 0.611,-1.263 1.645,-1.263 1.055,0 1.707,0.425 1.707,1.273 C 1.655,-0.621 1.086,0 0,0 m -1.728,-6.414 v 1.024 c 1.666,0.073 2.804,0.838 3.27,2.348 -0.507,-0.403 -1.025,-0.579 -1.904,-0.579 -1.314,0 -2.431,0.725 -2.431,2.266 0,1.583 1.241,2.41 2.835,2.41 1.52,0 2.72,-0.838 2.72,-2.886 0,-1.893 -1.055,-4.48 -4.49,-4.583"
             style="fill:#ffffff;fill-opacity:1;fill-rule:nonzero;stroke:none"
             id="path496"
             inkscape:connector-curvature="0" /></g><g
           id="g498"
           transform="translate(278.8776,119.974)"><path
             d="m 0,0 c 0,-3.71 -3.008,-6.717 -6.718,-6.717 -3.71,0 -6.717,3.007 -6.717,6.717 0,3.71 3.007,6.717 6.717,6.717 C -3.008,6.717 0,3.71 0,0"
             style="fill:#0088ce;fill-opacity:1;fill-rule:nonzero;stroke:none"
             id="path500"
             inkscape:connector-curvature="0" /></g><g
           id="g502"
           transform="translate(272.4372,121.7406)"><path
             d="m 0,0 -1.396,-1.78 c -0.218,-0.279 -0.528,-0.641 -0.683,-0.806 0.248,0 0.796,0.01 1.169,0.01 h 1.531 v 2.11 c 0,0.414 0.03,1.055 0.03,1.324 C 0.518,0.672 0.238,0.3 0,0 M 1.676,-3.539 V -5.163 H 0.621 v 1.594 H -3.3 v 1.034 l 3.735,4.614 h 1.241 v -4.655 h 0.962 v -0.963 z"
             style="fill:#ffffff;fill-opacity:1;fill-rule:nonzero;stroke:none"
             id="path504"
             inkscape:connector-curvature="0" /></g></g></g></g></svg>