<?xml version="1.0" encoding="UTF-8" standalone="no"?>
<svg
   xmlns:dc="http://purl.org/dc/elements/1.1/"
   xmlns:cc="http://creativecommons.org/ns#"
   xmlns:rdf="http://www.w3.org/1999/02/22-rdf-syntax-ns#"
   xmlns:svg="http://www.w3.org/2000/svg"
   xmlns="http://www.w3.org/2000/svg"
   xmlns:sodipodi="http://sodipodi.sourceforge.net/DTD/sodipodi-0.dtd"
   xmlns:inkscape="http://www.inkscape.org/namespaces/inkscape"
   version="1.1"
   id="Layer_1"
   x="0px"
   y="0px"
   width="1075.1871"
   height="713.73529"
   viewBox="0 0 1075.1871 713.73529"
   xml:space="preserve"
   sodipodi:docname="orchestration-service-arch.svg"
   inkscape:version="1.0 (4035a4f, 2020-05-01)"><metadata
   id="metadata629"><rdf:RDF><cc:Work
       rdf:about=""><dc:format>image/svg+xml</dc:format><dc:type
         rdf:resource="http://purl.org/dc/dcmitype/StillImage" /><dc:title></dc:title></cc:Work></rdf:RDF></metadata><defs
   id="defs627" /><sodipodi:namedview
   fit-margin-bottom="0"
   fit-margin-right="0"
   fit-margin-left="0"
   fit-margin-top="0"
   inkscape:document-rotation="0"
   pagecolor="#ffffff"
   bordercolor="#666666"
   borderopacity="1"
   objecttolerance="10"
   gridtolerance="10"
   guidetolerance="10"
   inkscape:pageopacity="0"
   inkscape:pageshadow="2"
   inkscape:window-width="1456"
   inkscape:window-height="886"
   id="namedview625"
   showgrid="false"
   inkscape:zoom="0.66965085"
   inkscape:cx="530.127"
   inkscape:cy="285.18851"
   inkscape:window-x="0"
   inkscape:window-y="1200"
   inkscape:window-maximized="0"
   inkscape:current-layer="Layer_1" />
<style
   type="text/css"
   id="style10">
	.st0{fill:#E6E6E6;}
	.st1{fill:#FFFFFF;}
	.st2{fill:#828282;}
	.st3{fill:none;stroke:#0088CE;stroke-width:3;stroke-linecap:round;stroke-linejoin:round;}
	.st4{fill:#0088CE;}
	.st5{fill:none;stroke:#0088CE;stroke-width:3;stroke-linecap:round;stroke-linejoin:round;stroke-dasharray:8.9756,8.9756;}
	.st6{fill:none;stroke:#0088CE;stroke-width:3;stroke-linecap:round;stroke-linejoin:round;stroke-dasharray:9.186,9.186;}
	.st7{fill:#F0F0F0;}
	
		.st8{fill:#FFFFFF;stroke:#828282;stroke-width:3;stroke-linecap:round;stroke-linejoin:round;stroke-miterlimit:10;stroke-dasharray:9;}
	.st9{fill:none;stroke:#828282;stroke-width:3;stroke-miterlimit:10;}
</style>
<rect
   class="st0"
   width="1075.1871"
   height="713.73529"
   id="rect12"
   x="0"
   y="0" />
<rect
   x="252.627"
   y="41.188507"
   class="st1"
   width="301"
   height="102.5"
   id="rect14" />
<rect
   x="252.627"
   y="215.18851"
   class="st1"
   width="301"
   height="102.5"
   id="rect16" />
<rect
   x="252.627"
   y="389.18851"
   class="st1"
   width="143.5"
   height="102.5"
   id="rect18" />
<rect
   x="410.12701"
   y="389.18851"
   class="st1"
   width="143.5"
   height="102.5"
   id="rect20" />



<g
   transform="translate(-28.372995,-153.81149)"
   id="g76">
	<g
   id="g74">
		<path
   d="m 50.8,813.2 c -3.3,0 -5.3,-2.7 -5.3,-6.5 0,-3.8 2.1,-6.5 5.3,-6.5 3.3,0 5.3,2.7 5.3,6.5 0,3.8 -2,6.5 -5.3,6.5 z m 0,-11.1 c -2.2,0 -3.4,1.8 -3.4,4.6 0,2.8 1.2,4.6 3.4,4.6 2.2,0 3.4,-1.8 3.4,-4.6 0,-2.8 -1.2,-4.6 -3.4,-4.6 z"
   id="path32" />
		<path
   d="m 65.7,807.9 2.6,5.1 H 66 l -2.5,-5 h -2.8 v 5 h -1.9 v -12.6 h 5.5 c 2.2,0 4.1,1.2 4.1,3.8 0,2 -1,3.2 -2.7,3.7 z m -1.3,-5.7 h -3.7 v 4.1 h 3.7 c 1.3,0 2.1,-0.6 2.1,-2 0,-1.4 -0.8,-2.1 -2.1,-2.1 z"
   id="path34" />
		<path
   d="m 75.8,813.2 c -3.3,0 -5.3,-2.7 -5.3,-6.5 0,-3.8 2.1,-6.5 5.3,-6.5 2.1,0 3.4,0.8 4.3,2.4 l -1.7,1 c -0.6,-1 -1.3,-1.5 -2.6,-1.5 -2.2,0 -3.4,1.8 -3.4,4.6 0,2.8 1.2,4.6 3.4,4.6 1.3,0 2.1,-0.5 2.8,-1.6 l 1.6,1 c -1,1.6 -2.5,2.5 -4.4,2.5 z"
   id="path36" />
		<path
   d="m 90.5,813 v -5.7 h -5.8 v 5.7 h -1.9 v -12.6 h 1.9 v 5.1 h 5.8 v -5.1 h 1.9 V 813 Z"
   id="path38" />
		<path
   d="m 95.7,813 v -12.6 h 8.1 v 1.8 h -6.2 v 3.1 h 3.6 v 1.8 h -3.6 v 4 h 6.5 v 1.8 h -8.4 z"
   id="path40" />
		<path
   d="m 110.3,813.2 c -1.8,0 -3.4,-0.8 -4.5,-2 l 1.4,-1.3 c 0.8,0.9 2.1,1.5 3.3,1.5 1.8,0 2.6,-0.6 2.6,-1.8 0,-1 -0.7,-1.5 -2.8,-2.1 -2.7,-0.8 -3.9,-1.5 -3.9,-3.7 0,-2.2 1.8,-3.5 4.2,-3.5 1.7,0 3,0.6 4.1,1.7 l -1.3,1.4 c -0.8,-0.8 -1.7,-1.2 -2.9,-1.2 -1.5,0 -2.1,0.7 -2.1,1.6 0,0.9 0.6,1.3 2.8,2 2.5,0.8 4,1.5 4,3.8 -0.3,2 -1.7,3.6 -4.9,3.6 z"
   id="path42" />
		<path
   d="M 122.1,802.3 V 813 h -1.9 v -10.7 h -3.7 v -1.9 h 9.2 v 1.9 z"
   id="path44" />
		<path
   d="m 135,807.9 2.6,5.1 h -2.2 l -2.5,-5 h -2.8 v 5 h -1.9 v -12.6 h 5.5 c 2.2,0 4.1,1.2 4.1,3.8 0,2 -1.1,3.2 -2.8,3.7 z m -1.3,-5.7 H 130 v 4.1 h 3.7 c 1.3,0 2.1,-0.6 2.1,-2 0.1,-1.4 -0.8,-2.1 -2.1,-2.1 z"
   id="path46" />
		<path
   d="m 148.8,813 -1.1,-3 h -5 l -1,3 h -2 l 4.5,-12.6 h 2 l 4.6,12.6 z m -2.7,-7.6 c -0.3,-0.9 -0.8,-2.4 -1,-2.9 -0.1,0.5 -0.6,2 -0.9,2.9 l -1,2.9 h 3.9 z"
   id="path48" />
		<path
   d="M 156.4,802.3 V 813 h -1.9 v -10.7 h -3.7 v -1.9 h 9.2 v 1.9 z"
   id="path50" />
		<path
   d="m 162.7,813 v -12.6 h 1.9 V 813 Z"
   id="path52" />
		<path
   d="m 172.6,813.2 c -3.3,0 -5.3,-2.7 -5.3,-6.5 0,-3.8 2.1,-6.5 5.3,-6.5 3.3,0 5.3,2.7 5.3,6.5 0,3.8 -2,6.5 -5.3,6.5 z m 0,-11.1 c -2.2,0 -3.4,1.8 -3.4,4.6 0,2.8 1.2,4.6 3.4,4.6 2.2,0 3.4,-1.8 3.4,-4.6 0,-2.8 -1.1,-4.6 -3.4,-4.6 z"
   id="path54" />
		<path
   d="m 188.4,813 -5,-7.9 c -0.3,-0.5 -0.7,-1.2 -0.9,-1.5 0,0.5 0,2.2 0,2.9 v 6.5 h -1.8 v -12.6 h 1.9 l 4.8,7.7 c 0.3,0.5 0.9,1.5 1,1.8 0,-0.5 0,-2.3 0,-3 v -6.5 h 1.8 V 813 Z"
   id="path56" />
		<path
   d="M 79.9,834.6 H 76.5 V 822 h 3.4 c 3.4,0 6.1,1.9 6.1,6.3 0,4.4 -2.9,6.3 -6.1,6.3 z m 0,-10.8 h -1.5 v 8.9 h 1.5 c 3,0 4.2,-1.8 4.2,-4.5 0,-2.7 -1.3,-4.4 -4.2,-4.4 z"
   id="path58" />
		<path
   d="m 96.4,834.6 -1.1,-3 h -5 l -1,3 h -2 L 91.8,822 h 2 l 4.6,12.6 z M 93.7,827 c -0.3,-0.9 -0.8,-2.4 -1,-2.9 -0.1,0.5 -0.6,2 -0.9,2.9 l -1,2.9 h 3.9 z"
   id="path60" />
		<path
   d="m 104,823.9 v 10.7 h -1.9 V 823.9 H 98.4 V 822 h 9.2 v 1.9 z"
   id="path62" />
		<path
   d="m 116.9,834.6 -1.1,-3 h -5 l -1,3 h -2 l 4.5,-12.6 h 2 l 4.6,12.6 z m -2.7,-7.6 c -0.3,-0.9 -0.8,-2.4 -1,-2.9 -0.1,0.5 -0.6,2 -0.9,2.9 l -1,2.9 h 3.9 z"
   id="path64" />
		<path
   d="m 126.4,834.6 h -5 V 822 h 5.2 c 2.2,0 3.6,1.2 3.6,3.3 0,1.3 -0.7,2.1 -1.6,2.5 1,0.3 2.1,1.2 2.1,2.9 0,2.6 -1.6,3.9 -4.3,3.9 z m 0.1,-10.9 h -3.4 v 3.3 h 3.4 c 1.2,0 1.7,-0.8 1.7,-1.6 0.1,-1 -0.4,-1.7 -1.7,-1.7 z m 0.1,5 h -3.4 v 4.2 h 3.4 c 1.7,0 2.3,-0.8 2.3,-2.1 -0.1,-1.3 -0.9,-2.1 -2.3,-2.1 z"
   id="path66" />
		<path
   d="m 141.4,834.6 -1.1,-3 h -5 l -1,3 h -2 l 4.5,-12.6 h 2 l 4.6,12.6 z m -2.6,-7.6 c -0.3,-0.9 -0.8,-2.4 -1,-2.9 -0.1,0.5 -0.6,2 -0.9,2.9 l -1,2.9 h 3.9 z"
   id="path68" />
		<path
   d="m 149.5,834.8 c -1.8,0 -3.4,-0.8 -4.5,-2 l 1.4,-1.3 c 0.8,0.9 2.1,1.5 3.3,1.5 1.8,0 2.6,-0.6 2.6,-1.8 0,-1 -0.7,-1.5 -2.8,-2.1 -2.7,-0.8 -3.9,-1.5 -3.9,-3.7 0,-2.2 1.8,-3.5 4.2,-3.5 1.7,0 3,0.6 4.1,1.7 l -1.3,1.4 c -0.8,-0.8 -1.7,-1.2 -2.9,-1.2 -1.5,0 -2.1,0.7 -2.1,1.6 0,0.9 0.6,1.3 2.8,2 2.5,0.8 4,1.5 4,3.8 -0.2,2 -1.7,3.6 -4.9,3.6 z"
   id="path70" />
		<path
   d="M 157,834.6 V 822 h 8.1 v 1.8 h -6.2 v 3.1 h 3.6 v 1.8 h -3.6 v 4 h 6.5 v 1.8 H 157 Z"
   id="path72" />
	</g>
</g>

<g
   transform="translate(-28.372995,-153.81149)"
   id="g132">
	<path
   d="m 374.3,230.6 v -5.7 h -5.8 v 5.7 h -1.9 V 218 h 1.9 v 5.1 h 5.8 V 218 h 1.9 v 12.6 z"
   id="path88" />
	<path
   d="m 384.2,230.8 c -3.3,0 -5.3,-2.7 -5.3,-6.5 0,-3.8 2.1,-6.5 5.3,-6.5 3.3,0 5.3,2.7 5.3,6.5 0,3.8 -2,6.5 -5.3,6.5 z m 0,-11.1 c -2.2,0 -3.4,1.8 -3.4,4.6 0,2.8 1.2,4.6 3.4,4.6 2.2,0 3.4,-1.8 3.4,-4.6 0,-2.8 -1.2,-4.6 -3.4,-4.6 z"
   id="path90" />
	<path
   d="m 396.4,219.8 v 10.7 h -1.9 v -10.7 h -3.7 V 218 h 9.2 v 1.9 z"
   id="path92" />
	<path
   d="m 412.2,219.8 v 10.7 h -1.9 v -10.7 h -3.7 V 218 h 9.2 v 1.9 z"
   id="path94" />
	<path
   d="M 418.4,230.6 V 218 h 8.1 v 1.8 h -6.2 v 3.1 h 3.6 v 1.8 h -3.6 v 4 h 6.5 v 1.8 z"
   id="path96" />
	<path
   d="m 438.9,230.6 v -6.7 c 0,-0.8 0,-1.9 0,-2.2 -0.1,0.4 -0.5,1.3 -0.8,2 l -3.1,7.1 -3,-7.1 c -0.3,-0.7 -0.7,-1.6 -0.8,-2 0,0.4 0,1.5 0,2.2 v 6.7 h -1.8 V 218 h 1.9 l 2.8,6.7 c 0.3,0.7 0.7,1.6 0.9,2.2 0.2,-0.5 0.5,-1.4 0.8,-2.2 l 2.8,-6.7 h 2 v 12.6 z"
   id="path98" />
	<path
   d="m 449.1,225.9 h -3.3 v 4.7 H 444 V 218 h 5.3 c 2.3,0 4.1,1.3 4.1,3.9 -0.1,2.6 -1.8,4 -4.3,4 z m 0.1,-6.2 h -3.4 v 4.3 h 3.4 c 1.4,0 2.2,-0.8 2.2,-2.2 0,-1.3 -0.9,-2.1 -2.2,-2.1 z"
   id="path100" />
	<path
   d="M 455.7,230.6 V 218 h 1.9 v 10.7 h 6.3 v 1.9 z"
   id="path102" />
	<path
   d="m 474.8,230.6 -1.1,-3 h -5 l -1,3 h -2 l 4.5,-12.6 h 2 l 4.6,12.6 z m -2.7,-7.6 c -0.3,-0.9 -0.8,-2.4 -1,-2.9 -0.1,0.5 -0.6,2 -0.9,2.9 l -1,2.9 h 3.9 z"
   id="path104" />
	<path
   d="m 482.4,219.8 v 10.7 h -1.9 v -10.7 h -3.7 V 218 h 9.2 v 1.9 z"
   id="path106" />
	<path
   d="M 488.6,230.6 V 218 h 8.1 v 1.8 h -6.2 v 3.1 h 3.6 v 1.8 h -3.6 v 4 h 6.5 v 1.8 z"
   id="path108" />
	<path
   d="m 434.9,252.2 -1,-1.2 c -0.9,0.8 -2.1,1.4 -3.5,1.4 -2.7,0 -4,-1.4 -4,-3.4 0,-1.7 0.9,-2.7 2.6,-3.7 l -0.2,-0.3 c -0.8,-1 -1.2,-1.7 -1.2,-2.7 0,-1.8 1.4,-2.9 3.5,-2.9 1.2,0 2.3,0.4 3.4,1.2 l -0.9,1.5 c -1,-0.7 -1.7,-1 -2.7,-1 -1,0 -1.4,0.4 -1.4,1.1 0,0.5 0.1,0.9 0.6,1.5 l 3.7,4.5 c 0.4,-0.6 0.7,-1.4 0.9,-2.1 l 1.7,0.5 c -0.3,1 -0.7,2.1 -1.4,3 l 2,2.5 z m -4.7,-5.7 c -1.2,0.7 -1.8,1.3 -1.8,2.4 0,1 0.7,1.8 2.1,1.8 0.9,0 1.7,-0.4 2.4,-1 z"
   id="path110" />
	<path
   d="m 378.4,269.1 h -3.3 v 4.7 h -1.9 v -12.6 h 5.3 c 2.3,0 4.1,1.3 4.1,3.9 0,2.6 -1.7,4 -4.2,4 z m 0.1,-6.2 h -3.4 v 4.3 h 3.4 c 1.4,0 2.2,-0.8 2.2,-2.2 0,-1.3 -0.9,-2.1 -2.2,-2.1 z"
   id="path112" />
	<path
   d="m 392.1,273.8 -1.1,-3 h -5 l -1,3 h -2 l 4.5,-12.6 h 2 l 4.6,12.6 z m -2.7,-7.6 c -0.3,-0.9 -0.8,-2.4 -1,-2.9 -0.1,0.5 -0.6,2 -0.9,2.9 l -1,2.9 h 3.9 z"
   id="path114" />
	<path
   d="m 403.4,268.6 2.6,5.1 h -2.2 l -2.5,-5 h -2.8 v 5 h -1.9 v -12.6 h 5.5 c 2.2,0 4.1,1.2 4.1,3.8 0,2 -1.1,3.3 -2.8,3.7 z m -1.3,-5.7 h -3.7 v 4.1 h 3.7 c 1.3,0 2.1,-0.6 2.1,-2 0.1,-1.3 -0.8,-2.1 -2.1,-2.1 z"
   id="path116" />
	<path
   d="m 417.1,273.8 -1.1,-3 h -5 l -1,3 h -2 l 4.5,-12.6 h 2 l 4.6,12.6 z m -2.6,-7.6 c -0.3,-0.9 -0.8,-2.4 -1,-2.9 -0.1,0.5 -0.6,2 -0.9,2.9 l -1,2.9 h 3.9 z"
   id="path118" />
	<path
   d="m 431,273.8 v -6.7 c 0,-0.8 0,-1.9 0,-2.2 -0.1,0.4 -0.5,1.3 -0.8,2 l -3.1,7.1 -3,-7.1 c -0.3,-0.7 -0.7,-1.6 -0.8,-2 0,0.4 0,1.5 0,2.2 v 6.7 h -1.8 v -12.6 h 1.9 l 2.8,6.7 c 0.3,0.7 0.7,1.6 0.9,2.2 0.2,-0.5 0.5,-1.4 0.8,-2.2 l 2.8,-6.7 h 2 v 12.6 z"
   id="path120" />
	<path
   d="m 436.2,273.8 v -12.6 h 8.1 v 1.8 h -6.2 v 3.1 h 3.6 v 1.8 h -3.6 v 4 h 6.5 v 1.8 h -8.4 z"
   id="path122" />
	<path
   d="m 452,263 v 10.7 h -1.9 V 263 h -3.7 v -1.9 h 9.2 v 1.9 z"
   id="path124" />
	<path
   d="m 458.2,273.8 v -12.6 h 8.1 v 1.8 h -6.2 v 3.1 h 3.6 v 1.8 h -3.6 v 4 h 6.5 v 1.8 h -8.4 z"
   id="path126" />
	<path
   d="m 476,268.6 2.6,5.1 h -2.2 l -2.5,-5 h -2.8 v 5 h -1.9 v -12.6 h 5.5 c 2.2,0 4.1,1.2 4.1,3.8 0,2 -1,3.3 -2.8,3.7 z m -1.2,-5.7 h -3.7 v 4.1 h 3.7 c 1.3,0 2.1,-0.6 2.1,-2 0,-1.3 -0.9,-2.1 -2.1,-2.1 z"
   id="path128" />
	<path
   d="m 485.5,274 c -1.8,0 -3.4,-0.8 -4.5,-2 l 1.4,-1.3 c 0.8,0.9 2.1,1.5 3.3,1.5 1.8,0 2.6,-0.6 2.6,-1.8 0,-1 -0.7,-1.5 -2.8,-2.1 -2.7,-0.8 -3.9,-1.5 -3.9,-3.7 0,-2.2 1.8,-3.5 4.2,-3.5 1.7,0 3,0.6 4.1,1.7 l -1.3,1.3 c -0.8,-0.8 -1.7,-1.2 -2.9,-1.2 -1.5,0 -2.1,0.7 -2.1,1.6 0,0.9 0.6,1.3 2.8,2 2.5,0.8 4,1.5 4,3.8 -0.2,2.1 -1.7,3.7 -4.9,3.7 z"
   id="path130" />
</g>
<g
   transform="translate(-28.372995,-153.81149)"
   id="g176">
	<path
   d="m 400.6,404.6 v -5.7 h -5.8 v 5.7 h -1.9 V 392 h 1.9 v 5.1 h 5.8 V 392 h 1.9 v 12.6 z"
   id="path134" />
	<path
   d="m 410.5,404.8 c -3.3,0 -5.3,-2.7 -5.3,-6.5 0,-3.8 2.1,-6.5 5.3,-6.5 3.3,0 5.3,2.7 5.3,6.5 0,3.8 -2.1,6.5 -5.3,6.5 z m 0,-11.1 c -2.2,0 -3.4,1.8 -3.4,4.6 0,2.8 1.2,4.6 3.4,4.6 2.2,0 3.4,-1.8 3.4,-4.6 0,-2.8 -1.2,-4.6 -3.4,-4.6 z"
   id="path136" />
	<path
   d="m 425.3,399.4 2.6,5.1 h -2.2 l -2.5,-5 h -2.8 v 5 h -1.9 V 392 h 5.5 c 2.2,0 4.1,1.2 4.1,3.8 0,1.9 -1.1,3.2 -2.8,3.6 z m -1.3,-5.7 h -3.7 v 4.1 h 3.7 c 1.3,0 2.1,-0.6 2.1,-2 0.1,-1.3 -0.8,-2.1 -2.1,-2.1 z"
   id="path138" />
	<path
   d="M 431.1,404.6 V 392 h 1.9 v 12.6 z"
   id="path140" />
	<path
   d="m 435.8,404.6 v -1.8 l 6.2,-7.4 c 0.4,-0.5 1.1,-1.3 1.4,-1.6 -0.5,0 -1.8,0 -2.5,0 h -4.7 V 392 h 9.2 v 1.8 l -6.1,7.4 c -0.4,0.5 -1.1,1.3 -1.4,1.6 0.5,0 1.8,0 2.5,0 h 5 v 1.7 h -9.6 z"
   id="path142" />
	<path
   d="m 452.5,404.8 c -3.3,0 -5.3,-2.7 -5.3,-6.5 0,-3.8 2.1,-6.5 5.3,-6.5 3.3,0 5.3,2.7 5.3,6.5 0,3.8 -2,6.5 -5.3,6.5 z m 0,-11.1 c -2.2,0 -3.4,1.8 -3.4,4.6 0,2.8 1.2,4.6 3.4,4.6 2.2,0 3.4,-1.8 3.4,-4.6 0,-2.8 -1.2,-4.6 -3.4,-4.6 z"
   id="path144" />
	<path
   d="m 468.3,404.6 -5,-7.9 c -0.3,-0.5 -0.7,-1.2 -0.9,-1.5 0,0.5 0,2.2 0,2.9 v 6.5 h -1.8 V 392 h 1.9 l 4.8,7.7 c 0.3,0.5 0.9,1.5 1,1.8 0,-0.5 0,-2.3 0,-3 V 392 h 1.8 v 12.6 z"
   id="path146" />
	<path
   d="m 425.2,426.4 c -3.3,0 -5.3,-2.7 -5.3,-6.5 0,-3.8 2.1,-6.5 5.3,-6.5 3.3,0 5.3,2.7 5.3,6.5 0,3.8 -2,6.5 -5.3,6.5 z m 0,-11.1 c -2.2,0 -3.4,1.8 -3.4,4.6 0,2.8 1.2,4.6 3.4,4.6 2.2,0 3.4,-1.8 3.4,-4.6 0,-2.8 -1.1,-4.6 -3.4,-4.6 z"
   id="path148" />
	<path
   d="m 440.1,421 2.6,5.1 h -2.2 l -2.5,-5 h -2.8 v 5 h -1.9 v -12.6 h 5.5 c 2.2,0 4.1,1.2 4.1,3.8 0,2 -1.1,3.3 -2.8,3.7 z m -1.3,-5.7 h -3.7 v 4.1 h 3.7 c 1.3,0 2.1,-0.6 2.1,-2 0,-1.3 -0.8,-2.1 -2.1,-2.1 z"
   id="path150" />
	<path
   d="m 369,448 c -3.3,0 -5.3,-2.7 -5.3,-6.5 0,-3.8 2.1,-6.5 5.3,-6.5 3.3,0 5.3,2.7 5.3,6.5 0,3.8 -2.1,6.5 -5.3,6.5 z m 0,-11.1 c -2.2,0 -3.4,1.8 -3.4,4.6 0,2.8 1.2,4.6 3.4,4.6 2.2,0 3.4,-1.8 3.4,-4.6 0,-2.8 -1.2,-4.6 -3.4,-4.6 z"
   id="path152" />
	<path
   d="m 382.1,443.1 h -3.3 v 4.7 H 377 v -12.6 h 5.3 c 2.3,0 4.1,1.3 4.1,3.9 -0.1,2.6 -1.8,4 -4.3,4 z m 0.1,-6.2 h -3.4 v 4.3 h 3.4 c 1.4,0 2.2,-0.8 2.2,-2.2 0,-1.3 -0.8,-2.1 -2.2,-2.1 z"
   id="path154" />
	<path
   d="m 388.8,447.8 v -12.6 h 8.1 v 1.8 h -6.2 v 3.1 h 3.6 v 1.8 h -3.6 v 4 h 6.5 v 1.8 h -8.4 z"
   id="path156" />
	<path
   d="m 407.6,447.8 -5,-7.9 c -0.3,-0.5 -0.7,-1.2 -0.9,-1.5 0,0.5 0,2.2 0,2.9 v 6.5 h -1.8 v -12.6 h 1.9 l 4.8,7.7 c 0.3,0.5 0.9,1.5 1,1.8 0,-0.5 0,-2.3 0,-3 v -6.5 h 1.8 v 12.6 z"
   id="path158" />
	<path
   d="m 416.5,448 c -1.8,0 -3.4,-0.8 -4.5,-2 l 1.4,-1.3 c 0.8,0.9 2.1,1.5 3.3,1.5 1.8,0 2.6,-0.6 2.6,-1.8 0,-1 -0.7,-1.5 -2.8,-2.1 -2.7,-0.8 -3.9,-1.5 -3.9,-3.7 0,-2.2 1.8,-3.5 4.2,-3.5 1.7,0 3,0.6 4.1,1.7 l -1.3,1.3 c -0.8,-0.8 -1.7,-1.2 -2.9,-1.2 -1.5,0 -2.1,0.7 -2.1,1.6 0,0.9 0.6,1.3 2.8,2 2.5,0.8 4,1.5 4,3.8 -0.3,2.1 -1.7,3.7 -4.9,3.7 z"
   id="path160" />
	<path
   d="m 428.3,437 v 10.7 h -1.9 V 437 h -3.7 v -1.9 h 9.2 v 1.9 z"
   id="path162" />
	<path
   d="m 441.1,447.8 -1.1,-3 h -5 l -1,3 h -2 l 4.5,-12.6 h 2 l 4.6,12.6 z m -2.6,-7.6 c -0.3,-0.9 -0.8,-2.4 -1,-2.9 -0.1,0.5 -0.6,2 -0.9,2.9 l -1,2.9 h 3.9 z"
   id="path164" />
	<path
   d="m 450,448 c -3.3,0 -5.3,-2.7 -5.3,-6.5 0,-3.8 2.1,-6.5 5.3,-6.5 2.1,0 3.4,0.8 4.3,2.4 l -1.7,1 c -0.6,-1 -1.3,-1.5 -2.6,-1.5 -2.2,0 -3.4,1.8 -3.4,4.6 0,2.8 1.2,4.6 3.4,4.6 1.3,0 2.1,-0.5 2.8,-1.6 l 1.6,1 c -1,1.6 -2.5,2.5 -4.4,2.5 z"
   id="path166" />
	<path
   d="m 464.8,447.8 -3.6,-6.5 -2.3,2.8 v 3.6 H 457 v -12.6 h 1.8 v 4.3 c 0,0.5 0,1.8 0,2.2 0.2,-0.3 1,-1.4 1.5,-1.9 L 464,435 h 2.1 l -3.7,4.6 4.5,8 h -2.1 z"
   id="path168" />
	<path
   d="m 478.9,448 c -3.3,0 -5.3,-2.7 -5.3,-6.5 0,-3.8 2.1,-6.5 5.3,-6.5 2.1,0 3.4,0.8 4.3,2.4 l -1.7,1 c -0.6,-1 -1.3,-1.5 -2.6,-1.5 -2.2,0 -3.4,1.8 -3.4,4.6 0,2.8 1.2,4.6 3.4,4.6 1.3,0 2.1,-0.5 2.8,-1.6 l 1.6,1 c -0.9,1.6 -2.5,2.5 -4.4,2.5 z"
   id="path170" />
	<path
   d="m 486,447.8 v -12.6 h 1.9 v 10.7 h 6.3 v 1.9 z"
   id="path172" />
	<path
   d="m 496.8,447.8 v -12.6 h 1.9 v 12.6 z"
   id="path174" />
</g>
<g
   transform="translate(-28.372995,-153.81149)"
   id="g186">
	<path
   d="m 300.4,502.7 2.6,5.1 h -2.2 l -2.5,-5 h -2.8 v 5 h -1.9 v -12.6 h 5.5 c 2.2,0 4.1,1.2 4.1,3.8 0,2 -1.1,3.2 -2.8,3.7 z m -1.3,-5.7 h -3.7 v 4.1 h 3.7 c 1.3,0 2.1,-0.6 2.1,-2 0.1,-1.4 -0.8,-2.1 -2.1,-2.1 z"
   id="path178" />
	<path
   d="m 306.1,507.8 v -12.6 h 8.1 V 497 H 308 v 3.1 h 3.6 v 1.8 H 308 v 4 h 6.5 v 1.8 h -8.4 z"
   id="path180" />
	<path
   d="m 320.7,508 c -1.8,0 -3.4,-0.8 -4.5,-2 l 1.4,-1.3 c 0.8,0.9 2.1,1.5 3.3,1.5 1.8,0 2.6,-0.6 2.6,-1.8 0,-1 -0.7,-1.5 -2.8,-2.1 -2.7,-0.8 -3.9,-1.5 -3.9,-3.7 0,-2.2 1.8,-3.5 4.2,-3.5 1.7,0 3,0.6 4.1,1.7 l -1.3,1.4 c -0.8,-0.8 -1.7,-1.2 -2.9,-1.2 -1.5,0 -2.1,0.7 -2.1,1.6 0,0.9 0.6,1.3 2.8,2 2.5,0.8 4,1.5 4,3.8 -0.2,2.1 -1.7,3.6 -4.9,3.6 z"
   id="path182" />
	<path
   d="m 332.5,497.1 v 10.7 h -1.9 v -10.7 h -3.7 v -1.9 h 9.2 v 1.9 z"
   id="path184" />
</g>
<g
   transform="translate(-28.372995,-153.81149)"
   id="g202">
	<path
   d="m 321.7,600.2 v -5.7 h -5.8 v 5.7 H 314 v -12.6 h 1.9 v 5.1 h 5.8 v -5.1 h 1.9 v 12.6 z"
   id="path188" />
	<path
   d="m 326.8,600.2 v -12.6 h 8.1 v 1.8 h -6.2 v 3.1 h 3.6 v 1.8 h -3.6 v 4 h 6.5 v 1.8 h -8.4 z"
   id="path190" />
	<path
   d="m 346.2,600.2 -1.1,-3 h -5 l -1,3 h -2 l 4.5,-12.6 h 2 l 4.6,12.6 z m -2.6,-7.6 c -0.3,-0.9 -0.8,-2.4 -1,-2.9 -0.1,0.5 -0.6,2 -0.9,2.9 l -1,2.9 h 3.9 z"
   id="path192" />
	<path
   d="m 353.9,589.4 v 10.7 H 352 v -10.7 h -3.7 v -1.9 h 9.2 v 1.9 z"
   id="path194" />
	<path
   d="m 373.2,600.2 -1.1,-3 h -5 l -1,3 h -2 l 4.5,-12.6 h 2 l 4.6,12.6 z m -2.6,-7.6 c -0.3,-0.9 -0.8,-2.4 -1,-2.9 -0.1,0.5 -0.6,2 -0.9,2.9 l -1,2.9 h 3.9 z"
   id="path196" />
	<path
   d="m 382.8,595.5 h -3.3 v 4.7 h -1.9 v -12.6 h 5.3 c 2.3,0 4.1,1.3 4.1,3.9 0,2.6 -1.7,4 -4.2,4 z m 0.1,-6.2 h -3.4 v 4.3 h 3.4 c 1.4,0 2.2,-0.8 2.2,-2.2 0,-1.3 -0.8,-2.1 -2.2,-2.1 z"
   id="path198" />
	<path
   d="m 389.5,600.2 v -12.6 h 1.9 v 12.6 z"
   id="path200" />
</g>
<g
   transform="translate(-28.372995,-153.81149)"
   id="g224">
	<path
   d="m 479.2,589.4 v -5.7 h -5.8 v 5.7 h -1.9 v -12.6 h 1.9 v 5.1 h 5.8 v -5.1 h 1.9 v 12.6 z"
   id="path204" />
	<path
   d="m 484.3,589.4 v -12.6 h 8.1 v 1.8 h -6.2 v 3.1 h 3.6 v 1.8 h -3.6 v 4 h 6.5 v 1.8 h -8.4 z"
   id="path206" />
	<path
   d="m 503.7,589.4 -1.1,-3 h -5 l -1,3 h -2 l 4.5,-12.6 h 2 l 4.6,12.6 z m -2.6,-7.6 c -0.3,-0.9 -0.8,-2.4 -1,-2.9 -0.1,0.5 -0.6,2 -0.9,2.9 l -1,2.9 h 3.9 z"
   id="path208" />
	<path
   d="m 511.4,578.6 v 10.7 h -1.9 v -10.7 h -3.7 v -1.9 h 9.2 v 1.9 z"
   id="path210" />
	<path
   d="m 530.7,589.4 -1.1,-3 h -5 l -1,3 h -2 l 4.5,-12.6 h 2 l 4.6,12.6 z m -2.6,-7.6 c -0.3,-0.9 -0.8,-2.4 -1,-2.9 -0.1,0.5 -0.6,2 -0.9,2.9 l -1,2.9 h 3.9 z"
   id="path212" />
	<path
   d="M 540.3,584.7 H 537 v 4.7 h -1.9 v -12.6 h 5.3 c 2.3,0 4.1,1.3 4.1,3.9 0,2.6 -1.7,4 -4.2,4 z m 0.1,-6.2 H 537 v 4.3 h 3.4 c 1.4,0 2.2,-0.8 2.2,-2.2 0,-1.3 -0.8,-2.1 -2.2,-2.1 z"
   id="path214" />
	<path
   d="m 547,589.4 v -12.6 h 1.9 v 12.6 z"
   id="path216" />
	<path
   d="m 499.1,611.2 c -3.3,0 -5.3,-2.7 -5.3,-6.5 0,-3.8 2.1,-6.5 5.3,-6.5 2.1,0 3.4,0.8 4.3,2.4 l -1.7,1 c -0.6,-1 -1.3,-1.5 -2.6,-1.5 -2.2,0 -3.4,1.8 -3.4,4.6 0,2.8 1.2,4.6 3.4,4.6 1.3,0 2.1,-0.5 2.8,-1.6 l 1.6,1 c -1,1.6 -2.5,2.5 -4.4,2.5 z"
   id="path218" />
	<path
   d="m 508,600.2 v 3.3 h 3.6 v 1.9 H 508 v 5.6 h -1.9 v -12.6 h 8.1 v 1.9 H 508 Z"
   id="path220" />
	<path
   d="m 524.4,611 -5,-7.9 c -0.3,-0.5 -0.7,-1.2 -0.9,-1.5 0,0.5 0,2.2 0,2.9 v 6.5 h -1.8 v -12.6 h 1.9 l 4.8,7.7 c 0.3,0.5 0.9,1.5 1,1.8 0,-0.5 0,-2.3 0,-3 v -6.5 h 1.8 V 611 Z"
   id="path222" />
</g>
<g
   transform="translate(-28.372995,-153.81149)"
   id="g234">
	<path
   d="m 536.4,502.7 2.6,5.1 h -2.2 l -2.5,-5 h -2.8 v 5 h -1.9 v -12.6 h 5.5 c 2.2,0 4.1,1.2 4.1,3.8 0,2 -1.1,3.2 -2.8,3.7 z m -1.3,-5.7 h -3.7 v 4.1 h 3.7 c 1.3,0 2.1,-0.6 2.1,-2 0.1,-1.4 -0.8,-2.1 -2.1,-2.1 z"
   id="path226" />
	<path
   d="m 542.1,507.8 v -12.6 h 8.1 V 497 H 544 v 3.1 h 3.6 v 1.8 H 544 v 4 h 6.5 v 1.8 h -8.4 z"
   id="path228" />
	<path
   d="m 556.7,508 c -1.8,0 -3.4,-0.8 -4.5,-2 l 1.4,-1.3 c 0.8,0.9 2.1,1.5 3.3,1.5 1.8,0 2.6,-0.6 2.6,-1.8 0,-1 -0.7,-1.5 -2.8,-2.1 -2.7,-0.8 -3.9,-1.5 -3.9,-3.7 0,-2.2 1.8,-3.5 4.2,-3.5 1.7,0 3,0.6 4.1,1.7 l -1.3,1.4 c -0.8,-0.8 -1.7,-1.2 -2.9,-1.2 -1.5,0 -2.1,0.7 -2.1,1.6 0,0.9 0.6,1.3 2.8,2 2.5,0.8 4,1.5 4,3.8 -0.2,2.1 -1.7,3.6 -4.9,3.6 z"
   id="path230" />
	<path
   d="m 568.5,497.1 v 10.7 h -1.9 v -10.7 h -3.7 v -1.9 h 9.2 v 1.9 z"
   id="path232" />
</g>
<g
   transform="translate(-28.372995,-153.81149)"
   id="g244">
	<path
   d="m 454.5,701.8 -1.1,-3 h -5 l -1,3 h -2 l 4.5,-12.6 h 2 l 4.6,12.6 z m -2.6,-7.6 c -0.3,-0.9 -0.8,-2.4 -1,-2.9 -0.1,0.5 -0.6,2 -0.9,2.9 l -1,2.9 h 3.9 z"
   id="path236" />
	<path
   d="m 468.4,701.8 v -6.7 c 0,-0.8 0,-1.9 0,-2.2 -0.1,0.4 -0.5,1.3 -0.8,2 l -3.1,7.1 -3,-7.1 c -0.3,-0.7 -0.7,-1.6 -0.8,-2 0,0.4 0,1.5 0,2.2 v 6.7 H 459 v -12.6 h 1.9 l 2.8,6.7 c 0.3,0.7 0.7,1.6 0.9,2.2 0.2,-0.5 0.5,-1.4 0.8,-2.2 l 2.8,-6.7 h 2 v 12.6 z"
   id="path238" />
	<path
   d="m 481.7,700.7 0.8,1.3 -1.5,1 -0.8,-1.3 c -0.6,0.2 -1.2,0.3 -1.9,0.3 -3.3,0 -5.3,-2.7 -5.3,-6.5 0,-3.8 2.1,-6.5 5.3,-6.5 3.3,0 5.3,2.7 5.3,6.5 0,2.2 -0.7,4.1 -1.9,5.2 z m -3.4,-9.8 c -2.2,0 -3.4,1.8 -3.4,4.6 0,2.8 1.2,4.6 3.4,4.6 0.3,0 0.6,0 0.8,-0.1 l -0.9,-1.4 1.5,-1 0.9,1.4 c 0.7,-0.8 1,-2 1,-3.6 0.1,-2.7 -1.1,-4.5 -3.3,-4.5 z"
   id="path240" />
	<path
   d="m 491.5,697.1 h -3.3 v 4.7 h -1.9 v -12.6 h 5.3 c 2.3,0 4.1,1.3 4.1,3.9 -0.1,2.7 -1.8,4 -4.2,4 z m 0.1,-6.1 h -3.4 v 4.3 h 3.4 c 1.4,0 2.2,-0.8 2.2,-2.2 -0.1,-1.3 -0.9,-2.1 -2.2,-2.1 z"
   id="path242" />
</g>
<g
   transform="translate(-28.372995,-153.81149)"
   id="g258">
	<g
   id="g256">
		<line
   class="st3"
   x1="176.3"
   y1="768.20001"
   x2="266.70001"
   y2="768.20001"
   id="line246" />
		<g
   id="g250">
			<polygon
   class="st4"
   points="178.5,760.8 178.5,775.7 165.5,768.2 "
   id="polygon248" />
		</g>
		<g
   id="g254">
			<polygon
   class="st4"
   points="264.5,760.8 264.5,775.7 277.5,768.2 "
   id="polygon252" />
		</g>
	</g>
</g>
<g
   transform="translate(-28.372995,-153.81149)"
   id="g268">
	<g
   id="g266">
		<line
   class="st3"
   x1="352.79999"
   y1="472"
   x2="352.79999"
   y2="532.20001"
   id="line260" />
		<g
   id="g264">
			<polygon
   class="st4"
   points="360.2,530 345.3,530 352.8,543 "
   id="polygon262" />
		</g>
	</g>
</g>
<g
   transform="translate(-28.372995,-153.81149)"
   id="g278">
	<g
   id="g276">
		<line
   class="st3"
   x1="511"
   y1="472"
   x2="511"
   y2="532.20001"
   id="line270" />
		<g
   id="g274">
			<polygon
   class="st4"
   points="518.5,530 503.5,530 511,543 "
   id="polygon272" />
		</g>
	</g>
</g>
<g
   transform="translate(-28.372995,-153.81149)"
   id="g288">
	<g
   id="g286">
		<line
   class="st3"
   x1="432"
   y1="297.79999"
   x2="432"
   y2="358"
   id="line280" />
		<g
   id="g284">
			<polygon
   class="st4"
   points="439.5,355.8 424.5,355.8 432,368.8 "
   id="polygon282" />
		</g>
	</g>
</g>
<g
   transform="translate(-28.372995,-153.81149)"
   id="g298">
	<g
   id="g296">
		<polyline
   class="st3"
   points="352.8,645.5 352.8,676 432,676 432,706.2   "
   id="polyline290" />
		<g
   id="g294">
			<polygon
   class="st4"
   points="439.5,704 424.5,704 432,717 "
   id="polygon292" />
		</g>
	</g>
</g>
<g
   transform="translate(-28.372995,-153.81149)"
   id="g308">
	<g
   id="g306">
		<polyline
   class="st3"
   points="510,645.5 510,676 432,676 432,706.2   "
   id="polyline300" />
		<g
   id="g304">
			<polygon
   class="st4"
   points="439.5,704 424.5,704 432,717 "
   id="polygon302" />
		</g>
	</g>
</g>
<g
   transform="translate(-28.372995,-153.81149)"
   id="g318">
	<path
   class="st1"
   d="m 121,747.7 c -24.8,0 -40.1,4.4 -40.1,7.6 v 25.2 c 0,3.2 15.3,7.6 40.1,7.6 24.8,0 40.1,-4.4 40.1,-7.6 v -25.2 c 0,-3.2 -15.3,-7.6 -40.1,-7.6 z M 98.1,763 c -0.1,0 -0.1,0 0,0 -4.6,-0.6 -8.4,-1.5 -11.5,-2.4 -0.3,-0.1 -0.5,-0.4 -0.4,-0.7 0.1,-0.3 0.4,-0.5 0.7,-0.4 3,0.9 6.8,1.7 11.2,2.4 0.3,0 0.5,0.3 0.5,0.6 0,0.3 -0.3,0.5 -0.5,0.5 z m 57.9,-2.3 c -7.7,2.5 -20.8,4 -35,4 -4.6,0 -9.1,-0.2 -13.4,-0.5 -0.5,0 -0.8,-0.4 -0.8,-0.9 0,-0.5 0.4,-0.8 0.9,-0.8 4.3,0.3 8.7,0.5 13.3,0.5 14,0 26.9,-1.5 34.5,-4 0.4,-0.1 0.9,0.1 1,0.5 0.1,0.6 -0.1,1.1 -0.5,1.2 z"
   id="path310" />
	<path
   class="st2"
   d="m 98.1,761.9 c -4.5,-0.6 -8.2,-1.4 -11.2,-2.4 -0.3,-0.1 -0.6,0.1 -0.7,0.4 -0.1,0.3 0.1,0.6 0.4,0.7 3,1 6.9,1.8 11.4,2.4 h 0.1 c 0.3,0 0.5,-0.2 0.5,-0.5 0,-0.3 -0.2,-0.5 -0.5,-0.6 z"
   id="path312" />
	<path
   class="st2"
   d="m 155.5,759.2 c -7.5,2.5 -20.4,4 -34.5,4 -4.6,0 -9,-0.2 -13.3,-0.5 -0.5,0 -0.9,0.3 -0.9,0.8 0,0.5 0.3,0.8 0.8,0.9 4.3,0.3 8.8,0.5 13.4,0.5 14.2,0 27.3,-1.5 35,-4 0.4,-0.1 0.7,-0.6 0.5,-1 -0.1,-0.7 -0.6,-0.9 -1,-0.7 z"
   id="path314" />
	<path
   class="st2"
   d="m 121,745.5 c -21,0 -42.3,3.4 -42.3,9.8 v 25.2 c 0,6.4 21.3,9.8 42.3,9.8 21,0 42.3,-3.4 42.3,-9.8 v -25.2 c 0,-6.5 -21.3,-9.8 -42.3,-9.8 z m 40.1,34.9 c 0,3.2 -15.3,7.6 -40.1,7.6 -24.8,0 -40.1,-4.4 -40.1,-7.6 v -25.2 c 0,-3.2 15.3,-7.6 40.1,-7.6 24.8,0 40.1,4.4 40.1,7.6 z"
   id="path316" />
</g>
<g
   transform="translate(-28.372995,-153.81149)"
   id="g340">
	<rect
   x="695"
   y="195"
   class="st1"
   width="377"
   height="404"
   id="rect320" />
	<g
   id="g338">
		<polyline
   class="st3"
   points="1072,594.5 1072,599 1067.5,599   "
   id="polyline322" />
		<line
   class="st5"
   x1="1058.5"
   y1="599"
   x2="704"
   y2="599"
   id="line324" />
		<polyline
   class="st3"
   points="699.5,599 695,599 695,594.5   "
   id="polyline326" />
		<line
   class="st6"
   x1="695"
   y1="585.29999"
   x2="695"
   y2="204.10001"
   id="line328" />
		<polyline
   class="st3"
   points="695,199.5 695,195 699.5,195   "
   id="polyline330" />
		<line
   class="st5"
   x1="708.5"
   y1="195"
   x2="1063"
   y2="195"
   id="line332" />
		<polyline
   class="st3"
   points="1067.5,195 1072,195 1072,199.5   "
   id="polyline334" />
		<line
   class="st6"
   x1="1072"
   y1="208.7"
   x2="1072"
   y2="589.90002"
   id="line336" />
	</g>
</g>
<rect
   x="693.62701"
   y="123.18851"
   class="st7"
   width="324"
   height="112.5"
   id="rect342" />
<rect
   x="814.62701"
   y="161.18851"
   class="st8"
   width="81"
   height="46.5"
   id="rect344" />
<rect
   x="693.62701"
   y="307.18851"
   class="st7"
   width="143.5"
   height="102.5"
   id="rect346" />
<rect
   x="874.12701"
   y="307.18851"
   class="st7"
   width="143.5"
   height="102.5"
   id="rect348" />
<g
   transform="translate(-28.372995,-153.81149)"
   id="g378">
	<path
   d="m 806.5,301.2 c -3.3,0 -5.3,-2.7 -5.3,-6.5 0,-3.8 2.1,-6.5 5.3,-6.5 2.1,0 3.4,0.8 4.3,2.4 l -1.7,1 c -0.6,-1 -1.3,-1.5 -2.6,-1.5 -2.2,0 -3.4,1.8 -3.4,4.6 0,2.8 1.2,4.6 3.4,4.6 1.3,0 2.1,-0.5 2.8,-1.6 l 1.6,1 c -0.9,1.6 -2.4,2.5 -4.4,2.5 z"
   id="path350" />
	<path
   d="m 817.9,301.2 c -3.3,0 -5.3,-2.7 -5.3,-6.5 0,-3.8 2.1,-6.5 5.3,-6.5 3.3,0 5.3,2.7 5.3,6.5 0,3.8 -2,6.5 -5.3,6.5 z m 0,-11.1 c -2.2,0 -3.4,1.8 -3.4,4.6 0,2.8 1.2,4.6 3.4,4.6 2.2,0 3.4,-1.8 3.4,-4.6 0,-2.8 -1.2,-4.6 -3.4,-4.6 z"
   id="path352" />
	<path
   d="m 835.4,301 v -6.7 c 0,-0.8 0,-1.9 0,-2.2 -0.1,0.4 -0.5,1.3 -0.8,2 l -3.1,7.1 -3,-7.1 c -0.3,-0.7 -0.7,-1.6 -0.8,-2 0,0.4 0,1.5 0,2.2 V 301 H 826 v -12.6 h 1.9 l 2.8,6.7 c 0.3,0.7 0.7,1.6 0.9,2.2 0.2,-0.5 0.5,-1.4 0.8,-2.2 l 2.8,-6.7 h 2 V 301 Z"
   id="path354" />
	<path
   d="m 845.6,296.3 h -3.3 v 4.7 h -1.9 v -12.6 h 5.3 c 2.3,0 4.1,1.3 4.1,3.9 0,2.6 -1.7,4 -4.2,4 z m 0.1,-6.1 h -3.4 v 4.3 h 3.4 c 1.4,0 2.2,-0.8 2.2,-2.2 0,-1.3 -0.9,-2.1 -2.2,-2.1 z"
   id="path356" />
	<path
   d="m 856.9,301.2 c -3.1,0 -4.7,-2 -4.7,-5.5 v -7.3 h 1.9 v 7.3 c 0,2.4 1,3.7 2.9,3.7 2,0 2.9,-1.2 2.9,-3.5 v -7.4 h 1.9 v 7.3 c -0.1,3.5 -1.8,5.4 -4.9,5.4 z"
   id="path358" />
	<path
   d="M 869.7,290.3 V 301 h -1.9 v -10.7 h -3.7 v -1.9 h 9.2 v 1.9 z"
   id="path360" />
	<path
   d="m 875.8,301 v -12.6 h 8.1 v 1.8 h -6.2 v 3.1 h 3.6 v 1.8 h -3.6 v 4 h 6.5 v 1.8 h -8.4 z"
   id="path362" />
	<path
   d="m 895.6,301.2 c -1.8,0 -3.4,-0.8 -4.5,-2 l 1.4,-1.3 c 0.8,0.9 2.1,1.5 3.3,1.5 1.8,0 2.6,-0.6 2.6,-1.8 0,-1 -0.7,-1.5 -2.8,-2.1 -2.7,-0.8 -3.9,-1.5 -3.9,-3.7 0,-2.2 1.8,-3.5 4.2,-3.5 1.7,0 3,0.6 4.1,1.7 l -1.3,1.4 c -0.8,-0.8 -1.7,-1.2 -2.9,-1.2 -1.5,0 -2.1,0.7 -2.1,1.6 0,0.9 0.6,1.3 2.8,2 2.5,0.8 4,1.5 4,3.8 -0.3,2 -1.7,3.6 -4.9,3.6 z"
   id="path364" />
	<path
   d="m 903,301 v -12.6 h 8.1 v 1.8 h -6.2 v 3.1 h 3.6 v 1.8 h -3.6 v 4 h 6.5 v 1.8 H 903 Z"
   id="path366" />
	<path
   d="m 920.9,295.9 2.6,5.1 h -2.2 l -2.5,-5 H 916 v 5 h -1.9 v -12.6 h 5.5 c 2.2,0 4.1,1.2 4.1,3.8 0,2 -1.1,3.2 -2.8,3.7 z m -1.3,-5.7 H 916 v 4.1 h 3.7 c 1.3,0 2.1,-0.6 2.1,-2 0,-1.4 -0.9,-2.1 -2.2,-2.1 z"
   id="path368" />
	<path
   d="m 931.6,301 h -2 l -4.4,-12.6 h 2.1 l 2.6,8 c 0.2,0.7 0.6,1.9 0.7,2.3 0.1,-0.5 0.5,-1.6 0.7,-2.3 l 2.6,-8 h 2 z"
   id="path370" />
	<path
   d="m 938.5,301 v -12.6 h 1.9 V 301 Z"
   id="path372" />
	<path
   d="m 948.5,301.2 c -3.3,0 -5.3,-2.7 -5.3,-6.5 0,-3.8 2.1,-6.5 5.3,-6.5 2.1,0 3.4,0.8 4.3,2.4 l -1.7,1 c -0.6,-1 -1.3,-1.5 -2.6,-1.5 -2.2,0 -3.4,1.8 -3.4,4.6 0,2.8 1.2,4.6 3.4,4.6 1.3,0 2.1,-0.5 2.8,-1.6 l 1.6,1 c -0.9,1.6 -2.5,2.5 -4.4,2.5 z"
   id="path374" />
	<path
   d="m 955.6,301 v -12.6 h 8.1 v 1.8 h -6.2 v 3.1 h 3.6 v 1.8 h -3.6 v 4 h 6.5 v 1.8 h -8.4 z"
   id="path376" />
</g>
<g
   transform="translate(-28.372995,-153.81149)"
   id="g470">
	<path
   class="st4"
   d="m 730.8,229 h -3.4 v -12.6 h 3.4 c 3.4,0 6.1,1.9 6.1,6.3 0,4.4 -2.8,6.3 -6.1,6.3 z m 0,-10.8 h -1.5 v 8.9 h 1.5 c 3,0 4.2,-1.8 4.2,-4.5 0,-2.7 -1.2,-4.4 -4.2,-4.4 z"
   id="path380" />
	<path
   class="st4"
   d="m 739.6,229 v -12.6 h 8.1 v 1.8 h -6.2 v 3.1 h 3.6 v 1.8 h -3.6 v 4 h 6.5 v 1.8 z"
   id="path382" />
	<path
   class="st4"
   d="m 755.8,224.3 h -3.3 v 4.7 h -1.9 v -12.6 h 5.3 c 2.3,0 4.1,1.3 4.1,3.9 0,2.6 -1.7,4 -4.2,4 z m 0.1,-6.1 h -3.4 v 4.3 h 3.4 c 1.4,0 2.2,-0.8 2.2,-2.2 0,-1.3 -0.9,-2.1 -2.2,-2.1 z"
   id="path384" />
	<path
   class="st4"
   d="m 762.4,229 v -12.6 h 1.9 v 10.7 h 6.3 v 1.9 z"
   id="path386" />
	<path
   class="st4"
   d="m 777.3,229.2 c -3.3,0 -5.3,-2.7 -5.3,-6.5 0,-3.8 2.1,-6.5 5.3,-6.5 3.3,0 5.3,2.7 5.3,6.5 0,3.8 -2,6.5 -5.3,6.5 z m 0,-11.1 c -2.2,0 -3.4,1.8 -3.4,4.6 0,2.8 1.2,4.6 3.4,4.6 2.2,0 3.4,-1.8 3.4,-4.6 0,-2.8 -1.1,-4.6 -3.4,-4.6 z"
   id="path388" />
	<path
   class="st4"
   d="m 789.7,224 v 5 h -1.9 v -5 l -4.5,-7.6 h 2.2 l 2,3.5 c 0.4,0.8 1.1,2 1.3,2.5 0.2,-0.5 0.8,-1.7 1.3,-2.5 l 2,-3.5 h 2.2 z"
   id="path390" />
	<path
   class="st4"
   d="m 796.6,229 v -12.6 h 8.1 v 1.8 h -6.2 v 3.1 h 3.6 v 1.8 h -3.6 v 4 h 6.5 v 1.8 z"
   id="path392" />
	<path
   class="st4"
   d="m 811.1,229 h -3.4 v -12.6 h 3.4 c 3.4,0 6.1,1.9 6.1,6.3 0,4.4 -2.8,6.3 -6.1,6.3 z m 0,-10.8 h -1.5 v 8.9 h 1.5 c 3,0 4.2,-1.8 4.2,-4.5 0,-2.7 -1.2,-4.4 -4.2,-4.4 z"
   id="path394" />
	<path
   class="st4"
   d="m 824.8,229 v -12.6 h 1.9 V 229 Z"
   id="path396" />
	<path
   class="st4"
   d="m 837.9,229 -5,-7.9 c -0.3,-0.5 -0.7,-1.2 -0.9,-1.5 0,0.5 0,2.2 0,2.9 v 6.5 h -1.8 v -12.6 h 1.9 l 4.8,7.7 c 0.3,0.5 0.9,1.5 1,1.8 0,-0.5 0,-2.3 0,-3 v -6.5 h 1.8 V 229 Z"
   id="path398" />
	<path
   class="st4"
   d="m 844.8,218.3 v 3.3 h 3.6 v 1.9 h -3.6 v 5.6 H 843 v -12.6 h 8.1 v 1.9 z"
   id="path400" />
	<path
   class="st4"
   d="m 860.2,223.9 2.6,5.1 h -2.2 l -2.5,-5 h -2.8 v 5 h -1.9 v -12.6 h 5.5 c 2.2,0 4.1,1.2 4.1,3.8 0,2 -1.1,3.2 -2.8,3.7 z m -1.2,-5.7 h -3.7 v 4.1 h 3.7 c 1.3,0 2.1,-0.6 2.1,-2 0,-1.4 -0.9,-2.1 -2.1,-2.1 z"
   id="path402" />
	<path
   class="st4"
   d="m 874,229 -1.1,-3 h -5 l -1,3 h -2 l 4.5,-12.6 h 2 L 876,229 Z m -2.7,-7.6 c -0.3,-0.9 -0.8,-2.4 -1,-2.9 -0.1,0.5 -0.6,2 -0.9,2.9 l -1,2.9 h 3.9 z"
   id="path404" />
	<path
   class="st4"
   d="m 882,229.2 c -1.8,0 -3.4,-0.8 -4.5,-2 l 1.4,-1.3 c 0.8,0.9 2.1,1.5 3.3,1.5 1.8,0 2.6,-0.6 2.6,-1.8 0,-1 -0.7,-1.5 -2.8,-2.1 -2.7,-0.8 -3.9,-1.5 -3.9,-3.7 0,-2.2 1.8,-3.5 4.2,-3.5 1.7,0 3,0.6 4.1,1.7 l -1.3,1.4 c -0.8,-0.8 -1.7,-1.2 -2.9,-1.2 -1.5,0 -2.1,0.7 -2.1,1.6 0,0.9 0.6,1.3 2.8,2 2.5,0.8 4,1.5 4,3.8 -0.2,2 -1.6,3.6 -4.9,3.6 z"
   id="path406" />
	<path
   class="st4"
   d="M 893.8,218.3 V 229 H 892 v -10.7 h -3.7 v -1.9 h 9.2 v 1.9 z"
   id="path408" />
	<path
   class="st4"
   d="m 906.8,223.9 2.6,5.1 h -2.2 l -2.5,-5 h -2.8 v 5 H 900 v -12.6 h 5.5 c 2.2,0 4.1,1.2 4.1,3.8 0,2 -1.1,3.2 -2.8,3.7 z m -1.3,-5.7 h -3.7 v 4.1 h 3.7 c 1.3,0 2.1,-0.6 2.1,-2 0.1,-1.4 -0.8,-2.1 -2.1,-2.1 z"
   id="path410" />
	<path
   class="st4"
   d="m 917,229.2 c -3.1,0 -4.7,-2 -4.7,-5.5 v -7.3 h 1.9 v 7.3 c 0,2.4 1,3.7 2.9,3.7 2,0 2.9,-1.2 2.9,-3.5 v -7.4 h 1.9 v 7.3 c -0.1,3.5 -1.8,5.4 -4.9,5.4 z"
   id="path412" />
	<path
   class="st4"
   d="m 929.7,229.2 c -3.3,0 -5.3,-2.7 -5.3,-6.5 0,-3.8 2.1,-6.5 5.3,-6.5 2.1,0 3.4,0.8 4.3,2.4 l -1.7,1 c -0.6,-1 -1.3,-1.5 -2.6,-1.5 -2.2,0 -3.4,1.8 -3.4,4.6 0,2.8 1.2,4.6 3.4,4.6 1.3,0 2.1,-0.5 2.8,-1.6 l 1.6,1 c -0.9,1.6 -2.5,2.5 -4.4,2.5 z"
   id="path414" />
	<path
   class="st4"
   d="M 941.3,218.3 V 229 h -1.9 v -10.7 h -3.7 v -1.9 h 9.2 v 1.9 z"
   id="path416" />
	<path
   class="st4"
   d="m 952.1,229.2 c -3.1,0 -4.7,-2 -4.7,-5.5 v -7.3 h 1.9 v 7.3 c 0,2.4 1,3.7 2.9,3.7 2,0 2.9,-1.2 2.9,-3.5 v -7.4 h 1.9 v 7.3 c -0.1,3.5 -1.8,5.4 -4.9,5.4 z"
   id="path418" />
	<path
   class="st4"
   d="m 966.9,223.9 2.6,5.1 h -2.2 l -2.5,-5 H 962 v 5 h -1.9 v -12.6 h 5.5 c 2.2,0 4.1,1.2 4.1,3.8 0,2 -1.1,3.2 -2.8,3.7 z m -1.3,-5.7 H 962 v 4.1 h 3.7 c 1.3,0 2.1,-0.6 2.1,-2 0,-1.4 -0.9,-2.1 -2.2,-2.1 z"
   id="path420" />
	<path
   class="st4"
   d="m 972.6,229 v -12.6 h 8.1 v 1.8 h -6.2 v 3.1 h 3.6 v 1.8 h -3.6 v 4 h 6.5 v 1.8 z"
   id="path422" />
	<path
   class="st4"
   d="m 993.2,229.2 c -3.1,0 -4.7,-2 -4.7,-5.5 v -7.3 h 1.9 v 7.3 c 0,2.4 1,3.7 2.9,3.7 2,0 2.9,-1.2 2.9,-3.5 v -7.4 h 1.9 v 7.3 c -0.1,3.5 -1.8,5.4 -4.9,5.4 z"
   id="path424" />
	<path
   class="st4"
   d="m 1005,229.2 c -1.8,0 -3.4,-0.8 -4.5,-2 l 1.4,-1.3 c 0.8,0.9 2.1,1.5 3.3,1.5 1.8,0 2.6,-0.6 2.6,-1.8 0,-1 -0.7,-1.5 -2.8,-2.1 -2.7,-0.8 -3.9,-1.5 -3.9,-3.7 0,-2.2 1.8,-3.5 4.2,-3.5 1.7,0 3,0.6 4.1,1.7 l -1.3,1.4 c -0.8,-0.8 -1.7,-1.2 -2.9,-1.2 -1.5,0 -2.1,0.7 -2.1,1.6 0,0.9 0.6,1.3 2.8,2 2.5,0.8 4,1.5 4,3.8 -0.2,2 -1.7,3.6 -4.9,3.6 z"
   id="path426" />
	<path
   class="st4"
   d="m 1012.6,229 v -12.6 h 1.9 V 229 Z"
   id="path428" />
	<path
   class="st4"
   d="m 1025.6,229 -5,-7.9 c -0.3,-0.5 -0.7,-1.2 -0.9,-1.5 0,0.5 0,2.2 0,2.9 v 6.5 h -1.8 v -12.6 h 1.9 l 4.8,7.7 c 0.3,0.5 0.9,1.5 1,1.8 0,-0.5 0,-2.3 0,-3 v -6.5 h 1.8 V 229 Z"
   id="path430" />
	<path
   class="st4"
   d="m 1035.4,229.2 c -3.3,0 -5.3,-2.7 -5.3,-6.5 0,-3.8 2.1,-6.5 5.3,-6.5 2.1,0 3.4,0.8 4.3,2.4 l -1.7,1 c -0.6,-1 -1.3,-1.5 -2.6,-1.5 -2.2,0 -3.4,1.8 -3.4,4.6 0,2.8 1.2,4.6 3.4,4.6 2.1,0 2.9,-1.4 2.9,-2.8 v -0.1 h -2.1 v -1.8 h 4 v 1.5 c 0,3.2 -2,5.1 -4.8,5.1 z"
   id="path432" />
	<path
   class="st4"
   d="m 785.4,250.8 c -3.3,0 -5.3,-2.7 -5.3,-6.5 0,-3.8 2.1,-6.5 5.3,-6.5 3.3,0 5.3,2.7 5.3,6.5 0,3.8 -2,6.5 -5.3,6.5 z m 0,-11.1 c -2.2,0 -3.4,1.8 -3.4,4.6 0,2.8 1.2,4.6 3.4,4.6 2.2,0 3.4,-1.8 3.4,-4.6 0,-2.8 -1.2,-4.6 -3.4,-4.6 z"
   id="path434" />
	<path
   class="st4"
   d="m 800.2,245.5 2.6,5.1 h -2.2 l -2.5,-5 h -2.8 v 5 h -1.9 V 238 h 5.5 c 2.2,0 4.1,1.2 4.1,3.8 0,2 -1.1,3.2 -2.8,3.7 z m -1.3,-5.7 h -3.7 v 4.1 h 3.7 c 1.3,0 2.1,-0.6 2.1,-2 0.1,-1.4 -0.8,-2.1 -2.1,-2.1 z"
   id="path436" />
	<path
   class="st4"
   d="m 810.3,250.8 c -3.3,0 -5.3,-2.7 -5.3,-6.5 0,-3.8 2.1,-6.5 5.3,-6.5 2.1,0 3.4,0.8 4.3,2.4 l -1.7,1 c -0.6,-1 -1.3,-1.5 -2.6,-1.5 -2.2,0 -3.4,1.8 -3.4,4.6 0,2.8 1.2,4.6 3.4,4.6 1.3,0 2.1,-0.5 2.8,-1.6 l 1.6,1 c -0.9,1.6 -2.5,2.5 -4.4,2.5 z"
   id="path438" />
	<path
   class="st4"
   d="m 825.1,250.6 v -5.7 h -5.8 v 5.7 h -1.9 V 238 h 1.9 v 5.1 h 5.8 V 238 h 1.9 v 12.6 z"
   id="path440" />
	<path
   class="st4"
   d="M 830.2,250.6 V 238 h 8.1 v 1.8 h -6.2 v 3.1 h 3.6 v 1.8 h -3.6 v 4 h 6.5 v 1.8 z"
   id="path442" />
	<path
   class="st4"
   d="m 844.8,250.8 c -1.8,0 -3.4,-0.8 -4.5,-2 l 1.4,-1.3 c 0.8,0.9 2.1,1.5 3.3,1.5 1.8,0 2.6,-0.6 2.6,-1.8 0,-1 -0.7,-1.5 -2.8,-2.1 -2.7,-0.8 -3.9,-1.5 -3.9,-3.7 0,-2.2 1.8,-3.5 4.2,-3.5 1.7,0 3,0.6 4.1,1.7 l -1.3,1.4 c -0.8,-0.8 -1.7,-1.2 -2.9,-1.2 -1.5,0 -2.1,0.7 -2.1,1.6 0,0.9 0.6,1.3 2.8,2 2.5,0.8 4,1.5 4,3.8 -0.2,2 -1.6,3.6 -4.9,3.6 z"
   id="path444" />
	<path
   class="st4"
   d="m 856.6,239.9 v 10.7 h -1.9 V 239.9 H 851 V 238 h 9.2 v 1.9 z"
   id="path446" />
	<path
   class="st4"
   d="m 869.6,245.5 2.6,5.1 H 870 l -2.5,-5 h -2.8 v 5 h -1.9 V 238 h 5.5 c 2.2,0 4.1,1.2 4.1,3.8 0,2 -1.1,3.2 -2.8,3.7 z m -1.3,-5.7 h -3.7 v 4.1 h 3.7 c 1.3,0 2.1,-0.6 2.1,-2 0.1,-1.4 -0.8,-2.1 -2.1,-2.1 z"
   id="path448" />
	<path
   class="st4"
   d="m 883.3,250.6 -1.1,-3 h -5 l -1,3 h -2 l 4.5,-12.6 h 2 l 4.6,12.6 z m -2.6,-7.6 c -0.3,-0.9 -0.8,-2.4 -1,-2.9 -0.1,0.5 -0.6,2 -0.9,2.9 l -1,2.9 h 3.9 z"
   id="path450" />
	<path
   class="st4"
   d="m 891,239.9 v 10.7 h -1.9 v -10.7 h -3.7 V 238 h 9.2 v 1.9 z"
   id="path452" />
	<path
   class="st4"
   d="M 897.2,250.6 V 238 h 1.9 v 12.6 z"
   id="path454" />
	<path
   class="st4"
   d="m 907.2,250.8 c -3.3,0 -5.3,-2.7 -5.3,-6.5 0,-3.8 2.1,-6.5 5.3,-6.5 3.3,0 5.3,2.7 5.3,6.5 0,3.8 -2,6.5 -5.3,6.5 z m 0,-11.1 c -2.2,0 -3.4,1.8 -3.4,4.6 0,2.8 1.2,4.6 3.4,4.6 2.2,0 3.4,-1.8 3.4,-4.6 0,-2.8 -1.2,-4.6 -3.4,-4.6 z"
   id="path456" />
	<path
   class="st4"
   d="m 923,250.6 -5,-7.9 c -0.3,-0.5 -0.7,-1.2 -0.9,-1.5 0,0.5 0,2.2 0,2.9 v 6.5 h -1.8 V 238 h 1.9 l 4.8,7.7 c 0.3,0.5 0.9,1.5 1,1.8 0,-0.5 0,-2.3 0,-3 V 238 h 1.8 v 12.6 z"
   id="path458" />
	<path
   class="st4"
   d="m 936.7,250.8 c -1.8,0 -3.4,-0.8 -4.5,-2 l 1.4,-1.3 c 0.8,0.9 2.1,1.5 3.3,1.5 1.8,0 2.6,-0.6 2.6,-1.8 0,-1 -0.7,-1.5 -2.8,-2.1 -2.7,-0.8 -3.9,-1.5 -3.9,-3.7 0,-2.2 1.8,-3.5 4.2,-3.5 1.7,0 3,0.6 4.1,1.7 l -1.3,1.4 c -0.8,-0.8 -1.7,-1.2 -2.9,-1.2 -1.5,0 -2.1,0.7 -2.1,1.6 0,0.9 0.6,1.3 2.8,2 2.5,0.8 4,1.5 4,3.8 -0.2,2 -1.6,3.6 -4.9,3.6 z"
   id="path460" />
	<path
   class="st4"
   d="m 948.5,239.9 v 10.7 h -1.9 V 239.9 H 943 V 238 h 9.2 v 1.9 z"
   id="path462" />
	<path
   class="st4"
   d="m 961.4,250.6 -1.1,-3 h -5 l -1,3 h -2 l 4.5,-12.6 h 2 l 4.6,12.6 z m -2.6,-7.6 c -0.3,-0.9 -0.8,-2.4 -1,-2.9 -0.1,0.5 -0.6,2 -0.9,2.9 l -1,2.9 h 3.9 z"
   id="path464" />
	<path
   class="st4"
   d="m 970.2,250.8 c -3.3,0 -5.3,-2.7 -5.3,-6.5 0,-3.8 2.1,-6.5 5.3,-6.5 2.1,0 3.4,0.8 4.3,2.4 l -1.7,1 c -0.6,-1 -1.3,-1.5 -2.6,-1.5 -2.2,0 -3.4,1.8 -3.4,4.6 0,2.8 1.2,4.6 3.4,4.6 1.3,0 2.1,-0.5 2.8,-1.6 l 1.6,1 c -0.9,1.6 -2.5,2.5 -4.4,2.5 z"
   id="path466" />
	<path
   class="st4"
   d="m 985.1,250.6 -3.6,-6.5 -2.3,2.8 v 3.6 h -1.8 V 238 h 1.8 v 4.3 c 0,0.5 0,1.8 0,2.2 0.2,-0.3 1,-1.4 1.5,-1.9 l 3.7,-4.7 h 2.1 l -3.7,4.6 4.5,8 z"
   id="path468" />
</g>
<g
   transform="translate(-28.372995,-153.81149)"
   id="g510">
	<path
   d="m 770.8,494.8 h -5 v -12.6 h 5.2 c 2.2,0 3.6,1.2 3.6,3.3 0,1.3 -0.7,2.1 -1.6,2.5 1,0.3 2.1,1.2 2.1,2.9 0,2.6 -1.6,3.9 -4.3,3.9 z m 0.2,-10.9 h -3.4 v 3.3 h 3.4 c 1.2,0 1.7,-0.8 1.7,-1.6 0,-0.9 -0.5,-1.7 -1.7,-1.7 z m 0,5 h -3.4 v 4.2 h 3.4 c 1.7,0 2.3,-0.8 2.3,-2.1 -0.1,-1.3 -0.9,-2.1 -2.3,-2.1 z"
   id="path472" />
	<path
   d="m 777.9,494.8 v -12.6 h 1.9 V 493 h 6.3 v 1.9 h -8.2 z"
   id="path474" />
	<path
   d="m 792.8,495 c -3.3,0 -5.3,-2.7 -5.3,-6.5 0,-3.8 2.1,-6.5 5.3,-6.5 3.3,0 5.3,2.7 5.3,6.5 0,3.8 -2,6.5 -5.3,6.5 z m 0,-11.1 c -2.2,0 -3.4,1.8 -3.4,4.6 0,2.8 1.2,4.6 3.4,4.6 2.2,0 3.4,-1.8 3.4,-4.6 0,-2.8 -1.1,-4.6 -3.4,-4.6 z"
   id="path476" />
	<path
   d="m 805.6,495 c -3.3,0 -5.3,-2.7 -5.3,-6.5 0,-3.8 2.1,-6.5 5.3,-6.5 2.1,0 3.4,0.8 4.3,2.4 l -1.7,1 c -0.6,-1 -1.3,-1.5 -2.6,-1.5 -2.2,0 -3.4,1.8 -3.4,4.6 0,2.8 1.2,4.6 3.4,4.6 1.3,0 2.1,-0.5 2.8,-1.6 l 1.6,1 c -1,1.7 -2.5,2.5 -4.4,2.5 z"
   id="path478" />
	<path
   d="m 820.5,494.8 -3.6,-6.5 -2.3,2.8 v 3.6 h -1.8 v -12.6 h 1.8 v 4.3 c 0,0.5 0,1.8 0,2.2 0.2,-0.3 1,-1.4 1.5,-1.9 l 3.7,-4.7 h 2.1 l -3.7,4.6 4.5,8 h -2.2 z"
   id="path480" />
	<path
   d="m 758.3,516.6 c -1.8,0 -3.4,-0.8 -4.5,-2 l 1.4,-1.3 c 0.8,0.9 2.1,1.5 3.3,1.5 1.8,0 2.6,-0.6 2.6,-1.8 0,-1 -0.7,-1.5 -2.8,-2.1 -2.7,-0.8 -3.9,-1.5 -3.9,-3.7 0,-2.2 1.8,-3.5 4.2,-3.5 1.7,0 3,0.6 4.1,1.7 l -1.3,1.4 c -0.8,-0.8 -1.7,-1.2 -2.9,-1.2 -1.5,0 -2.1,0.7 -2.1,1.6 0,0.9 0.6,1.3 2.8,2 2.5,0.8 4,1.5 4,3.8 -0.3,2.1 -1.7,3.6 -4.9,3.6 z"
   id="path482" />
	<path
   d="m 770.1,505.7 v 10.7 h -1.9 v -10.7 h -3.7 v -1.9 h 9.2 v 1.9 z"
   id="path484" />
	<path
   d="m 780.4,516.6 c -3.3,0 -5.3,-2.7 -5.3,-6.5 0,-3.8 2.1,-6.5 5.3,-6.5 3.3,0 5.3,2.7 5.3,6.5 0,3.8 -2.1,6.5 -5.3,6.5 z m 0,-11.1 c -2.2,0 -3.4,1.8 -3.4,4.6 0,2.8 1.2,4.6 3.4,4.6 2.2,0 3.4,-1.8 3.4,-4.6 0,-2.8 -1.2,-4.6 -3.4,-4.6 z"
   id="path486" />
	<path
   d="m 795.2,511.3 2.6,5.1 h -2.2 l -2.5,-5 h -2.8 v 5 h -1.9 v -12.6 h 5.5 c 2.2,0 4.1,1.2 4.1,3.8 0,2 -1.1,3.2 -2.8,3.7 z m -1.3,-5.7 h -3.7 v 4.1 h 3.7 c 1.3,0 2.1,-0.6 2.1,-2 0.1,-1.4 -0.8,-2.1 -2.1,-2.1 z"
   id="path488" />
	<path
   d="m 808.9,516.4 -1.1,-3 h -5 l -1,3 h -2 l 4.5,-12.6 h 2 l 4.6,12.6 z m -2.6,-7.6 c -0.3,-0.9 -0.8,-2.4 -1,-2.9 -0.1,0.5 -0.6,2 -0.9,2.9 l -1,2.9 h 3.9 z"
   id="path490" />
	<path
   d="m 817.8,516.6 c -3.3,0 -5.3,-2.7 -5.3,-6.5 0,-3.8 2.1,-6.5 5.3,-6.5 2.1,0 3.4,0.8 4.3,2.4 l -1.7,1 c -0.6,-1 -1.3,-1.5 -2.6,-1.5 -2.2,0 -3.4,1.8 -3.4,4.6 0,2.8 1.2,4.6 3.4,4.6 2.1,0 2.9,-1.4 2.9,-2.8 v -0.1 h -2.1 V 510 h 4 v 1.5 c 0,3.2 -2,5.1 -4.8,5.1 z"
   id="path492" />
	<path
   d="m 825.2,516.4 v -12.6 h 8.1 v 1.8 h -6.2 v 3.1 h 3.6 v 1.8 h -3.6 v 4 h 6.5 v 1.8 h -8.4 z"
   id="path494" />
	<path
   d="m 761.7,538.2 c -1.8,0 -3.4,-0.8 -4.5,-2 l 1.4,-1.3 c 0.8,0.9 2.1,1.5 3.3,1.5 1.8,0 2.6,-0.6 2.6,-1.8 0,-1 -0.7,-1.5 -2.8,-2.1 -2.7,-0.8 -3.9,-1.5 -3.9,-3.7 0,-2.2 1.8,-3.5 4.2,-3.5 1.7,0 3,0.6 4.1,1.7 l -1.3,1.3 c -0.8,-0.8 -1.7,-1.2 -2.9,-1.2 -1.5,0 -2.1,0.7 -2.1,1.6 0,0.9 0.6,1.3 2.8,2 2.5,0.8 4,1.5 4,3.8 -0.2,2.2 -1.6,3.7 -4.9,3.7 z"
   id="path496" />
	<path
   d="m 769.2,538 v -12.6 h 8.1 v 1.8 h -6.2 v 3.1 h 3.6 v 1.8 h -3.6 v 4 h 6.5 v 1.8 h -8.4 z"
   id="path498" />
	<path
   d="m 787.1,532.9 2.6,5.1 h -2.2 l -2.5,-5 h -2.8 v 5 h -1.9 v -12.6 h 5.5 c 2.2,0 4.1,1.2 4.1,3.8 0,2 -1.1,3.2 -2.8,3.7 z m -1.3,-5.7 h -3.7 v 4.1 h 3.7 c 1.3,0 2.1,-0.6 2.1,-2 0.1,-1.4 -0.8,-2.1 -2.1,-2.1 z"
   id="path500" />
	<path
   d="m 797.8,538 h -2 l -4.4,-12.6 h 2.1 l 2.6,8 c 0.2,0.7 0.6,1.9 0.7,2.3 0.1,-0.5 0.5,-1.6 0.7,-2.3 l 2.6,-8 h 2 z"
   id="path502" />
	<path
   d="m 804.7,538 v -12.6 h 1.9 V 538 Z"
   id="path504" />
	<path
   d="m 814.7,538.2 c -3.3,0 -5.3,-2.7 -5.3,-6.5 0,-3.8 2.1,-6.5 5.3,-6.5 2.1,0 3.4,0.8 4.3,2.4 l -1.7,1 c -0.6,-1 -1.3,-1.5 -2.6,-1.5 -2.2,0 -3.4,1.8 -3.4,4.6 0,2.8 1.2,4.6 3.4,4.6 1.3,0 2.1,-0.5 2.8,-1.6 l 1.6,1 c -1,1.7 -2.5,2.5 -4.4,2.5 z"
   id="path506" />
	<path
   d="m 821.8,538 v -12.6 h 8.1 v 1.8 h -6.2 v 3.1 h 3.6 v 1.8 h -3.6 v 4 h 6.5 v 1.8 h -8.4 z"
   id="path508" />
</g>
<g
   transform="translate(-28.372995,-153.81149)"
   id="g540">
	<path
   d="m 941,507.4 -5,-7.9 c -0.3,-0.5 -0.7,-1.2 -0.9,-1.5 0,0.5 0,2.2 0,2.9 v 6.5 h -1.8 v -12.6 h 1.9 l 4.8,7.7 c 0.3,0.5 0.9,1.5 1,1.8 0,-0.5 0,-2.3 0,-3 v -6.5 h 1.8 v 12.6 z"
   id="path512" />
	<path
   d="m 946.1,507.4 v -12.6 h 8.1 v 1.8 H 948 v 3.1 h 3.6 v 1.8 H 948 v 4 h 6.5 v 1.8 h -8.4 z"
   id="path514" />
	<path
   d="m 961.8,507.6 c -3.1,0 -4.7,-2 -4.7,-5.5 v -7.3 h 1.9 v 7.3 c 0,2.4 1,3.7 2.9,3.7 2,0 2.9,-1.2 2.9,-3.5 v -7.4 h 1.9 v 7.3 c -0.1,3.4 -1.8,5.4 -4.9,5.4 z"
   id="path516" />
	<path
   d="m 974.6,496.6 v 10.7 h -1.9 V 496.6 H 969 v -1.9 h 9.2 v 1.9 z"
   id="path518" />
	<path
   d="m 987.6,502.2 2.6,5.1 H 988 l -2.5,-5 h -2.8 v 5 h -1.9 v -12.6 h 5.5 c 2.2,0 4.1,1.2 4.1,3.8 -0.1,2 -1.1,3.3 -2.8,3.7 z m -1.3,-5.7 h -3.7 v 4.1 h 3.7 c 1.3,0 2.1,-0.6 2.1,-2 0,-1.3 -0.8,-2.1 -2.1,-2.1 z"
   id="path520" />
	<path
   d="m 997.7,507.6 c -3.3,0 -5.3,-2.7 -5.3,-6.5 0,-3.8 2.1,-6.5 5.3,-6.5 3.3,0 5.3,2.7 5.3,6.5 0,3.8 -2.1,6.5 -5.3,6.5 z m 0,-11.1 c -2.2,0 -3.4,1.8 -3.4,4.6 0,2.8 1.2,4.6 3.4,4.6 2.2,0 3.4,-1.8 3.4,-4.6 0,-2.8 -1.2,-4.6 -3.4,-4.6 z"
   id="path522" />
	<path
   d="m 1013.5,507.4 -5,-7.9 c -0.3,-0.5 -0.7,-1.2 -0.9,-1.5 0,0.5 0,2.2 0,2.9 v 6.5 h -1.8 v -12.6 h 1.9 l 4.8,7.7 c 0.3,0.5 0.9,1.5 1,1.8 0,-0.5 0,-2.3 0,-3 v -6.5 h 1.8 v 12.6 z"
   id="path524" />
	<path
   d="m 942.2,529.2 c -1.8,0 -3.4,-0.8 -4.5,-2 l 1.4,-1.3 c 0.8,0.9 2.1,1.5 3.3,1.5 1.8,0 2.6,-0.6 2.6,-1.8 0,-1 -0.7,-1.5 -2.8,-2.1 -2.7,-0.8 -3.9,-1.5 -3.9,-3.7 0,-2.2 1.8,-3.5 4.2,-3.5 1.7,0 3,0.6 4.1,1.7 l -1.3,1.4 c -0.8,-0.8 -1.7,-1.2 -2.9,-1.2 -1.5,0 -2.1,0.7 -2.1,1.6 0,0.9 0.6,1.3 2.8,2 2.5,0.8 4,1.5 4,3.8 -0.2,2 -1.6,3.6 -4.9,3.6 z"
   id="path526" />
	<path
   d="m 949.7,529 v -12.6 h 8.1 v 1.8 h -6.2 v 3.1 h 3.6 v 1.8 h -3.6 v 4 h 6.5 v 1.8 h -8.4 z"
   id="path528" />
	<path
   d="m 967.6,523.8 2.6,5.1 H 968 l -2.5,-5 h -2.8 v 5 h -1.9 v -12.6 h 5.5 c 2.2,0 4.1,1.2 4.1,3.8 0,2 -1.1,3.3 -2.8,3.7 z m -1.3,-5.7 h -3.7 v 4.1 h 3.7 c 1.3,0 2.1,-0.6 2.1,-2 0.1,-1.3 -0.8,-2.1 -2.1,-2.1 z"
   id="path530" />
	<path
   d="m 978.3,529 h -2 l -4.4,-12.6 h 2.1 l 2.6,8 c 0.2,0.7 0.6,1.9 0.7,2.3 0.1,-0.5 0.5,-1.6 0.7,-2.3 l 2.6,-8 h 2 z"
   id="path532" />
	<path
   d="m 985.2,529 v -12.6 h 1.9 V 529 Z"
   id="path534" />
	<path
   d="m 995.2,529.2 c -3.3,0 -5.3,-2.7 -5.3,-6.5 0,-3.8 2.1,-6.5 5.3,-6.5 2.1,0 3.4,0.8 4.3,2.4 l -1.7,1 c -0.6,-1 -1.3,-1.5 -2.6,-1.5 -2.2,0 -3.4,1.8 -3.4,4.6 0,2.8 1.2,4.6 3.4,4.6 1.3,0 2.1,-0.5 2.8,-1.6 l 1.6,1 c -1,1.6 -2.5,2.5 -4.4,2.5 z"
   id="path536" />
	<path
   d="m 1002.3,529 v -12.6 h 8.1 v 1.8 h -6.2 v 3.1 h 3.6 v 1.8 h -3.6 v 4 h 6.5 v 1.8 h -8.4 z"
   id="path538" />
</g>
<g
   transform="translate(-28.372995,-153.81149)"
   id="g546">
	<path
   d="m 877.3,344.8 h -2 l -4.4,-12.6 h 2.1 l 2.6,8 c 0.2,0.7 0.6,1.9 0.7,2.3 0.1,-0.5 0.5,-1.6 0.7,-2.3 l 2.6,-8 h 2 z"
   id="path542" />
	<path
   d="m 893.5,344.8 v -6.7 c 0,-0.8 0,-1.9 0,-2.2 -0.1,0.4 -0.5,1.3 -0.8,2 l -3.1,7.1 -3,-7.1 c -0.3,-0.7 -0.7,-1.6 -0.8,-2 0,0.4 0,1.5 0,2.2 v 6.7 H 884 v -12.6 h 1.9 l 2.8,6.7 c 0.3,0.7 0.7,1.6 0.9,2.2 0.2,-0.5 0.5,-1.4 0.8,-2.2 l 2.8,-6.7 h 2 v 12.6 z"
   id="path544" />
</g>
<g
   transform="translate(-28.372995,-153.81149)"
   id="g554">
	<path
   d="m 990.9,351.8 -5,-7.9 c -0.3,-0.5 -0.7,-1.2 -0.9,-1.5 0,0.5 0,2.2 0,2.9 v 6.5 h -1.8 v -12.6 h 1.9 l 4.8,7.7 c 0.3,0.5 0.9,1.5 1,1.8 0,-0.5 0,-2.3 0,-3 v -6.5 h 1.8 v 12.6 z"
   id="path548" />
	<path
   d="m 996.1,351.8 v -12.6 h 1.9 v 12.6 z"
   id="path550" />
	<path
   d="m 1006.1,352 c -3.3,0 -5.3,-2.7 -5.3,-6.5 0,-3.8 2.1,-6.5 5.3,-6.5 2.1,0 3.4,0.8 4.3,2.4 l -1.7,1 c -0.6,-1 -1.3,-1.5 -2.6,-1.5 -2.2,0 -3.4,1.8 -3.4,4.6 0,2.8 1.2,4.6 3.4,4.6 1.3,0 2.1,-0.5 2.8,-1.6 l 1.6,1 c -1,1.7 -2.5,2.5 -4.4,2.5 z"
   id="path552" />
</g>
<polyline
   transform="translate(-28.372995,-153.81149)"
   class="st9"
   points="843,338 793,338 793,461 "
   id="polyline556" />
<polyline
   transform="translate(-28.372995,-153.81149)"
   class="st9"
   points="924,338 974,338 974,461 "
   id="polyline558" />
<g
   transform="translate(-28.372995,-153.81149)"
   id="g568">
	<path
   class="st1"
   d="m 793.7,328.9 c -13.5,0 -21.8,2.4 -21.8,4.1 v 13.7 c 0,1.7 8.3,4.1 21.8,4.1 13.5,0 21.8,-2.4 21.8,-4.1 V 333 c 0,-1.7 -8.3,-4.1 -21.8,-4.1 z m -12.5,8.3 v 0 c -2.5,-0.4 -4.6,-0.8 -6.2,-1.3 -0.2,0 -0.2,-0.2 -0.2,-0.4 0,-0.2 0.2,-0.2 0.4,-0.2 1.6,0.5 3.7,0.9 6.1,1.3 0.2,0 0.3,0.2 0.3,0.3 -0.1,0.2 -0.2,0.3 -0.4,0.3 z m 31.5,-1.2 c -4.2,1.4 -11.3,2.2 -19,2.2 -2.5,0 -4.9,-0.1 -7.3,-0.3 -0.2,0 -0.4,-0.2 -0.4,-0.5 0,-0.2 0.2,-0.4 0.5,-0.4 2.3,0.2 4.7,0.3 7.2,0.3 7.6,0 14.6,-0.8 18.7,-2.1 0.2,-0.1 0.5,0.1 0.6,0.3 0,0.2 -0.1,0.4 -0.3,0.5 z"
   id="path560" />
	<path
   class="st2"
   d="m 781.3,336.6 c -2.4,-0.3 -4.5,-0.8 -6.1,-1.3 -0.2,-0.1 -0.3,0 -0.4,0.2 -0.1,0.2 0,0.3 0.2,0.4 1.7,0.5 3.7,1 6.2,1.3 v 0 c 0.1,0 0.3,-0.1 0.3,-0.3 0.1,-0.1 -0.1,-0.2 -0.2,-0.3 z"
   id="path562" />
	<path
   class="st2"
   d="m 812.4,335.1 c -4.1,1.3 -11.1,2.1 -18.7,2.1 -2.5,0 -4.9,-0.1 -7.2,-0.3 -0.2,0 -0.5,0.2 -0.5,0.4 0,0.2 0.2,0.5 0.4,0.5 2.3,0.2 4.8,0.3 7.3,0.3 7.7,0 14.8,-0.8 19,-2.2 0.2,-0.1 0.4,-0.3 0.3,-0.6 -0.1,-0.1 -0.4,-0.2 -0.6,-0.2 z"
   id="path564" />
	<path
   class="st2"
   d="m 793.7,327.7 c -11.4,0 -23,1.8 -23,5.3 v 13.7 c 0,3.5 11.6,5.3 23,5.3 11.4,0 23,-1.8 23,-5.3 V 333 c 0,-3.5 -11.6,-5.3 -23,-5.3 z m 21.8,19 c 0,1.7 -8.3,4.1 -21.8,4.1 -13.5,0 -21.8,-2.4 -21.8,-4.1 V 333 c 0,-1.7 8.3,-4.1 21.8,-4.1 13.5,0 21.8,2.4 21.8,4.1 z"
   id="path566" />
</g>
<g
   transform="translate(-28.372995,-153.81149)"
   id="g578">
	<g
   id="g576">
		<polyline
   class="st3"
   points="580,770 883,770 883,404.3   "
   id="polyline570" />
		<g
   id="g574">
			<polygon
   class="st4"
   points="875.5,406.5 890.5,406.5 883,393.5 "
   id="polygon572" />
		</g>
	</g>
</g>
<g
   transform="translate(-28.372995,-153.81149)"
   id="g588">
	<g
   id="g586">
		<polyline
   class="st3"
   points="580,794 974,794 974,574.8   "
   id="polyline580" />
		<g
   id="g584">
			<polygon
   class="st4"
   points="966.5,577 981.5,577 974,564 "
   id="polygon582" />
		</g>
	</g>
</g>
<g
   transform="translate(-28.372995,-153.81149)"
   id="g598">
	<g
   id="g596">
		<polyline
   class="st3"
   points="580,747 794,747 794,574.8   "
   id="polyline590" />
		<g
   id="g594">
			<polygon
   class="st4"
   points="786.5,577 801.5,577 794,564 "
   id="polygon592" />
		</g>
	</g>
</g>
<rect
   x="252.627"
   y="563.18848"
   class="st1"
   width="301"
   height="102.5"
   id="rect600" />
<g
   transform="translate(-28.372995,-153.81149)"
   id="g622">
	<path
   d="m 382.9,774.2 v -5.7 h -5.8 v 5.7 h -1.9 v -12.6 h 1.9 v 5.1 h 5.8 v -5.1 h 1.9 v 12.6 z"
   id="path602" />
	<path
   d="m 388.1,774.2 v -12.6 h 8.1 v 1.8 H 390 v 3.1 h 3.6 v 1.8 H 390 v 4 h 6.5 v 1.8 h -8.4 z"
   id="path604" />
	<path
   d="m 407.5,774.2 -1.1,-3 h -5 l -1,3 h -2 l 4.5,-12.6 h 2 l 4.6,12.6 z m -2.7,-7.6 c -0.3,-0.9 -0.8,-2.4 -1,-2.9 -0.1,0.5 -0.6,2 -0.9,2.9 l -1,2.9 h 3.9 z"
   id="path606" />
	<path
   d="m 415.1,763.4 v 10.7 h -1.9 v -10.7 h -3.7 v -1.9 h 9.2 v 1.9 z"
   id="path608" />
	<path
   d="m 426.1,774.2 v -12.6 h 8.1 v 1.8 H 428 v 3.1 h 3.6 v 1.8 H 428 v 4 h 6.5 v 1.8 h -8.4 z"
   id="path610" />
	<path
   d="m 445,774.2 -5,-7.9 c -0.3,-0.5 -0.7,-1.2 -0.9,-1.5 0,0.5 0,2.2 0,2.9 v 6.5 h -1.8 v -12.6 h 1.9 l 4.8,7.7 c 0.3,0.5 0.9,1.5 1,1.8 0,-0.5 0,-2.3 0,-3 v -6.5 h 1.8 v 12.6 z"
   id="path612" />
	<path
   d="m 454.8,774.4 c -3.3,0 -5.3,-2.7 -5.3,-6.5 0,-3.8 2.1,-6.5 5.3,-6.5 2.1,0 3.4,0.8 4.3,2.4 l -1.7,1 c -0.6,-1 -1.3,-1.5 -2.6,-1.5 -2.2,0 -3.4,1.8 -3.4,4.6 0,2.8 1.2,4.6 3.4,4.6 2.1,0 2.9,-1.4 2.9,-2.8 v -0.1 h -2.1 v -1.8 h 4 v 1.5 c 0,3.2 -2,5.1 -4.8,5.1 z"
   id="path614" />
	<path
   d="m 462.4,774.2 v -12.6 h 1.9 v 12.6 z"
   id="path616" />
	<path
   d="m 475.4,774.2 -5,-7.9 c -0.3,-0.5 -0.7,-1.2 -0.9,-1.5 0,0.5 0,2.2 0,2.9 v 6.5 h -1.8 v -12.6 h 1.9 l 4.8,7.7 c 0.3,0.5 0.9,1.5 1,1.8 0,-0.5 0,-2.3 0,-3 v -6.5 h 1.8 v 12.6 z"
   id="path618" />
	<path
   d="m 480.5,774.2 v -12.6 h 8.1 v 1.8 h -6.2 v 3.1 h 3.6 v 1.8 h -3.6 v 4 h 6.5 v 1.8 h -8.4 z"
   id="path620" />
</g>
</svg>
