<?xml version="1.0" encoding="UTF-8" standalone="no"?>
<svg
   xmlns:dc="http://purl.org/dc/elements/1.1/"
   xmlns:cc="http://creativecommons.org/ns#"
   xmlns:rdf="http://www.w3.org/1999/02/22-rdf-syntax-ns#"
   xmlns:svg="http://www.w3.org/2000/svg"
   xmlns="http://www.w3.org/2000/svg"
   xmlns:sodipodi="http://sodipodi.sourceforge.net/DTD/sodipodi-0.dtd"
   xmlns:inkscape="http://www.inkscape.org/namespaces/inkscape"
   inkscape:version="1.0 (4035a4f, 2020-05-01)"
   sodipodi:docname="manila-architecture.svg"
   version="1.1"
   viewBox="0 0 595.276 294.43"
   height="103.868mm"
   width="210mm"
   id="svg2">
  <metadata
     id="metadata408">
    <rdf:RDF>
      <cc:Work
         rdf:about="">
        <dc:format>image/svg+xml</dc:format>
        <dc:type
           rdf:resource="http://purl.org/dc/dcmitype/StillImage" />
        <dc:title></dc:title>
        <dc:subject>
          <rdf:Bag>
            <rdf:li>imagedata</rdf:li>
          </rdf:Bag>
        </dc:subject>
      </cc:Work>
    </rdf:RDF>
  </metadata>
  <sodipodi:namedview
     inkscape:current-layer="svg2"
     inkscape:window-maximized="0"
     inkscape:window-y="23"
     inkscape:window-x="0"
     inkscape:cy="196.28598"
     inkscape:cx="396.85039"
     inkscape:zoom="0.63122024"
     showgrid="false"
     id="namedview406"
     inkscape:window-height="480"
     inkscape:window-width="987"
     inkscape:pageshadow="2"
     inkscape:pageopacity="0"
     guidetolerance="10"
     gridtolerance="10"
     objecttolerance="10"
     borderopacity="1"
     bordercolor="#666666"
     pagecolor="#ffffff" />
  <defs
     id="defs12">
    <style
       id="style10">
      .cls-1, .cls-5 {
        fill: none;
      }

      .cls-1, .cls-6 {
        stroke: #a1c2e7;
      }

      .cls-1, .cls-2, .cls-5, .cls-6 {
        stroke-miterlimit: 10;
      }

      .cls-2 {
        fill: #f0f0f0;
        stroke: #c9c9c9;
      }

      .cls-3 {
        fill: #fff;
      }

      .cls-4 {
        fill: #06c;
      }

      .cls-5 {
        stroke: #000;
      }

      .cls-6 {
        fill: #a1c2e7;
      }

      .cls-7 {
        fill: #151515;
      }
    </style>
  </defs>
  <rect
     id="rect14"
     height="47.124"
     width="113.384"
     y="50.462"
     x="465.485"
     class="cls-1" />
  <rect
     id="rect16"
     height="47.124"
     width="113.384"
     y="140.703"
     x="465.485"
     class="cls-1" />
  <rect
     id="rect18"
     height="47.124"
     width="113.384"
     y="230.945"
     x="465.485"
     class="cls-1" />
  <rect
     id="rect20"
     height="79.906"
     width="113.384"
     y="107.921"
     x="111.182"
     class="cls-2" />
  <g
     id="g26">
    <rect
       id="rect22"
       height="78.906"
       width="112.384"
       y="108.421"
       x="281.914"
       class="cls-3" />
    <path
       id="path24"
       d="M393.8,108.921v77.906H282.414V108.921H393.8m1-1H281.414v79.906H394.8V107.921Z"
       class="cls-4" />
  </g>
  <g
     id="g62">
    <rect
       id="rect28"
       height="2.89"
       width="2.89"
       y="125.044"
       x="166.385"
       class="cls-3" />
    <path
       id="path30"
       d="M160.154,126.489a1.445,1.445,0,1,0-1.445,1.445A1.446,1.446,0,0,0,160.154,126.489Z"
       class="cls-3" />
    <rect
       id="rect32"
       height="2.753"
       width="8.373"
       y="133.568"
       x="159.083"
       class="cls-3" />
    <polygon
       id="polygon34"
       points="158.335 137.069 158.335 133.568 154.828 133.568 154.828 138.856 158.335 138.856 158.335 137.069"
       class="cls-3" />
    <rect
       id="rect36"
       height="1.787"
       width="17.494"
       y="137.069"
       x="159.083"
       class="cls-3" />
    <rect
       id="rect38"
       height="5.288"
       width="3.507"
       y="139.604"
       x="154.828"
       class="cls-3" />
    <rect
       id="rect40"
       height="5.288"
       width="3.594"
       y="133.568"
       x="177.324"
       class="cls-3" />
    <polygon
       id="polygon42"
       points="177.325 141.33 177.325 144.892 180.919 144.892 180.919 139.604 177.325 139.604 177.325 141.33"
       class="cls-3" />
    <rect
       id="rect44"
       height="2.753"
       width="8.373"
       y="133.568"
       x="168.204"
       class="cls-3" />
    <path
       id="path46"
       d="M175.506,151.97a1.445,1.445,0,1,0,1.445-1.445A1.447,1.447,0,0,0,175.506,151.97Z"
       class="cls-3" />
    <rect
       id="rect48"
       height="2.814"
       width="8.373"
       y="142.078"
       x="168.204"
       class="cls-3" />
    <polygon
       id="polygon50"
       points="176.951 125.418 175.578 127.797 178.325 127.797 176.951 125.418"
       class="cls-3" />
    <rect
       id="rect52"
       height="1.726"
       width="17.494"
       y="139.604"
       x="159.083"
       class="cls-3" />
    <rect
       id="rect54"
       height="2.814"
       width="8.373"
       y="142.078"
       x="159.083"
       class="cls-3" />
    <polygon
       id="polygon56"
       points="166.457 153.279 169.205 153.279 167.831 150.899 166.457 153.279"
       class="cls-3" />
    <rect
       id="rect58"
       height="2.89"
       width="2.89"
       y="150.525"
       x="157.351"
       class="cls-3" />
    <path
       id="path60"
       d="M177.324,128.545h2.3l-2.669-4.622-2.669,4.622h2.295v4.275H168.2v-4.138h1.819V124.3h-4.386v4.386h1.819v4.138h-8.373v-4.176a2.192,2.192,0,1,0-.748,0v4.176h-4.254v12.819h4.254v4.138H156.6v4.385h4.386v-4.385h-1.905v-4.138h8.372v4.391h.012l-2.306,4H170.5l-2.308-4h.012v-4.391h8.373v4.176a2.193,2.193,0,1,0,.748,0v-4.176h4.342V132.82h-4.342Zm3.595,16.347h-3.594V139.6h3.594Zm-3.595-11.324h3.594v5.288h-3.594Zm-.747,0v2.753H168.2v-2.753Zm0,3.5v1.787h-17.5v-1.787Zm-10.193-9.135v-2.89h2.891v2.89Zm1.071,5.634v2.753h-8.373v-2.753Zm-10.191-7.079a1.445,1.445,0,1,1,1.444,1.445A1.446,1.446,0,0,1,157.265,126.489Zm-2.437,7.079h3.507v5.288h-3.507Zm0,11.324V139.6h3.507v5.288Zm5.413,5.633v2.89h-2.89v-2.89Zm7.215-5.633h-8.373v-2.814h8.373Zm1.749,8.387h-2.748l1.374-2.38ZM159.083,141.33V139.6h17.5v1.726Zm9.121,3.562v-2.814h8.373v2.814ZM178.4,151.97a1.445,1.445,0,1,1-1.445-1.445A1.447,1.447,0,0,1,178.4,151.97ZM175.578,127.8l1.373-2.379,1.374,2.379Z" />
  </g>
  <g
     id="g85">
    <g
       id="g24">
      <path
         d="M354.581,144.9V126h-.053c-3.426,2.6-8.23,6.1-11.568,8.256,3.389,2.824,8.3,7.421,11.621,10.643"
         class="cls-3"
         id="path26" />
    </g>
    <g
       id="g28">
      <path
         d="M336.538,134.32l.07.043c.694.434,1.211.732,1.6.939a1.8,1.8,0,0,0,2.139.008c.409-.215.962-.533,1.71-1,.187-.117.38-.238.578-.367,3.185-2.047,7.755-5.371,11.164-7.944h-29.09c3.479,2.6,8.129,5.957,11.316,8q.265.169.515.326"
         class="cls-3"
         id="path66" />
    </g>
    <g
       id="g32">
      <path
         d="M340.561,135.7a3.118,3.118,0,0,1-1.29.486,3.018,3.018,0,0,1-1.222-.465c-.481-.218-1.137-.555-2.056-1.079-3.39,2.83-8.3,7.472-11.613,10.715a1.088,1.088,0,0,0,.329.051h29.105a1.076,1.076,0,0,0,.522-.132c-3.319-3.22-8.266-7.854-11.664-10.685-.857.491-1.556.858-2.111,1.109"
         class="cls-3"
         id="path34" />
    </g>
    <g
       id="g36">
      <path
         d="M324.046,126.051v19.011c3.312-3.247,8.243-7.9,11.653-10.752-3.319-2.133-8.162-5.639-11.653-8.259"
         class="cls-3"
         id="path38" />
    </g>
    <g
       id="g40">
      <path
         d="M324.046,126.051c3.491,2.62,8.334,6.126,11.653,8.259-3.41,2.848-8.341,7.5-11.653,10.752ZM353.8,126c-3.409,2.572-7.979,5.9-11.164,7.943-.2.129-.391.25-.578.367-.748.47-1.3.788-1.71,1a1.8,1.8,0,0,1-2.139-.009c-.387-.207-.9-.5-1.6-.939l-.069-.043c-.166-.1-.338-.212-.514-.326-3.189-2.041-7.837-5.4-11.317-8Zm.784,0v18.9c-3.322-3.222-8.232-7.819-11.621-10.643,3.337-2.153,8.142-5.661,11.567-8.256Zm-.767,19.4H324.709a1.088,1.088,0,0,1-.329-.05c3.309-3.243,8.223-7.884,11.613-10.716.919.524,1.575.862,2.056,1.08a3.011,3.011,0,0,0,1.222.466,3.145,3.145,0,0,0,1.29-.487c.555-.251,1.254-.618,2.111-1.109,3.4,2.83,8.345,7.465,11.664,10.685a1.076,1.076,0,0,1-.522.131m-30.429.785h31.857V125.336H323.385Z"
         id="path42" />
    </g>
    <g
       id="g622">
      <path
         d="M352.167,147.311v-18.9h-.054c-3.425,2.6-8.23,6.1-11.567,8.257,3.389,2.823,8.3,7.42,11.621,10.643"
         class="cls-3"
         id="path624" />
    </g>
    <g
       id="g626">
      <path
         d="M334.124,136.735l.069.043c.695.433,1.212.732,1.6.939a1.8,1.8,0,0,0,2.139.008c.409-.215.962-.534,1.71-1,.187-.117.379-.237.578-.367,3.185-2.046,7.754-5.37,11.163-7.943H322.293c3.479,2.6,8.128,5.957,11.316,8l.515.326"
         class="cls-3"
         id="path628" />
    </g>
    <g
       id="g630">
      <path
         d="M338.147,138.109a3.133,3.133,0,0,1-1.29.487,3.008,3.008,0,0,1-1.223-.466c-.48-.218-1.136-.555-2.055-1.079-3.39,2.831-8.3,7.473-11.614,10.715a1.1,1.1,0,0,0,.329.051H351.4a1.072,1.072,0,0,0,.521-.132c-3.319-3.22-8.265-7.854-11.663-10.685-.857.491-1.557.858-2.111,1.109"
         class="cls-3"
         id="path632" />
    </g>
    <g
       id="g634">
      <path
         d="M321.631,128.466v19.01c3.313-3.246,8.244-7.9,11.653-10.752-3.319-2.133-8.161-5.638-11.653-8.258"
         class="cls-3"
         id="path636" />
    </g>
    <g
       id="g638">
      <path
         d="M321.631,128.466c3.492,2.62,8.334,6.125,11.653,8.258-3.409,2.848-8.34,7.506-11.653,10.752Zm29.752-.055c-3.409,2.572-7.98,5.9-11.165,7.944-.2.128-.391.249-.577.367-.748.47-1.3.788-1.711,1a1.795,1.795,0,0,1-2.139-.009c-.386-.206-.9-.5-1.6-.939l-.069-.042q-.249-.156-.515-.326c-3.188-2.041-7.837-5.4-11.316-8Zm.784,0v18.9c-3.323-3.223-8.233-7.82-11.622-10.643,3.338-2.153,8.143-5.661,11.568-8.257Zm-.767,19.406H322.3a1.1,1.1,0,0,1-.33-.051c3.31-3.242,8.224-7.884,11.614-10.715.919.524,1.575.861,2.055,1.08a3.015,3.015,0,0,0,1.223.465,3.133,3.133,0,0,0,1.29-.487c.554-.25,1.254-.617,2.111-1.109,3.4,2.831,8.344,7.466,11.663,10.686a1.083,1.083,0,0,1-.521.131m-30.429.785h31.856V127.75H320.971Z"
         id="path640" />
    </g>
  </g>
  <g
     id="g107">
    <path
       id="path87"
       d="M143.5,165.339h1.1v.777a1.658,1.658,0,0,1,1.446-.854,1.527,1.527,0,0,1,1.427.942,1.793,1.793,0,0,1,1.611-.942,1.611,1.611,0,0,1,1.591,1.766V170.2h-1.1v-2.941a.984.984,0,0,0-.98-1.116,1.16,1.16,0,0,0-.981.572c.01.108.02.2.02.311V170.2h-1.1v-2.941a.984.984,0,0,0-.98-1.116,1.13,1.13,0,0,0-.961.554v3.5h-1.1Z" />
    <path
       id="path89"
       d="M151.759,168.8c0-.873.709-1.427,1.854-1.427a3.017,3.017,0,0,1,1.31.3v-.533c0-.641-.369-.971-1.116-.971a3.366,3.366,0,0,0-1.417.379l-.388-.8a4.665,4.665,0,0,1,2.018-.5c1.262,0,1.99.641,1.99,1.766V170.2h-1.087v-.5a2.031,2.031,0,0,1-1.446.573A1.534,1.534,0,0,1,151.759,168.8Zm2.019.708a1.736,1.736,0,0,0,1.145-.4v-.8a2.513,2.513,0,0,0-1.126-.233c-.621,0-1.009.272-1.009.7C152.788,169.231,153.176,169.512,153.778,169.512Z" />
    <path
       id="path91"
       d="M157.341,165.339h1.1v.8a1.767,1.767,0,0,1,1.543-.873A1.637,1.637,0,0,1,161.66,167v3.2h-1.1V167.31a1.048,1.048,0,0,0-1.068-1.165,1.25,1.25,0,0,0-1.058.582V170.2h-1.1Z" />
    <path
       id="path93"
       d="M162.854,163.68a.685.685,0,0,1,1.369,0,.685.685,0,0,1-1.369,0Zm1.233,6.522h-1.1v-4.863h1.1Z" />
    <path
       id="path95"
       d="M166.533,170.2h-1.1v-6.939l1.1-.184Z" />
    <path
       id="path97"
       d="M167.64,168.8c0-.873.709-1.427,1.854-1.427a3.017,3.017,0,0,1,1.31.3v-.533c0-.641-.369-.971-1.116-.971a3.366,3.366,0,0,0-1.417.379l-.388-.8a4.662,4.662,0,0,1,2.018-.5c1.262,0,1.99.641,1.99,1.766V170.2H170.8v-.5a2.031,2.031,0,0,1-1.446.573A1.534,1.534,0,0,1,167.64,168.8Zm2.019.708a1.736,1.736,0,0,0,1.145-.4v-.8a2.516,2.516,0,0,0-1.126-.233c-.621,0-1.009.272-1.009.7C168.669,169.231,169.057,169.512,169.659,169.512Z" />
    <path
       id="path99"
       d="M176.472,166.99v.922H173.1v-.922Z" />
    <path
       id="path101"
       d="M179.608,163.409h1.349l2.63,6.793h-1.252l-.689-1.9h-2.794l-.7,1.9h-1.214Zm1.7,3.978-1.048-2.891-1.068,2.891Z" />
    <path
       id="path103"
       d="M184.462,163.409H187.5a2.107,2.107,0,1,1,0,4.2h-1.872V170.2h-1.165Zm1.165.979v2.272h1.688a1.144,1.144,0,1,0,.01-2.272Z" />
    <path
       id="path105"
       d="M191,163.409h1.165V170.2H191Z" />
  </g>
  <g
     id="g115">
    <line
       id="line109"
       y2="147.874"
       x2="104.999"
       y1="147.874"
       x1="62.956"
       class="cls-5" />
    <polygon
       id="polygon111"
       points="64.05 151.614 57.574 147.875 64.05 144.135 64.05 151.614" />
    <polygon
       id="polygon113"
       points="103.904 151.614 110.38 147.875 103.904 144.135 103.904 151.614" />
  </g>
  <g
     id="g123">
    <line
       id="line117"
       y2="147.874"
       x2="276.033"
       y1="147.874"
       x1="230.576"
       class="cls-5" />
    <polygon
       id="polygon119"
       points="231.67 151.614 225.194 147.875 231.67 144.135 231.67 151.614" />
    <polygon
       id="polygon121"
       points="274.938 151.614 281.414 147.875 274.938 144.135 274.938 151.614" />
  </g>
  <g
     id="g131">
    <line
       id="line125"
       y2="147.874"
       x2="459.531"
       y1="147.874"
       x1="400.688"
       class="cls-5" />
    <polygon
       id="polygon127"
       points="401.782 151.614 395.306 147.875 401.782 144.135 401.782 151.614" />
    <polygon
       id="polygon129"
       points="458.436 151.614 464.912 147.875 458.436 144.135 458.436 151.614" />
  </g>
  <g
     id="g139">
    <polyline
       id="polyline133"
       points="400.688 147.874 430.396 147.874 430.396 58.747 460.103 58.747"
       class="cls-5" />
    <polygon
       id="polygon135"
       points="401.782 151.614 395.306 147.875 401.782 144.135 401.782 151.614" />
    <polygon
       id="polygon137"
       points="459.009 62.487 465.485 58.748 459.009 55.008 459.009 62.487" />
  </g>
  <g
     id="g147">
    <polyline
       id="polyline141"
       points="460.103 239.512 430.396 239.512 430.396 147.874 400.688 147.874"
       class="cls-5" />
    <polygon
       id="polygon143"
       points="459.009 235.772 465.485 239.511 459.009 243.251 459.009 235.772" />
    <polygon
       id="polygon145"
       points="401.782 144.135 395.306 147.874 401.782 151.614 401.782 144.135" />
  </g>
  <rect
     id="rect149"
     height="32.531"
     width="113.384"
     y="17.679"
     x="465.485"
     class="cls-6" />
  <g
     id="g175">
    <path
       id="path151"
       d="M493.361,32.237h1.1v.776a1.659,1.659,0,0,1,1.446-.853,1.527,1.527,0,0,1,1.427.941,1.793,1.793,0,0,1,1.611-.941,1.61,1.61,0,0,1,1.591,1.765V37.1h-1.1v-2.94a.985.985,0,0,0-.98-1.117,1.16,1.16,0,0,0-.981.573c.01.107.02.2.02.31V37.1h-1.1v-2.94a.984.984,0,0,0-.981-1.117,1.129,1.129,0,0,0-.96.554v3.5h-1.1Z" />
    <path
       id="path153"
       d="M501.621,35.7c0-.873.709-1.427,1.853-1.427a3.021,3.021,0,0,1,1.311.3v-.534c0-.64-.37-.97-1.117-.97a3.369,3.369,0,0,0-1.417.378l-.387-.8a4.659,4.659,0,0,1,2.018-.5c1.261,0,1.99.64,1.99,1.765V37.1h-1.087V36.6a2.03,2.03,0,0,1-1.447.572A1.532,1.532,0,0,1,501.621,35.7Zm2.018.708a1.734,1.734,0,0,0,1.146-.4v-.8a2.521,2.521,0,0,0-1.126-.232c-.621,0-1.009.271-1.009.7C502.65,36.128,503.038,36.41,503.639,36.41Z" />
    <path
       id="path155"
       d="M507.2,32.237h1.1v.8a1.762,1.762,0,0,1,1.543-.873,1.636,1.636,0,0,1,1.679,1.737v3.2h-1.1V34.208a1.048,1.048,0,0,0-1.067-1.166,1.248,1.248,0,0,0-1.058.583V37.1h-1.1Z" />
    <path
       id="path157"
       d="M512.715,30.578a.685.685,0,0,1,1.369,0,.685.685,0,0,1-1.369,0Zm1.234,6.521h-1.1V32.237h1.1Z" />
    <path
       id="path159"
       d="M516.4,37.1h-1.1V30.161l1.1-.185Z" />
    <path
       id="path161"
       d="M517.5,35.7c0-.873.709-1.427,1.854-1.427a3.014,3.014,0,0,1,1.31.3v-.534c0-.64-.369-.97-1.116-.97a3.369,3.369,0,0,0-1.417.378l-.387-.8a4.659,4.659,0,0,1,2.018-.5c1.261,0,1.989.64,1.989,1.765V37.1h-1.087V36.6a2.026,2.026,0,0,1-1.446.572A1.533,1.533,0,0,1,517.5,35.7Zm2.019.708a1.734,1.734,0,0,0,1.145-.4v-.8a2.516,2.516,0,0,0-1.126-.232c-.621,0-1.008.271-1.008.7C518.531,36.128,518.918,36.41,519.52,36.41Z" />
    <path
       id="path163"
       d="M526.334,33.887v.922h-3.378v-.922Z" />
    <path
       id="path165"
       d="M527.645,35.8a2.794,2.794,0,0,0,1.562.554c.582,0,.981-.262.981-.65,0-.3-.2-.466-.67-.553L528.655,35c-.942-.173-1.407-.611-1.407-1.338,0-.913.747-1.5,1.882-1.5a3.418,3.418,0,0,1,1.911.582l-.513.717a2.661,2.661,0,0,0-1.466-.465c-.5,0-.835.214-.835.573,0,.31.175.446.689.533l.854.155c.971.185,1.436.631,1.436,1.36a1.781,1.781,0,0,1-1.979,1.581,3.27,3.27,0,0,1-2.1-.659Z" />
    <path
       id="path167"
       d="M532.218,30.161l1.1-.185v3.057a1.761,1.761,0,0,1,1.543-.873,1.636,1.636,0,0,1,1.679,1.737v3.2h-1.1V34.208a1.048,1.048,0,0,0-1.067-1.166,1.248,1.248,0,0,0-1.058.583V37.1h-1.1Z" />
    <path
       id="path169"
       d="M537.624,35.7c0-.873.709-1.427,1.854-1.427a3.021,3.021,0,0,1,1.311.3v-.534c0-.64-.37-.97-1.117-.97a3.369,3.369,0,0,0-1.417.378l-.387-.8a4.659,4.659,0,0,1,2.018-.5c1.261,0,1.989.64,1.989,1.765V37.1h-1.086V36.6a2.03,2.03,0,0,1-1.447.572A1.533,1.533,0,0,1,537.624,35.7Zm2.019.708a1.736,1.736,0,0,0,1.146-.4v-.8a2.521,2.521,0,0,0-1.126-.232c-.622,0-1.009.271-1.009.7C538.654,36.128,539.041,36.41,539.643,36.41Z" />
    <path
       id="path171"
       d="M543.206,32.237h1.1V33.3a1.441,1.441,0,0,1,1.339-1.145,1.3,1.3,0,0,1,.476.1v.961a1.546,1.546,0,0,0-.6-.117,1.334,1.334,0,0,0-1.213.806v3.2h-1.1Z" />
    <path
       id="path173"
       d="M549.039,37.2a2.471,2.471,0,0,1-2.474-2.523,2.4,2.4,0,0,1,2.368-2.513,2.334,2.334,0,0,1,2.3,2.5v.271h-3.591a1.484,1.484,0,0,0,1.456,1.329,1.577,1.577,0,0,0,1.154-.456l.719.67A2.813,2.813,0,0,1,549.039,37.2Zm-1.377-2.931H550.2a1.331,1.331,0,0,0-1.272-1.213A1.306,1.306,0,0,0,547.662,34.265Z" />
  </g>
  <g
     id="g183">
    <line
       id="line177"
       y2="55.843"
       x2="338.106"
       y1="102.539"
       x1="338.106"
       class="cls-5" />
    <polygon
       id="polygon179"
       points="341.846 101.445 338.107 107.921 334.367 101.445 341.846 101.445" />
    <polygon
       id="polygon181"
       points="341.846 56.938 338.107 50.462 334.367 56.938 341.846 56.938" />
  </g>
  <g
     id="g221">
    <rect
       id="rect185"
       height="32.531"
       width="113.384"
       y="17.679"
       x="281.414"
       class="cls-2" />
    <g
       id="g219">
      <path
         id="path187"
         d="M299.477,32.236h1.1v.776a1.656,1.656,0,0,1,1.445-.853,1.527,1.527,0,0,1,1.427.941,1.794,1.794,0,0,1,1.611-.941,1.61,1.61,0,0,1,1.591,1.765V37.1h-1.1v-2.94a.983.983,0,0,0-.979-1.116,1.159,1.159,0,0,0-.981.572c.01.107.02.2.02.31V37.1h-1.1v-2.94a.984.984,0,0,0-.98-1.116,1.126,1.126,0,0,0-.96.553v3.5h-1.1Z" />
      <path
         id="path189"
         d="M307.737,35.7c0-.873.709-1.427,1.853-1.427a3.021,3.021,0,0,1,1.311.3v-.533c0-.641-.369-.971-1.116-.971a3.347,3.347,0,0,0-1.417.379l-.388-.8a4.659,4.659,0,0,1,2.018-.5c1.262,0,1.99.64,1.99,1.765V37.1H310.9V36.6a2.031,2.031,0,0,1-1.446.573A1.533,1.533,0,0,1,307.737,35.7Zm2.018.708a1.734,1.734,0,0,0,1.146-.4v-.8a2.518,2.518,0,0,0-1.126-.232c-.621,0-1.009.271-1.009.7C308.766,36.127,309.154,36.409,309.755,36.409Z" />
      <path
         id="path191"
         d="M313.319,32.236h1.1v.8a1.764,1.764,0,0,1,1.543-.873,1.636,1.636,0,0,1,1.679,1.737v3.2h-1.1V34.207a1.047,1.047,0,0,0-1.067-1.165,1.248,1.248,0,0,0-1.058.582V37.1h-1.1Z" />
      <path
         id="path193"
         d="M318.832,30.577a.685.685,0,0,1,1.369,0,.685.685,0,0,1-1.369,0Zm1.233,6.521h-1.1V32.236h1.1Z" />
      <path
         id="path195"
         d="M322.511,37.1h-1.1V30.16l1.1-.185Z" />
      <path
         id="path197"
         d="M323.618,35.7c0-.873.709-1.427,1.853-1.427a3.021,3.021,0,0,1,1.311.3v-.533c0-.641-.369-.971-1.117-.971a3.354,3.354,0,0,0-1.417.379l-.387-.8a4.659,4.659,0,0,1,2.018-.5c1.262,0,1.99.64,1.99,1.765V37.1h-1.087V36.6a2.031,2.031,0,0,1-1.447.573A1.533,1.533,0,0,1,323.618,35.7Zm2.018.708a1.734,1.734,0,0,0,1.146-.4v-.8a2.521,2.521,0,0,0-1.126-.232c-.621,0-1.009.271-1.009.7C324.647,36.127,325.035,36.409,325.636,36.409Z" />
      <path
         id="path199"
         d="M332.451,33.886v.922h-3.378v-.922Z" />
      <path
         id="path201"
         d="M333.761,35.8a2.8,2.8,0,0,0,1.563.554c.582,0,.98-.263.98-.65,0-.3-.2-.466-.67-.553L334.771,35c-.941-.174-1.407-.612-1.407-1.339,0-.912.747-1.5,1.883-1.5a3.421,3.421,0,0,1,1.911.582l-.514.718a2.662,2.662,0,0,0-1.466-.466c-.5,0-.835.214-.835.573,0,.31.175.446.69.533l.853.155c.971.185,1.437.631,1.437,1.36a1.782,1.782,0,0,1-1.98,1.581,3.265,3.265,0,0,1-2.1-.659Z" />
      <path
         id="path203"
         d="M341.856,35.691l.66.66a2.529,2.529,0,0,1-1.9.844,2.514,2.514,0,0,1,0-5.027,2.62,2.62,0,0,1,1.941.815l-.68.709a1.6,1.6,0,0,0-1.222-.572,1.56,1.56,0,0,0,.029,3.105A1.491,1.491,0,0,0,341.856,35.691Z" />
      <path
         id="path205"
         d="M343.459,30.16l1.1-.185v3.057a1.762,1.762,0,0,1,1.543-.873,1.636,1.636,0,0,1,1.679,1.737v3.2h-1.1V34.207a1.047,1.047,0,0,0-1.067-1.165,1.247,1.247,0,0,0-1.058.582V37.1h-1.1Z" />
      <path
         id="path207"
         d="M351.36,37.2a2.472,2.472,0,0,1-2.475-2.523,2.4,2.4,0,0,1,2.368-2.513,2.334,2.334,0,0,1,2.3,2.5v.271h-3.591a1.485,1.485,0,0,0,1.456,1.329,1.581,1.581,0,0,0,1.155-.456l.718.67A2.809,2.809,0,0,1,351.36,37.2Zm-1.378-2.931h2.533a1.331,1.331,0,0,0-1.271-1.213A1.306,1.306,0,0,0,349.982,34.264Z" />
      <path
         id="path209"
         d="M358.173,36.448a1.873,1.873,0,0,1-1.494.7,2.487,2.487,0,0,1,.068-4.949,1.856,1.856,0,0,1,1.417.639V30.16l1.1-.185V37.1h-1.087Zm-1.164-.223a1.453,1.453,0,0,0,1.155-.534V33.643a1.509,1.509,0,0,0-1.155-.523,1.556,1.556,0,0,0,0,3.105Z" />
      <path
         id="path211"
         d="M361.689,35.128a1.047,1.047,0,0,0,1.067,1.164,1.228,1.228,0,0,0,1.068-.6V32.236h1.1V37.1h-1.1v-.806a1.776,1.776,0,0,1-1.553.884,1.631,1.631,0,0,1-1.679-1.737v-3.2h1.1Z" />
      <path
         id="path213"
         d="M367.368,37.1h-1.1V30.16l1.1-.185Z" />
      <path
         id="path215"
         d="M370.968,37.2a2.472,2.472,0,0,1-2.474-2.523,2.394,2.394,0,0,1,2.368-2.513,2.334,2.334,0,0,1,2.3,2.5v.271h-3.591a1.484,1.484,0,0,0,1.456,1.329,1.577,1.577,0,0,0,1.154-.456l.719.67A2.815,2.815,0,0,1,370.968,37.2Zm-1.378-2.931h2.533a1.331,1.331,0,0,0-1.271-1.213A1.307,1.307,0,0,0,369.59,34.264Z" />
      <path
         id="path217"
         d="M374.279,32.236h1.1v1.057a1.441,1.441,0,0,1,1.339-1.144,1.3,1.3,0,0,1,.476.1v.961a1.546,1.546,0,0,0-.6-.117,1.335,1.335,0,0,0-1.213.806v3.2h-1.1Z" />
    </g>
  </g>
  <g
     id="g239">
    <path
       id="path223"
       d="M502.387,70.51c1.281,0,2.145.718,2.145,1.785a1.629,1.629,0,0,1-1.086,1.5,1.7,1.7,0,0,1,1.319,1.611,1.98,1.98,0,0,1-2.242,1.892H499.37V70.51Zm-1.853.951v1.9h1.737c.67,0,1.1-.368,1.1-.95s-.427-.952-1.1-.952Zm3.057,3.843a1.059,1.059,0,0,0-1.2-1.038h-1.853v2.086h1.853A1.066,1.066,0,0,0,503.591,75.3Z" />
    <path
       id="path225"
       d="M505.747,75.906c0-.873.709-1.427,1.853-1.427a3.021,3.021,0,0,1,1.311.3v-.533c0-.641-.37-.971-1.117-.971a3.354,3.354,0,0,0-1.417.379l-.387-.8a4.659,4.659,0,0,1,2.018-.495c1.262,0,1.99.64,1.99,1.765V77.3h-1.087v-.495a2.027,2.027,0,0,1-1.447.573A1.533,1.533,0,0,1,505.747,75.906Zm2.018.708a1.734,1.734,0,0,0,1.146-.4v-.8a2.521,2.521,0,0,0-1.126-.232c-.621,0-1.009.271-1.009.7C506.776,76.333,507.164,76.614,507.765,76.614Z" />
    <path
       id="path227"
       d="M514.8,75.9l.66.66a2.529,2.529,0,0,1-1.9.844,2.514,2.514,0,0,1,0-5.026,2.623,2.623,0,0,1,1.941.814l-.679.709a1.605,1.605,0,0,0-1.223-.572,1.56,1.56,0,0,0,.029,3.105A1.491,1.491,0,0,0,514.8,75.9Z" />
    <path
       id="path229"
       d="M516.406,70.365l1.1-.185v4.338l2.019-2.077h1.251l-2.222,2.252,2.359,2.61H519.5l-2-2.242V77.3h-1.1Z" />
    <path
       id="path231"
       d="M526.092,77.4a2.472,2.472,0,0,1-2.474-2.523,2.4,2.4,0,0,1,2.368-2.513,2.334,2.334,0,0,1,2.3,2.5v.271H524.7a1.484,1.484,0,0,0,1.456,1.329,1.577,1.577,0,0,0,1.154-.456l.719.67A2.813,2.813,0,0,1,526.092,77.4Zm-1.378-2.931h2.534a1.332,1.332,0,0,0-1.272-1.213A1.307,1.307,0,0,0,524.714,74.469Z" />
    <path
       id="path233"
       d="M529.4,72.441h1.1v.8a1.766,1.766,0,0,1,1.543-.873,1.636,1.636,0,0,1,1.679,1.737v3.2h-1.1V74.412a1.047,1.047,0,0,0-1.067-1.165,1.248,1.248,0,0,0-1.058.582V77.3h-1.1Z" />
    <path
       id="path235"
       d="M538.527,76.653a1.873,1.873,0,0,1-1.494.7A2.487,2.487,0,0,1,537.1,72.4a1.853,1.853,0,0,1,1.417.639V70.365l1.1-.185V77.3h-1.087Zm-1.164-.223a1.451,1.451,0,0,0,1.154-.534V73.848a1.5,1.5,0,0,0-1.154-.523,1.556,1.556,0,0,0,0,3.105Z" />
    <path
       id="path237"
       d="M545.1,77.3H544.04V71.617l-1.2.523V71.2l1.591-.689h.67Z" />
  </g>
  <rect
     id="rect241"
     height="32.531"
     width="113.384"
     y="107.921"
     x="465.485"
     class="cls-6" />
  <g
     id="g267">
    <path
       id="path243"
       d="M493.361,122.479h1.1v.776a1.659,1.659,0,0,1,1.446-.853,1.527,1.527,0,0,1,1.427.941,1.793,1.793,0,0,1,1.611-.941,1.61,1.61,0,0,1,1.591,1.765v3.174h-1.1V124.4a.984.984,0,0,0-.98-1.116,1.159,1.159,0,0,0-.981.572c.01.107.02.2.02.31v3.174h-1.1V124.4a.983.983,0,0,0-.981-1.116,1.128,1.128,0,0,0-.96.553v3.5h-1.1Z" />
    <path
       id="path245"
       d="M501.621,125.944c0-.873.709-1.427,1.853-1.427a3.021,3.021,0,0,1,1.311.3v-.533c0-.641-.37-.971-1.117-.971a3.369,3.369,0,0,0-1.417.378l-.387-.795a4.659,4.659,0,0,1,2.018-.5c1.261,0,1.99.64,1.99,1.765v3.174h-1.087v-.495a2.026,2.026,0,0,1-1.447.572A1.532,1.532,0,0,1,501.621,125.944Zm2.018.708a1.734,1.734,0,0,0,1.146-.4v-.8a2.508,2.508,0,0,0-1.126-.233c-.621,0-1.009.272-1.009.7C502.65,126.371,503.038,126.652,503.639,126.652Z" />
    <path
       id="path247"
       d="M507.2,122.479h1.1v.8a1.764,1.764,0,0,1,1.543-.873,1.637,1.637,0,0,1,1.679,1.737v3.2h-1.1V124.45a1.047,1.047,0,0,0-1.067-1.165,1.247,1.247,0,0,0-1.058.582v3.474h-1.1Z" />
    <path
       id="path249"
       d="M512.715,120.82a.685.685,0,0,1,1.369,0,.685.685,0,0,1-1.369,0Zm1.234,6.521h-1.1v-4.862h1.1Z" />
    <path
       id="path251"
       d="M516.4,127.341h-1.1V120.4l1.1-.185Z" />
    <path
       id="path253"
       d="M517.5,125.944c0-.873.709-1.427,1.854-1.427a3.014,3.014,0,0,1,1.31.3v-.533c0-.641-.369-.971-1.116-.971a3.369,3.369,0,0,0-1.417.378l-.387-.795a4.659,4.659,0,0,1,2.018-.5c1.261,0,1.989.64,1.989,1.765v3.174h-1.087v-.495a2.022,2.022,0,0,1-1.446.572A1.533,1.533,0,0,1,517.5,125.944Zm2.019.708a1.734,1.734,0,0,0,1.145-.4v-.8a2.5,2.5,0,0,0-1.126-.233c-.621,0-1.008.272-1.008.7C518.531,126.371,518.918,126.652,519.52,126.652Z" />
    <path
       id="path255"
       d="M526.334,124.129v.922h-3.378v-.922Z" />
    <path
       id="path257"
       d="M527.645,126.041a2.8,2.8,0,0,0,1.562.553c.582,0,.981-.261.981-.65,0-.3-.2-.466-.67-.553l-.863-.146c-.942-.174-1.407-.612-1.407-1.339,0-.912.747-1.5,1.882-1.5a3.418,3.418,0,0,1,1.911.582l-.513.718a2.654,2.654,0,0,0-1.466-.466c-.5,0-.835.214-.835.573,0,.311.175.446.689.533l.854.156c.971.184,1.436.63,1.436,1.359a1.78,1.78,0,0,1-1.979,1.581,3.264,3.264,0,0,1-2.1-.659Z" />
    <path
       id="path259"
       d="M532.218,120.4l1.1-.185v3.057a1.763,1.763,0,0,1,1.543-.873,1.637,1.637,0,0,1,1.679,1.737v3.2h-1.1V124.45a1.047,1.047,0,0,0-1.067-1.165,1.247,1.247,0,0,0-1.058.582v3.474h-1.1Z" />
    <path
       id="path261"
       d="M537.624,125.944c0-.873.709-1.427,1.854-1.427a3.021,3.021,0,0,1,1.311.3v-.533c0-.641-.37-.971-1.117-.971a3.369,3.369,0,0,0-1.417.378l-.387-.795a4.659,4.659,0,0,1,2.018-.5c1.261,0,1.989.64,1.989,1.765v3.174h-1.086v-.495a2.026,2.026,0,0,1-1.447.572A1.533,1.533,0,0,1,537.624,125.944Zm2.019.708a1.736,1.736,0,0,0,1.146-.4v-.8a2.508,2.508,0,0,0-1.126-.233c-.622,0-1.009.272-1.009.7C538.654,126.371,539.041,126.652,539.643,126.652Z" />
    <path
       id="path263"
       d="M543.206,122.479h1.1v1.059a1.442,1.442,0,0,1,1.339-1.146,1.3,1.3,0,0,1,.476.1v.961a1.563,1.563,0,0,0-.6-.116,1.333,1.333,0,0,0-1.213.8v3.2h-1.1Z" />
    <path
       id="path265"
       d="M549.039,127.438a2.47,2.47,0,0,1-2.474-2.522,2.4,2.4,0,0,1,2.368-2.514,2.334,2.334,0,0,1,2.3,2.5v.271h-3.591a1.484,1.484,0,0,0,1.456,1.329,1.577,1.577,0,0,0,1.154-.456l.719.67A2.813,2.813,0,0,1,549.039,127.438Zm-1.377-2.931H550.2a1.332,1.332,0,0,0-1.272-1.213A1.306,1.306,0,0,0,547.662,124.507Z" />
  </g>
  <g
     id="g285">
    <path
       id="path269"
       d="M502.387,160.751c1.281,0,2.145.718,2.145,1.786a1.631,1.631,0,0,1-1.086,1.5,1.7,1.7,0,0,1,1.319,1.61,1.98,1.98,0,0,1-2.242,1.892H499.37v-6.793Zm-1.853.952v1.9h1.737c.67,0,1.1-.368,1.1-.951s-.427-.95-1.1-.95Zm3.057,3.842a1.06,1.06,0,0,0-1.2-1.038h-1.853v2.086h1.853A1.066,1.066,0,0,0,503.591,165.545Z" />
    <path
       id="path271"
       d="M505.747,166.147c0-.873.709-1.427,1.853-1.427a3.021,3.021,0,0,1,1.311.3v-.533c0-.641-.37-.971-1.117-.971a3.366,3.366,0,0,0-1.417.378l-.387-.8a4.659,4.659,0,0,1,2.018-.5c1.262,0,1.99.641,1.99,1.766v3.173h-1.087v-.5a2.027,2.027,0,0,1-1.447.573A1.533,1.533,0,0,1,505.747,166.147Zm2.018.708a1.739,1.739,0,0,0,1.146-.4v-.8a2.522,2.522,0,0,0-1.126-.233c-.621,0-1.009.272-1.009.7C506.776,166.574,507.164,166.855,507.765,166.855Z" />
    <path
       id="path273"
       d="M514.8,166.137l.66.66a2.529,2.529,0,0,1-1.9.844,2.514,2.514,0,0,1,0-5.026,2.62,2.62,0,0,1,1.941.815l-.679.708a1.605,1.605,0,0,0-1.223-.572,1.56,1.56,0,0,0,.029,3.1A1.491,1.491,0,0,0,514.8,166.137Z" />
    <path
       id="path275"
       d="M516.406,160.606l1.1-.185v4.338l2.019-2.077h1.251l-2.222,2.252,2.359,2.61H519.5l-2-2.242v2.242h-1.1Z" />
    <path
       id="path277"
       d="M526.092,167.641a2.47,2.47,0,0,1-2.474-2.522,2.4,2.4,0,0,1,2.368-2.514,2.334,2.334,0,0,1,2.3,2.5v.271H524.7a1.484,1.484,0,0,0,1.456,1.329,1.577,1.577,0,0,0,1.154-.456l.719.67A2.813,2.813,0,0,1,526.092,167.641Zm-1.378-2.931h2.534a1.332,1.332,0,0,0-1.272-1.212A1.306,1.306,0,0,0,524.714,164.71Z" />
    <path
       id="path279"
       d="M529.4,162.682h1.1v.8a1.766,1.766,0,0,1,1.543-.873,1.636,1.636,0,0,1,1.679,1.737v3.2h-1.1v-2.891a1.047,1.047,0,0,0-1.067-1.165,1.248,1.248,0,0,0-1.058.582v3.474h-1.1Z" />
    <path
       id="path281"
       d="M538.527,166.894a1.87,1.87,0,0,1-1.494.7,2.487,2.487,0,0,1,.067-4.949,1.85,1.85,0,0,1,1.417.64v-2.678l1.1-.185v7.123h-1.087Zm-1.164-.223a1.451,1.451,0,0,0,1.154-.534v-2.048a1.5,1.5,0,0,0-1.154-.523,1.556,1.556,0,0,0,0,3.1Z" />
    <path
       id="path283"
       d="M545.1,167.544H544.04v-5.686l-1.2.523v-.941l1.591-.689h.67Z" />
  </g>
  <rect
     id="rect287"
     height="32.531"
     width="113.384"
     y="198.163"
     x="465.485"
     class="cls-6" />
  <g
     id="g313">
    <path
       id="path289"
       d="M493.361,212.72h1.1v.777a1.658,1.658,0,0,1,1.446-.854,1.527,1.527,0,0,1,1.427.941,1.793,1.793,0,0,1,1.611-.941,1.611,1.611,0,0,1,1.591,1.766v3.174h-1.1v-2.941a.984.984,0,0,0-.98-1.116,1.159,1.159,0,0,0-.981.572c.01.108.02.2.02.311v3.174h-1.1v-2.941a.983.983,0,0,0-.981-1.116,1.126,1.126,0,0,0-.96.554v3.5h-1.1Z" />
    <path
       id="path291"
       d="M501.621,216.185c0-.873.709-1.427,1.853-1.427a3.021,3.021,0,0,1,1.311.3v-.533c0-.641-.37-.971-1.117-.971a3.358,3.358,0,0,0-1.417.379l-.387-.8a4.659,4.659,0,0,1,2.018-.5c1.261,0,1.99.641,1.99,1.766v3.174h-1.087v-.5a2.028,2.028,0,0,1-1.447.574A1.534,1.534,0,0,1,501.621,216.185Zm2.018.708a1.739,1.739,0,0,0,1.146-.4v-.8a2.522,2.522,0,0,0-1.126-.233c-.621,0-1.009.272-1.009.7C502.65,216.612,503.038,216.893,503.639,216.893Z" />
    <path
       id="path293"
       d="M507.2,212.72h1.1v.8a1.764,1.764,0,0,1,1.543-.873,1.637,1.637,0,0,1,1.679,1.737v3.2h-1.1v-2.892a1.047,1.047,0,0,0-1.067-1.165,1.247,1.247,0,0,0-1.058.582v3.475h-1.1Z" />
    <path
       id="path295"
       d="M512.715,211.061a.685.685,0,0,1,1.369,0,.685.685,0,0,1-1.369,0Zm1.234,6.522h-1.1V212.72h1.1Z" />
    <path
       id="path297"
       d="M516.4,217.583h-1.1v-6.939l1.1-.185Z" />
    <path
       id="path299"
       d="M517.5,216.185c0-.873.709-1.427,1.854-1.427a3.014,3.014,0,0,1,1.31.3v-.533c0-.641-.369-.971-1.116-.971a3.358,3.358,0,0,0-1.417.379l-.387-.8a4.659,4.659,0,0,1,2.018-.5c1.261,0,1.989.641,1.989,1.766v3.174h-1.087v-.5a2.024,2.024,0,0,1-1.446.574A1.535,1.535,0,0,1,517.5,216.185Zm2.019.708a1.738,1.738,0,0,0,1.145-.4v-.8a2.516,2.516,0,0,0-1.126-.233c-.621,0-1.008.272-1.008.7C518.531,216.612,518.918,216.893,519.52,216.893Z" />
    <path
       id="path301"
       d="M526.334,214.371v.921h-3.378v-.921Z" />
    <path
       id="path303"
       d="M527.645,216.282a2.8,2.8,0,0,0,1.562.553c.582,0,.981-.262.981-.65,0-.3-.2-.466-.67-.553l-.863-.145c-.942-.175-1.407-.612-1.407-1.34,0-.912.747-1.5,1.882-1.5a3.426,3.426,0,0,1,1.911.582l-.513.718a2.67,2.67,0,0,0-1.466-.466c-.5,0-.835.214-.835.573,0,.311.175.447.689.534l.854.155c.971.184,1.436.631,1.436,1.359a1.78,1.78,0,0,1-1.979,1.581,3.264,3.264,0,0,1-2.1-.659Z" />
    <path
       id="path305"
       d="M532.218,210.644l1.1-.185v3.057a1.763,1.763,0,0,1,1.543-.873,1.637,1.637,0,0,1,1.679,1.737v3.2h-1.1v-2.892a1.047,1.047,0,0,0-1.067-1.165,1.247,1.247,0,0,0-1.058.582v3.475h-1.1Z" />
    <path
       id="path307"
       d="M537.624,216.185c0-.873.709-1.427,1.854-1.427a3.021,3.021,0,0,1,1.311.3v-.533c0-.641-.37-.971-1.117-.971a3.358,3.358,0,0,0-1.417.379l-.387-.8a4.659,4.659,0,0,1,2.018-.5c1.261,0,1.989.641,1.989,1.766v3.174h-1.086v-.5a2.028,2.028,0,0,1-1.447.574A1.535,1.535,0,0,1,537.624,216.185Zm2.019.708a1.741,1.741,0,0,0,1.146-.4v-.8a2.522,2.522,0,0,0-1.126-.233c-.622,0-1.009.272-1.009.7C538.654,216.612,539.041,216.893,539.643,216.893Z" />
    <path
       id="path309"
       d="M543.206,212.72h1.1v1.058a1.442,1.442,0,0,1,1.339-1.145,1.325,1.325,0,0,1,.476.1v.961a1.563,1.563,0,0,0-.6-.116,1.334,1.334,0,0,0-1.213.805v3.2h-1.1Z" />
    <path
       id="path311"
       d="M549.039,217.679a2.471,2.471,0,0,1-2.474-2.522,2.4,2.4,0,0,1,2.368-2.514,2.334,2.334,0,0,1,2.3,2.5v.271h-3.591a1.485,1.485,0,0,0,1.456,1.33,1.577,1.577,0,0,0,1.154-.456l.719.669A2.808,2.808,0,0,1,549.039,217.679Zm-1.377-2.93H550.2a1.331,1.331,0,0,0-1.272-1.213A1.305,1.305,0,0,0,547.662,214.749Z" />
  </g>
  <g
     id="g331">
    <path
       id="path315"
       d="M502.387,250.993c1.281,0,2.145.717,2.145,1.785a1.63,1.63,0,0,1-1.086,1.5,1.7,1.7,0,0,1,1.319,1.61,1.981,1.981,0,0,1-2.242,1.893H499.37v-6.793Zm-1.853.951v1.9h1.737c.67,0,1.1-.368,1.1-.95s-.427-.951-1.1-.951Zm3.057,3.843a1.059,1.059,0,0,0-1.2-1.038h-1.853v2.085h1.853A1.066,1.066,0,0,0,503.591,255.787Z" />
    <path
       id="path317"
       d="M505.747,256.388c0-.873.709-1.427,1.853-1.427a3.021,3.021,0,0,1,1.311.3v-.533c0-.641-.37-.971-1.117-.971a3.369,3.369,0,0,0-1.417.379l-.387-.8a4.659,4.659,0,0,1,2.018-.5c1.262,0,1.99.641,1.99,1.766v3.174h-1.087v-.5a2.031,2.031,0,0,1-1.447.573A1.534,1.534,0,0,1,505.747,256.388Zm2.018.708a1.739,1.739,0,0,0,1.146-.4v-.8a2.522,2.522,0,0,0-1.126-.233c-.621,0-1.009.272-1.009.7C506.776,256.815,507.164,257.1,507.765,257.1Z" />
    <path
       id="path319"
       d="M514.8,256.378l.66.661a2.531,2.531,0,0,1-1.9.843,2.514,2.514,0,0,1,0-5.026,2.623,2.623,0,0,1,1.941.814l-.679.709a1.609,1.609,0,0,0-1.223-.572,1.56,1.56,0,0,0,.029,3.106A1.492,1.492,0,0,0,514.8,256.378Z" />
    <path
       id="path321"
       d="M516.406,250.847l1.1-.184V255l2.019-2.078h1.251l-2.222,2.252,2.359,2.611H519.5l-2-2.243v2.243h-1.1Z" />
    <path
       id="path323"
       d="M526.092,257.882a2.471,2.471,0,0,1-2.474-2.522,2.4,2.4,0,0,1,2.368-2.514,2.334,2.334,0,0,1,2.3,2.5v.272H524.7a1.485,1.485,0,0,0,1.456,1.329,1.577,1.577,0,0,0,1.154-.456l.719.67A2.812,2.812,0,0,1,526.092,257.882Zm-1.378-2.93h2.534a1.332,1.332,0,0,0-1.272-1.213A1.306,1.306,0,0,0,524.714,254.952Z" />
    <path
       id="path325"
       d="M529.4,252.923h1.1v.8a1.766,1.766,0,0,1,1.543-.873,1.636,1.636,0,0,1,1.679,1.738v3.2h-1.1v-2.892a1.047,1.047,0,0,0-1.067-1.165,1.248,1.248,0,0,0-1.058.582v3.475h-1.1Z" />
    <path
       id="path327"
       d="M538.527,257.135a1.87,1.87,0,0,1-1.494.7,2.487,2.487,0,0,1,.067-4.949,1.854,1.854,0,0,1,1.417.64v-2.678l1.1-.184v7.123h-1.087Zm-1.164-.222a1.452,1.452,0,0,0,1.154-.535v-2.047a1.506,1.506,0,0,0-1.154-.524,1.557,1.557,0,0,0,0,3.106Z" />
    <path
       id="path329"
       d="M545.1,257.786H544.04V252.1l-1.2.524v-.942l1.591-.688h.67Z" />
  </g>
  <g
     id="g357">
    <path
       id="path333"
       d="M304.679,164.874V170.2H303.6v-6.793h1.514l1.989,4.114,1.979-4.114H310.6V170.2h-1.1v-5.3l-2.407,4.813Z" />
    <path
       id="path335"
       d="M314.357,170.3a2.471,2.471,0,0,1-2.475-2.522,2.4,2.4,0,0,1,2.368-2.514,2.334,2.334,0,0,1,2.3,2.5v.272h-3.591a1.486,1.486,0,0,0,1.456,1.329,1.579,1.579,0,0,0,1.155-.456l.719.67A2.814,2.814,0,0,1,314.357,170.3Zm-1.378-2.93h2.533a1.331,1.331,0,0,0-1.271-1.213A1.305,1.305,0,0,0,312.979,167.368Z" />
    <path
       id="path337"
       d="M317.793,168.9a2.8,2.8,0,0,0,1.563.554c.582,0,.98-.263.98-.651,0-.3-.2-.466-.67-.553l-.863-.145c-.941-.175-1.407-.612-1.407-1.34,0-.912.747-1.5,1.883-1.5a3.429,3.429,0,0,1,1.911.582l-.514.718a2.668,2.668,0,0,0-1.466-.466c-.5,0-.835.214-.835.573,0,.311.175.447.69.534l.853.155c.971.184,1.437.631,1.437,1.359a1.781,1.781,0,0,1-1.98,1.581,3.261,3.261,0,0,1-2.1-.659Z" />
    <path
       id="path339"
       d="M322.482,168.9a2.8,2.8,0,0,0,1.562.554c.582,0,.981-.263.981-.651,0-.3-.2-.466-.67-.553l-.863-.145c-.942-.175-1.408-.612-1.408-1.34,0-.912.747-1.5,1.883-1.5a3.426,3.426,0,0,1,1.911.582l-.513.718a2.67,2.67,0,0,0-1.466-.466c-.5,0-.835.214-.835.573,0,.311.175.447.689.534l.854.155c.971.184,1.436.631,1.436,1.359a1.78,1.78,0,0,1-1.979,1.581,3.264,3.264,0,0,1-2.1-.659Z" />
    <path
       id="path341"
       d="M326.86,168.8c0-.873.709-1.427,1.853-1.427a3.021,3.021,0,0,1,1.311.3v-.533c0-.641-.369-.971-1.116-.971a3.362,3.362,0,0,0-1.417.379l-.388-.8a4.663,4.663,0,0,1,2.019-.5c1.261,0,1.989.641,1.989,1.766V170.2h-1.087v-.5a2.031,2.031,0,0,1-1.446.573A1.534,1.534,0,0,1,326.86,168.8Zm2.018.708a1.739,1.739,0,0,0,1.146-.4v-.8a2.519,2.519,0,0,0-1.126-.233c-.621,0-1.009.272-1.009.7C327.889,169.231,328.277,169.512,328.878,169.512Z" />
    <path
       id="path343"
       d="M332.218,167.766a2.347,2.347,0,0,1,2.271-2.465,1.829,1.829,0,0,1,1.426.659v-.621H337v5.028c0,1.252-.814,1.94-2.29,1.94a4.207,4.207,0,0,1-1.95-.466l.388-.814a3.31,3.31,0,0,0,1.514.417c.815,0,1.242-.369,1.242-1.077v-.825a1.886,1.886,0,0,1-1.485.689A2.331,2.331,0,0,1,332.218,167.766Zm2.533,1.553a1.456,1.456,0,0,0,1.155-.534v-2.038a1.509,1.509,0,0,0-1.155-.524,1.45,1.45,0,0,0-1.446,1.543A1.47,1.47,0,0,0,334.751,169.319Z" />
    <path
       id="path345"
       d="M340.6,170.3a2.471,2.471,0,0,1-2.475-2.522,2.4,2.4,0,0,1,2.369-2.514,2.333,2.333,0,0,1,2.3,2.5v.272h-3.591a1.486,1.486,0,0,0,1.457,1.329,1.579,1.579,0,0,0,1.154-.456l.719.67A2.812,2.812,0,0,1,340.6,170.3Zm-1.378-2.93h2.533a1.331,1.331,0,0,0-1.271-1.213A1.305,1.305,0,0,0,339.226,167.368Z" />
    <path
       id="path347"
       d="M351.776,169.319l.611.718-.834.591-.612-.708a3.321,3.321,0,0,1-1.581.388,3.5,3.5,0,1,1,3.435-3.5A3.541,3.541,0,0,1,351.776,169.319Zm-.737-.855a2.61,2.61,0,0,0,.562-1.659,2.251,2.251,0,1,0-2.231,2.455,2.056,2.056,0,0,0,.853-.175l-.776-.9.835-.6Z" />
    <path
       id="path349"
       d="M355.039,168.232a1.047,1.047,0,0,0,1.068,1.164,1.225,1.225,0,0,0,1.067-.6v-3.455h1.1V170.2h-1.1V169.4a1.777,1.777,0,0,1-1.552.884,1.631,1.631,0,0,1-1.679-1.738v-3.2h1.1Z" />
    <path
       id="path351"
       d="M361.873,170.3a2.471,2.471,0,0,1-2.475-2.522,2.394,2.394,0,0,1,2.368-2.514,2.334,2.334,0,0,1,2.3,2.5v.272h-3.591a1.485,1.485,0,0,0,1.456,1.329,1.577,1.577,0,0,0,1.154-.456l.719.67A2.813,2.813,0,0,1,361.873,170.3Zm-1.378-2.93h2.533a1.332,1.332,0,0,0-1.272-1.213A1.305,1.305,0,0,0,360.5,167.368Z" />
    <path
       id="path353"
       d="M366.25,168.232a1.047,1.047,0,0,0,1.068,1.164,1.226,1.226,0,0,0,1.067-.6v-3.455h1.1V170.2h-1.1V169.4a1.777,1.777,0,0,1-1.553.884,1.631,1.631,0,0,1-1.678-1.738v-3.2h1.1Z" />
    <path
       id="path355"
       d="M373.083,170.3a2.471,2.471,0,0,1-2.474-2.522,2.394,2.394,0,0,1,2.368-2.514,2.334,2.334,0,0,1,2.3,2.5v.272h-3.591a1.485,1.485,0,0,0,1.456,1.329,1.577,1.577,0,0,0,1.154-.456l.719.67A2.814,2.814,0,0,1,373.083,170.3Zm-1.377-2.93h2.533a1.332,1.332,0,0,0-1.272-1.213A1.3,1.3,0,0,0,371.706,167.368Z" />
  </g>
  <g
     id="g385">
    <g
       id="g375">
      <path
         id="path359"
         d="M319.309,265.854h2.484a3.4,3.4,0,1,1,0,6.793h-2.484Zm1.164,1.009v4.774h1.35a2.4,2.4,0,0,0,0-4.774Z"
         class="cls-7" />
      <path
         id="path361"
         d="M326.132,271.25c0-.874.709-1.427,1.854-1.427a3,3,0,0,1,1.31.3v-.534c0-.64-.369-.97-1.116-.97a3.358,3.358,0,0,0-1.417.379l-.388-.8a4.666,4.666,0,0,1,2.019-.495c1.261,0,1.989.64,1.989,1.765v3.174H329.3v-.5a2.027,2.027,0,0,1-1.446.573A1.533,1.533,0,0,1,326.132,271.25Zm2.019.708a1.734,1.734,0,0,0,1.145-.4v-.8a2.516,2.516,0,0,0-1.126-.232c-.621,0-1.008.271-1.008.7C327.162,271.676,327.549,271.958,328.151,271.958Z"
         class="cls-7" />
      <path
         id="path363"
         d="M332.316,268.659h-.981v-.874h.981v-1.339l1.1-.234v1.573h1.358v.874h-1.358v2.465c0,.475.183.66.678.66a2.022,2.022,0,0,0,.66-.117v.921a3.422,3.422,0,0,1-.941.137c-.98,0-1.494-.467-1.494-1.359Z"
         class="cls-7" />
      <path
         id="path365"
         d="M335.491,271.25c0-.874.709-1.427,1.853-1.427a3.007,3.007,0,0,1,1.311.3v-.534c0-.64-.369-.97-1.116-.97a3.347,3.347,0,0,0-1.417.379l-.388-.8a4.659,4.659,0,0,1,2.018-.495c1.262,0,1.99.64,1.99,1.765v3.174h-1.087v-.5a2.031,2.031,0,0,1-1.447.573A1.533,1.533,0,0,1,335.491,271.25Zm2.018.708a1.734,1.734,0,0,0,1.146-.4v-.8a2.518,2.518,0,0,0-1.126-.232c-.621,0-1.009.271-1.009.7C336.52,271.676,336.908,271.958,337.509,271.958Z"
         class="cls-7" />
      <path
         id="path367"
         d="M343.584,272.7a1.806,1.806,0,0,1-1.435-.68v.631h-1.077v-6.938l1.1-.185v2.911a1.891,1.891,0,0,1,1.5-.688,2.332,2.332,0,0,1,2.2,2.474A2.357,2.357,0,0,1,343.584,272.7Zm-1.416-3.485v2.029a1.491,1.491,0,0,0,1.164.534,1.557,1.557,0,0,0,0-3.106A1.426,1.426,0,0,0,342.168,269.211Z"
         class="cls-7" />
      <path
         id="path369"
         d="M346.76,271.25c0-.874.709-1.427,1.854-1.427a3,3,0,0,1,1.31.3v-.534c0-.64-.369-.97-1.116-.97a3.354,3.354,0,0,0-1.417.379l-.388-.8a4.666,4.666,0,0,1,2.019-.495c1.262,0,1.989.64,1.989,1.765v3.174h-1.087v-.5a2.027,2.027,0,0,1-1.446.573A1.533,1.533,0,0,1,346.76,271.25Zm2.019.708a1.734,1.734,0,0,0,1.145-.4v-.8a2.516,2.516,0,0,0-1.126-.232c-.621,0-1.009.271-1.009.7C347.789,271.676,348.177,271.958,348.779,271.958Z"
         class="cls-7" />
      <path
         id="path371"
         d="M352.419,271.346a2.8,2.8,0,0,0,1.563.554c.582,0,.98-.263.98-.65,0-.3-.2-.466-.67-.553l-.863-.146c-.941-.175-1.407-.612-1.407-1.34,0-.912.747-1.5,1.883-1.5a3.421,3.421,0,0,1,1.911.582l-.514.717a2.669,2.669,0,0,0-1.466-.465c-.5,0-.835.213-.835.573,0,.31.175.446.69.533l.853.155c.971.185,1.437.631,1.437,1.36a1.782,1.782,0,0,1-1.98,1.581,3.261,3.261,0,0,1-2.1-.66Z"
         class="cls-7" />
      <path
         id="path373"
         d="M359.243,272.744a2.472,2.472,0,0,1-2.475-2.523,2.4,2.4,0,0,1,2.368-2.513,2.333,2.333,0,0,1,2.3,2.5v.272h-3.591a1.485,1.485,0,0,0,1.456,1.329,1.581,1.581,0,0,0,1.155-.456l.718.67A2.812,2.812,0,0,1,359.243,272.744Zm-1.378-2.931H360.4a1.331,1.331,0,0,0-1.272-1.213A1.306,1.306,0,0,0,357.865,269.813Z"
         class="cls-7" />
    </g>
    <g
       id="g383">
      <path
         id="path377"
         d="M321.087,235.358v10.551c0,5.827,8.55,10.551,19.1,10.551s19.1-4.724,19.1-10.551V235.358"
         class="cls-5" />
      <path
         id="path379"
         d="M321.087,224.808v10.55c0,5.827,8.55,10.551,19.1,10.551s19.1-4.724,19.1-10.551v-10.55"
         class="cls-5" />
      <ellipse
         id="ellipse381"
         ry="10.551"
         rx="19.098"
         cy="224.808"
         cx="340.185"
         class="cls-5" />
    </g>
  </g>
  <g
     id="g403">
    <g
       id="g395">
      <path
         id="path387"
         d="M27.914,178.585a2.729,2.729,0,0,1-2.854-3.007V171.7h1.165v3.882a1.727,1.727,0,0,0,1.7,1.96c1.029,0,1.689-.767,1.689-1.96V171.7h1.165v3.882A2.745,2.745,0,0,1,27.914,178.585Z"
         class="cls-7" />
      <path
         id="path389"
         d="M32.215,177.188a2.8,2.8,0,0,0,1.562.554c.583,0,.981-.263.981-.651,0-.3-.2-.465-.67-.552l-.864-.146c-.941-.175-1.407-.612-1.407-1.34,0-.912.747-1.5,1.883-1.5a3.426,3.426,0,0,1,1.911.582l-.514.718a2.665,2.665,0,0,0-1.465-.466c-.5,0-.835.214-.835.574,0,.31.175.446.689.533l.854.155c.97.185,1.436.631,1.436,1.359a1.78,1.78,0,0,1-1.979,1.581,3.261,3.261,0,0,1-2.1-.659Z"
         class="cls-7" />
      <path
         id="path391"
         d="M39.038,178.585a2.471,2.471,0,0,1-2.475-2.522,2.4,2.4,0,0,1,2.369-2.514,2.333,2.333,0,0,1,2.3,2.5v.272h-3.59a1.485,1.485,0,0,0,1.456,1.329,1.579,1.579,0,0,0,1.154-.456l.718.67A2.81,2.81,0,0,1,39.038,178.585Zm-1.378-2.93h2.533a1.331,1.331,0,0,0-1.271-1.213A1.305,1.305,0,0,0,37.66,175.655Z"
         class="cls-7" />
      <path
         id="path393"
         d="M42.349,173.626h1.1v1.058a1.441,1.441,0,0,1,1.34-1.144,1.3,1.3,0,0,1,.475.1v.961a1.56,1.56,0,0,0-.6-.116,1.335,1.335,0,0,0-1.213.806v3.2h-1.1Z"
         class="cls-7" />
    </g>
    <g
       id="g401">
      <path
         id="path397"
         d="M53.46,162.307a18.527,18.527,0,0,0-37.053,0Z"
         class="cls-5" />
      <ellipse
         id="ellipse399"
         ry="9.288"
         rx="9.301"
         cy="134.534"
         cx="34.934"
         class="cls-5" />
    </g>
  </g>
</svg>
