<?xml version="1.0" encoding="utf-8"?>
<!-- Generator: Adobe Illustrator 21.1.0, SVG Export Plug-In . SVG Version: 6.00 Build 0)  -->
<svg version="1.1" id="Layer_1" xmlns="http://www.w3.org/2000/svg" xmlns:xlink="http://www.w3.org/1999/xlink" x="0px" y="0px"
	 width="1024px" height="797px" viewBox="0 0 1024 797" style="enable-background:new 0 0 1024 797;" xml:space="preserve">
<style type="text/css">
	.st0{fill:#0088CE;}
	.st1{fill:#E5E5E5;}
	.st2{fill:#CCCCCC;}
	.st3{fill:#FFFFFF;}
	.st4{fill:none;stroke:#595959;stroke-miterlimit:10;}
	.st5{fill:#595959;}
	.st6{fill:#969696;}
	.st7{fill:none;stroke:#969696;stroke-width:2;stroke-miterlimit:10;}
	.st8{fill:none;stroke:#969696;stroke-miterlimit:10;}
</style>
<rect y="159.6" class="st0" width="1024" height="637.4"/>
<rect x="7.3" y="165.6" class="st1" width="1009.4" height="525"/>
<rect x="755" y="221" class="st2" width="228" height="69"/>
<rect x="755" y="329.5" class="st2" width="228" height="69"/>
<rect x="208" y="298.5" class="st3" width="228" height="69"/>
<rect x="208" y="371" class="st3" width="228" height="69"/>
<rect x="208" y="455.5" class="st3" width="228" height="69"/>
<rect x="519" y="298.5" class="st3" width="148" height="198.5"/>
<rect x="755" y="438" class="st2" width="228" height="69"/>
<rect x="755" y="546.5" class="st2" width="228" height="69"/>
<g>
	<g>
		<line class="st4" x1="446.8" y1="333" x2="508.2" y2="333"/>
		<g>
			<polygon class="st5" points="449,340.5 436,333 449,325.5 			"/>
		</g>
		<g>
			<polygon class="st5" points="506,340.5 519,333 506,325.5 			"/>
		</g>
	</g>
</g>
<g>
	<g>
		<line class="st4" x1="446.8" y1="402.5" x2="508.2" y2="402.5"/>
		<g>
			<polygon class="st5" points="449,410 436,402.5 449,395 			"/>
		</g>
		<g>
			<polygon class="st5" points="506,410 519,402.5 506,395 			"/>
		</g>
	</g>
</g>
<g>
	<g>
		<line class="st4" x1="135.8" y1="402.5" x2="197.2" y2="402.5"/>
		<g>
			<polygon class="st5" points="138,410 125,402.5 138,395 			"/>
		</g>
		<g>
			<polygon class="st5" points="195,410 208,402.5 195,395 			"/>
		</g>
	</g>
</g>
<g>
	<g>
		<line class="st4" x1="446.8" y1="472.5" x2="508.2" y2="472.5"/>
		<g>
			<polygon class="st5" points="449,480 436,472.5 449,465 			"/>
		</g>
		<g>
			<polygon class="st5" points="506,480 519,472.5 506,465 			"/>
		</g>
	</g>
</g>
<g>
	<g>
		<line class="st4" x1="677.8" y1="472.5" x2="744.2" y2="472.5"/>
		<g>
			<polygon class="st5" points="680,480 667,472.5 680,465 			"/>
		</g>
		<g>
			<polygon class="st5" points="742,480 755,472.5 742,465 			"/>
		</g>
	</g>
</g>
<g>
	<g>
		<line class="st4" x1="677.8" y1="364" x2="744.2" y2="364"/>
		<g>
			<polygon class="st5" points="680,371.5 667,364 680,356.5 			"/>
		</g>
		<g>
			<polygon class="st5" points="742,371.5 755,364 742,356.5 			"/>
		</g>
	</g>
</g>
<g>
	<g>
		<polyline class="st4" points="593,287.7 593,255.5 744.2,255.5 		"/>
		<g>
			<polygon class="st5" points="600.5,285.5 593,298.5 585.5,285.5 			"/>
		</g>
		<g>
			<polygon class="st5" points="742,263 755,255.5 742,248 			"/>
		</g>
	</g>
</g>
<g>
	<g>
		<polyline class="st4" points="507.8,55 568,55 568,287.7 		"/>
		<g>
			<polygon class="st5" points="510,62.5 497,55 510,47.5 			"/>
		</g>
		<g>
			<polygon class="st5" points="560.5,285.5 568,298.5 575.5,285.5 			"/>
		</g>
	</g>
</g>
<g>
	<g>
		<polyline class="st4" points="141.8,251 301,251 301,288.2 		"/>
		<g>
			<polygon class="st5" points="144,258.5 131,251 144,243.5 			"/>
		</g>
		<g>
			<polygon class="st5" points="293.5,286 301,299 308.5,286 			"/>
		</g>
	</g>
</g>
<g>
	<g>
		<polyline class="st4" points="301,535.3 301,563 141.8,563 		"/>
		<g>
			<polygon class="st5" points="293.5,537.5 301,524.5 308.5,537.5 			"/>
		</g>
		<g>
			<polygon class="st5" points="144,555.5 131,563 144,570.5 			"/>
		</g>
	</g>
</g>
<line class="st4" x1="335.2" y1="310.7" x2="380.5" y2="262.5"/>
<g>
	<g>
		<polyline class="st4" points="593,507.8 593,581 744.2,581 		"/>
		<g>
			<polygon class="st5" points="585.5,510 593,497 600.5,510 			"/>
		</g>
		<g>
			<polygon class="st5" points="742,588.5 755,581 742,573.5 			"/>
		</g>
	</g>
</g>
<g>
	<path class="st3" d="M65,551.3c0.9,0.4,2,0.7,3.3,1.1c4.3,1.1,10.7,2,19.4,2c8.7,0,15.1-0.9,19.4-2c1.3-0.3,2.4-0.7,3.3-1.1
		c1.7-0.7,2.6-1.4,2.6-2V534c0-1.8-8.7-5.1-25.3-5.1s-25.3,3.3-25.3,5.1v15.2C62.3,549.8,63.2,550.5,65,551.3z M79.1,537.7
		c2.9,0.2,5.9,0.4,9,0.4c8.5,0,16.5-1,21.4-2.6c0.4-0.1,0.8,0.1,0.9,0.5c0.1,0.4-0.1,0.8-0.5,0.9c-5,1.7-13.2,2.7-21.9,2.7
		c-3.1,0-6.2-0.1-9.2-0.4c-0.4,0-0.7-0.4-0.7-0.8C78.3,538,78.7,537.7,79.1,537.7z M65,535.7c0.1-0.3,0.4-0.4,0.6-0.3
		c1.8,0.7,4.4,1.4,7.3,1.8c0.3,0,0.5,0.3,0.4,0.6c0,0.2-0.3,0.4-0.5,0.4c0,0-0.1,0-0.1,0c-3.1-0.5-5.6-1.1-7.5-1.9
		C65.1,536.2,64.9,535.9,65,535.7z"/>
	<path class="st3" d="M110.3,553.4c-5.7,2.1-15.4,2.9-22.7,2.9c-7.3,0-17-0.8-22.7-2.9c-1.7,0.7-2.6,1.4-2.6,2v15.2
		c0,0.6,0.9,1.3,2.5,2c0.9,0.4,2,0.7,3.3,1.1c4.2,1.1,10.8,2.1,19.5,2.1s15.3-0.9,19.5-2.1c1.3-0.3,2.4-0.7,3.3-1.1
		c1.7-0.7,2.5-1.4,2.5-2v-15.2C113,554.8,112.1,554.1,110.3,553.4z M73,559.6C73,559.6,72.9,559.6,73,559.6
		c-3.2-0.5-5.7-1.1-7.6-1.9c-0.3-0.1-0.4-0.4-0.3-0.6c0.1-0.3,0.4-0.4,0.6-0.3c1.8,0.7,4.4,1.4,7.3,1.8c0.3,0,0.5,0.3,0.4,0.6
		C73.4,559.5,73.2,559.6,73,559.6z M110,558.4c-5,1.7-13.2,2.7-21.9,2.7c-3.1,0-6.2-0.1-9.2-0.4c-0.4,0-0.7-0.4-0.7-0.8
		c0-0.4,0.4-0.7,0.8-0.7c2.9,0.2,5.9,0.4,9,0.4c8.5,0,16.5-1,21.4-2.6c0.4-0.1,0.8,0.1,0.9,0.5C110.6,557.8,110.4,558.2,110,558.4z"
		/>
	<path class="st3" d="M110.5,574.8c-5.6,2.1-15.4,3-22.8,3c-7.4,0-17.1-0.9-22.8-3c-1.7,0.7-2.5,1.4-2.5,2V592
		c0,1.8,8.7,5.1,25.3,5.1s25.3-3.3,25.3-5.1v-15.2C113,576.2,112.1,575.5,110.5,574.8z M73,581C73,581,72.9,581,73,581
		c-3.2-0.5-5.7-1.1-7.6-1.9c-0.3-0.1-0.4-0.4-0.3-0.6c0.1-0.3,0.4-0.4,0.6-0.3c1.8,0.7,4.4,1.4,7.3,1.8c0.3,0,0.5,0.3,0.4,0.6
		C73.4,580.8,73.2,581,73,581z M110,579.7c-5,1.7-13.2,2.7-21.9,2.7c-3.1,0-6.2-0.1-9.2-0.4c-0.4,0-0.7-0.4-0.7-0.8
		c0-0.4,0.4-0.7,0.8-0.7c2.9,0.2,5.9,0.4,9,0.4c8.5,0,16.5-1,21.4-2.6c0.4-0.1,0.8,0.1,0.9,0.5C110.6,579.1,110.4,579.6,110,579.7z"
		/>
	<path class="st6" d="M73.1,580c-3-0.5-5.5-1.1-7.3-1.8c-0.3-0.1-0.5,0-0.6,0.3c-0.1,0.3,0,0.5,0.3,0.6c1.9,0.8,4.5,1.4,7.5,1.9
		c0,0,0.1,0,0.1,0c0.2,0,0.5-0.2,0.5-0.4C73.5,580.3,73.3,580,73.1,580z"/>
	<path class="st6" d="M79,539.2c2.9,0.2,6,0.4,9.2,0.4c8.7,0,16.9-1,21.9-2.7c0.4-0.1,0.6-0.6,0.5-0.9c-0.1-0.4-0.6-0.6-0.9-0.5
		c-4.9,1.6-12.9,2.6-21.4,2.6c-3.1,0-6.1-0.1-9-0.4c-0.4,0-0.8,0.3-0.8,0.7C78.3,538.8,78.6,539.2,79,539.2z"/>
	<path class="st6" d="M65.3,536.3c1.9,0.8,4.5,1.4,7.5,1.9c0,0,0.1,0,0.1,0c0.2,0,0.5-0.2,0.5-0.4c0-0.3-0.1-0.5-0.4-0.6
		c-3-0.5-5.5-1.1-7.3-1.8c-0.3-0.1-0.5,0-0.6,0.3C64.9,535.9,65.1,536.2,65.3,536.3z"/>
	<path class="st6" d="M112.6,552.3c1.5-0.9,2.3-1.9,2.3-3.1V534c0-5.2-16.3-7.1-27.3-7.1c-11,0-27.3,1.9-27.3,7.1v15.2
		c0,1.2,0.9,2.2,2.4,3.1c-1.5,0.9-2.3,1.9-2.3,3.1v15.2c0,1.2,0.8,2.2,2.3,3c-1.4,0.9-2.3,1.9-2.3,3V592c0,5.2,16.3,7.1,27.3,7.1
		c11,0,27.3-1.9,27.3-7.1v-15.2c0-1.2-0.8-2.2-2.3-3c1.4-0.9,2.3-1.9,2.3-3v-15.2C115,554.2,114.1,553.2,112.6,552.3z M62.3,549.2
		V534c0-1.8,8.7-5.1,25.3-5.1s25.3,3.3,25.3,5.1v15.2c0,0.6-0.9,1.3-2.6,2c-0.9,0.4-2,0.7-3.3,1.1c-4.3,1.1-10.7,2-19.4,2
		c-8.6,0-15.1-0.9-19.4-2c-1.3-0.3-2.4-0.7-3.3-1.1C63.2,550.5,62.3,549.8,62.3,549.2z M113,576.8V592c0,1.8-8.7,5.1-25.3,5.1
		s-25.3-3.3-25.3-5.1v-15.2c0-0.6,0.9-1.3,2.5-2c5.6,2.1,15.4,3,22.8,3c7.4,0,17.1-0.9,22.8-3C112.1,575.5,113,576.2,113,576.8z
		 M113,570.7c0,0.6-0.9,1.3-2.5,2c-0.9,0.4-2,0.7-3.3,1.1c-4.2,1.1-10.8,2.1-19.5,2.1s-15.3-0.9-19.5-2.1c-1.3-0.3-2.4-0.7-3.3-1.1
		c-1.7-0.7-2.5-1.4-2.5-2v-15.2c0-0.6,0.9-1.3,2.6-2c5.7,2.1,15.4,2.9,22.7,2.9c7.3,0,17-0.8,22.7-2.9c1.8,0.7,2.7,1.5,2.7,2V570.7z
		"/>
	<path class="st6" d="M109.6,556.9c-4.9,1.6-12.9,2.6-21.4,2.6c-3.1,0-6.1-0.1-9-0.4c-0.4,0-0.8,0.3-0.8,0.7c0,0.4,0.3,0.8,0.7,0.8
		c2.9,0.2,6,0.4,9.2,0.4c8.7,0,16.9-1,21.9-2.7c0.4-0.1,0.6-0.6,0.5-0.9C110.4,557,110,556.8,109.6,556.9z"/>
	<path class="st6" d="M109.6,578.3c-4.9,1.6-12.9,2.6-21.4,2.6c-3.1,0-6.1-0.1-9-0.4c-0.4,0-0.8,0.3-0.8,0.7c0,0.4,0.3,0.8,0.7,0.8
		c2.9,0.2,6,0.4,9.2,0.4c8.7,0,16.9-1,21.9-2.7c0.4-0.1,0.6-0.6,0.5-0.9C110.4,578.3,110,578.1,109.6,578.3z"/>
	<path class="st6" d="M73.1,558.7c-3-0.5-5.5-1.1-7.3-1.8c-0.3-0.1-0.5,0-0.6,0.3c-0.1,0.3,0,0.5,0.3,0.6c1.9,0.8,4.5,1.4,7.5,1.9
		c0,0,0.1,0,0.1,0c0.2,0,0.5-0.2,0.5-0.4C73.5,559,73.3,558.7,73.1,558.7z"/>
</g>
<g>
	<path class="st3" d="M65,393.8c0.9,0.4,2,0.7,3.3,1.1c4.3,1.1,10.7,2,19.4,2c8.7,0,15.1-0.9,19.4-2c1.3-0.3,2.4-0.7,3.3-1.1
		c1.7-0.7,2.6-1.4,2.6-2v-15.2c0-1.8-8.7-5.1-25.3-5.1s-25.3,3.3-25.3,5.1v15.2C62.3,392.3,63.2,393,65,393.8z M79.1,380.2
		c2.9,0.2,5.9,0.4,9,0.4c8.5,0,16.5-1,21.4-2.6c0.4-0.1,0.8,0.1,0.9,0.5c0.1,0.4-0.1,0.8-0.5,0.9c-5,1.7-13.2,2.7-21.9,2.7
		c-3.1,0-6.2-0.1-9.2-0.4c-0.4,0-0.7-0.4-0.7-0.8C78.3,380.5,78.7,380.2,79.1,380.2z M65,378.2c0.1-0.3,0.4-0.4,0.6-0.3
		c1.8,0.7,4.4,1.4,7.3,1.8c0.3,0,0.5,0.3,0.4,0.6c0,0.2-0.3,0.4-0.5,0.4c0,0-0.1,0-0.1,0c-3.1-0.5-5.6-1.1-7.5-1.9
		C65.1,378.7,64.9,378.4,65,378.2z"/>
	<path class="st3" d="M110.3,395.9c-5.7,2.1-15.4,2.9-22.7,2.9c-7.3,0-17-0.8-22.7-2.9c-1.7,0.7-2.6,1.4-2.6,2v15.2
		c0,0.6,0.9,1.3,2.5,2c0.9,0.4,2,0.7,3.3,1.1c4.2,1.1,10.8,2.1,19.5,2.1s15.3-0.9,19.5-2.1c1.3-0.3,2.4-0.7,3.3-1.1
		c1.7-0.7,2.5-1.4,2.5-2v-15.2C113,397.3,112.1,396.6,110.3,395.9z M73,402.1C73,402.1,72.9,402.1,73,402.1
		c-3.2-0.5-5.7-1.1-7.6-1.9c-0.3-0.1-0.4-0.4-0.3-0.6c0.1-0.3,0.4-0.4,0.6-0.3c1.8,0.7,4.4,1.4,7.3,1.8c0.3,0,0.5,0.3,0.4,0.6
		C73.4,402,73.2,402.1,73,402.1z M110,400.9c-5,1.7-13.2,2.7-21.9,2.7c-3.1,0-6.2-0.1-9.2-0.4c-0.4,0-0.7-0.4-0.7-0.8
		c0-0.4,0.4-0.7,0.8-0.7c2.9,0.2,5.9,0.4,9,0.4c8.5,0,16.5-1,21.4-2.6c0.4-0.1,0.8,0.1,0.9,0.5C110.6,400.3,110.4,400.7,110,400.9z"
		/>
	<path class="st3" d="M110.5,417.3c-5.6,2.1-15.4,3-22.8,3c-7.4,0-17.1-0.9-22.8-3c-1.7,0.7-2.5,1.4-2.5,2v15.2
		c0,1.8,8.7,5.1,25.3,5.1s25.3-3.3,25.3-5.1v-15.2C113,418.7,112.1,418,110.5,417.3z M73,423.5C73,423.5,72.9,423.5,73,423.5
		c-3.2-0.5-5.7-1.1-7.6-1.9c-0.3-0.1-0.4-0.4-0.3-0.6c0.1-0.3,0.4-0.4,0.6-0.3c1.8,0.7,4.4,1.4,7.3,1.8c0.3,0,0.5,0.3,0.4,0.6
		C73.4,423.3,73.2,423.5,73,423.5z M110,422.2c-5,1.7-13.2,2.7-21.9,2.7c-3.1,0-6.2-0.1-9.2-0.4c-0.4,0-0.7-0.4-0.7-0.8
		c0-0.4,0.4-0.7,0.8-0.7c2.9,0.2,5.9,0.4,9,0.4c8.5,0,16.5-1,21.4-2.6c0.4-0.1,0.8,0.1,0.9,0.5C110.6,421.6,110.4,422.1,110,422.2z"
		/>
	<path class="st6" d="M73.1,422.5c-3-0.5-5.5-1.1-7.3-1.8c-0.3-0.1-0.5,0-0.6,0.3c-0.1,0.3,0,0.5,0.3,0.6c1.9,0.8,4.5,1.4,7.5,1.9
		c0,0,0.1,0,0.1,0c0.2,0,0.5-0.2,0.5-0.4C73.5,422.8,73.3,422.5,73.1,422.5z"/>
	<path class="st6" d="M79,381.7c2.9,0.2,6,0.4,9.2,0.4c8.7,0,16.9-1,21.9-2.7c0.4-0.1,0.6-0.6,0.5-0.9c-0.1-0.4-0.6-0.6-0.9-0.5
		c-4.9,1.6-12.9,2.6-21.4,2.6c-3.1,0-6.1-0.1-9-0.4c-0.4,0-0.8,0.3-0.8,0.7C78.3,381.3,78.6,381.7,79,381.7z"/>
	<path class="st6" d="M65.3,378.8c1.9,0.8,4.5,1.4,7.5,1.9c0,0,0.1,0,0.1,0c0.2,0,0.5-0.2,0.5-0.4c0-0.3-0.1-0.5-0.4-0.6
		c-3-0.5-5.5-1.1-7.3-1.8c-0.3-0.1-0.5,0-0.6,0.3C64.9,378.4,65.1,378.7,65.3,378.8z"/>
	<path class="st6" d="M112.6,394.8c1.5-0.9,2.3-1.9,2.3-3.1v-15.2c0-5.2-16.3-7.1-27.3-7.1c-11,0-27.3,1.9-27.3,7.1v15.2
		c0,1.2,0.9,2.2,2.4,3.1c-1.5,0.9-2.3,1.9-2.3,3.1v15.2c0,1.2,0.8,2.2,2.3,3c-1.4,0.9-2.3,1.9-2.3,3v15.2c0,5.2,16.3,7.1,27.3,7.1
		c11,0,27.3-1.9,27.3-7.1v-15.2c0-1.2-0.8-2.2-2.3-3c1.4-0.9,2.3-1.9,2.3-3v-15.2C115,396.7,114.1,395.7,112.6,394.8z M62.3,391.7
		v-15.2c0-1.8,8.7-5.1,25.3-5.1s25.3,3.3,25.3,5.1v15.2c0,0.6-0.9,1.3-2.6,2c-0.9,0.4-2,0.7-3.3,1.1c-4.3,1.1-10.7,2-19.4,2
		c-8.6,0-15.1-0.9-19.4-2c-1.3-0.3-2.4-0.7-3.3-1.1C63.2,393,62.3,392.3,62.3,391.7z M113,419.3v15.2c0,1.8-8.7,5.1-25.3,5.1
		s-25.3-3.3-25.3-5.1v-15.2c0-0.6,0.9-1.3,2.5-2c5.6,2.1,15.4,3,22.8,3c7.4,0,17.1-0.9,22.8-3C112.1,418,113,418.7,113,419.3z
		 M113,413.2c0,0.6-0.9,1.3-2.5,2c-0.9,0.4-2,0.7-3.3,1.1c-4.2,1.1-10.8,2.1-19.5,2.1s-15.3-0.9-19.5-2.1c-1.3-0.3-2.4-0.7-3.3-1.1
		c-1.7-0.7-2.5-1.4-2.5-2v-15.2c0-0.6,0.9-1.3,2.6-2c5.7,2.1,15.4,2.9,22.7,2.9c7.3,0,17-0.8,22.7-2.9c1.8,0.7,2.7,1.5,2.7,2V413.2z
		"/>
	<path class="st6" d="M109.6,399.4c-4.9,1.6-12.9,2.6-21.4,2.6c-3.1,0-6.1-0.1-9-0.4c-0.4,0-0.8,0.3-0.8,0.7c0,0.4,0.3,0.8,0.7,0.8
		c2.9,0.2,6,0.4,9.2,0.4c8.7,0,16.9-1,21.9-2.7c0.4-0.1,0.6-0.6,0.5-0.9C110.4,399.5,110,399.3,109.6,399.4z"/>
	<path class="st6" d="M109.6,420.8c-4.9,1.6-12.9,2.6-21.4,2.6c-3.1,0-6.1-0.1-9-0.4c-0.4,0-0.8,0.3-0.8,0.7c0,0.4,0.3,0.8,0.7,0.8
		c2.9,0.2,6,0.4,9.2,0.4c8.7,0,16.9-1,21.9-2.7c0.4-0.1,0.6-0.6,0.5-0.9C110.4,420.8,110,420.6,109.6,420.8z"/>
	<path class="st6" d="M73.1,401.2c-3-0.5-5.5-1.1-7.3-1.8c-0.3-0.1-0.5,0-0.6,0.3c-0.1,0.3,0,0.5,0.3,0.6c1.9,0.8,4.5,1.4,7.5,1.9
		c0,0,0.1,0,0.1,0c0.2,0,0.5-0.2,0.5-0.4C73.5,401.5,73.3,401.2,73.1,401.2z"/>
</g>
<g>
	<path class="st3" d="M65,239.3c0.9,0.4,2,0.7,3.3,1.1c4.3,1.1,10.7,2,19.4,2c8.7,0,15.1-0.9,19.4-2c1.3-0.3,2.4-0.7,3.3-1.1
		c1.7-0.7,2.6-1.4,2.6-2V222c0-1.8-8.7-5.1-25.3-5.1s-25.3,3.3-25.3,5.1v15.2C62.3,237.8,63.2,238.5,65,239.3z M79.1,225.7
		c2.9,0.2,5.9,0.4,9,0.4c8.5,0,16.5-1,21.4-2.6c0.4-0.1,0.8,0.1,0.9,0.5c0.1,0.4-0.1,0.8-0.5,0.9c-5,1.7-13.2,2.7-21.9,2.7
		c-3.1,0-6.2-0.1-9.2-0.4c-0.4,0-0.7-0.4-0.7-0.8C78.3,226,78.7,225.7,79.1,225.7z M65,223.7c0.1-0.3,0.4-0.4,0.6-0.3
		c1.8,0.7,4.4,1.4,7.3,1.8c0.3,0,0.5,0.3,0.4,0.6c0,0.2-0.3,0.4-0.5,0.4c0,0-0.1,0-0.1,0c-3.1-0.5-5.6-1.1-7.5-1.9
		C65.1,224.2,64.9,223.9,65,223.7z"/>
	<path class="st3" d="M110.3,241.4c-5.7,2.1-15.4,2.9-22.7,2.9c-7.3,0-17-0.8-22.7-2.9c-1.7,0.7-2.6,1.4-2.6,2v15.2
		c0,0.6,0.9,1.3,2.5,2c0.9,0.4,2,0.7,3.3,1.1c4.2,1.1,10.8,2.1,19.5,2.1s15.3-0.9,19.5-2.1c1.3-0.3,2.4-0.7,3.3-1.1
		c1.7-0.7,2.5-1.4,2.5-2v-15.2C113,242.8,112.1,242.1,110.3,241.4z M73,247.6C73,247.6,72.9,247.6,73,247.6
		c-3.2-0.5-5.7-1.1-7.6-1.9c-0.3-0.1-0.4-0.4-0.3-0.6c0.1-0.3,0.4-0.4,0.6-0.3c1.8,0.7,4.4,1.4,7.3,1.8c0.3,0,0.5,0.3,0.4,0.6
		C73.4,247.5,73.2,247.6,73,247.6z M110,246.4c-5,1.7-13.2,2.7-21.9,2.7c-3.1,0-6.2-0.1-9.2-0.4c-0.4,0-0.7-0.4-0.7-0.8
		c0-0.4,0.4-0.7,0.8-0.7c2.9,0.2,5.9,0.4,9,0.4c8.5,0,16.5-1,21.4-2.6c0.4-0.1,0.8,0.1,0.9,0.5C110.6,245.8,110.4,246.2,110,246.4z"
		/>
	<path class="st3" d="M110.5,262.8c-5.6,2.1-15.4,3-22.8,3c-7.4,0-17.1-0.9-22.8-3c-1.7,0.7-2.5,1.4-2.5,2V280
		c0,1.8,8.7,5.1,25.3,5.1s25.3-3.3,25.3-5.1v-15.2C113,264.2,112.1,263.5,110.5,262.8z M73,269C73,269,72.9,269,73,269
		c-3.2-0.5-5.7-1.1-7.6-1.9c-0.3-0.1-0.4-0.4-0.3-0.6c0.1-0.3,0.4-0.4,0.6-0.3c1.8,0.7,4.4,1.4,7.3,1.8c0.3,0,0.5,0.3,0.4,0.6
		C73.4,268.8,73.2,269,73,269z M110,267.7c-5,1.7-13.2,2.7-21.9,2.7c-3.1,0-6.2-0.1-9.2-0.4c-0.4,0-0.7-0.4-0.7-0.8
		c0-0.4,0.4-0.7,0.8-0.7c2.9,0.2,5.9,0.4,9,0.4c8.5,0,16.5-1,21.4-2.6c0.4-0.1,0.8,0.1,0.9,0.5C110.6,267.1,110.4,267.6,110,267.7z"
		/>
	<path class="st6" d="M73.1,268c-3-0.5-5.5-1.1-7.3-1.8c-0.3-0.1-0.5,0-0.6,0.3c-0.1,0.3,0,0.5,0.3,0.6c1.9,0.8,4.5,1.4,7.5,1.9
		c0,0,0.1,0,0.1,0c0.2,0,0.5-0.2,0.5-0.4C73.5,268.3,73.3,268,73.1,268z"/>
	<path class="st6" d="M79,227.2c2.9,0.2,6,0.4,9.2,0.4c8.7,0,16.9-1,21.9-2.7c0.4-0.1,0.6-0.6,0.5-0.9c-0.1-0.4-0.6-0.6-0.9-0.5
		c-4.9,1.6-12.9,2.6-21.4,2.6c-3.1,0-6.1-0.1-9-0.4c-0.4,0-0.8,0.3-0.8,0.7C78.3,226.8,78.6,227.2,79,227.2z"/>
	<path class="st6" d="M65.3,224.3c1.9,0.8,4.5,1.4,7.5,1.9c0,0,0.1,0,0.1,0c0.2,0,0.5-0.2,0.5-0.4c0-0.3-0.1-0.5-0.4-0.6
		c-3-0.5-5.5-1.1-7.3-1.8c-0.3-0.1-0.5,0-0.6,0.3C64.9,223.9,65.1,224.2,65.3,224.3z"/>
	<path class="st6" d="M112.6,240.3c1.5-0.9,2.3-1.9,2.3-3.1V222c0-5.2-16.3-7.1-27.3-7.1c-11,0-27.3,1.9-27.3,7.1v15.2
		c0,1.2,0.9,2.2,2.4,3.1c-1.5,0.9-2.3,1.9-2.3,3.1v15.2c0,1.2,0.8,2.2,2.3,3c-1.4,0.9-2.3,1.9-2.3,3V280c0,5.2,16.3,7.1,27.3,7.1
		c11,0,27.3-1.9,27.3-7.1v-15.2c0-1.2-0.8-2.2-2.3-3c1.4-0.9,2.3-1.9,2.3-3v-15.2C115,242.2,114.1,241.2,112.6,240.3z M62.3,237.2
		V222c0-1.8,8.7-5.1,25.3-5.1s25.3,3.3,25.3,5.1v15.2c0,0.6-0.9,1.3-2.6,2c-0.9,0.4-2,0.7-3.3,1.1c-4.3,1.1-10.7,2-19.4,2
		c-8.6,0-15.1-0.9-19.4-2c-1.3-0.3-2.4-0.7-3.3-1.1C63.2,238.5,62.3,237.8,62.3,237.2z M113,264.8V280c0,1.8-8.7,5.1-25.3,5.1
		s-25.3-3.3-25.3-5.1v-15.2c0-0.6,0.9-1.3,2.5-2c5.6,2.1,15.4,3,22.8,3c7.4,0,17.1-0.9,22.8-3C112.1,263.5,113,264.2,113,264.8z
		 M113,258.7c0,0.6-0.9,1.3-2.5,2c-0.9,0.4-2,0.7-3.3,1.1c-4.2,1.1-10.8,2.1-19.5,2.1s-15.3-0.9-19.5-2.1c-1.3-0.3-2.4-0.7-3.3-1.1
		c-1.7-0.7-2.5-1.4-2.5-2v-15.2c0-0.6,0.9-1.3,2.6-2c5.7,2.1,15.4,2.9,22.7,2.9c7.3,0,17-0.8,22.7-2.9c1.8,0.7,2.7,1.5,2.7,2V258.7z
		"/>
	<path class="st6" d="M109.6,244.9c-4.9,1.6-12.9,2.6-21.4,2.6c-3.1,0-6.1-0.1-9-0.4c-0.4,0-0.8,0.3-0.8,0.7c0,0.4,0.3,0.8,0.7,0.8
		c2.9,0.2,6,0.4,9.2,0.4c8.7,0,16.9-1,21.9-2.7c0.4-0.1,0.6-0.6,0.5-0.9C110.4,245,110,244.8,109.6,244.9z"/>
	<path class="st6" d="M109.6,266.3c-4.9,1.6-12.9,2.6-21.4,2.6c-3.1,0-6.1-0.1-9-0.4c-0.4,0-0.8,0.3-0.8,0.7c0,0.4,0.3,0.8,0.7,0.8
		c2.9,0.2,6,0.4,9.2,0.4c8.7,0,16.9-1,21.9-2.7c0.4-0.1,0.6-0.6,0.5-0.9C110.4,266.3,110,266.1,109.6,266.3z"/>
	<path class="st6" d="M73.1,246.7c-3-0.5-5.5-1.1-7.3-1.8c-0.3-0.1-0.5,0-0.6,0.3c-0.1,0.3,0,0.5,0.3,0.6c1.9,0.8,4.5,1.4,7.5,1.9
		c0,0,0.1,0,0.1,0c0.2,0,0.5-0.2,0.5-0.4C73.5,247,73.3,246.7,73.1,246.7z"/>
</g>
<g>
	<path class="st5" d="M60,465.7c-2.9,0-4.7-2.4-4.7-5.8s1.8-5.8,4.7-5.8c1.8,0,3,0.7,3.8,2.1l-1.5,0.9c-0.6-0.9-1.2-1.3-2.3-1.3
		c-2,0-3,1.6-3,4.1c0,2.5,1.1,4.1,3,4.1c1.2,0,1.9-0.5,2.5-1.4l1.4,0.9C63,464.9,61.7,465.7,60,465.7z"/>
	<path class="st5" d="M69,465.7c-2.1,0-3.7-1.7-3.7-4.4c0-2.8,1.6-4.4,3.7-4.4c2.1,0,3.7,1.7,3.7,4.3C72.8,464,71.1,465.7,69,465.7z
		 M68.9,458.5c-1.2,0-2,1.1-2,2.8c0,1.8,0.8,2.8,2.1,2.8s2.1-1.3,2.1-2.8C71.1,459.6,70.3,458.5,68.9,458.5z"/>
	<path class="st5" d="M79.9,465.5v-4.8c0-1.7-0.6-2.3-1.7-2.3c-1.1,0-1.7,0.8-1.7,2.1v4.9h-1.6v-8.4h1.6v0.8c0.4-0.6,1.2-1,2.1-1
		c2,0,3,1.3,3,3.8v4.8H79.9z"/>
	<path class="st5" d="M87.8,465.3c-0.4,0.2-1,0.4-1.6,0.4c-1.2,0-1.9-0.7-1.9-2.2v-4.8h-1.2v-1.5h1.2v-2.4l1.6-0.9v3.3H88v1.5H86
		v4.6c0,0.8,0.3,1,0.9,1c0.4,0,0.9-0.2,1.2-0.3L87.8,465.3z"/>
	<path class="st5" d="M94.9,465.5v-0.8c-0.6,0.6-1.4,1-2.3,1c-1.4,0-2.9-0.8-2.9-2.8c0-1.9,1.4-2.7,3.3-2.7c0.8,0,1.4,0.1,1.9,0.3
		v-0.6c0-0.9-0.6-1.4-1.6-1.4c-0.9,0-1.5,0.2-2.2,0.5l-0.6-1.2c0.8-0.5,1.7-0.8,2.9-0.8c1.9,0,3.2,0.9,3.2,2.8v5.8H94.9z
		 M94.9,461.9c-0.4-0.2-1-0.4-1.9-0.4c-1.1,0-1.7,0.5-1.7,1.2c0,0.8,0.5,1.4,1.6,1.4c0.9,0,1.6-0.5,2-1.1V461.9z"/>
	<path class="st5" d="M99.8,456c-0.6,0-1.1-0.5-1.1-1.1c0-0.6,0.5-1.1,1.1-1.1c0.6,0,1.1,0.5,1.1,1.1
		C100.8,455.5,100.3,456,99.8,456z M98.9,465.5v-8.4h1.6v8.4H98.9z"/>
	<path class="st5" d="M108.2,465.5v-4.8c0-1.7-0.6-2.3-1.7-2.3c-1.1,0-1.7,0.8-1.7,2.1v4.9h-1.6v-8.4h1.6v0.8c0.4-0.6,1.2-1,2.1-1
		c2,0,3,1.3,3,3.8v4.8H108.2z"/>
	<path class="st5" d="M119,461.9h-5.6c0.2,1.6,1.1,2.3,2.1,2.3c0.7,0,1.3-0.3,1.8-0.7l1,1.1c-0.7,0.7-1.6,1.1-2.9,1.1
		c-2,0-3.6-1.6-3.6-4.4c0-2.8,1.5-4.4,3.7-4.4c2.4,0,3.5,1.9,3.5,4.2C119,461.4,119,461.7,119,461.9z M115.4,458.4
		c-1.1,0-1.8,0.8-1.9,2.1h3.9C117.3,459.4,116.7,458.4,115.4,458.4z"/>
	<path class="st5" d="M125.6,458.8c-0.4-0.2-0.7-0.3-1.3-0.3c-1,0-1.6,0.7-1.6,2.2v4.8h-1.6v-8.4h1.6v0.8c0.4-0.6,1.1-1,1.9-1
		c0.7,0,1.1,0.1,1.4,0.4L125.6,458.8z"/>
	<path class="st5" d="M60.3,484.7h-3.1v-11.2h3.1c3,0,5.5,1.6,5.5,5.6C65.8,483.1,63.3,484.7,60.3,484.7z M60.3,475.1H59v7.9h1.4
		c2.7,0,3.7-1.6,3.7-4C64.1,476.7,63,475.1,60.3,475.1z"/>
	<path class="st5" d="M72.7,484.7v-0.8c-0.6,0.6-1.4,1-2.3,1c-1.4,0-2.9-0.8-2.9-2.8c0-1.9,1.4-2.7,3.3-2.7c0.8,0,1.4,0.1,1.9,0.3
		V479c0-0.9-0.6-1.4-1.6-1.4c-0.9,0-1.5,0.2-2.2,0.5l-0.6-1.2c0.8-0.5,1.7-0.8,2.9-0.8c1.9,0,3.2,0.9,3.2,2.8v5.8H72.7z M72.7,481.1
		c-0.4-0.2-1-0.4-1.9-0.4c-1.1,0-1.7,0.5-1.7,1.2c0,0.8,0.5,1.4,1.6,1.4c0.9,0,1.6-0.5,2-1.1V481.1z"/>
	<path class="st5" d="M80.7,484.5c-0.4,0.2-1,0.4-1.6,0.4c-1.2,0-1.9-0.7-1.9-2.2v-4.8H76v-1.5h1.2v-2.4l1.6-0.9v3.3h2.1v1.5h-2.1
		v4.6c0,0.8,0.3,1,0.9,1c0.4,0,0.9-0.2,1.2-0.3L80.7,484.5z"/>
	<path class="st5" d="M87.7,484.7v-0.8c-0.6,0.6-1.4,1-2.3,1c-1.4,0-2.9-0.8-2.9-2.8c0-1.9,1.4-2.7,3.3-2.7c0.8,0,1.4,0.1,1.9,0.3
		V479c0-0.9-0.6-1.4-1.6-1.4c-0.9,0-1.5,0.2-2.2,0.5l-0.6-1.2c0.8-0.5,1.7-0.8,2.9-0.8c1.9,0,3.2,0.9,3.2,2.8v5.8H87.7z M87.7,481.1
		c-0.4-0.2-1-0.4-1.9-0.4c-1.1,0-1.7,0.5-1.7,1.2c0,0.8,0.5,1.4,1.6,1.4c0.9,0,1.6-0.5,2-1.1V481.1z"/>
	<path class="st5" d="M95.5,484.9c-0.8,0-1.6-0.4-2.1-1v0.8h-1.6v-10.8l1.6-0.8v4.1c0.6-0.6,1.3-1,2.2-1c1.8,0,3.2,1.3,3.2,4.5
		C98.8,483.5,97.2,484.9,95.5,484.9z M95.2,477.6c-0.8,0-1.5,0.5-1.9,1.1v3.5c0.4,0.5,1.1,1.1,2,1.1c1.2,0,1.8-0.9,1.8-2.7
		C97.1,478.6,96.5,477.6,95.2,477.6z"/>
	<path class="st5" d="M105.5,484.7v-0.8c-0.6,0.6-1.4,1-2.3,1c-1.4,0-2.9-0.8-2.9-2.8c0-1.9,1.4-2.7,3.3-2.7c0.8,0,1.4,0.1,1.9,0.3
		V479c0-0.9-0.6-1.4-1.6-1.4c-0.9,0-1.5,0.2-2.2,0.5l-0.6-1.2c0.8-0.5,1.7-0.8,2.9-0.8c1.9,0,3.2,0.9,3.2,2.8v5.8H105.5z
		 M105.5,481.1c-0.4-0.2-1-0.4-1.9-0.4c-1.1,0-1.7,0.5-1.7,1.2c0,0.8,0.5,1.4,1.6,1.4c0.9,0,1.6-0.5,2-1.1V481.1z"/>
	<path class="st5" d="M112.2,484.9c-1.1,0-2.4-0.4-3.2-1.1l0.8-1.2c0.8,0.5,1.7,0.8,2.4,0.8c1,0,1.5-0.3,1.5-0.9
		c0-0.6-0.7-0.9-2-1.4c-1.8-0.7-2.5-1.3-2.5-2.6c0-1.5,1.2-2.3,2.9-2.3c1.1,0,2.1,0.4,2.8,0.9l-0.7,1.3c-0.7-0.5-1.4-0.7-2.2-0.7
		s-1.2,0.3-1.2,0.8c0,0.4,0.3,0.7,1.6,1.2c1.9,0.7,2.8,1.2,2.8,2.8C115.4,484.3,113.9,484.9,112.2,484.9z"/>
	<path class="st5" d="M124.1,481.1h-5.6c0.2,1.6,1.1,2.3,2.1,2.3c0.7,0,1.3-0.3,1.8-0.7l1,1.1c-0.7,0.7-1.6,1.1-2.9,1.1
		c-2,0-3.6-1.6-3.6-4.4c0-2.8,1.5-4.4,3.7-4.4c2.4,0,3.5,1.9,3.5,4.2C124.2,480.6,124.1,480.9,124.1,481.1z M120.5,477.6
		c-1.1,0-1.8,0.8-1.9,2.1h3.9C122.4,478.6,121.9,477.6,120.5,477.6z"/>
</g>
<g>
	<path class="st5" d="M68.8,310.7l-0.9-2.7h-4.5l-0.9,2.7h-1.7l4-11.2h1.8l4.1,11.2H68.8z M66.4,303.9c-0.3-0.8-0.7-2.1-0.8-2.6
		c-0.1,0.5-0.5,1.8-0.8,2.6l-0.9,2.6h3.5L66.4,303.9z"/>
	<path class="st5" d="M77.5,304.7c-0.7-0.7-1.3-1-2-1c-1.2,0-2,1.1-2,2.8c0,1.6,0.7,2.8,2,2.8c0.8,0,1.2-0.4,1.9-1l1.1,1
		c-0.7,0.8-1.5,1.6-3,1.6c-2,0-3.6-1.7-3.6-4.4c0-2.8,1.6-4.4,3.7-4.4c1.2,0,2.2,0.5,3,1.4L77.5,304.7z"/>
	<path class="st5" d="M85.6,304.7c-0.7-0.7-1.3-1-2-1c-1.2,0-2,1.1-2,2.8c0,1.6,0.7,2.8,2,2.8c0.8,0,1.2-0.4,1.9-1l1.1,1
		c-0.7,0.8-1.5,1.6-3,1.6c-2,0-3.6-1.7-3.6-4.4c0-2.8,1.6-4.4,3.7-4.4c1.2,0,2.2,0.5,3,1.4L85.6,304.7z"/>
	<path class="st5" d="M91.7,310.8c-2.1,0-3.7-1.7-3.7-4.4c0-2.8,1.6-4.4,3.7-4.4c2.1,0,3.7,1.7,3.7,4.3
		C95.5,309.2,93.9,310.8,91.7,310.8z M91.7,303.7c-1.2,0-2,1.1-2,2.8c0,1.8,0.8,2.8,2.1,2.8s2.1-1.3,2.1-2.8
		C93.8,304.8,93,303.7,91.7,303.7z"/>
	<path class="st5" d="M102.6,310.7v-0.8c-0.4,0.6-1.2,1-2.1,1c-2,0-3-1.3-3-3.8v-4.8h1.6v4.8c0,1.7,0.6,2.3,1.7,2.3
		c1.1,0,1.7-0.8,1.7-2.1v-4.9h1.6v8.4H102.6z"/>
	<path class="st5" d="M111.7,310.7v-4.8c0-1.7-0.6-2.3-1.7-2.3c-1.1,0-1.7,0.8-1.7,2.1v4.9h-1.6v-8.4h1.6v0.8c0.4-0.6,1.2-1,2.1-1
		c2,0,3,1.3,3,3.8v4.8H111.7z"/>
	<path class="st5" d="M119.7,310.5c-0.4,0.2-1,0.4-1.6,0.4c-1.2,0-1.9-0.7-1.9-2.2v-4.8H115v-1.5h1.2v-2.4l1.6-0.9v3.3h2.1v1.5h-2.1
		v4.6c0,0.8,0.3,1,0.9,1c0.4,0,0.9-0.2,1.2-0.3L119.7,310.5z"/>
	<path class="st5" d="M60.3,329.9h-3.1v-11.2h3.1c3,0,5.5,1.6,5.5,5.6C65.8,328.2,63.3,329.9,60.3,329.9z M60.3,320.3H59v7.9h1.4
		c2.7,0,3.7-1.6,3.7-4C64.1,321.9,63,320.3,60.3,320.3z"/>
	<path class="st5" d="M72.7,329.9V329c-0.6,0.6-1.4,1-2.3,1c-1.4,0-2.9-0.8-2.9-2.8c0-1.9,1.4-2.7,3.3-2.7c0.8,0,1.4,0.1,1.9,0.3
		v-0.6c0-0.9-0.6-1.4-1.6-1.4c-0.9,0-1.5,0.2-2.2,0.5l-0.6-1.2c0.8-0.5,1.7-0.8,2.9-0.8c1.9,0,3.2,0.9,3.2,2.8v5.8H72.7z
		 M72.7,326.3c-0.4-0.2-1-0.4-1.9-0.4c-1.1,0-1.7,0.5-1.7,1.2c0,0.8,0.5,1.4,1.6,1.4c0.9,0,1.6-0.5,2-1.1V326.3z"/>
	<path class="st5" d="M80.7,329.7c-0.4,0.2-1,0.4-1.6,0.4c-1.2,0-1.9-0.7-1.9-2.2V323H76v-1.5h1.2v-2.4l1.6-0.9v3.3h2.1v1.5h-2.1
		v4.6c0,0.8,0.3,1,0.9,1c0.4,0,0.9-0.2,1.2-0.3L80.7,329.7z"/>
	<path class="st5" d="M87.7,329.9V329c-0.6,0.6-1.4,1-2.3,1c-1.4,0-2.9-0.8-2.9-2.8c0-1.9,1.4-2.7,3.3-2.7c0.8,0,1.4,0.1,1.9,0.3
		v-0.6c0-0.9-0.6-1.4-1.6-1.4c-0.9,0-1.5,0.2-2.2,0.5l-0.6-1.2c0.8-0.5,1.7-0.8,2.9-0.8c1.9,0,3.2,0.9,3.2,2.8v5.8H87.7z
		 M87.7,326.3c-0.4-0.2-1-0.4-1.9-0.4c-1.1,0-1.7,0.5-1.7,1.2c0,0.8,0.5,1.4,1.6,1.4c0.9,0,1.6-0.5,2-1.1V326.3z"/>
	<path class="st5" d="M95.5,330c-0.8,0-1.6-0.4-2.1-1v0.8h-1.6V319l1.6-0.8v4.1c0.6-0.6,1.3-1,2.2-1c1.8,0,3.2,1.3,3.2,4.5
		C98.8,328.7,97.2,330,95.5,330z M95.2,322.8c-0.8,0-1.5,0.5-1.9,1.1v3.5c0.4,0.5,1.1,1.1,2,1.1c1.2,0,1.8-0.9,1.8-2.7
		C97.1,323.7,96.5,322.8,95.2,322.8z"/>
	<path class="st5" d="M105.5,329.9V329c-0.6,0.6-1.4,1-2.3,1c-1.4,0-2.9-0.8-2.9-2.8c0-1.9,1.4-2.7,3.3-2.7c0.8,0,1.4,0.1,1.9,0.3
		v-0.6c0-0.9-0.6-1.4-1.6-1.4c-0.9,0-1.5,0.2-2.2,0.5l-0.6-1.2c0.8-0.5,1.7-0.8,2.9-0.8c1.9,0,3.2,0.9,3.2,2.8v5.8H105.5z
		 M105.5,326.3c-0.4-0.2-1-0.4-1.9-0.4c-1.1,0-1.7,0.5-1.7,1.2c0,0.8,0.5,1.4,1.6,1.4c0.9,0,1.6-0.5,2-1.1V326.3z"/>
	<path class="st5" d="M112.2,330c-1.1,0-2.4-0.4-3.2-1.1l0.8-1.2c0.8,0.5,1.7,0.8,2.4,0.8c1,0,1.5-0.3,1.5-0.9c0-0.6-0.7-0.9-2-1.4
		c-1.8-0.7-2.5-1.3-2.5-2.6c0-1.5,1.2-2.3,2.9-2.3c1.1,0,2.1,0.4,2.8,0.9l-0.7,1.3c-0.7-0.5-1.4-0.7-2.2-0.7s-1.2,0.3-1.2,0.8
		c0,0.4,0.3,0.7,1.6,1.2c1.9,0.7,2.8,1.2,2.8,2.8C115.4,329.4,113.9,330,112.2,330z"/>
	<path class="st5" d="M124.1,326.2h-5.6c0.2,1.6,1.1,2.3,2.1,2.3c0.7,0,1.3-0.3,1.8-0.7l1,1.1c-0.7,0.7-1.6,1.1-2.9,1.1
		c-2,0-3.6-1.6-3.6-4.4c0-2.8,1.5-4.4,3.7-4.4c2.4,0,3.5,1.9,3.5,4.2C124.2,325.8,124.1,326.1,124.1,326.2z M120.5,322.8
		c-1.1,0-1.8,0.8-1.9,2.1h3.9C122.4,323.7,121.9,322.8,120.5,322.8z"/>
</g>
<g>
	<path class="st5" d="M812,260.8v-11.2h1.7v11.2H812z"/>
	<path class="st5" d="M821.5,260.8V260c-0.6,0.6-1.3,1-2.2,1c-1.8,0-3.2-1.3-3.2-4.5c0-2.9,1.6-4.2,3.3-4.2c0.8,0,1.6,0.4,2.1,1
		v-3.2l1.6-0.8v11.7H821.5z M821.5,254.8c-0.4-0.5-1.1-1.1-2-1.1c-1.2,0-1.8,0.9-1.8,2.7c0,2.1,0.7,3,1.9,3c0.8,0,1.5-0.5,1.9-1.1
		V254.8z"/>
	<path class="st5" d="M832.3,257.1h-5.6c0.2,1.6,1.1,2.3,2.1,2.3c0.7,0,1.3-0.3,1.8-0.7l1,1.1c-0.7,0.7-1.6,1.1-2.9,1.1
		c-2,0-3.6-1.6-3.6-4.4c0-2.8,1.5-4.4,3.7-4.4c2.4,0,3.5,1.9,3.5,4.2C832.4,256.7,832.3,257,832.3,257.1z M828.7,253.7
		c-1.1,0-1.8,0.8-1.9,2.1h3.9C830.6,254.6,830.1,253.7,828.7,253.7z"/>
	<path class="st5" d="M839.5,260.8V256c0-1.7-0.6-2.3-1.7-2.3c-1.1,0-1.7,0.8-1.7,2.1v4.9h-1.6v-8.4h1.6v0.8c0.4-0.6,1.2-1,2.1-1
		c2,0,3,1.3,3,3.8v4.8H839.5z"/>
	<path class="st5" d="M847.5,260.5c-0.4,0.2-1,0.4-1.6,0.4c-1.2,0-1.9-0.7-1.9-2.2v-4.8h-1.2v-1.5h1.2V250l1.6-0.9v3.3h2.1v1.5h-2.1
		v4.6c0,0.8,0.3,1,0.9,1c0.4,0,0.9-0.2,1.2-0.3L847.5,260.5z"/>
	<path class="st5" d="M850.8,251.3c-0.6,0-1.1-0.5-1.1-1.1c0-0.6,0.5-1.1,1.1-1.1c0.6,0,1.1,0.5,1.1,1.1
		C851.9,250.8,851.4,251.3,850.8,251.3z M850,260.8v-8.4h1.6v8.4H850z"/>
	<path class="st5" d="M858.2,260.5c-0.4,0.2-1,0.4-1.6,0.4c-1.2,0-1.9-0.7-1.9-2.2v-4.8h-1.2v-1.5h1.2V250l1.6-0.9v3.3h2.1v1.5h-2.1
		v4.6c0,0.8,0.3,1,0.9,1c0.4,0,0.9-0.2,1.2-0.3L858.2,260.5z"/>
	<path class="st5" d="M863.2,263.7h-1.7l1.2-3.1l-3.1-8.2h1.8l1.4,4.1c0.3,0.7,0.6,2,0.7,2.4c0.1-0.5,0.5-1.7,0.8-2.4l1.4-4.1h1.7
		L863.2,263.7z"/>
	<path class="st5" d="M877.1,260.9c-1.6,0-3-0.7-4-1.8l1.2-1.2c0.8,0.8,1.9,1.3,2.9,1.3c1.6,0,2.3-0.5,2.3-1.6
		c0-0.9-0.7-1.3-2.5-1.9c-2.4-0.7-3.5-1.3-3.5-3.3c0-1.9,1.6-3.1,3.7-3.1c1.5,0,2.7,0.6,3.7,1.5l-1.2,1.2c-0.7-0.7-1.5-1.1-2.6-1.1
		c-1.3,0-1.9,0.6-1.9,1.4c0,0.8,0.5,1.2,2.4,1.7c2.2,0.7,3.6,1.4,3.6,3.4C881.2,259.6,880,260.9,877.1,260.9z"/>
	<path class="st5" d="M890.1,257.1h-5.6c0.2,1.6,1.1,2.3,2.1,2.3c0.7,0,1.3-0.3,1.8-0.7l1,1.1c-0.7,0.7-1.6,1.1-2.9,1.1
		c-2,0-3.6-1.6-3.6-4.4c0-2.8,1.5-4.4,3.7-4.4c2.4,0,3.5,1.9,3.5,4.2C890.2,256.7,890.1,257,890.1,257.1z M886.5,253.7
		c-1.1,0-1.8,0.8-1.9,2.1h3.9C888.4,254.6,887.9,253.7,886.5,253.7z"/>
	<path class="st5" d="M896.8,254.1c-0.4-0.2-0.7-0.3-1.3-0.3c-1,0-1.6,0.7-1.6,2.2v4.8h-1.6v-8.4h1.6v0.8c0.4-0.6,1.1-1,1.9-1
		c0.7,0,1.1,0.1,1.4,0.4L896.8,254.1z"/>
	<path class="st5" d="M902.9,260.8h-1.6l-3-8.4h1.7l1.5,4.6c0.3,0.8,0.5,1.6,0.6,2.1c0.1-0.5,0.3-1.2,0.6-2.1l1.4-4.6h1.7
		L902.9,260.8z"/>
	<path class="st5" d="M908.5,251.3c-0.6,0-1.1-0.5-1.1-1.1c0-0.6,0.5-1.1,1.1-1.1c0.6,0,1.1,0.5,1.1,1.1
		C909.5,250.8,909.1,251.3,908.5,251.3z M907.7,260.8v-8.4h1.6v8.4H907.7z"/>
	<path class="st5" d="M917.1,254.8c-0.7-0.7-1.3-1-2-1c-1.2,0-2,1.1-2,2.8c0,1.6,0.7,2.8,2,2.8c0.8,0,1.2-0.4,1.9-1l1.1,1
		c-0.7,0.8-1.5,1.6-3,1.6c-2,0-3.6-1.7-3.6-4.4c0-2.8,1.6-4.4,3.7-4.4c1.2,0,2.2,0.5,3,1.4L917.1,254.8z"/>
	<path class="st5" d="M926.7,257.1h-5.6c0.2,1.6,1.1,2.3,2.1,2.3c0.7,0,1.3-0.3,1.8-0.7l1,1.1c-0.7,0.7-1.6,1.1-2.9,1.1
		c-2,0-3.6-1.6-3.6-4.4c0-2.8,1.5-4.4,3.7-4.4c2.4,0,3.5,1.9,3.5,4.2C926.7,256.7,926.7,257,926.7,257.1z M923.1,253.7
		c-1.1,0-1.8,0.8-1.9,2.1h3.9C925,254.6,924.4,253.7,923.1,253.7z"/>
</g>
<g>
	<path class="st5" d="M642.6,239.7c-0.4,0-0.8-0.4-0.8-0.8c0-0.4,0.4-0.8,0.8-0.8c0.4,0,0.8,0.4,0.8,0.8
		C643.4,239.3,643.1,239.7,642.6,239.7z M642,246.8v-6.3h1.2v6.3H642z"/>
	<path class="st5" d="M648.9,246.8v-0.6c-0.5,0.4-1,0.7-1.6,0.7c-1.4,0-2.4-1-2.4-3.4c0-2.2,1.2-3.2,2.5-3.2c0.6,0,1.2,0.3,1.6,0.7
		v-2.4l1.2-0.6v8.7H648.9z M648.9,242.3c-0.3-0.4-0.9-0.8-1.5-0.8c-0.9,0-1.4,0.7-1.4,2c0,1.6,0.5,2.3,1.4,2.3
		c0.6,0,1.1-0.4,1.4-0.8V242.3z"/>
	<path class="st5" d="M657,244.1h-4.2c0.1,1.2,0.8,1.7,1.6,1.7c0.5,0,0.9-0.2,1.4-0.5l0.7,0.8c-0.6,0.5-1.2,0.8-2.2,0.8
		c-1.5,0-2.7-1.2-2.7-3.3c0-2.1,1.1-3.3,2.8-3.3c1.8,0,2.7,1.5,2.7,3.2C657.1,243.7,657.1,243.9,657,244.1z M654.3,241.5
		c-0.8,0-1.3,0.6-1.4,1.6h2.9C655.8,242.2,655.4,241.5,654.3,241.5z"/>
	<path class="st5" d="M662.4,246.8v-3.6c0-1.3-0.5-1.7-1.3-1.7c-0.8,0-1.3,0.6-1.3,1.6v3.7h-1.2v-6.3h1.2v0.6
		c0.3-0.5,0.9-0.7,1.6-0.7c1.5,0,2.2,1,2.2,2.8v3.6H662.4z"/>
	<path class="st5" d="M668.4,246.6c-0.3,0.2-0.7,0.3-1.2,0.3c-0.9,0-1.4-0.5-1.4-1.7v-3.6h-0.9v-1.1h0.9v-1.8l1.2-0.6v2.4h1.6v1.1
		H667v3.4c0,0.6,0.2,0.8,0.6,0.8c0.3,0,0.7-0.1,0.9-0.3L668.4,246.6z"/>
	<path class="st5" d="M670.9,239.7c-0.4,0-0.8-0.4-0.8-0.8c0-0.4,0.4-0.8,0.8-0.8c0.4,0,0.8,0.4,0.8,0.8
		C671.7,239.3,671.4,239.7,670.9,239.7z M670.3,246.8v-6.3h1.2v6.3H670.3z"/>
	<path class="st5" d="M676.4,246.6c-0.3,0.2-0.7,0.3-1.2,0.3c-0.9,0-1.4-0.5-1.4-1.7v-3.6h-0.9v-1.1h0.9v-1.8l1.2-0.6v2.4h1.6v1.1
		H675v3.4c0,0.6,0.2,0.8,0.6,0.8c0.3,0,0.7-0.1,0.9-0.3L676.4,246.6z"/>
	<path class="st5" d="M680.2,249h-1.3l0.9-2.3l-2.3-6.2h1.4l1,3.1c0.2,0.6,0.5,1.5,0.6,1.8c0.1-0.4,0.4-1.3,0.6-1.8l1.1-3.1h1.3
		L680.2,249z"/>
	<path class="st5" d="M693.6,246.8l-0.7-2h-3.4l-0.7,2h-1.3l3-8.4h1.3l3.1,8.4H693.6z M691.9,241.7c-0.2-0.6-0.5-1.6-0.6-1.9
		c-0.1,0.4-0.4,1.3-0.6,1.9l-0.7,1.9h2.6L691.9,241.7z"/>
	<path class="st5" d="M700.1,243.6h-2.2v3.1h-1.2v-8.4h3.5c1.5,0,2.7,0.9,2.7,2.6C702.9,242.7,701.7,243.6,700.1,243.6z
		 M700.1,239.6h-2.3v2.9h2.3c1,0,1.4-0.6,1.4-1.5C701.6,240.1,701,239.6,700.1,239.6z"/>
	<path class="st5" d="M704.5,246.8v-8.4h1.3v8.4H704.5z"/>
</g>
<g>
	<g>
		<path class="st5" d="M430.8,106.8V102c0-1.7-0.6-2.3-1.7-2.3c-1.1,0-1.7,0.8-1.7,2.1v4.9h-1.6V96l1.6-0.9v4.1c0.4-0.6,1.2-1,2.1-1
			c2,0,3,1.3,3,3.8v4.8H430.8z"/>
		<path class="st5" d="M438.8,106.6c-0.4,0.2-1,0.4-1.6,0.4c-1.2,0-1.9-0.7-1.9-2.2v-4.8h-1.2v-1.5h1.2V96l1.6-0.9v3.3h2.1v1.5h-2.1
			v4.6c0,0.8,0.3,1,0.9,1c0.4,0,0.9-0.2,1.2-0.3L438.8,106.6z"/>
		<path class="st5" d="M445,106.6c-0.4,0.2-1,0.4-1.6,0.4c-1.2,0-1.9-0.7-1.9-2.2v-4.8h-1.2v-1.5h1.2V96l1.6-0.9v3.3h2.1v1.5h-2.1
			v4.6c0,0.8,0.3,1,0.9,1c0.4,0,0.9-0.2,1.2-0.3L445,106.6z"/>
		<path class="st5" d="M451.2,107c-0.8,0-1.6-0.4-2.1-1v3l-1.6,0.8V98.4h1.6v0.8c0.6-0.6,1.3-1,2.2-1c1.8,0,3.2,1.3,3.2,4.5
			C454.5,105.6,452.9,107,451.2,107z M451,99.7c-0.8,0-1.5,0.5-1.9,1.1v3.5c0.4,0.5,1.1,1.1,2,1.1c1.2,0,1.8-0.9,1.8-2.7
			C452.8,100.7,452.2,99.7,451,99.7z"/>
		<path class="st5" d="M459.4,108.5c-1.6-1.5-3.1-3.7-3.1-6.6c0-3,1.5-5.1,3.1-6.7l0.8,0.7c-1.4,1.6-2.2,3.4-2.2,5.9
			c0,2.6,0.8,4.4,2.2,5.9L459.4,108.5z"/>
		<path class="st5" d="M464.4,107c-1.1,0-2.4-0.4-3.2-1.1l0.8-1.2c0.8,0.5,1.7,0.8,2.4,0.8c1,0,1.5-0.3,1.5-0.9c0-0.6-0.7-0.9-2-1.4
			c-1.8-0.7-2.5-1.3-2.5-2.6c0-1.5,1.2-2.3,2.9-2.3c1.1,0,2.1,0.4,2.8,0.9l-0.7,1.3c-0.7-0.5-1.4-0.7-2.2-0.7
			c-0.8,0-1.2,0.3-1.2,0.8c0,0.4,0.3,0.7,1.6,1.2c1.9,0.7,2.8,1.2,2.8,2.8C467.5,106.3,466,107,464.4,107z"/>
		<path class="st5" d="M469.5,108.5l-0.8-0.7c1.4-1.6,2.2-3.4,2.2-5.9c0-2.6-0.8-4.4-2.2-5.9l0.8-0.7c1.6,1.5,3.1,3.7,3.1,6.6
			C472.6,104.9,471.1,107,469.5,108.5z"/>
	</g>
</g>
<g>
	<path class="st5" d="M389.5,246.9c-0.9,0-1.8-0.3-2.4-0.8l0.6-0.9c0.6,0.4,1.2,0.6,1.8,0.6c0.8,0,1.2-0.3,1.2-0.7
		c0-0.5-0.6-0.7-1.5-1.1c-1.4-0.5-1.8-1-1.8-2c0-1.1,0.9-1.7,2.1-1.7c0.8,0,1.6,0.3,2.1,0.7L391,242c-0.5-0.4-1-0.5-1.6-0.5
		c-0.6,0-0.9,0.2-0.9,0.6c0,0.3,0.2,0.5,1.2,0.9c1.4,0.5,2.1,0.9,2.1,2.1C391.8,246.4,390.7,246.9,389.5,246.9z"/>
	<path class="st5" d="M398.4,244.1h-4.2c0.1,1.2,0.8,1.7,1.6,1.7c0.5,0,0.9-0.2,1.4-0.5l0.7,0.8c-0.6,0.5-1.2,0.8-2.2,0.8
		c-1.5,0-2.7-1.2-2.7-3.3c0-2.1,1.1-3.3,2.8-3.3c1.8,0,2.7,1.5,2.7,3.2C398.4,243.7,398.4,243.9,398.4,244.1z M395.7,241.5
		c-0.8,0-1.3,0.6-1.4,1.6h2.9C397.1,242.2,396.7,241.5,395.7,241.5z"/>
	<path class="st5" d="M403.4,241.8c-0.3-0.1-0.5-0.2-0.9-0.2c-0.8,0-1.2,0.6-1.2,1.6v3.6h-1.2v-6.3h1.2v0.6c0.3-0.4,0.8-0.7,1.4-0.7
		c0.5,0,0.8,0.1,1.1,0.3L403.4,241.8z"/>
	<path class="st5" d="M407.9,246.8h-1.2l-2.3-6.3h1.3l1.1,3.4c0.2,0.6,0.4,1.2,0.5,1.5c0.1-0.3,0.2-0.9,0.4-1.5l1.1-3.4h1.3
		L407.9,246.8z"/>
	<path class="st5" d="M412.1,239.7c-0.4,0-0.8-0.4-0.8-0.8c0-0.4,0.4-0.8,0.8-0.8c0.4,0,0.8,0.4,0.8,0.8
		C412.9,239.3,412.6,239.7,412.1,239.7z M411.5,246.8v-6.3h1.2v6.3H411.5z"/>
	<path class="st5" d="M418.6,242.3c-0.5-0.5-1-0.8-1.5-0.8c-0.9,0-1.5,0.8-1.5,2.1c0,1.2,0.5,2.1,1.5,2.1c0.6,0,0.9-0.3,1.4-0.8
		l0.8,0.8c-0.5,0.6-1.1,1.2-2.3,1.2c-1.5,0-2.7-1.3-2.7-3.3c0-2.1,1.2-3.3,2.8-3.3c0.9,0,1.6,0.4,2.2,1.1L418.6,242.3z"/>
	<path class="st5" d="M425.8,244.1h-4.2c0.1,1.2,0.8,1.7,1.6,1.7c0.5,0,0.9-0.2,1.4-0.5l0.7,0.8c-0.6,0.5-1.2,0.8-2.2,0.8
		c-1.5,0-2.7-1.2-2.7-3.3c0-2.1,1.1-3.3,2.8-3.3c1.8,0,2.7,1.5,2.7,3.2C425.8,243.7,425.8,243.9,425.8,244.1z M423.1,241.5
		c-0.8,0-1.3,0.6-1.4,1.6h2.9C424.5,242.2,424.1,241.5,423.1,241.5z"/>
	<path class="st5" d="M389.5,261.3c-0.9,0-1.8-0.3-2.4-0.8l0.6-0.9c0.6,0.4,1.2,0.6,1.8,0.6c0.8,0,1.2-0.3,1.2-0.7
		c0-0.5-0.6-0.7-1.5-1.1c-1.4-0.5-1.8-1-1.8-2c0-1.1,0.9-1.7,2.1-1.7c0.8,0,1.6,0.3,2.1,0.7l-0.5,0.9c-0.5-0.4-1-0.5-1.6-0.5
		c-0.6,0-0.9,0.2-0.9,0.6c0,0.3,0.2,0.5,1.2,0.9c1.4,0.5,2.1,0.9,2.1,2.1C391.8,260.8,390.7,261.3,389.5,261.3z"/>
	<path class="st5" d="M396.3,261c-0.3,0.2-0.7,0.3-1.2,0.3c-0.9,0-1.4-0.5-1.4-1.7V256h-0.9v-1.1h0.9v-1.8l1.2-0.6v2.4h1.6v1.1h-1.6
		v3.4c0,0.6,0.2,0.8,0.6,0.8c0.3,0,0.7-0.1,0.9-0.3L396.3,261z"/>
	<path class="st5" d="M400.4,261.3c-1.6,0-2.8-1.3-2.8-3.3c0-2.1,1.2-3.3,2.8-3.3c1.6,0,2.8,1.3,2.8,3.2
		C403.2,260.1,402,261.3,400.4,261.3z M400.3,255.9c-0.9,0-1.5,0.8-1.5,2.1c0,1.4,0.6,2.1,1.6,2.1s1.5-0.9,1.5-2.1
		C402,256.8,401.3,255.9,400.3,255.9z"/>
	<path class="st5" d="M408.1,256.2c-0.3-0.1-0.5-0.2-0.9-0.2c-0.8,0-1.2,0.6-1.2,1.6v3.6h-1.2v-6.3h1.2v0.6c0.3-0.4,0.8-0.7,1.4-0.7
		c0.5,0,0.8,0.1,1.1,0.3L408.1,256.2z"/>
	<path class="st5" d="M412.9,261.2v-0.6c-0.4,0.4-1,0.8-1.7,0.8c-1,0-2.2-0.6-2.2-2.1c0-1.4,1.1-2,2.5-2c0.6,0,1.1,0.1,1.4,0.2v-0.5
		c0-0.7-0.4-1.1-1.2-1.1c-0.6,0-1.2,0.1-1.6,0.4l-0.5-0.9c0.6-0.4,1.3-0.6,2.2-0.6c1.4,0,2.4,0.7,2.4,2.1v4.3H412.9z M412.9,258.5
		c-0.3-0.2-0.8-0.3-1.4-0.3c-0.8,0-1.3,0.4-1.3,0.9c0,0.6,0.4,1,1.2,1c0.7,0,1.2-0.4,1.5-0.8V258.5z"/>
	<path class="st5" d="M418,263.5l-0.4-0.9c1.8-0.1,2.2-0.6,2.2-1.9v-0.1c-0.5,0.4-1,0.7-1.6,0.7c-1.3,0-2.4-1-2.4-3.4
		c0-2.2,1.2-3.2,2.5-3.2c0.6,0,1.2,0.3,1.6,0.7v-0.6h1.2v5.7C420.9,262.5,420.2,263.4,418,263.5z M419.7,256.7
		c-0.3-0.4-0.9-0.8-1.5-0.8c-0.9,0-1.4,0.7-1.4,2c0,1.6,0.5,2.3,1.4,2.3c0.6,0,1.1-0.4,1.4-0.8V256.7z"/>
	<path class="st5" d="M427.8,258.5h-4.2c0.1,1.2,0.8,1.7,1.6,1.7c0.5,0,0.9-0.2,1.4-0.5l0.7,0.8c-0.6,0.5-1.2,0.8-2.2,0.8
		c-1.5,0-2.7-1.2-2.7-3.3c0-2.1,1.1-3.3,2.8-3.3c1.8,0,2.7,1.5,2.7,3.2C427.9,258.1,427.9,258.3,427.8,258.5z M425.1,255.9
		c-0.8,0-1.3,0.6-1.4,1.6h2.9C426.6,256.6,426.2,255.9,425.1,255.9z"/>
	<path class="st5" d="M391.3,275.6V272c0-1.3-0.5-1.7-1.3-1.7c-0.8,0-1.3,0.6-1.3,1.6v3.7h-1.2v-6.3h1.2v0.6
		c0.3-0.5,0.9-0.7,1.6-0.7c1.5,0,2.2,1,2.2,2.8v3.6H391.3z"/>
	<path class="st5" d="M396.7,275.7c-1.6,0-2.8-1.3-2.8-3.3c0-2.1,1.2-3.3,2.8-3.3c1.6,0,2.8,1.3,2.8,3.2
		C399.6,274.5,398.4,275.7,396.7,275.7z M396.7,270.3c-0.9,0-1.5,0.8-1.5,2.1c0,1.4,0.6,2.1,1.6,2.1s1.5-0.9,1.5-2.1
		C398.3,271.2,397.7,270.3,396.7,270.3z"/>
	<path class="st5" d="M404.9,275.6V275c-0.5,0.4-1,0.7-1.6,0.7c-1.4,0-2.4-1-2.4-3.4c0-2.2,1.2-3.2,2.5-3.2c0.6,0,1.2,0.3,1.6,0.7
		v-2.4l1.2-0.6v8.7H404.9z M404.9,271.1c-0.3-0.4-0.9-0.8-1.5-0.8c-0.9,0-1.4,0.7-1.4,2c0,1.6,0.5,2.3,1.4,2.3
		c0.6,0,1.1-0.4,1.4-0.8V271.1z"/>
	<path class="st5" d="M413,272.9h-4.2c0.1,1.2,0.8,1.7,1.6,1.7c0.5,0,0.9-0.2,1.4-0.5l0.7,0.8c-0.6,0.5-1.2,0.8-2.2,0.8
		c-1.5,0-2.7-1.2-2.7-3.3c0-2.1,1.1-3.3,2.8-3.3c1.8,0,2.7,1.5,2.7,3.2C413.1,272.5,413,272.7,413,272.9z M410.3,270.3
		c-0.8,0-1.3,0.6-1.4,1.6h2.9C411.7,271,411.3,270.3,410.3,270.3z"/>
	<path class="st5" d="M416.5,275.7c-0.9,0-1.8-0.3-2.4-0.8l0.6-0.9c0.6,0.4,1.2,0.6,1.8,0.6c0.8,0,1.2-0.3,1.2-0.7
		c0-0.5-0.6-0.7-1.5-1.1c-1.4-0.5-1.8-1-1.8-2c0-1.1,0.9-1.7,2.1-1.7c0.8,0,1.6,0.3,2.1,0.7l-0.5,0.9c-0.5-0.4-1-0.5-1.6-0.5
		c-0.6,0-0.9,0.2-0.9,0.6c0,0.3,0.2,0.5,1.2,0.9c1.4,0.5,2.1,0.9,2.1,2.1C418.9,275.2,417.7,275.7,416.5,275.7z"/>
</g>
<g>
	<path class="st5" d="M625.9,569.9c-1.6,0-2.8-1.3-2.8-3.3c0-2.1,1.2-3.3,2.8-3.3c1.6,0,2.8,1.3,2.8,3.2
		C628.7,568.7,627.5,569.9,625.9,569.9z M625.9,564.5c-0.9,0-1.5,0.8-1.5,2.1c0,1.4,0.6,2.1,1.6,2.1s1.5-0.9,1.5-2.1
		C627.5,565.3,626.9,564.5,625.9,564.5z"/>
	<path class="st5" d="M633,569.9c-0.6,0-1.2-0.3-1.6-0.7v0.6h-1.2v-8.1l1.2-0.6v3c0.5-0.4,1-0.7,1.6-0.7c1.4,0,2.4,1,2.4,3.4
		C635.5,568.9,634.4,569.9,633,569.9z M632.9,564.5c-0.6,0-1.1,0.4-1.4,0.8v2.7c0.3,0.4,0.9,0.8,1.5,0.8c0.9,0,1.4-0.7,1.4-2
		C634.3,565.2,633.8,564.5,632.9,564.5z"/>
	<path class="st5" d="M636.2,572.1l-0.4-0.9c1.2-0.3,1.3-0.6,1.3-1.6v-6h1.2v6C638.4,571.1,638,571.7,636.2,572.1z M637.8,562.7
		c-0.4,0-0.8-0.4-0.8-0.8c0-0.4,0.4-0.8,0.8-0.8c0.4,0,0.8,0.4,0.8,0.8C638.6,562.3,638.2,562.7,637.8,562.7z"/>
	<path class="st5" d="M645.3,567.1h-4.2c0.1,1.2,0.8,1.7,1.6,1.7c0.5,0,0.9-0.2,1.4-0.5l0.7,0.8c-0.6,0.5-1.2,0.8-2.2,0.8
		c-1.5,0-2.7-1.2-2.7-3.3c0-2.1,1.1-3.3,2.8-3.3c1.8,0,2.7,1.5,2.7,3.2C645.4,566.7,645.3,566.9,645.3,567.1z M642.6,564.5
		c-0.8,0-1.3,0.6-1.4,1.6h2.9C644.1,565.2,643.7,564.5,642.6,564.5z"/>
	<path class="st5" d="M650.9,565.3c-0.5-0.5-1-0.8-1.5-0.8c-0.9,0-1.5,0.8-1.5,2.1c0,1.2,0.5,2.1,1.5,2.1c0.6,0,0.9-0.3,1.4-0.8
		l0.8,0.8c-0.5,0.6-1.1,1.2-2.3,1.2c-1.5,0-2.7-1.3-2.7-3.3c0-2.1,1.2-3.3,2.8-3.3c0.9,0,1.6,0.4,2.2,1.1L650.9,565.3z"/>
	<path class="st5" d="M656.2,569.6c-0.3,0.2-0.7,0.3-1.2,0.3c-0.9,0-1.4-0.5-1.4-1.7v-3.6h-0.9v-1.1h0.9v-1.8l1.2-0.6v2.4h1.6v1.1
		h-1.6v3.4c0,0.6,0.2,0.8,0.6,0.8c0.3,0,0.7-0.1,0.9-0.3L656.2,569.6z"/>
	<path class="st5" d="M663.3,569.9c-0.9,0-1.8-0.3-2.4-0.8l0.6-0.9c0.6,0.4,1.2,0.6,1.8,0.6c0.8,0,1.2-0.3,1.2-0.7
		c0-0.5-0.6-0.7-1.5-1.1c-1.4-0.5-1.8-1-1.8-2c0-1.1,0.9-1.7,2.1-1.7c0.8,0,1.6,0.3,2.1,0.7l-0.5,0.9c-0.5-0.4-1-0.5-1.6-0.5
		s-0.9,0.2-0.9,0.6c0,0.3,0.2,0.5,1.2,0.9c1.4,0.5,2.1,0.9,2.1,2.1C665.7,569.4,664.5,569.9,663.3,569.9z"/>
	<path class="st5" d="M670.1,569.6c-0.3,0.2-0.7,0.3-1.2,0.3c-0.9,0-1.4-0.5-1.4-1.7v-3.6h-0.9v-1.1h0.9v-1.8l1.2-0.6v2.4h1.6v1.1
		h-1.6v3.4c0,0.6,0.2,0.8,0.6,0.8c0.3,0,0.7-0.1,0.9-0.3L670.1,569.6z"/>
	<path class="st5" d="M674.2,569.9c-1.6,0-2.8-1.3-2.8-3.3c0-2.1,1.2-3.3,2.8-3.3c1.6,0,2.8,1.3,2.8,3.2
		C677,568.7,675.8,569.9,674.2,569.9z M674.2,564.5c-0.9,0-1.5,0.8-1.5,2.1c0,1.4,0.6,2.1,1.6,2.1s1.5-0.9,1.5-2.1
		C675.8,565.3,675.2,564.5,674.2,564.5z"/>
	<path class="st5" d="M682,564.8c-0.3-0.1-0.5-0.2-0.9-0.2c-0.8,0-1.2,0.6-1.2,1.6v3.6h-1.2v-6.3h1.2v0.6c0.3-0.4,0.8-0.7,1.4-0.7
		c0.5,0,0.8,0.1,1.1,0.3L682,564.8z"/>
	<path class="st5" d="M686.8,569.8v-0.6c-0.4,0.4-1,0.8-1.7,0.8c-1,0-2.2-0.6-2.2-2.1c0-1.4,1.1-2,2.5-2c0.6,0,1.1,0.1,1.4,0.2v-0.5
		c0-0.7-0.4-1.1-1.2-1.1c-0.6,0-1.2,0.1-1.6,0.4l-0.5-0.9c0.6-0.4,1.3-0.6,2.2-0.6c1.4,0,2.4,0.7,2.4,2.1v4.3H686.8z M686.8,567.1
		c-0.3-0.2-0.8-0.3-1.4-0.3c-0.8,0-1.3,0.4-1.3,0.9c0,0.6,0.4,1,1.2,1c0.7,0,1.2-0.4,1.5-0.8V567.1z"/>
	<path class="st5" d="M691.8,572.1l-0.4-0.9c1.8-0.1,2.2-0.6,2.2-1.9v-0.1c-0.5,0.4-1,0.7-1.6,0.7c-1.3,0-2.4-1-2.4-3.4
		c0-2.2,1.2-3.2,2.5-3.2c0.6,0,1.2,0.3,1.6,0.7v-0.6h1.2v5.7C694.8,571.1,694.1,572,691.8,572.1z M693.6,565.3
		c-0.3-0.4-0.9-0.8-1.5-0.8c-0.9,0-1.4,0.7-1.4,2c0,1.6,0.5,2.3,1.4,2.3c0.6,0,1.1-0.4,1.4-0.8V565.3z"/>
	<path class="st5" d="M701.7,567.1h-4.2c0.1,1.2,0.8,1.7,1.6,1.7c0.5,0,0.9-0.2,1.4-0.5l0.7,0.8c-0.6,0.5-1.2,0.8-2.2,0.8
		c-1.5,0-2.7-1.2-2.7-3.3c0-2.1,1.1-3.3,2.8-3.3c1.8,0,2.7,1.5,2.7,3.2C701.7,566.7,701.7,566.9,701.7,567.1z M699,564.5
		c-0.8,0-1.3,0.6-1.4,1.6h2.9C700.4,565.2,700,564.5,699,564.5z"/>
	<path class="st5" d="M712.2,569.8l-0.7-2h-3.4l-0.7,2h-1.3l3-8.4h1.3l3.1,8.4H712.2z M710.4,564.7c-0.2-0.6-0.5-1.6-0.6-1.9
		c-0.1,0.4-0.4,1.3-0.6,1.9l-0.7,1.9h2.6L710.4,564.7z"/>
	<path class="st5" d="M718.6,566.6h-2.2v3.1h-1.2v-8.4h3.5c1.5,0,2.7,0.9,2.7,2.6C721.4,565.7,720.3,566.6,718.6,566.6z
		 M718.7,562.6h-2.3v2.9h2.3c1,0,1.4-0.6,1.4-1.5C720.1,563.1,719.6,562.6,718.7,562.6z"/>
	<path class="st5" d="M723.1,569.8v-8.4h1.3v8.4H723.1z"/>
</g>
<g>
	<path class="st5" d="M694.4,325.1c-1.6,0-2.8-1.3-2.8-3.3c0-2.1,1.2-3.3,2.8-3.3c1.6,0,2.8,1.3,2.8,3.2
		C697.2,323.9,696,325.1,694.4,325.1z M694.4,319.7c-0.9,0-1.5,0.8-1.5,2.1c0,1.4,0.6,2.1,1.6,2.1s1.5-0.9,1.5-2.1
		C696,320.6,695.4,319.7,694.4,319.7z"/>
	<path class="st5" d="M701.6,325.1c-0.6,0-1.2-0.3-1.6-0.7v0.6h-1.2v-8.1l1.2-0.6v3c0.5-0.4,1-0.7,1.6-0.7c1.4,0,2.4,1,2.4,3.4
		C704,324.1,702.9,325.1,701.6,325.1z M701.4,319.7c-0.6,0-1.1,0.4-1.4,0.8v2.7c0.3,0.4,0.9,0.8,1.5,0.8c0.9,0,1.4-0.7,1.4-2
		C702.8,320.4,702.3,319.7,701.4,319.7z"/>
	<path class="st5" d="M704.8,327.3l-0.4-0.9c1.2-0.3,1.3-0.6,1.3-1.6v-6h1.2v6C706.9,326.3,706.5,327,704.8,327.3z M706.3,317.9
		c-0.4,0-0.8-0.4-0.8-0.8c0-0.4,0.4-0.8,0.8-0.8c0.4,0,0.8,0.4,0.8,0.8C707.1,317.5,706.7,317.9,706.3,317.9z"/>
	<path class="st5" d="M713.8,322.3h-4.2c0.1,1.2,0.8,1.7,1.6,1.7c0.5,0,0.9-0.2,1.4-0.5l0.7,0.8c-0.6,0.5-1.2,0.8-2.2,0.8
		c-1.5,0-2.7-1.2-2.7-3.3c0-2.1,1.1-3.3,2.8-3.3c1.8,0,2.7,1.5,2.7,3.2C713.9,322,713.9,322.2,713.8,322.3z M711.1,319.7
		c-0.8,0-1.3,0.6-1.4,1.6h2.9C712.6,320.4,712.2,319.7,711.1,319.7z"/>
	<path class="st5" d="M719.4,320.5c-0.5-0.5-1-0.8-1.5-0.8c-0.9,0-1.5,0.8-1.5,2.1c0,1.2,0.5,2.1,1.5,2.1c0.6,0,0.9-0.3,1.4-0.8
		l0.8,0.8c-0.5,0.6-1.1,1.2-2.3,1.2c-1.5,0-2.7-1.3-2.7-3.3c0-2.1,1.2-3.3,2.8-3.3c0.9,0,1.6,0.4,2.2,1.1L719.4,320.5z"/>
	<path class="st5" d="M724.7,324.8c-0.3,0.2-0.7,0.3-1.2,0.3c-0.9,0-1.4-0.5-1.4-1.7v-3.6h-0.9v-1.1h0.9v-1.8l1.2-0.6v2.4h1.6v1.1
		h-1.6v3.4c0,0.6,0.2,0.8,0.6,0.8c0.3,0,0.7-0.1,0.9-0.3L724.7,324.8z"/>
	<path class="st5" d="M694,339.5c-0.9,0-1.8-0.3-2.4-0.8l0.6-0.9c0.6,0.4,1.2,0.6,1.8,0.6c0.8,0,1.2-0.3,1.2-0.7
		c0-0.5-0.6-0.7-1.5-1.1c-1.4-0.5-1.8-1-1.8-2c0-1.1,0.9-1.7,2.1-1.7c0.8,0,1.6,0.3,2.1,0.7l-0.5,0.9c-0.5-0.4-1-0.5-1.6-0.5
		s-0.9,0.2-0.9,0.6c0,0.3,0.2,0.5,1.2,0.9c1.4,0.5,2.1,0.9,2.1,2.1C696.3,339.1,695.2,339.5,694,339.5z"/>
	<path class="st5" d="M700.8,339.2c-0.3,0.2-0.7,0.3-1.2,0.3c-0.9,0-1.4-0.5-1.4-1.7v-3.6h-0.9v-1.1h0.9v-1.8l1.2-0.6v2.4h1.6v1.1
		h-1.6v3.4c0,0.6,0.2,0.8,0.6,0.8c0.3,0,0.7-0.1,0.9-0.3L700.8,339.2z"/>
	<path class="st5" d="M704.8,339.5c-1.6,0-2.8-1.3-2.8-3.3c0-2.1,1.2-3.3,2.8-3.3c1.6,0,2.8,1.3,2.8,3.2
		C707.7,338.3,706.5,339.5,704.8,339.5z M704.8,334.1c-0.9,0-1.5,0.8-1.5,2.1c0,1.4,0.6,2.1,1.6,2.1s1.5-0.9,1.5-2.1
		C706.4,335,705.8,334.1,704.8,334.1z"/>
	<path class="st5" d="M712.6,334.4c-0.3-0.1-0.5-0.2-0.9-0.2c-0.8,0-1.2,0.6-1.2,1.6v3.6h-1.2v-6.3h1.2v0.6c0.3-0.4,0.8-0.7,1.4-0.7
		c0.5,0,0.8,0.1,1.1,0.3L712.6,334.4z"/>
	<path class="st5" d="M717.4,339.4v-0.6c-0.4,0.4-1,0.8-1.7,0.8c-1,0-2.2-0.6-2.2-2.1c0-1.4,1.1-2,2.5-2c0.6,0,1.1,0.1,1.4,0.2v-0.5
		c0-0.7-0.4-1.1-1.2-1.1c-0.6,0-1.2,0.1-1.6,0.4l-0.5-0.9c0.6-0.4,1.3-0.6,2.2-0.6c1.4,0,2.4,0.7,2.4,2.1v4.3H717.4z M717.4,336.7
		c-0.3-0.2-0.8-0.3-1.4-0.3c-0.8,0-1.3,0.4-1.3,0.9c0,0.6,0.4,1,1.2,1c0.7,0,1.2-0.4,1.5-0.8V336.7z"/>
	<path class="st5" d="M722.5,341.7l-0.4-0.9c1.8-0.1,2.2-0.6,2.2-1.9v-0.1c-0.5,0.4-1,0.7-1.6,0.7c-1.3,0-2.4-1-2.4-3.4
		c0-2.2,1.2-3.2,2.5-3.2c0.6,0,1.2,0.3,1.6,0.7v-0.6h1.2v5.7C725.4,340.7,724.7,341.6,722.5,341.7z M724.2,334.9
		c-0.3-0.4-0.9-0.8-1.5-0.8c-0.9,0-1.4,0.7-1.4,2c0,1.6,0.5,2.3,1.4,2.3c0.6,0,1.1-0.4,1.4-0.8V334.9z"/>
	<path class="st5" d="M732.3,336.7h-4.2c0.1,1.2,0.8,1.7,1.6,1.7c0.5,0,0.9-0.2,1.4-0.5l0.7,0.8c-0.6,0.5-1.2,0.8-2.2,0.8
		c-1.5,0-2.7-1.2-2.7-3.3c0-2.1,1.1-3.3,2.8-3.3c1.8,0,2.7,1.5,2.7,3.2C732.4,336.4,732.3,336.6,732.3,336.7z M729.6,334.1
		c-0.8,0-1.3,0.6-1.4,1.6h2.9C731.1,334.8,730.6,334.1,729.6,334.1z"/>
	<path class="st5" d="M697.6,353.8l-0.7-2h-3.4l-0.7,2h-1.3l3-8.4h1.3l3.1,8.4H697.6z M695.9,348.8c-0.2-0.6-0.5-1.6-0.6-1.9
		c-0.1,0.4-0.4,1.3-0.6,1.9l-0.7,1.9h2.6L695.9,348.8z"/>
	<path class="st5" d="M704.1,350.7h-2.2v3.1h-1.2v-8.4h3.5c1.5,0,2.7,0.9,2.7,2.6C706.8,349.8,705.7,350.7,704.1,350.7z
		 M704.1,346.6h-2.3v2.9h2.3c1,0,1.4-0.6,1.4-1.5C705.6,347.1,705,346.6,704.1,346.6z"/>
	<path class="st5" d="M708.5,353.8v-8.4h1.3v8.4H708.5z"/>
</g>
<g>
	<path class="st5" d="M694.4,433.1c-1.6,0-2.8-1.3-2.8-3.3c0-2.1,1.2-3.3,2.8-3.3c1.6,0,2.8,1.3,2.8,3.2
		C697.2,431.9,696,433.1,694.4,433.1z M694.4,427.7c-0.9,0-1.5,0.8-1.5,2.1c0,1.4,0.6,2.1,1.6,2.1s1.5-0.9,1.5-2.1
		C696,428.6,695.4,427.7,694.4,427.7z"/>
	<path class="st5" d="M701.6,433.1c-0.6,0-1.2-0.3-1.6-0.7v0.6h-1.2v-8.1l1.2-0.6v3c0.5-0.4,1-0.7,1.6-0.7c1.4,0,2.4,1,2.4,3.4
		C704,432.1,702.9,433.1,701.6,433.1z M701.4,427.7c-0.6,0-1.1,0.4-1.4,0.8v2.7c0.3,0.4,0.9,0.8,1.5,0.8c0.9,0,1.4-0.7,1.4-2
		C702.8,428.4,702.3,427.7,701.4,427.7z"/>
	<path class="st5" d="M704.8,435.3l-0.4-0.9c1.2-0.3,1.3-0.6,1.3-1.6v-6h1.2v6C706.9,434.3,706.5,435,704.8,435.3z M706.3,425.9
		c-0.4,0-0.8-0.4-0.8-0.8c0-0.4,0.4-0.8,0.8-0.8c0.4,0,0.8,0.4,0.8,0.8C707.1,425.5,706.7,425.9,706.3,425.9z"/>
	<path class="st5" d="M713.8,430.3h-4.2c0.1,1.2,0.8,1.7,1.6,1.7c0.5,0,0.9-0.2,1.4-0.5l0.7,0.8c-0.6,0.5-1.2,0.8-2.2,0.8
		c-1.5,0-2.7-1.2-2.7-3.3c0-2.1,1.1-3.3,2.8-3.3c1.8,0,2.7,1.5,2.7,3.2C713.9,430,713.9,430.2,713.8,430.3z M711.1,427.7
		c-0.8,0-1.3,0.6-1.4,1.6h2.9C712.6,428.4,712.2,427.7,711.1,427.7z"/>
	<path class="st5" d="M719.4,428.5c-0.5-0.5-1-0.8-1.5-0.8c-0.9,0-1.5,0.8-1.5,2.1c0,1.2,0.5,2.1,1.5,2.1c0.6,0,0.9-0.3,1.4-0.8
		l0.8,0.8c-0.5,0.6-1.1,1.2-2.3,1.2c-1.5,0-2.7-1.3-2.7-3.3c0-2.1,1.2-3.3,2.8-3.3c0.9,0,1.6,0.4,2.2,1.1L719.4,428.5z"/>
	<path class="st5" d="M724.7,432.8c-0.3,0.2-0.7,0.3-1.2,0.3c-0.9,0-1.4-0.5-1.4-1.7v-3.6h-0.9v-1.1h0.9v-1.8l1.2-0.6v2.4h1.6v1.1
		h-1.6v3.4c0,0.6,0.2,0.8,0.6,0.8c0.3,0,0.7-0.1,0.9-0.3L724.7,432.8z"/>
	<path class="st5" d="M694,447.5c-0.9,0-1.8-0.3-2.4-0.8l0.6-0.9c0.6,0.4,1.2,0.6,1.8,0.6c0.8,0,1.2-0.3,1.2-0.7
		c0-0.5-0.6-0.7-1.5-1.1c-1.4-0.5-1.8-1-1.8-2c0-1.1,0.9-1.7,2.1-1.7c0.8,0,1.6,0.3,2.1,0.7l-0.5,0.9c-0.5-0.4-1-0.5-1.6-0.5
		s-0.9,0.2-0.9,0.6c0,0.3,0.2,0.5,1.2,0.9c1.4,0.5,2.1,0.9,2.1,2.1C696.3,447.1,695.2,447.5,694,447.5z"/>
	<path class="st5" d="M700.8,447.2c-0.3,0.2-0.7,0.3-1.2,0.3c-0.9,0-1.4-0.5-1.4-1.7v-3.6h-0.9v-1.1h0.9v-1.8l1.2-0.6v2.4h1.6v1.1
		h-1.6v3.4c0,0.6,0.2,0.8,0.6,0.8c0.3,0,0.7-0.1,0.9-0.3L700.8,447.2z"/>
	<path class="st5" d="M704.8,447.5c-1.6,0-2.8-1.3-2.8-3.3c0-2.1,1.2-3.3,2.8-3.3c1.6,0,2.8,1.3,2.8,3.2
		C707.7,446.3,706.5,447.5,704.8,447.5z M704.8,442.1c-0.9,0-1.5,0.8-1.5,2.1c0,1.4,0.6,2.1,1.6,2.1s1.5-0.9,1.5-2.1
		C706.4,443,705.8,442.1,704.8,442.1z"/>
	<path class="st5" d="M712.6,442.4c-0.3-0.1-0.5-0.2-0.9-0.2c-0.8,0-1.2,0.6-1.2,1.6v3.6h-1.2v-6.3h1.2v0.6c0.3-0.4,0.8-0.7,1.4-0.7
		c0.5,0,0.8,0.1,1.1,0.3L712.6,442.4z"/>
	<path class="st5" d="M717.4,447.4v-0.6c-0.4,0.4-1,0.8-1.7,0.8c-1,0-2.2-0.6-2.2-2.1c0-1.4,1.1-2,2.5-2c0.6,0,1.1,0.1,1.4,0.2v-0.5
		c0-0.7-0.4-1.1-1.2-1.1c-0.6,0-1.2,0.1-1.6,0.4l-0.5-0.9c0.6-0.4,1.3-0.6,2.2-0.6c1.4,0,2.4,0.7,2.4,2.1v4.3H717.4z M717.4,444.7
		c-0.3-0.2-0.8-0.3-1.4-0.3c-0.8,0-1.3,0.4-1.3,0.9c0,0.6,0.4,1,1.2,1c0.7,0,1.2-0.4,1.5-0.8V444.7z"/>
	<path class="st5" d="M722.5,449.7l-0.4-0.9c1.8-0.1,2.2-0.6,2.2-1.9v-0.1c-0.5,0.4-1,0.7-1.6,0.7c-1.3,0-2.4-1-2.4-3.4
		c0-2.2,1.2-3.2,2.5-3.2c0.6,0,1.2,0.3,1.6,0.7v-0.6h1.2v5.7C725.4,448.7,724.7,449.6,722.5,449.7z M724.2,442.9
		c-0.3-0.4-0.9-0.8-1.5-0.8c-0.9,0-1.4,0.7-1.4,2c0,1.6,0.5,2.3,1.4,2.3c0.6,0,1.1-0.4,1.4-0.8V442.9z"/>
	<path class="st5" d="M732.3,444.7h-4.2c0.1,1.2,0.8,1.7,1.6,1.7c0.5,0,0.9-0.2,1.4-0.5l0.7,0.8c-0.6,0.5-1.2,0.8-2.2,0.8
		c-1.5,0-2.7-1.2-2.7-3.3c0-2.1,1.1-3.3,2.8-3.3c1.8,0,2.7,1.5,2.7,3.2C732.4,444.4,732.3,444.6,732.3,444.7z M729.6,442.1
		c-0.8,0-1.3,0.6-1.4,1.6h2.9C731.1,442.8,730.6,442.1,729.6,442.1z"/>
	<path class="st5" d="M697.6,461.8l-0.7-2h-3.4l-0.7,2h-1.3l3-8.4h1.3l3.1,8.4H697.6z M695.9,456.8c-0.2-0.6-0.5-1.6-0.6-1.9
		c-0.1,0.4-0.4,1.3-0.6,1.9l-0.7,1.9h2.6L695.9,456.8z"/>
	<path class="st5" d="M704.1,458.7h-2.2v3.1h-1.2v-8.4h3.5c1.5,0,2.7,0.9,2.7,2.6C706.8,457.8,705.7,458.7,704.1,458.7z
		 M704.1,454.6h-2.3v2.9h2.3c1,0,1.4-0.6,1.4-1.5C705.6,455.1,705,454.6,704.1,454.6z"/>
	<path class="st5" d="M708.5,461.8v-8.4h1.3v8.4H708.5z"/>
</g>
<g>
	<path class="st5" d="M804.2,369.3h-3.1v-11.2h3.1c3,0,5.5,1.6,5.5,5.6C809.6,367.6,807.1,369.3,804.2,369.3z M804.2,359.7h-1.4v7.9
		h1.4c2.7,0,3.7-1.6,3.7-4C807.9,361.3,806.8,359.7,804.2,359.7z"/>
	<path class="st5" d="M816.6,369.3v-0.8c-0.6,0.6-1.4,1-2.3,1c-1.4,0-2.9-0.8-2.9-2.8c0-1.9,1.4-2.7,3.3-2.7c0.8,0,1.4,0.1,1.9,0.3
		v-0.6c0-0.9-0.6-1.4-1.6-1.4c-0.9,0-1.5,0.2-2.2,0.5l-0.6-1.2c0.8-0.5,1.7-0.8,2.9-0.8c1.9,0,3.2,0.9,3.2,2.8v5.8H816.6z
		 M816.6,365.7c-0.4-0.2-1-0.4-1.9-0.4c-1.1,0-1.7,0.5-1.7,1.2c0,0.8,0.5,1.4,1.6,1.4c0.9,0,1.6-0.5,2-1.1V365.7z"/>
	<path class="st5" d="M823.3,369.4c-1.1,0-2.4-0.4-3.2-1.1l0.8-1.2c0.8,0.5,1.7,0.8,2.4,0.8c1,0,1.5-0.3,1.5-0.9
		c0-0.6-0.7-0.9-2-1.4c-1.8-0.7-2.5-1.3-2.5-2.6c0-1.5,1.2-2.3,2.9-2.3c1.1,0,2.1,0.4,2.8,0.9l-0.7,1.3c-0.7-0.5-1.4-0.7-2.2-0.7
		c-0.8,0-1.2,0.3-1.2,0.8c0,0.4,0.3,0.7,1.6,1.2c1.9,0.7,2.8,1.2,2.8,2.8C826.4,368.8,824.9,369.4,823.3,369.4z"/>
	<path class="st5" d="M833.6,369.3v-4.8c0-1.7-0.6-2.3-1.7-2.3c-1.1,0-1.7,0.8-1.7,2.1v4.9h-1.6v-10.8l1.6-0.9v4.1
		c0.4-0.6,1.2-1,2.1-1c2,0,3,1.3,3,3.8v4.8H833.6z"/>
	<path class="st5" d="M841.4,369.4c-0.8,0-1.6-0.4-2.1-1v0.8h-1.6v-10.8l1.6-0.8v4.1c0.6-0.6,1.3-1,2.2-1c1.8,0,3.2,1.3,3.2,4.5
		C844.7,368.1,843.1,369.4,841.4,369.4z M841.2,362.2c-0.8,0-1.5,0.5-1.9,1.1v3.5c0.4,0.5,1.1,1.1,2,1.1c1.2,0,1.8-0.9,1.8-2.7
		C843.1,363.1,842.4,362.2,841.2,362.2z"/>
	<path class="st5" d="M850.1,369.4c-2.1,0-3.7-1.7-3.7-4.4c0-2.8,1.6-4.4,3.7-4.4c2.1,0,3.7,1.7,3.7,4.3
		C853.9,367.8,852.2,369.4,850.1,369.4z M850.1,362.2c-1.2,0-2,1.1-2,2.8c0,1.8,0.8,2.8,2.1,2.8s2.1-1.3,2.1-2.8
		C852.2,363.3,851.4,362.2,850.1,362.2z"/>
	<path class="st5" d="M860.6,369.3v-0.8c-0.6,0.6-1.4,1-2.3,1c-1.4,0-2.9-0.8-2.9-2.8c0-1.9,1.4-2.7,3.3-2.7c0.8,0,1.4,0.1,1.9,0.3
		v-0.6c0-0.9-0.6-1.4-1.6-1.4c-0.9,0-1.5,0.2-2.2,0.5l-0.6-1.2c0.8-0.5,1.7-0.8,2.9-0.8c1.9,0,3.2,0.9,3.2,2.8v5.8H860.6z
		 M860.6,365.7c-0.4-0.2-1-0.4-1.9-0.4c-1.1,0-1.7,0.5-1.7,1.2c0,0.8,0.5,1.4,1.6,1.4c0.9,0,1.6-0.5,2-1.1V365.7z"/>
	<path class="st5" d="M869.2,362.6c-0.4-0.2-0.7-0.3-1.3-0.3c-1,0-1.6,0.7-1.6,2.2v4.8h-1.6v-8.4h1.6v0.8c0.4-0.6,1.1-1,1.9-1
		c0.7,0,1.1,0.1,1.4,0.4L869.2,362.6z"/>
	<path class="st5" d="M875.9,369.3v-0.8c-0.6,0.6-1.3,1-2.2,1c-1.8,0-3.2-1.3-3.2-4.5c0-2.9,1.6-4.2,3.3-4.2c0.8,0,1.6,0.4,2.1,1
		v-3.2l1.6-0.8v11.7H875.9z M875.9,363.3c-0.4-0.5-1.1-1.1-2-1.1c-1.2,0-1.8,0.9-1.8,2.7c0,2.1,0.7,3,1.9,3c0.8,0,1.5-0.5,1.9-1.1
		V363.3z"/>
	<path class="st5" d="M887.9,369.4c-1.6,0-3-0.7-4-1.8l1.2-1.2c0.8,0.8,1.9,1.3,2.9,1.3c1.6,0,2.3-0.5,2.3-1.6
		c0-0.9-0.7-1.3-2.5-1.9c-2.4-0.7-3.5-1.3-3.5-3.3c0-1.9,1.6-3.1,3.7-3.1c1.5,0,2.7,0.6,3.7,1.5l-1.2,1.2c-0.7-0.7-1.5-1.1-2.6-1.1
		c-1.3,0-1.9,0.6-1.9,1.4c0,0.8,0.5,1.2,2.4,1.7c2.2,0.7,3.6,1.4,3.6,3.4C892,368.1,890.8,369.4,887.9,369.4z"/>
	<path class="st5" d="M900.9,365.6h-5.6c0.2,1.6,1.1,2.3,2.1,2.3c0.7,0,1.3-0.3,1.8-0.7l1,1.1c-0.7,0.7-1.6,1.1-2.9,1.1
		c-2,0-3.6-1.6-3.6-4.4c0-2.8,1.5-4.4,3.7-4.4c2.4,0,3.5,1.9,3.5,4.2C901,365.2,900.9,365.5,900.9,365.6z M897.3,362.2
		c-1.1,0-1.8,0.8-1.9,2.1h3.9C899.2,363.1,898.7,362.2,897.3,362.2z"/>
	<path class="st5" d="M907.6,362.6c-0.4-0.2-0.7-0.3-1.3-0.3c-1,0-1.6,0.7-1.6,2.2v4.8H903v-8.4h1.6v0.8c0.4-0.6,1.1-1,1.9-1
		c0.7,0,1.1,0.1,1.4,0.4L907.6,362.6z"/>
	<path class="st5" d="M913.7,369.3H912l-3-8.4h1.7l1.5,4.6c0.3,0.8,0.5,1.6,0.6,2.1c0.1-0.5,0.3-1.2,0.6-2.1l1.4-4.6h1.7
		L913.7,369.3z"/>
	<path class="st5" d="M919.3,359.8c-0.6,0-1.1-0.5-1.1-1.1c0-0.6,0.5-1.1,1.1-1.1c0.6,0,1.1,0.5,1.1,1.1
		C920.3,359.3,919.9,359.8,919.3,359.8z M918.4,369.3v-8.4h1.6v8.4H918.4z"/>
	<path class="st5" d="M927.9,363.3c-0.7-0.7-1.3-1-2-1c-1.2,0-2,1.1-2,2.8c0,1.6,0.7,2.8,2,2.8c0.8,0,1.2-0.4,1.9-1l1.1,1
		c-0.7,0.8-1.5,1.6-3,1.6c-2,0-3.6-1.7-3.6-4.4c0-2.8,1.6-4.4,3.7-4.4c1.2,0,2.2,0.5,3,1.4L927.9,363.3z"/>
	<path class="st5" d="M937.5,365.6h-5.6c0.2,1.6,1.1,2.3,2.1,2.3c0.7,0,1.3-0.3,1.8-0.7l1,1.1c-0.7,0.7-1.6,1.1-2.9,1.1
		c-2,0-3.6-1.6-3.6-4.4c0-2.8,1.5-4.4,3.7-4.4c2.4,0,3.5,1.9,3.5,4.2C937.5,365.2,937.5,365.5,937.5,365.6z M933.9,362.2
		c-1.1,0-1.8,0.8-1.9,2.1h3.9C935.8,363.1,935.2,362.2,933.9,362.2z"/>
</g>
<g>
	<path class="st5" d="M811.7,477.9c-2.9,0-4.7-2.4-4.7-5.8s1.8-5.8,4.7-5.8c1.8,0,3,0.7,3.8,2.1l-1.5,0.9c-0.6-0.9-1.2-1.3-2.3-1.3
		c-2,0-3,1.6-3,4.1c0,2.5,1.1,4.1,3,4.1c1.2,0,1.9-0.5,2.5-1.4l1.4,0.9C814.8,477.2,813.4,477.9,811.7,477.9z"/>
	<path class="st5" d="M820.7,477.9c-2.1,0-3.7-1.7-3.7-4.4c0-2.8,1.6-4.4,3.7-4.4c2.1,0,3.7,1.7,3.7,4.3
		C824.5,476.3,822.9,477.9,820.7,477.9z M820.7,470.7c-1.2,0-2,1.1-2,2.8c0,1.8,0.8,2.8,2.1,2.8c1.2,0,2.1-1.3,2.1-2.8
		C822.9,471.8,822.1,470.7,820.7,470.7z"/>
	<path class="st5" d="M836.3,477.8V473c0-1.7-0.5-2.3-1.6-2.3c-1.1,0-1.6,0.8-1.6,2.1v4.9h-1.6V473c0-1.7-0.5-2.3-1.6-2.3
		c-1.1,0-1.6,0.8-1.6,2.1v4.9h-1.6v-8.4h1.6v0.8c0.4-0.6,1.1-1,2-1c1.1,0,1.9,0.4,2.3,1.2c0.6-0.8,1.3-1.2,2.6-1.2
		c2,0,2.9,1.3,2.9,3.8v4.8H836.3z"/>
	<path class="st5" d="M844.1,477.9c-0.8,0-1.6-0.4-2.1-1v3l-1.6,0.8v-11.5h1.6v0.8c0.6-0.6,1.3-1,2.2-1c1.8,0,3.2,1.3,3.2,4.5
		C847.4,476.6,845.8,477.9,844.1,477.9z M843.9,470.7c-0.8,0-1.5,0.5-1.9,1.1v3.5c0.4,0.5,1.1,1.1,2,1.1c1.2,0,1.8-0.9,1.8-2.7
		C845.7,471.6,845.1,470.7,843.9,470.7z"/>
	<path class="st5" d="M854.5,477.8V477c-0.4,0.6-1.2,1-2.1,1c-2,0-3-1.3-3-3.8v-4.8h1.6v4.8c0,1.7,0.6,2.3,1.7,2.3
		c1.1,0,1.7-0.8,1.7-2.1v-4.9h1.6v8.4H854.5z"/>
	<path class="st5" d="M862.6,477.5c-0.4,0.2-1,0.4-1.6,0.4c-1.2,0-1.9-0.7-1.9-2.2v-4.8h-1.2v-1.5h1.2V467l1.6-0.9v3.3h2.1v1.5h-2.1
		v4.6c0,0.8,0.3,1,0.9,1c0.4,0,0.9-0.2,1.2-0.3L862.6,477.5z"/>
	<path class="st5" d="M871.5,474.1h-5.6c0.2,1.6,1.1,2.3,2.1,2.3c0.7,0,1.3-0.3,1.8-0.7l1,1.1c-0.7,0.7-1.6,1.1-2.9,1.1
		c-2,0-3.6-1.6-3.6-4.4c0-2.8,1.5-4.4,3.7-4.4c2.4,0,3.5,1.9,3.5,4.2C871.5,473.7,871.5,474,871.5,474.1z M867.9,470.7
		c-1.1,0-1.8,0.8-1.9,2.1h3.9C869.8,471.6,869.2,470.7,867.9,470.7z"/>
	<path class="st5" d="M881.5,477.9c-1.6,0-3-0.7-4-1.8l1.2-1.2c0.8,0.8,1.9,1.3,2.9,1.3c1.6,0,2.3-0.5,2.3-1.6
		c0-0.9-0.7-1.3-2.5-1.9c-2.4-0.7-3.5-1.3-3.5-3.3c0-1.9,1.6-3.1,3.7-3.1c1.5,0,2.7,0.6,3.7,1.5l-1.2,1.2c-0.7-0.7-1.5-1.1-2.6-1.1
		c-1.3,0-1.9,0.6-1.9,1.4c0,0.8,0.5,1.2,2.4,1.7c2.2,0.7,3.6,1.4,3.6,3.4C885.6,476.6,884.4,477.9,881.5,477.9z"/>
	<path class="st5" d="M894.5,474.1H889c0.2,1.6,1.1,2.3,2.1,2.3c0.7,0,1.3-0.3,1.8-0.7l1,1.1c-0.7,0.7-1.6,1.1-2.9,1.1
		c-2,0-3.6-1.6-3.6-4.4c0-2.8,1.5-4.4,3.7-4.4c2.4,0,3.5,1.9,3.5,4.2C894.6,473.7,894.5,474,894.5,474.1z M890.9,470.7
		c-1.1,0-1.8,0.8-1.9,2.1h3.9C892.8,471.6,892.3,470.7,890.9,470.7z"/>
	<path class="st5" d="M901.2,471.1c-0.4-0.2-0.7-0.3-1.3-0.3c-1,0-1.6,0.7-1.6,2.2v4.8h-1.6v-8.4h1.6v0.8c0.4-0.6,1.1-1,1.9-1
		c0.7,0,1.1,0.1,1.4,0.4L901.2,471.1z"/>
	<path class="st5" d="M907.3,477.8h-1.6l-3-8.4h1.7l1.5,4.6c0.3,0.8,0.5,1.6,0.6,2.1c0.1-0.5,0.3-1.2,0.6-2.1l1.4-4.6h1.7
		L907.3,477.8z"/>
	<path class="st5" d="M912.9,468.3c-0.6,0-1.1-0.5-1.1-1.1c0-0.6,0.5-1.1,1.1-1.1c0.6,0,1.1,0.5,1.1,1.1
		C913.9,467.8,913.5,468.3,912.9,468.3z M912,477.8v-8.4h1.6v8.4H912z"/>
	<path class="st5" d="M921.5,471.8c-0.7-0.7-1.3-1-2-1c-1.2,0-2,1.1-2,2.8c0,1.6,0.7,2.8,2,2.8c0.8,0,1.2-0.4,1.9-1l1.1,1
		c-0.7,0.8-1.5,1.6-3,1.6c-2,0-3.6-1.7-3.6-4.4c0-2.8,1.6-4.4,3.7-4.4c1.2,0,2.2,0.5,3,1.4L921.5,471.8z"/>
	<path class="st5" d="M931.1,474.1h-5.6c0.2,1.6,1.1,2.3,2.1,2.3c0.7,0,1.3-0.3,1.8-0.7l1,1.1c-0.7,0.7-1.6,1.1-2.9,1.1
		c-2,0-3.6-1.6-3.6-4.4c0-2.8,1.5-4.4,3.7-4.4c2.4,0,3.5,1.9,3.5,4.2C931.1,473.7,931.1,474,931.1,474.1z M927.5,470.7
		c-1.1,0-1.8,0.8-1.9,2.1h3.9C929.4,471.6,928.8,470.7,927.5,470.7z"/>
</g>
<g>
	<path class="st5" d="M818.1,586.3v-11.2h1.7v11.2H818.1z"/>
	<path class="st5" d="M832.3,586.3v-4.8c0-1.7-0.5-2.3-1.6-2.3c-1.1,0-1.6,0.8-1.6,2.1v4.9h-1.6v-4.8c0-1.7-0.5-2.3-1.6-2.3
		c-1.1,0-1.6,0.8-1.6,2.1v4.9h-1.6v-8.4h1.6v0.8c0.4-0.6,1.1-1,2-1c1.1,0,1.9,0.4,2.3,1.2c0.6-0.8,1.3-1.2,2.6-1.2
		c2,0,2.9,1.3,2.9,3.8v4.8H832.3z"/>
	<path class="st5" d="M841.1,586.3v-0.8c-0.6,0.6-1.4,1-2.3,1c-1.4,0-2.9-0.8-2.9-2.8c0-1.9,1.4-2.7,3.3-2.7c0.8,0,1.4,0.1,1.9,0.3
		v-0.6c0-0.9-0.6-1.4-1.6-1.4c-0.9,0-1.5,0.2-2.2,0.5l-0.6-1.2c0.8-0.5,1.7-0.8,2.9-0.8c1.9,0,3.2,0.9,3.2,2.8v5.8H841.1z
		 M841.1,582.7c-0.4-0.2-1-0.4-1.9-0.4c-1.1,0-1.7,0.5-1.7,1.2c0,0.8,0.5,1.4,1.6,1.4c0.9,0,1.6-0.5,2-1.1V582.7z"/>
	<path class="st5" d="M847.8,589.3l-0.6-1.2c2.4-0.1,2.9-0.8,2.9-2.5v-0.1c-0.6,0.6-1.3,1-2.2,1c-1.8,0-3.2-1.3-3.2-4.5
		c0-2.9,1.6-4.2,3.3-4.2c0.8,0,1.6,0.4,2.1,1v-0.8h1.6v7.6C851.8,588,850.9,589.2,847.8,589.3z M850.2,580.3c-0.4-0.5-1.1-1.1-2-1.1
		c-1.2,0-1.8,0.9-1.8,2.7c0,2.1,0.7,3,1.9,3c0.8,0,1.5-0.5,1.9-1.1V580.3z"/>
	<path class="st5" d="M861,582.6h-5.6c0.2,1.6,1.1,2.3,2.1,2.3c0.7,0,1.3-0.3,1.8-0.7l1,1.1c-0.7,0.7-1.6,1.1-2.9,1.1
		c-2,0-3.6-1.6-3.6-4.4c0-2.8,1.5-4.4,3.7-4.4c2.4,0,3.5,1.9,3.5,4.2C861,582.2,861,582.5,861,582.6z M857.4,579.2
		c-1.1,0-1.8,0.8-1.9,2.1h3.9C859.3,580.1,858.7,579.2,857.4,579.2z"/>
	<path class="st5" d="M871,586.4c-1.6,0-3-0.7-4-1.8l1.2-1.2c0.8,0.8,1.9,1.3,2.9,1.3c1.6,0,2.3-0.5,2.3-1.6c0-0.9-0.7-1.3-2.5-1.9
		c-2.4-0.7-3.5-1.3-3.5-3.3c0-1.9,1.6-3.1,3.7-3.1c1.5,0,2.7,0.6,3.7,1.5l-1.2,1.2c-0.7-0.7-1.5-1.1-2.6-1.1c-1.3,0-1.9,0.6-1.9,1.4
		c0,0.8,0.5,1.2,2.4,1.7c2.2,0.7,3.6,1.4,3.6,3.4C875.1,585.1,873.9,586.4,871,586.4z"/>
	<path class="st5" d="M884,582.6h-5.6c0.2,1.6,1.1,2.3,2.1,2.3c0.7,0,1.3-0.3,1.8-0.7l1,1.1c-0.7,0.7-1.6,1.1-2.9,1.1
		c-2,0-3.6-1.6-3.6-4.4c0-2.8,1.5-4.4,3.7-4.4c2.4,0,3.5,1.9,3.5,4.2C884.1,582.2,884,582.5,884,582.6z M880.4,579.2
		c-1.1,0-1.8,0.8-1.9,2.1h3.9C882.3,580.1,881.8,579.2,880.4,579.2z"/>
	<path class="st5" d="M890.7,579.6c-0.4-0.2-0.7-0.3-1.3-0.3c-1,0-1.6,0.7-1.6,2.2v4.8h-1.6v-8.4h1.6v0.8c0.4-0.6,1.1-1,1.9-1
		c0.7,0,1.1,0.1,1.4,0.4L890.7,579.6z"/>
	<path class="st5" d="M896.8,586.3h-1.6l-3-8.4h1.7l1.5,4.6c0.3,0.8,0.5,1.6,0.6,2.1c0.1-0.5,0.3-1.2,0.6-2.1l1.4-4.6h1.7
		L896.8,586.3z"/>
	<path class="st5" d="M902.4,576.8c-0.6,0-1.1-0.5-1.1-1.1c0-0.6,0.5-1.1,1.1-1.1c0.6,0,1.1,0.5,1.1,1.1
		C903.4,576.3,903,576.8,902.4,576.8z M901.6,586.3v-8.4h1.6v8.4H901.6z"/>
	<path class="st5" d="M911,580.3c-0.7-0.7-1.3-1-2-1c-1.2,0-2,1.1-2,2.8c0,1.6,0.7,2.8,2,2.8c0.8,0,1.2-0.4,1.9-1l1.1,1
		c-0.7,0.8-1.5,1.6-3,1.6c-2,0-3.6-1.7-3.6-4.4c0-2.8,1.6-4.4,3.7-4.4c1.2,0,2.2,0.5,3,1.4L911,580.3z"/>
	<path class="st5" d="M920.6,582.6H915c0.2,1.6,1.1,2.3,2.1,2.3c0.7,0,1.3-0.3,1.8-0.7l1,1.1c-0.7,0.7-1.6,1.1-2.9,1.1
		c-2,0-3.6-1.6-3.6-4.4c0-2.8,1.5-4.4,3.7-4.4c2.4,0,3.5,1.9,3.5,4.2C920.6,582.2,920.6,582.5,920.6,582.6z M917,579.2
		c-1.1,0-1.8,0.8-1.9,2.1h3.9C918.9,580.1,918.3,579.2,917,579.2z"/>
</g>
<g>
	<path class="st0" d="M236.1,338.4c-2.1,0-3.7-1.7-3.7-4.4c0-2.8,1.6-4.4,3.7-4.4c2.1,0,3.7,1.7,3.7,4.3
		C239.9,336.8,238.3,338.4,236.1,338.4z M236.1,331.2c-1.2,0-2,1.1-2,2.8c0,1.8,0.8,2.8,2.1,2.8s2.1-1.3,2.1-2.8
		C238.2,332.3,237.4,331.2,236.1,331.2z"/>
	<path class="st0" d="M245.7,338.4c-0.8,0-1.6-0.4-2.1-1v3l-1.6,0.8v-11.5h1.6v0.8c0.6-0.6,1.3-1,2.2-1c1.8,0,3.2,1.3,3.2,4.5
		C249,337.1,247.4,338.4,245.7,338.4z M245.5,331.2c-0.8,0-1.5,0.5-1.9,1.1v3.5c0.4,0.5,1.1,1.1,2,1.1c1.2,0,1.8-0.9,1.8-2.7
		C247.3,332.1,246.7,331.2,245.5,331.2z"/>
	<path class="st0" d="M257.8,334.6h-5.6c0.2,1.6,1.1,2.3,2.1,2.3c0.7,0,1.3-0.3,1.8-0.7l1,1.1c-0.7,0.7-1.6,1.1-2.9,1.1
		c-2,0-3.6-1.6-3.6-4.4c0-2.8,1.5-4.4,3.7-4.4c2.4,0,3.5,1.9,3.5,4.2C257.9,334.2,257.8,334.5,257.8,334.6z M254.2,331.2
		c-1.1,0-1.8,0.8-1.9,2.1h3.9C256.1,332.1,255.6,331.2,254.2,331.2z"/>
	<path class="st0" d="M265,338.3v-4.8c0-1.7-0.6-2.3-1.7-2.3c-1.1,0-1.7,0.8-1.7,2.1v4.9h-1.6v-8.4h1.6v0.8c0.4-0.6,1.2-1,2.1-1
		c2,0,3,1.3,3,3.8v4.8H265z"/>
	<path class="st0" d="M271.8,338.4c-1.1,0-2.4-0.4-3.2-1.1l0.8-1.2c0.8,0.5,1.7,0.8,2.4,0.8c1,0,1.5-0.3,1.5-0.9
		c0-0.6-0.7-0.9-2-1.4c-1.8-0.7-2.5-1.3-2.5-2.6c0-1.5,1.2-2.3,2.9-2.3c1.1,0,2.1,0.4,2.8,0.9l-0.7,1.3c-0.7-0.5-1.4-0.7-2.2-0.7
		s-1.2,0.3-1.2,0.8c0,0.4,0.3,0.7,1.6,1.2c1.9,0.7,2.8,1.2,2.8,2.8C274.9,337.8,273.4,338.4,271.8,338.4z"/>
	<path class="st0" d="M280.9,338c-0.4,0.2-1,0.4-1.6,0.4c-1.2,0-1.9-0.7-1.9-2.2v-4.8h-1.2v-1.5h1.2v-2.4l1.6-0.9v3.3h2.1v1.5H279
		v4.6c0,0.8,0.3,1,0.9,1c0.4,0,0.9-0.2,1.2-0.3L280.9,338z"/>
	<path class="st0" d="M287.9,338.3v-0.8c-0.6,0.6-1.4,1-2.3,1c-1.4,0-2.9-0.8-2.9-2.8c0-1.9,1.4-2.7,3.3-2.7c0.8,0,1.4,0.1,1.9,0.3
		v-0.6c0-0.9-0.6-1.4-1.6-1.4c-0.9,0-1.5,0.2-2.2,0.5l-0.6-1.2c0.8-0.5,1.7-0.8,2.9-0.8c1.9,0,3.2,0.9,3.2,2.8v5.8H287.9z
		 M287.9,334.7c-0.4-0.2-1-0.4-1.9-0.4c-1.1,0-1.7,0.5-1.7,1.2c0,0.8,0.5,1.4,1.6,1.4c0.9,0,1.6-0.5,2-1.1V334.7z"/>
	<path class="st0" d="M297.2,332.3c-0.7-0.7-1.3-1-2-1c-1.2,0-2,1.1-2,2.8c0,1.6,0.7,2.8,2,2.8c0.8,0,1.2-0.4,1.9-1l1.1,1
		c-0.7,0.8-1.5,1.6-3,1.6c-2,0-3.6-1.7-3.6-4.4c0-2.8,1.6-4.4,3.7-4.4c1.2,0,2.2,0.5,3,1.4L297.2,332.3z"/>
	<path class="st0" d="M305,338.3l-1.9-4.2l-1.3,1.7v2.5h-1.6v-10.8l1.6-0.9v5.3c0,0.5,0,1.4,0,1.8c0.2-0.3,0.7-1,0.9-1.4l1.7-2.4
		h1.9l-2.1,2.8l2.5,5.6H305z"/>
	<path class="st0" d="M307.7,333.2v-1.6h4v1.6H307.7z"/>
	<path class="st0" d="M316.5,338.4c-1.1,0-2.4-0.4-3.2-1.1l0.8-1.2c0.8,0.5,1.7,0.8,2.4,0.8c1,0,1.5-0.3,1.5-0.9
		c0-0.6-0.7-0.9-2-1.4c-1.8-0.7-2.5-1.3-2.5-2.6c0-1.5,1.2-2.3,2.9-2.3c1.1,0,2.1,0.4,2.8,0.9l-0.7,1.3c-0.7-0.5-1.4-0.7-2.2-0.7
		s-1.2,0.3-1.2,0.8c0,0.4,0.3,0.7,1.6,1.2c1.9,0.7,2.8,1.2,2.8,2.8C319.7,337.8,318.2,338.4,316.5,338.4z"/>
	<path class="st0" d="M329.1,338.3h-1.4l-1.1-4.2c-0.2-0.6-0.4-1.4-0.4-1.8c-0.1,0.4-0.3,1.2-0.4,1.8l-1.1,4.2h-1.4l-2.3-8.4h1.6
		l1,4.1c0.2,0.6,0.3,1.4,0.4,1.8c0.1-0.4,0.3-1.2,0.5-1.8l1.1-4.1h1.3l1.1,4.1c0.2,0.7,0.4,1.4,0.4,1.8c0.1-0.4,0.3-1.2,0.4-1.8
		l1-4.1h1.6L329.1,338.3z"/>
	<path class="st0" d="M334.2,328.8c-0.6,0-1.1-0.5-1.1-1.1c0-0.6,0.5-1.1,1.1-1.1c0.6,0,1.1,0.5,1.1,1.1
		C335.2,328.3,334.7,328.8,334.2,328.8z M333.3,338.3v-8.4h1.6v8.4H333.3z"/>
	<path class="st0" d="M340.5,328.1c-0.5,0-0.8,0.2-0.8,0.8v1h1.6v1.5h-1.6v6.9H338v-6.9H337v-1.5h1.1v-1.1c0-1.5,0.9-2.1,2.1-2.1
		c0.4,0,0.9,0.1,1.2,0.2v1.4C341,328.1,340.8,328.1,340.5,328.1z"/>
	<path class="st0" d="M347.3,338c-0.4,0.2-1,0.4-1.6,0.4c-1.2,0-1.9-0.7-1.9-2.2v-4.8h-1.2v-1.5h1.2v-2.4l1.6-0.9v3.3h2.1v1.5h-2.1
		v4.6c0,0.8,0.3,1,0.9,1c0.4,0,0.9-0.2,1.2-0.3L347.3,338z"/>
	<path class="st0" d="M349.1,333.2v-1.6h4v1.6H349.1z"/>
	<path class="st0" d="M359.7,338.3v-0.8c-0.6,0.6-1.4,1-2.3,1c-1.4,0-2.9-0.8-2.9-2.8c0-1.9,1.4-2.7,3.3-2.7c0.8,0,1.4,0.1,1.9,0.3
		v-0.6c0-0.9-0.6-1.4-1.6-1.4c-0.9,0-1.5,0.2-2.2,0.5l-0.6-1.2c0.8-0.5,1.7-0.8,2.9-0.8c1.9,0,3.2,0.9,3.2,2.8v5.8H359.7z
		 M359.7,334.7c-0.4-0.2-1-0.4-1.9-0.4c-1.1,0-1.7,0.5-1.7,1.2c0,0.8,0.5,1.4,1.6,1.4c0.9,0,1.6-0.5,2-1.1V334.7z"/>
	<path class="st0" d="M369,332.3c-0.7-0.7-1.3-1-2-1c-1.2,0-2,1.1-2,2.8c0,1.6,0.7,2.8,2,2.8c0.8,0,1.2-0.4,1.9-1l1.1,1
		c-0.7,0.8-1.5,1.6-3,1.6c-2,0-3.6-1.7-3.6-4.4c0-2.8,1.6-4.4,3.7-4.4c1.2,0,2.2,0.5,3,1.4L369,332.3z"/>
	<path class="st0" d="M377.1,332.3c-0.7-0.7-1.3-1-2-1c-1.2,0-2,1.1-2,2.8c0,1.6,0.7,2.8,2,2.8c0.8,0,1.2-0.4,1.9-1l1.1,1
		c-0.7,0.8-1.5,1.6-3,1.6c-2,0-3.6-1.7-3.6-4.4c0-2.8,1.6-4.4,3.7-4.4c1.2,0,2.2,0.5,3,1.4L377.1,332.3z"/>
	<path class="st0" d="M383.2,338.4c-2.1,0-3.7-1.7-3.7-4.4c0-2.8,1.6-4.4,3.7-4.4c2.1,0,3.7,1.7,3.7,4.3
		C387,336.8,385.3,338.4,383.2,338.4z M383.2,331.2c-1.2,0-2,1.1-2,2.8c0,1.8,0.8,2.8,2.1,2.8s2.1-1.3,2.1-2.8
		C385.3,332.3,384.5,331.2,383.2,331.2z"/>
	<path class="st0" d="M394,338.3v-0.8c-0.4,0.6-1.2,1-2.1,1c-2,0-3-1.3-3-3.8v-4.8h1.6v4.8c0,1.7,0.6,2.3,1.7,2.3
		c1.1,0,1.7-0.8,1.7-2.1v-4.9h1.6v8.4H394z"/>
	<path class="st0" d="M403.2,338.3v-4.8c0-1.7-0.6-2.3-1.7-2.3c-1.1,0-1.7,0.8-1.7,2.1v4.9h-1.6v-8.4h1.6v0.8c0.4-0.6,1.2-1,2.1-1
		c2,0,3,1.3,3,3.8v4.8H403.2z"/>
	<path class="st0" d="M411.2,338c-0.4,0.2-1,0.4-1.6,0.4c-1.2,0-1.9-0.7-1.9-2.2v-4.8h-1.2v-1.5h1.2v-2.4l1.6-0.9v3.3h2.1v1.5h-2.1
		v4.6c0,0.8,0.3,1,0.9,1c0.4,0,0.9-0.2,1.2-0.3L411.2,338z"/>
</g>
<g>
	<path class="st0" d="M230.3,410.9c-2.1,0-3.7-1.7-3.7-4.4c0-2.8,1.6-4.4,3.7-4.4c2.1,0,3.7,1.7,3.7,4.3
		C234.1,409.3,232.4,410.9,230.3,410.9z M230.2,403.7c-1.2,0-2,1.1-2,2.8c0,1.8,0.8,2.8,2.1,2.8s2.1-1.3,2.1-2.8
		C232.4,404.8,231.6,403.7,230.2,403.7z"/>
	<path class="st0" d="M239.8,410.9c-0.8,0-1.6-0.4-2.1-1v3l-1.6,0.8v-11.5h1.6v0.8c0.6-0.6,1.3-1,2.2-1c1.8,0,3.2,1.3,3.2,4.5
		C243.1,409.6,241.6,410.9,239.8,410.9z M239.6,403.7c-0.8,0-1.5,0.5-1.9,1.1v3.5c0.4,0.5,1.1,1.1,2,1.1c1.2,0,1.8-0.9,1.8-2.7
		C241.5,404.6,240.8,403.7,239.6,403.7z"/>
	<path class="st0" d="M252,407.1h-5.6c0.2,1.6,1.1,2.3,2.1,2.3c0.7,0,1.3-0.3,1.8-0.7l1,1.1c-0.7,0.7-1.6,1.1-2.9,1.1
		c-2,0-3.6-1.6-3.6-4.4c0-2.8,1.5-4.4,3.7-4.4c2.4,0,3.5,1.9,3.5,4.2C252,406.7,252,407,252,407.1z M248.4,403.7
		c-1.1,0-1.8,0.8-1.9,2.1h3.9C250.3,404.6,249.7,403.7,248.4,403.7z"/>
	<path class="st0" d="M259.2,410.8V406c0-1.7-0.6-2.3-1.7-2.3c-1.1,0-1.7,0.8-1.7,2.1v4.9h-1.6v-8.4h1.6v0.8c0.4-0.6,1.2-1,2.1-1
		c2,0,3,1.3,3,3.8v4.8H259.2z"/>
	<path class="st0" d="M265.9,410.9c-1.1,0-2.4-0.4-3.2-1.1l0.8-1.2c0.8,0.5,1.7,0.8,2.4,0.8c1,0,1.5-0.3,1.5-0.9
		c0-0.6-0.7-0.9-2-1.4c-1.8-0.7-2.5-1.3-2.5-2.6c0-1.5,1.2-2.3,2.9-2.3c1.1,0,2.1,0.4,2.8,0.9l-0.7,1.3c-0.7-0.5-1.4-0.7-2.2-0.7
		c-0.8,0-1.2,0.3-1.2,0.8c0,0.4,0.3,0.7,1.6,1.2c1.9,0.7,2.8,1.2,2.8,2.8C269.1,410.3,267.6,410.9,265.9,410.9z"/>
	<path class="st0" d="M275,410.5c-0.4,0.2-1,0.4-1.6,0.4c-1.2,0-1.9-0.7-1.9-2.2v-4.8h-1.2v-1.5h1.2V400l1.6-0.9v3.3h2.1v1.5h-2.1
		v4.6c0,0.8,0.3,1,0.9,1c0.4,0,0.9-0.2,1.2-0.3L275,410.5z"/>
	<path class="st0" d="M282,410.8v-0.8c-0.6,0.6-1.4,1-2.3,1c-1.4,0-2.9-0.8-2.9-2.8c0-1.9,1.4-2.7,3.3-2.7c0.8,0,1.4,0.1,1.9,0.3
		v-0.6c0-0.9-0.6-1.4-1.6-1.4c-0.9,0-1.5,0.2-2.2,0.5l-0.6-1.2c0.8-0.5,1.7-0.8,2.9-0.8c1.9,0,3.2,0.9,3.2,2.8v5.8H282z M282,407.2
		c-0.4-0.2-1-0.4-1.9-0.4c-1.1,0-1.7,0.5-1.7,1.2c0,0.8,0.5,1.4,1.6,1.4c0.9,0,1.6-0.5,2-1.1V407.2z"/>
	<path class="st0" d="M291.3,404.8c-0.7-0.7-1.3-1-2-1c-1.2,0-2,1.1-2,2.8c0,1.6,0.7,2.8,2,2.8c0.8,0,1.2-0.4,1.9-1l1.1,1
		c-0.7,0.8-1.5,1.6-3,1.6c-2,0-3.6-1.7-3.6-4.4c0-2.8,1.6-4.4,3.7-4.4c1.2,0,2.2,0.5,3,1.4L291.3,404.8z"/>
	<path class="st0" d="M299.2,410.8l-1.9-4.2l-1.3,1.7v2.5h-1.6V400l1.6-0.9v5.3c0,0.5,0,1.4,0,1.8c0.2-0.3,0.7-1,0.9-1.4l1.7-2.4
		h1.9l-2.1,2.8l2.5,5.6H299.2z"/>
	<path class="st0" d="M301.9,405.7v-1.6h4v1.6H301.9z"/>
	<path class="st0" d="M310.7,410.9c-1.1,0-2.4-0.4-3.2-1.1l0.8-1.2c0.8,0.5,1.7,0.8,2.4,0.8c1,0,1.5-0.3,1.5-0.9
		c0-0.6-0.7-0.9-2-1.4c-1.8-0.7-2.5-1.3-2.5-2.6c0-1.5,1.2-2.3,2.9-2.3c1.1,0,2.1,0.4,2.8,0.9l-0.7,1.3c-0.7-0.5-1.4-0.7-2.2-0.7
		c-0.8,0-1.2,0.3-1.2,0.8c0,0.4,0.3,0.7,1.6,1.2c1.9,0.7,2.8,1.2,2.8,2.8C313.8,410.3,312.3,410.9,310.7,410.9z"/>
	<path class="st0" d="M323.2,410.8h-1.4l-1.1-4.2c-0.2-0.6-0.4-1.4-0.4-1.8c-0.1,0.4-0.3,1.2-0.4,1.8l-1.1,4.2h-1.4l-2.3-8.4h1.6
		l1,4.1c0.2,0.6,0.3,1.4,0.4,1.8c0.1-0.4,0.3-1.2,0.5-1.8l1.1-4.1h1.3l1.1,4.1c0.2,0.7,0.4,1.4,0.4,1.8c0.1-0.4,0.3-1.2,0.4-1.8
		l1-4.1h1.6L323.2,410.8z"/>
	<path class="st0" d="M328.3,401.3c-0.6,0-1.1-0.5-1.1-1.1c0-0.6,0.5-1.1,1.1-1.1c0.6,0,1.1,0.5,1.1,1.1
		C329.4,400.8,328.9,401.3,328.3,401.3z M327.5,410.8v-8.4h1.6v8.4H327.5z"/>
	<path class="st0" d="M334.6,400.6c-0.5,0-0.8,0.2-0.8,0.8v1h1.6v1.5h-1.6v6.9h-1.6v-6.9h-1.1v-1.5h1.1v-1.1c0-1.5,0.9-2.1,2.1-2.1
		c0.4,0,0.9,0.1,1.2,0.2v1.4C335.2,400.6,334.9,400.6,334.6,400.6z"/>
	<path class="st0" d="M341.4,410.5c-0.4,0.2-1,0.4-1.6,0.4c-1.2,0-1.9-0.7-1.9-2.2v-4.8h-1.2v-1.5h1.2V400l1.6-0.9v3.3h2.1v1.5h-2.1
		v4.6c0,0.8,0.3,1,0.9,1c0.4,0,0.9-0.2,1.2-0.3L341.4,410.5z"/>
	<path class="st0" d="M343.2,405.7v-1.6h4v1.6H343.2z"/>
	<path class="st0" d="M354.6,404.8c-0.7-0.7-1.3-1-2-1c-1.2,0-2,1.1-2,2.8c0,1.6,0.7,2.8,2,2.8c0.8,0,1.2-0.4,1.9-1l1.1,1
		c-0.7,0.8-1.5,1.6-3,1.6c-2,0-3.6-1.7-3.6-4.4c0-2.8,1.6-4.4,3.7-4.4c1.2,0,2.2,0.5,3,1.4L354.6,404.8z"/>
	<path class="st0" d="M360.7,410.9c-2.1,0-3.7-1.7-3.7-4.4c0-2.8,1.6-4.4,3.7-4.4c2.1,0,3.7,1.7,3.7,4.3
		C364.5,409.3,362.8,410.9,360.7,410.9z M360.7,403.7c-1.2,0-2,1.1-2,2.8c0,1.8,0.8,2.8,2.1,2.8s2.1-1.3,2.1-2.8
		C362.8,404.8,362,403.7,360.7,403.7z"/>
	<path class="st0" d="M371.6,410.8V406c0-1.7-0.6-2.3-1.7-2.3c-1.1,0-1.7,0.8-1.7,2.1v4.9h-1.6v-8.4h1.6v0.8c0.4-0.6,1.2-1,2.1-1
		c2,0,3,1.3,3,3.8v4.8H371.6z"/>
	<path class="st0" d="M379.6,410.5c-0.4,0.2-1,0.4-1.6,0.4c-1.2,0-1.9-0.7-1.9-2.2v-4.8h-1.2v-1.5h1.2V400l1.6-0.9v3.3h2.1v1.5h-2.1
		v4.6c0,0.8,0.3,1,0.9,1c0.4,0,0.9-0.2,1.2-0.3L379.6,410.5z"/>
	<path class="st0" d="M386.6,410.8v-0.8c-0.6,0.6-1.4,1-2.3,1c-1.4,0-2.9-0.8-2.9-2.8c0-1.9,1.4-2.7,3.3-2.7c0.8,0,1.4,0.1,1.9,0.3
		v-0.6c0-0.9-0.6-1.4-1.6-1.4c-0.9,0-1.5,0.2-2.2,0.5l-0.6-1.2c0.8-0.5,1.7-0.8,2.9-0.8c1.9,0,3.2,0.9,3.2,2.8v5.8H386.6z
		 M386.6,407.2c-0.4-0.2-1-0.4-1.9-0.4c-1.1,0-1.7,0.5-1.7,1.2c0,0.8,0.5,1.4,1.6,1.4c0.9,0,1.6-0.5,2-1.1V407.2z"/>
	<path class="st0" d="M391.5,401.3c-0.6,0-1.1-0.5-1.1-1.1c0-0.6,0.5-1.1,1.1-1.1c0.6,0,1.1,0.5,1.1,1.1
		C392.5,400.8,392.1,401.3,391.5,401.3z M390.6,410.8v-8.4h1.6v8.4H390.6z"/>
	<path class="st0" d="M399.9,410.8V406c0-1.7-0.6-2.3-1.7-2.3c-1.1,0-1.7,0.8-1.7,2.1v4.9h-1.6v-8.4h1.6v0.8c0.4-0.6,1.2-1,2.1-1
		c2,0,3,1.3,3,3.8v4.8H399.9z"/>
	<path class="st0" d="M410.7,407.1h-5.6c0.2,1.6,1.1,2.3,2.1,2.3c0.7,0,1.3-0.3,1.8-0.7l1,1.1c-0.7,0.7-1.6,1.1-2.9,1.1
		c-2,0-3.6-1.6-3.6-4.4c0-2.8,1.5-4.4,3.7-4.4c2.4,0,3.5,1.9,3.5,4.2C410.7,406.7,410.7,407,410.7,407.1z M407.1,403.7
		c-1.1,0-1.8,0.8-1.9,2.1h3.9C409,404.6,408.5,403.7,407.1,403.7z"/>
	<path class="st0" d="M417.3,404.1c-0.4-0.2-0.7-0.3-1.3-0.3c-1,0-1.6,0.7-1.6,2.2v4.8h-1.6v-8.4h1.6v0.8c0.4-0.6,1.1-1,1.9-1
		c0.7,0,1.1,0.1,1.4,0.4L417.3,404.1z"/>
</g>
<g>
	<path class="st0" d="M557,449.2c-2.1,0-3.7-1.7-3.7-4.4c0-2.8,1.6-4.4,3.7-4.4c2.1,0,3.7,1.7,3.7,4.3
		C560.8,447.5,559.2,449.2,557,449.2z M557,442c-1.2,0-2,1.1-2,2.8c0,1.8,0.8,2.8,2.1,2.8s2.1-1.3,2.1-2.8
		C559.1,443.1,558.3,442,557,442z"/>
	<path class="st0" d="M566.6,449.2c-0.8,0-1.6-0.4-2.1-1v3l-1.6,0.8v-11.5h1.6v0.8c0.6-0.6,1.3-1,2.2-1c1.8,0,3.2,1.3,3.2,4.5
		C569.9,447.8,568.3,449.2,566.6,449.2z M566.4,441.9c-0.8,0-1.5,0.5-1.9,1.1v3.5c0.4,0.5,1.1,1.1,2,1.1c1.2,0,1.8-0.9,1.8-2.7
		C568.3,442.9,567.6,441.9,566.4,441.9z"/>
	<path class="st0" d="M578.7,445.4h-5.6c0.2,1.6,1.1,2.3,2.1,2.3c0.7,0,1.3-0.3,1.8-0.7l1,1.1c-0.7,0.7-1.6,1.1-2.9,1.1
		c-2,0-3.6-1.6-3.6-4.4c0-2.8,1.5-4.4,3.7-4.4c2.4,0,3.5,1.9,3.5,4.2C578.8,444.9,578.7,445.2,578.7,445.4z M575.1,441.9
		c-1.1,0-1.8,0.8-1.9,2.1h3.9C577,442.9,576.5,441.9,575.1,441.9z"/>
	<path class="st0" d="M585.9,449v-4.8c0-1.7-0.6-2.3-1.7-2.3c-1.1,0-1.7,0.8-1.7,2.1v4.9h-1.6v-8.4h1.6v0.8c0.4-0.6,1.2-1,2.1-1
		c2,0,3,1.3,3,3.8v4.8H585.9z"/>
	<path class="st0" d="M592.7,449.2c-1.1,0-2.4-0.4-3.2-1.1l0.8-1.2c0.8,0.5,1.7,0.8,2.4,0.8c1,0,1.5-0.3,1.5-0.9
		c0-0.6-0.7-0.9-2-1.4c-1.8-0.7-2.5-1.3-2.5-2.6c0-1.5,1.2-2.3,2.9-2.3c1.1,0,2.1,0.4,2.8,0.9l-0.7,1.3c-0.7-0.5-1.4-0.7-2.2-0.7
		c-0.8,0-1.2,0.3-1.2,0.8c0,0.4,0.3,0.7,1.6,1.2c1.9,0.7,2.8,1.2,2.8,2.8C595.8,448.6,594.3,449.2,592.7,449.2z"/>
	<path class="st0" d="M601.8,448.8c-0.4,0.2-1,0.4-1.6,0.4c-1.2,0-1.9-0.7-1.9-2.2v-4.8h-1.2v-1.5h1.2v-2.4l1.6-0.9v3.3h2.1v1.5
		h-2.1v4.6c0,0.8,0.3,1,0.9,1c0.4,0,0.9-0.2,1.2-0.3L601.8,448.8z"/>
	<path class="st0" d="M608.8,449v-0.8c-0.6,0.6-1.4,1-2.3,1c-1.4,0-2.9-0.8-2.9-2.8c0-1.9,1.4-2.7,3.3-2.7c0.8,0,1.4,0.1,1.9,0.3
		v-0.6c0-0.9-0.6-1.4-1.6-1.4c-0.9,0-1.5,0.2-2.2,0.5l-0.6-1.2c0.8-0.5,1.7-0.8,2.9-0.8c1.9,0,3.2,0.9,3.2,2.8v5.8H608.8z
		 M608.8,445.4c-0.4-0.2-1-0.4-1.9-0.4c-1.1,0-1.7,0.5-1.7,1.2c0,0.8,0.5,1.4,1.6,1.4c0.9,0,1.6-0.5,2-1.1V445.4z"/>
	<path class="st0" d="M618.1,443c-0.7-0.7-1.3-1-2-1c-1.2,0-2,1.1-2,2.8c0,1.6,0.7,2.8,2,2.8c0.8,0,1.2-0.4,1.9-1l1.1,1
		c-0.7,0.8-1.5,1.6-3,1.6c-2,0-3.6-1.7-3.6-4.4c0-2.8,1.6-4.4,3.7-4.4c1.2,0,2.2,0.5,3,1.4L618.1,443z"/>
	<path class="st0" d="M625.9,449l-1.9-4.2l-1.3,1.7v2.5h-1.6v-10.8l1.6-0.9v5.3c0,0.5,0,1.4,0,1.8c0.2-0.3,0.7-1,0.9-1.4l1.7-2.4
		h1.9l-2.1,2.8l2.5,5.6H625.9z"/>
	<path class="st0" d="M628.6,444v-1.6h4v1.6H628.6z"/>
	<path class="st0" d="M555.5,468.4c-1.1,0-2.4-0.4-3.2-1.1l0.8-1.2c0.8,0.5,1.7,0.8,2.4,0.8c1,0,1.5-0.3,1.5-0.9
		c0-0.6-0.7-0.9-2-1.4c-1.8-0.7-2.5-1.3-2.5-2.6c0-1.5,1.2-2.3,2.9-2.3c1.1,0,2.1,0.4,2.8,0.9l-0.7,1.3c-0.7-0.5-1.4-0.7-2.2-0.7
		c-0.8,0-1.2,0.3-1.2,0.8c0,0.4,0.3,0.7,1.6,1.2c1.9,0.7,2.8,1.2,2.8,2.8C558.7,467.8,557.2,468.4,555.5,468.4z"/>
	<path class="st0" d="M568.1,468.2h-1.4l-1.1-4.2c-0.2-0.6-0.4-1.4-0.4-1.8c-0.1,0.4-0.3,1.2-0.4,1.8l-1.1,4.2h-1.4l-2.3-8.4h1.6
		l1,4.1c0.2,0.6,0.3,1.4,0.4,1.8c0.1-0.4,0.3-1.2,0.5-1.8l1.1-4.1h1.3l1.1,4.1c0.2,0.7,0.4,1.4,0.4,1.8c0.1-0.4,0.3-1.2,0.4-1.8
		l1-4.1h1.6L568.1,468.2z"/>
	<path class="st0" d="M573.2,458.7c-0.6,0-1.1-0.5-1.1-1.1c0-0.6,0.5-1.1,1.1-1.1c0.6,0,1.1,0.5,1.1,1.1
		C574.2,458.2,573.7,458.7,573.2,458.7z M572.3,468.2v-8.4h1.6v8.4H572.3z"/>
	<path class="st0" d="M579.5,458c-0.5,0-0.8,0.2-0.8,0.8v1h1.6v1.5h-1.6v6.9h-1.6v-6.9H576v-1.5h1.1v-1.1c0-1.5,0.9-2.1,2.1-2.1
		c0.4,0,0.9,0.1,1.2,0.2v1.4C580.1,458.1,579.8,458,579.5,458z"/>
	<path class="st0" d="M586.3,468c-0.4,0.2-1,0.4-1.6,0.4c-1.2,0-1.9-0.7-1.9-2.2v-4.8h-1.2v-1.5h1.2v-2.4l1.6-0.9v3.3h2.1v1.5h-2.1
		v4.6c0,0.8,0.3,1,0.9,1c0.4,0,0.9-0.2,1.2-0.3L586.3,468z"/>
	<path class="st0" d="M588.1,463.2v-1.6h4v1.6H588.1z"/>
	<path class="st0" d="M597.9,468.4c-0.8,0-1.6-0.4-2.1-1v3l-1.6,0.8v-11.5h1.6v0.8c0.6-0.6,1.3-1,2.2-1c1.8,0,3.2,1.3,3.2,4.5
		C601.2,467,599.7,468.4,597.9,468.4z M597.7,461.1c-0.8,0-1.5,0.5-1.9,1.1v3.5c0.4,0.5,1.1,1.1,2,1.1c1.2,0,1.8-0.9,1.8-2.7
		C599.6,462.1,598.9,461.1,597.7,461.1z"/>
	<path class="st0" d="M607.9,461.5c-0.4-0.2-0.7-0.3-1.3-0.3c-1,0-1.6,0.7-1.6,2.2v4.8h-1.6v-8.4h1.6v0.8c0.4-0.6,1.1-1,1.9-1
		c0.7,0,1.1,0.1,1.4,0.4L607.9,461.5z"/>
	<path class="st0" d="M612.9,468.4c-2.1,0-3.7-1.7-3.7-4.4c0-2.8,1.6-4.4,3.7-4.4c2.1,0,3.7,1.7,3.7,4.3
		C616.7,466.7,615,468.4,612.9,468.4z M612.9,461.2c-1.2,0-2,1.1-2,2.8c0,1.8,0.8,2.8,2.1,2.8s2.1-1.3,2.1-2.8
		C615,462.3,614.2,461.2,612.9,461.2z"/>
	<path class="st0" d="M623.1,468.2l-0.8-1.5c-0.3-0.6-0.7-1.4-0.9-1.7c-0.1,0.3-0.6,1.1-0.9,1.7l-0.8,1.4h-1.9l2.6-4.4l-2.5-4h1.9
		l0.7,1.2c0.3,0.6,0.7,1.4,0.9,1.7c0.2-0.3,0.6-1.1,0.9-1.7l0.6-1.2h1.9l-2.5,4l2.7,4.4H623.1z"/>
	<path class="st0" d="M629.7,471.2h-1.7l1.2-3.1l-3.1-8.2h1.8l1.4,4.1c0.3,0.7,0.6,2,0.7,2.4c0.1-0.5,0.5-1.7,0.8-2.4l1.4-4.1h1.7
		L629.7,471.2z"/>
</g>
<g>
	<path class="st0" d="M242.3,495.4c-2.1,0-3.7-1.7-3.7-4.4c0-2.8,1.6-4.4,3.7-4.4c2.1,0,3.7,1.7,3.7,4.3
		C246.1,493.8,244.4,495.4,242.3,495.4z M242.3,488.2c-1.2,0-2,1.1-2,2.8c0,1.8,0.8,2.8,2.1,2.8s2.1-1.3,2.1-2.8
		C244.4,489.3,243.6,488.2,242.3,488.2z"/>
	<path class="st0" d="M251.8,495.4c-0.8,0-1.6-0.4-2.1-1v3l-1.6,0.8v-11.5h1.6v0.8c0.6-0.6,1.3-1,2.2-1c1.8,0,3.2,1.3,3.2,4.5
		C255.1,494.1,253.6,495.4,251.8,495.4z M251.6,488.2c-0.8,0-1.5,0.5-1.9,1.1v3.5c0.4,0.5,1.1,1.1,2,1.1c1.2,0,1.8-0.9,1.8-2.7
		C253.5,489.1,252.8,488.2,251.6,488.2z"/>
	<path class="st0" d="M264,491.6h-5.6c0.2,1.6,1.1,2.3,2.1,2.3c0.7,0,1.3-0.3,1.8-0.7l1,1.1c-0.7,0.7-1.6,1.1-2.9,1.1
		c-2,0-3.6-1.6-3.6-4.4c0-2.8,1.5-4.4,3.7-4.4c2.4,0,3.5,1.9,3.5,4.2C264,491.2,264,491.5,264,491.6z M260.4,488.2
		c-1.1,0-1.8,0.8-1.9,2.1h3.9C262.3,489.1,261.7,488.2,260.4,488.2z"/>
	<path class="st0" d="M271.2,495.3v-4.8c0-1.7-0.6-2.3-1.7-2.3c-1.1,0-1.7,0.8-1.7,2.1v4.9h-1.6v-8.4h1.6v0.8c0.4-0.6,1.2-1,2.1-1
		c2,0,3,1.3,3,3.8v4.8H271.2z"/>
	<path class="st0" d="M277.9,495.4c-1.1,0-2.4-0.4-3.2-1.1l0.8-1.2c0.8,0.5,1.7,0.8,2.4,0.8c1,0,1.5-0.3,1.5-0.9
		c0-0.6-0.7-0.9-2-1.4c-1.8-0.7-2.5-1.3-2.5-2.6c0-1.5,1.2-2.3,2.9-2.3c1.1,0,2.1,0.4,2.8,0.9l-0.7,1.3c-0.7-0.5-1.4-0.7-2.2-0.7
		s-1.2,0.3-1.2,0.8c0,0.4,0.3,0.7,1.6,1.2c1.9,0.7,2.8,1.2,2.8,2.8C281.1,494.8,279.6,495.4,277.9,495.4z"/>
	<path class="st0" d="M287,495c-0.4,0.2-1,0.4-1.6,0.4c-1.2,0-1.9-0.7-1.9-2.2v-4.8h-1.2v-1.5h1.2v-2.4l1.6-0.9v3.3h2.1v1.5h-2.1
		v4.6c0,0.8,0.3,1,0.9,1c0.4,0,0.9-0.2,1.2-0.3L287,495z"/>
	<path class="st0" d="M294,495.3v-0.8c-0.6,0.6-1.4,1-2.3,1c-1.4,0-2.9-0.8-2.9-2.8c0-1.9,1.4-2.7,3.3-2.7c0.8,0,1.4,0.1,1.9,0.3
		v-0.6c0-0.9-0.6-1.4-1.6-1.4c-0.9,0-1.5,0.2-2.2,0.5l-0.6-1.2c0.8-0.5,1.7-0.8,2.9-0.8c1.9,0,3.2,0.9,3.2,2.8v5.8H294z M294,491.7
		c-0.4-0.2-1-0.4-1.9-0.4c-1.1,0-1.7,0.5-1.7,1.2c0,0.8,0.5,1.4,1.6,1.4c0.9,0,1.6-0.5,2-1.1V491.7z"/>
	<path class="st0" d="M303.3,489.3c-0.7-0.7-1.3-1-2-1c-1.2,0-2,1.1-2,2.8c0,1.6,0.7,2.8,2,2.8c0.8,0,1.2-0.4,1.9-1l1.1,1
		c-0.7,0.8-1.5,1.6-3,1.6c-2,0-3.6-1.7-3.6-4.4c0-2.8,1.6-4.4,3.7-4.4c1.2,0,2.2,0.5,3,1.4L303.3,489.3z"/>
	<path class="st0" d="M311.2,495.3l-1.9-4.2l-1.3,1.7v2.5h-1.6v-10.8l1.6-0.9v5.3c0,0.5,0,1.4,0,1.8c0.2-0.3,0.7-1,0.9-1.4l1.7-2.4
		h1.9l-2.1,2.8l2.5,5.6H311.2z"/>
	<path class="st0" d="M313.9,490.2v-1.6h4v1.6H313.9z"/>
	<path class="st0" d="M322.7,495.4c-1.1,0-2.4-0.4-3.2-1.1l0.8-1.2c0.8,0.5,1.7,0.8,2.4,0.8c1,0,1.5-0.3,1.5-0.9
		c0-0.6-0.7-0.9-2-1.4c-1.8-0.7-2.5-1.3-2.5-2.6c0-1.5,1.2-2.3,2.9-2.3c1.1,0,2.1,0.4,2.8,0.9l-0.7,1.3c-0.7-0.5-1.4-0.7-2.2-0.7
		s-1.2,0.3-1.2,0.8c0,0.4,0.3,0.7,1.6,1.2c1.9,0.7,2.8,1.2,2.8,2.8C325.8,494.8,324.3,495.4,322.7,495.4z"/>
	<path class="st0" d="M335.2,495.3h-1.4l-1.1-4.2c-0.2-0.6-0.4-1.4-0.4-1.8c-0.1,0.4-0.3,1.2-0.4,1.8l-1.1,4.2h-1.4l-2.3-8.4h1.6
		l1,4.1c0.2,0.6,0.3,1.4,0.4,1.8c0.1-0.4,0.3-1.2,0.5-1.8l1.1-4.1h1.3l1.1,4.1c0.2,0.7,0.4,1.4,0.4,1.8c0.1-0.4,0.3-1.2,0.4-1.8
		l1-4.1h1.6L335.2,495.3z"/>
	<path class="st0" d="M340.3,485.8c-0.6,0-1.1-0.5-1.1-1.1c0-0.6,0.5-1.1,1.1-1.1c0.6,0,1.1,0.5,1.1,1.1
		C341.4,485.3,340.9,485.8,340.3,485.8z M339.5,495.3v-8.4h1.6v8.4H339.5z"/>
	<path class="st0" d="M346.6,485.1c-0.5,0-0.8,0.2-0.8,0.8v1h1.6v1.5h-1.6v6.9h-1.6v-6.9h-1.1v-1.5h1.1v-1.1c0-1.5,0.9-2.1,2.1-2.1
		c0.4,0,0.9,0.1,1.2,0.2v1.4C347.2,485.1,346.9,485.1,346.6,485.1z"/>
	<path class="st0" d="M353.5,495c-0.4,0.2-1,0.4-1.6,0.4c-1.2,0-1.9-0.7-1.9-2.2v-4.8h-1.2v-1.5h1.2v-2.4l1.6-0.9v3.3h2.1v1.5h-2.1
		v4.6c0,0.8,0.3,1,0.9,1c0.4,0,0.9-0.2,1.2-0.3L353.5,495z"/>
	<path class="st0" d="M355.2,490.2v-1.6h4v1.6H355.2z"/>
	<path class="st0" d="M364.6,495.4c-2.1,0-3.7-1.7-3.7-4.4c0-2.8,1.6-4.4,3.7-4.4c2.1,0,3.7,1.7,3.7,4.3
		C368.4,493.8,366.8,495.4,364.6,495.4z M364.6,488.2c-1.2,0-2,1.1-2,2.8c0,1.8,0.8,2.8,2.1,2.8s2.1-1.3,2.1-2.8
		C366.7,489.3,365.9,488.2,364.6,488.2z"/>
	<path class="st0" d="M374.2,495.4c-0.8,0-1.6-0.4-2.1-1v0.8h-1.6v-10.8l1.6-0.8v4.1c0.6-0.6,1.3-1,2.2-1c1.8,0,3.2,1.3,3.2,4.5
		C377.5,494.1,375.9,495.4,374.2,495.4z M374,488.2c-0.8,0-1.5,0.5-1.9,1.1v3.5c0.4,0.5,1.1,1.1,2,1.1c1.2,0,1.8-0.9,1.8-2.7
		C375.9,489.1,375.2,488.2,374,488.2z"/>
	<path class="st0" d="M378.4,498.3l-0.6-1.2c1.5-0.4,1.8-0.8,1.8-2.2v-8.1h1.6v8C381.3,497,380.8,497.9,378.4,498.3z M380.5,485.8
		c-0.6,0-1.1-0.5-1.1-1.1c0-0.6,0.5-1.1,1.1-1.1c0.6,0,1.1,0.5,1.1,1.1C381.5,485.3,381,485.8,380.5,485.8z"/>
	<path class="st0" d="M390.6,491.6H385c0.2,1.6,1.1,2.3,2.1,2.3c0.7,0,1.3-0.3,1.8-0.7l1,1.1c-0.7,0.7-1.6,1.1-2.9,1.1
		c-2,0-3.6-1.6-3.6-4.4c0-2.8,1.5-4.4,3.7-4.4c2.4,0,3.5,1.9,3.5,4.2C390.6,491.2,390.6,491.5,390.6,491.6z M387,488.2
		c-1.1,0-1.8,0.8-1.9,2.1h3.9C388.9,489.1,388.3,488.2,387,488.2z"/>
	<path class="st0" d="M397.9,489.3c-0.7-0.7-1.3-1-2-1c-1.2,0-2,1.1-2,2.8c0,1.6,0.7,2.8,2,2.8c0.8,0,1.2-0.4,1.9-1l1.1,1
		c-0.7,0.8-1.5,1.6-3,1.6c-2,0-3.6-1.7-3.6-4.4c0-2.8,1.6-4.4,3.7-4.4c1.2,0,2.2,0.5,3,1.4L397.9,489.3z"/>
	<path class="st0" d="M405,495c-0.4,0.2-1,0.4-1.6,0.4c-1.2,0-1.9-0.7-1.9-2.2v-4.8h-1.2v-1.5h1.2v-2.4l1.6-0.9v3.3h2.1v1.5h-2.1
		v4.6c0,0.8,0.3,1,0.9,1c0.4,0,0.9-0.2,1.2-0.3L405,495z"/>
</g>
<g>
	<path class="st5" d="M71.9,623.2c-2.9,0-4.7-2.4-4.7-5.8s1.8-5.8,4.7-5.8c2.9,0,4.8,2.4,4.8,5.8S74.8,623.2,71.9,623.2z
		 M71.9,613.3c-2,0-3,1.6-3,4.1c0,2.5,1.1,4.1,3,4.1c2,0,3-1.6,3-4.1C74.9,614.9,73.9,613.3,71.9,613.3z"/>
	<path class="st5" d="M82.5,623.2c-0.8,0-1.6-0.4-2.1-1v0.8h-1.6v-10.8l1.6-0.8v4.1c0.6-0.6,1.3-1,2.2-1c1.8,0,3.2,1.3,3.2,4.5
		C85.8,621.8,84.3,623.2,82.5,623.2z M82.3,615.9c-0.8,0-1.5,0.5-1.9,1.1v3.5c0.4,0.5,1.1,1.1,2,1.1c1.2,0,1.8-0.9,1.8-2.7
		C84.2,616.9,83.5,615.9,82.3,615.9z"/>
	<path class="st5" d="M86.8,626.1l-0.6-1.2c1.5-0.4,1.8-0.8,1.8-2.2v-8.1h1.6v8C89.6,624.7,89.1,625.6,86.8,626.1z M88.8,613.5
		c-0.6,0-1.1-0.5-1.1-1.1c0-0.6,0.5-1.1,1.1-1.1c0.6,0,1.1,0.5,1.1,1.1C89.9,613,89.4,613.5,88.8,613.5z"/>
	<path class="st5" d="M98.9,619.4h-5.6c0.2,1.6,1.1,2.3,2.1,2.3c0.7,0,1.3-0.3,1.8-0.7l1,1.1c-0.7,0.7-1.6,1.1-2.9,1.1
		c-2,0-3.6-1.6-3.6-4.4c0-2.8,1.5-4.4,3.7-4.4c2.4,0,3.5,1.9,3.5,4.2C99,618.9,98.9,619.2,98.9,619.4z M95.3,615.9
		c-1.1,0-1.8,0.8-1.9,2.1h3.9C97.2,616.9,96.7,615.9,95.3,615.9z"/>
	<path class="st5" d="M106.3,617c-0.7-0.7-1.3-1-2-1c-1.2,0-2,1.1-2,2.8c0,1.6,0.7,2.8,2,2.8c0.8,0,1.2-0.4,1.9-1l1.1,1
		c-0.7,0.8-1.5,1.6-3,1.6c-2,0-3.6-1.7-3.6-4.4c0-2.8,1.6-4.4,3.7-4.4c1.2,0,2.2,0.5,3,1.4L106.3,617z"/>
	<path class="st5" d="M113.4,622.8c-0.4,0.2-1,0.4-1.6,0.4c-1.2,0-1.9-0.7-1.9-2.2v-4.8h-1.2v-1.5h1.2v-2.4l1.6-0.9v3.3h2.1v1.5
		h-2.1v4.6c0,0.8,0.3,1,0.9,1c0.4,0,0.9-0.2,1.2-0.3L113.4,622.8z"/>
	<path class="st5" d="M75.1,642.4c-1.6,0-3-0.7-4-1.8l1.2-1.2c0.8,0.8,1.9,1.3,2.9,1.3c1.6,0,2.3-0.5,2.3-1.6c0-0.9-0.7-1.3-2.5-1.9
		c-2.4-0.7-3.5-1.3-3.5-3.3c0-1.9,1.6-3.1,3.7-3.1c1.5,0,2.7,0.6,3.7,1.5l-1.2,1.2c-0.7-0.7-1.5-1.1-2.6-1.1c-1.3,0-1.9,0.6-1.9,1.4
		c0,0.8,0.5,1.2,2.4,1.7c2.2,0.7,3.6,1.4,3.6,3.4C79.3,641,78,642.4,75.1,642.4z"/>
	<path class="st5" d="M85.3,642c-0.4,0.2-1,0.4-1.6,0.4c-1.2,0-1.9-0.7-1.9-2.2v-4.8h-1.2v-1.5h1.2v-2.4l1.6-0.9v3.3h2.1v1.5h-2.1
		v4.6c0,0.8,0.3,1,0.9,1c0.4,0,0.9-0.2,1.2-0.3L85.3,642z"/>
	<path class="st5" d="M90.7,642.4c-2.1,0-3.7-1.7-3.7-4.4c0-2.8,1.6-4.4,3.7-4.4c2.1,0,3.7,1.7,3.7,4.3
		C94.5,640.7,92.9,642.4,90.7,642.4z M90.7,635.2c-1.2,0-2,1.1-2,2.8c0,1.8,0.8,2.8,2.1,2.8s2.1-1.3,2.1-2.8
		C92.9,636.3,92.1,635.2,90.7,635.2z"/>
	<path class="st5" d="M101.1,635.5c-0.4-0.2-0.7-0.3-1.3-0.3c-1,0-1.6,0.7-1.6,2.2v4.8h-1.6v-8.4h1.6v0.8c0.4-0.6,1.1-1,1.9-1
		c0.7,0,1.1,0.1,1.4,0.4L101.1,635.5z"/>
	<path class="st5" d="M109.6,638.6h-5.6c0.2,1.6,1.1,2.3,2.1,2.3c0.7,0,1.3-0.3,1.8-0.7l1,1.1c-0.7,0.7-1.6,1.1-2.9,1.1
		c-2,0-3.6-1.6-3.6-4.4c0-2.8,1.5-4.4,3.7-4.4c2.4,0,3.5,1.9,3.5,4.2C109.7,638.1,109.6,638.4,109.6,638.6z M106,635.1
		c-1.1,0-1.8,0.8-1.9,2.1h3.9C107.9,636.1,107.4,635.1,106,635.1z"/>
</g>
<g>
	<path class="st3" d="M59.7,749c-4.2,0-6.7-3.3-6.7-7.9s2.5-7.9,6.7-7.9c4.2,0,6.7,3.3,6.7,7.9S63.9,749,59.7,749z M59.7,736.2
		c-2.5,0-3.5,2.1-3.5,4.9s1,4.9,3.5,4.9s3.5-2.1,3.5-4.9S62.2,736.2,59.7,736.2z"/>
	<path class="st3" d="M76,743.3h-3.4v5.5h-3.1v-15.4h6.7c2.9,0,5.3,1.6,5.3,4.9C81.5,741.8,79.2,743.3,76,743.3z M76.1,736.3h-3.5v4
		h3.6c1.4,0,2.2-0.7,2.2-2C78.4,736.9,77.5,736.3,76.1,736.3z"/>
	<path class="st3" d="M84.5,748.7v-15.4h10.7v3h-7.6v2.7H92v3h-4.4v3.7h7.9v3H84.5z"/>
	<path class="st3" d="M108.5,748.7l-5.7-8.4c-0.4-0.6-0.9-1.3-1.1-1.7c0,0.6,0,2.5,0,3.4v6.8h-3v-15.4h2.9l5.5,8.1
		c0.4,0.6,0.9,1.3,1.1,1.7c0-0.6,0-2.5,0-3.4v-6.5h3v15.4H108.5z"/>
	<path class="st3" d="M120.4,749c-2.6,0-4.8-1.1-6-2.8l2.2-2c1.1,1.3,2.5,1.8,3.9,1.8c1.8,0,2.7-0.5,2.7-1.7c0-1-0.5-1.4-3.4-2.1
		c-2.8-0.7-4.8-1.6-4.8-4.6c0-2.8,2.5-4.5,5.5-4.5c2.4,0,4.2,0.9,5.6,2.4l-2.2,2.2c-1-1-2.1-1.6-3.5-1.6c-1.7,0-2.2,0.7-2.2,1.4
		c0,1,0.7,1.3,3.1,1.8c2.4,0.6,5.1,1.4,5.1,4.8C126.5,747,124.6,749,120.4,749z"/>
	<path class="st3" d="M135.7,736.4v12.4h-3.1v-12.4h-4.4v-3h11.9v3H135.7z"/>
	<path class="st3" d="M151.2,748.7l-1.2-3.4h-5.6l-1.2,3.4h-3.3l5.9-15.4h3l5.9,15.4H151.2z M148,739.6c-0.3-0.9-0.6-1.8-0.8-2.4
		c-0.2,0.6-0.5,1.5-0.8,2.4l-1,2.8h3.5L148,739.6z"/>
	<path class="st3" d="M165.7,737.8c-0.5-1.1-1.4-1.7-2.8-1.7c-2.3,0-3.6,2-3.6,4.9c0,2.8,1.3,4.9,3.7,4.9c1.4,0,2.2-0.6,3-2l2.6,1.5
		c-1.1,2.2-2.9,3.5-5.7,3.5c-4,0-6.7-3.1-6.7-7.9c0-4.7,2.8-7.9,6.8-7.9c2.9,0,4.7,1.4,5.6,3.4L165.7,737.8z"/>
	<path class="st3" d="M181.4,748.7l-4.2-7.4l-2.5,2.9v4.5h-3.1v-15.4h3.1v4.4c0,0.6,0,2,0,2.4c0.2-0.4,0.8-1.1,1.2-1.6l4.3-5.3h3.7
		l-4.5,5.3l5.7,10.1H181.4z"/>
	<path class="st3" d="M199.8,749c-4.2,0-6.7-3.3-6.7-7.9s2.5-7.9,6.7-7.9c4.2,0,6.7,3.3,6.7,7.9S204,749,199.8,749z M199.8,736.2
		c-2.5,0-3.5,2.1-3.5,4.9s1,4.9,3.5,4.9s3.5-2.1,3.5-4.9S202.3,736.2,199.8,736.2z"/>
	<path class="st3" d="M216.6,748.7h-7v-15.4h7.1c3,0,4.9,1.4,4.9,4.1c0,1.3-0.6,2.4-1.6,3c1.2,0.5,2.2,1.7,2.2,3.4
		C222.1,747,219.9,748.7,216.6,748.7z M216.5,736.2h-3.9v2.9h4.1c1.3,0,1.7-0.6,1.7-1.5C218.4,736.7,217.9,736.2,216.5,736.2z
		 M216.7,741.8h-4.1v4h4.1c1.5,0,2.2-0.8,2.2-2C218.9,742.5,218.2,741.8,216.7,741.8z"/>
	<path class="st3" d="M229.8,749c-3.1,0-5.1-1.8-5.9-4.6l3-0.8c0.6,1.6,1.4,2.3,2.9,2.3c1.9,0,2.8-1.2,2.8-3.5v-9.1h3.1v9
		C235.7,746.3,233.9,749,229.8,749z"/>
	<path class="st3" d="M239.5,748.7v-15.4h10.7v3h-7.6v2.7h4.4v3h-4.4v3.7h7.9v3H239.5z"/>
	<path class="st3" d="M261.9,737.8c-0.6-1.1-1.4-1.7-2.8-1.7c-2.3,0-3.6,2-3.6,4.9c0,2.8,1.3,4.9,3.7,4.9c1.4,0,2.2-0.6,3-2l2.6,1.5
		c-1.1,2.2-2.9,3.5-5.7,3.5c-4,0-6.7-3.1-6.7-7.9c0-4.7,2.8-7.9,6.8-7.9c2.9,0,4.7,1.4,5.6,3.4L261.9,737.8z"/>
	<path class="st3" d="M274,736.4v12.4h-3.1v-12.4h-4.4v-3h11.9v3H274z"/>
	<path class="st3" d="M293,749c-2.6,0-4.8-1.1-6-2.8l2.2-2c1.1,1.3,2.5,1.8,3.9,1.8c1.8,0,2.7-0.5,2.7-1.7c0-1-0.5-1.4-3.4-2.1
		c-2.8-0.7-4.8-1.6-4.8-4.6c0-2.8,2.5-4.5,5.5-4.5c2.4,0,4.2,0.9,5.6,2.4l-2.2,2.2c-1-1-2.1-1.6-3.5-1.6c-1.7,0-2.2,0.7-2.2,1.4
		c0,1,0.7,1.3,3.1,1.8c2.4,0.6,5.1,1.4,5.1,4.8C299.1,747,297.2,749,293,749z"/>
	<path class="st3" d="M308.3,736.4v12.4h-3.1v-12.4h-4.4v-3h11.9v3H308.3z"/>
	<path class="st3" d="M320.8,749c-4.2,0-6.7-3.3-6.7-7.9s2.5-7.9,6.7-7.9c4.2,0,6.7,3.3,6.7,7.9S325,749,320.8,749z M320.8,736.2
		c-2.5,0-3.5,2.1-3.5,4.9s1,4.9,3.5,4.9s3.5-2.1,3.5-4.9S323.3,736.2,320.8,736.2z"/>
	<path class="st3" d="M339.6,748.7l-2.8-5.5h-3.1v5.5h-3.1v-15.4h7.2c2.9,0,5.3,1.6,5.3,4.9c0,2.3-1,3.8-2.9,4.5l2.9,6H339.6z
		 M337.7,736.3h-4v4h4c1.4,0,2.2-0.7,2.2-2C339.9,736.9,339.1,736.3,337.7,736.3z"/>
	<path class="st3" d="M356.3,748.7l-1.2-3.4h-5.6l-1.2,3.4h-3.3l5.9-15.4h3l5.9,15.4H356.3z M353,739.6c-0.3-0.9-0.6-1.8-0.8-2.4
		c-0.2,0.6-0.5,1.5-0.8,2.4l-1,2.8h3.5L353,739.6z"/>
	<path class="st3" d="M367.9,749c-4,0-6.7-3.1-6.7-7.9c0-4.7,2.8-7.9,6.8-7.9c3.1,0,4.8,1.5,5.8,3.9l-2.9,1.2c-0.6-1.1-1.3-2-2.9-2
		c-2.3,0-3.6,2-3.6,4.9c0,2.8,1.3,4.9,3.7,4.9c2.1,0,2.8-1,3-2.3h-2.4v-2.9h5.5v2C374.1,746.7,371.4,749,367.9,749z"/>
	<path class="st3" d="M377.3,748.7v-15.4H388v3h-7.6v2.7h4.4v3h-4.4v3.7h7.9v3H377.3z"/>
	<path class="st3" d="M403.2,749c-2.6,0-4.8-1.1-6-2.8l2.2-2c1.1,1.3,2.5,1.8,3.9,1.8c1.8,0,2.7-0.5,2.7-1.7c0-1-0.5-1.4-3.4-2.1
		c-2.8-0.7-4.8-1.6-4.8-4.6c0-2.8,2.5-4.5,5.5-4.5c2.4,0,4.2,0.9,5.6,2.4l-2.2,2.2c-1-1-2.1-1.6-3.5-1.6c-1.6,0-2.2,0.7-2.2,1.4
		c0,1,0.7,1.3,3.1,1.8c2.4,0.6,5.1,1.4,5.1,4.8C409.3,747,407.4,749,403.2,749z"/>
	<path class="st3" d="M412.5,748.7v-15.4h10.7v3h-7.6v2.7h4.4v3h-4.4v3.7h7.9v3H412.5z"/>
	<path class="st3" d="M435.8,748.7l-2.8-5.5h-3.1v5.5h-3.1v-15.4h7.2c2.9,0,5.3,1.6,5.3,4.9c0,2.3-1,3.8-2.9,4.5l2.9,6H435.8z
		 M433.9,736.3h-4v4h4c1.4,0,2.2-0.7,2.2-2C436.1,736.9,435.3,736.3,433.9,736.3z"/>
	<path class="st3" d="M449.3,748.7h-3l-5.5-15.4h3.4l2.9,8.9c0.3,0.9,0.6,2,0.7,2.5c0.1-0.6,0.4-1.6,0.7-2.5l2.8-8.9h3.4
		L449.3,748.7z"/>
	<path class="st3" d="M457.9,748.7v-15.4h3.1v15.4H457.9z"/>
	<path class="st3" d="M473.9,737.8c-0.5-1.1-1.4-1.7-2.8-1.7c-2.3,0-3.6,2-3.6,4.9c0,2.8,1.3,4.9,3.7,4.9c1.4,0,2.2-0.6,3-2l2.6,1.5
		c-1.1,2.2-2.9,3.5-5.7,3.5c-4,0-6.7-3.1-6.7-7.9c0-4.7,2.8-7.9,6.8-7.9c2.9,0,4.7,1.4,5.6,3.4L473.9,737.8z"/>
	<path class="st3" d="M479.9,748.7v-15.4h10.7v3h-7.6v2.7h4.4v3h-4.4v3.7h7.9v3H479.9z"/>
</g>
<g>
	<g>
		<path class="st3" d="M593,380.7c-22.6,0-36.5,4-36.5,6.9v22.9c0,2.9,13.9,6.9,36.5,6.9c22.6,0,36.5-4,36.5-6.9v-22.9
			C629.5,384.7,615.6,380.7,593,380.7z M572.1,394.7C572.1,394.7,572.1,394.7,572.1,394.7c-4.2-0.6-7.7-1.3-10.5-2.2
			c-0.3-0.1-0.4-0.4-0.3-0.6c0.1-0.3,0.4-0.4,0.6-0.3c2.7,0.9,6.2,1.6,10.2,2.2c0.3,0,0.5,0.3,0.4,0.6
			C572.6,394.5,572.4,394.7,572.1,394.7z M624.8,392.6c-7,2.3-18.9,3.7-31.8,3.7c-4.2,0-8.3-0.1-12.2-0.4c-0.4,0-0.7-0.4-0.7-0.8
			c0-0.4,0.4-0.7,0.8-0.7c3.9,0.3,8,0.4,12.1,0.4c12.8,0,24.5-1.3,31.4-3.6c0.4-0.1,0.8,0.1,0.9,0.5
			C625.4,392,625.2,392.5,624.8,392.6z"/>
		<path class="st6" d="M572.2,393.7c-4.1-0.6-7.5-1.3-10.2-2.2c-0.3-0.1-0.5,0.1-0.6,0.3c-0.1,0.3,0.1,0.5,0.3,0.6
			c2.8,0.9,6.3,1.6,10.4,2.2c0,0,0,0,0.1,0c0.2,0,0.5-0.2,0.5-0.4C572.7,394,572.5,393.7,572.2,393.7z"/>
		<path class="st6" d="M624.4,391.2c-6.9,2.3-18.6,3.6-31.4,3.6c-4.2,0-8.2-0.1-12.1-0.4c-0.4,0-0.8,0.3-0.8,0.7
			c0,0.4,0.3,0.8,0.7,0.8c3.9,0.3,8,0.4,12.2,0.4c12.9,0,24.8-1.4,31.8-3.7c0.4-0.1,0.6-0.6,0.5-0.9
			C625.2,391.3,624.8,391,624.4,391.2z"/>
		<path class="st6" d="M593,378.7c-19.1,0-38.5,3.1-38.5,8.9v22.9c0,5.8,19.4,8.9,38.5,8.9c19.1,0,38.5-3.1,38.5-8.9v-22.9
			C631.5,381.8,612.1,378.7,593,378.7z M629.5,410.6c0,2.9-13.9,6.9-36.5,6.9c-22.6,0-36.5-4-36.5-6.9v-22.9
			c0-2.9,13.9-6.9,36.5-6.9c22.6,0,36.5,4,36.5,6.9V410.6z"/>
	</g>
	<g>
		<path class="st3" d="M604,340c0-0.1,0-0.1,0-0.2c0-0.1,0-0.1,0-0.2v-9.9h-30.2v56.2h40.5v-45.1h-9.4
			C604.4,340.8,604,340.4,604,340z M607.5,380.9h-27.4c-0.4,0-0.7-0.3-0.7-0.7c0-0.4,0.3-0.7,0.7-0.7h27.4c0.4,0,0.7,0.3,0.7,0.7
			C608.2,380.6,607.9,380.9,607.5,380.9z M607.5,376.9h-27.4c-0.4,0-0.7-0.3-0.7-0.7s0.3-0.7,0.7-0.7h27.4c0.4,0,0.7,0.3,0.7,0.7
			S607.9,376.9,607.5,376.9z M607.5,372.8h-27.4c-0.4,0-0.7-0.3-0.7-0.7s0.3-0.7,0.7-0.7h27.4c0.4,0,0.7,0.3,0.7,0.7
			S607.9,372.8,607.5,372.8z M607.5,368.8h-27.4c-0.4,0-0.7-0.3-0.7-0.7c0-0.4,0.3-0.7,0.7-0.7h27.4c0.4,0,0.7,0.3,0.7,0.7
			C608.2,368.5,607.9,368.8,607.5,368.8z M607.5,364.8h-27.4c-0.4,0-0.7-0.3-0.7-0.7s0.3-0.7,0.7-0.7h27.4c0.4,0,0.7,0.3,0.7,0.7
			S607.9,364.8,607.5,364.8z M607.5,360.8h-27.4c-0.4,0-0.7-0.3-0.7-0.7s0.3-0.7,0.7-0.7h27.4c0.4,0,0.7,0.3,0.7,0.7
			S607.9,360.8,607.5,360.8z M607.5,356.8h-27.4c-0.4,0-0.7-0.3-0.7-0.7s0.3-0.7,0.7-0.7h27.4c0.4,0,0.7,0.3,0.7,0.7
			S607.9,356.8,607.5,356.8z M607.5,352.8h-27.4c-0.4,0-0.7-0.3-0.7-0.7s0.3-0.7,0.7-0.7h27.4c0.4,0,0.7,0.3,0.7,0.7
			S607.9,352.8,607.5,352.8z M607.5,348.8h-27.4c-0.4,0-0.7-0.3-0.7-0.7s0.3-0.7,0.7-0.7h27.4c0.4,0,0.7,0.3,0.7,0.7
			S607.9,348.8,607.5,348.8z M608.2,344.1c0,0.4-0.3,0.7-0.7,0.7h-27.4c-0.4,0-0.7-0.3-0.7-0.7s0.3-0.7,0.7-0.7h27.4
			C607.9,343.5,608.2,343.8,608.2,344.1z"/>
		<polygon class="st3" points="605.8,331 605.8,339.1 613.6,339.1 		"/>
		<path class="st6" d="M605.5,328.2c-0.2-0.2-0.4-0.3-0.6-0.3h-32c-0.5,0-0.9,0.4-0.9,0.9v58c0,0.5,0.4,0.9,0.9,0.9h42.3
			c0.5,0,0.9-0.4,0.9-0.9v-47.3c0-0.2-0.1-0.4-0.2-0.6L605.5,328.2z M605.8,331l7.9,8.1h-7.9V331z M614.3,385.9h-40.5v-56.2H604v9.9
			c0,0.1,0,0.1,0,0.2c0,0.1,0,0.1,0,0.2c0,0.5,0.4,0.9,0.9,0.9h9.4V385.9z"/>
		<path class="st6" d="M579.5,344.1c0,0.4,0.3,0.7,0.7,0.7h27.4c0.4,0,0.7-0.3,0.7-0.7s-0.3-0.7-0.7-0.7h-27.4
			C579.8,343.5,579.5,343.8,579.5,344.1z"/>
		<path class="st6" d="M607.5,355.5h-27.4c-0.4,0-0.7,0.3-0.7,0.7s0.3,0.7,0.7,0.7h27.4c0.4,0,0.7-0.3,0.7-0.7
			S607.9,355.5,607.5,355.5z"/>
		<path class="st6" d="M607.5,347.5h-27.4c-0.4,0-0.7,0.3-0.7,0.7s0.3,0.7,0.7,0.7h27.4c0.4,0,0.7-0.3,0.7-0.7
			S607.9,347.5,607.5,347.5z"/>
		<path class="st6" d="M607.5,351.5h-27.4c-0.4,0-0.7,0.3-0.7,0.7s0.3,0.7,0.7,0.7h27.4c0.4,0,0.7-0.3,0.7-0.7
			S607.9,351.5,607.5,351.5z"/>
		<path class="st6" d="M607.5,359.5h-27.4c-0.4,0-0.7,0.3-0.7,0.7s0.3,0.7,0.7,0.7h27.4c0.4,0,0.7-0.3,0.7-0.7
			S607.9,359.5,607.5,359.5z"/>
		<path class="st6" d="M607.5,363.5h-27.4c-0.4,0-0.7,0.3-0.7,0.7s0.3,0.7,0.7,0.7h27.4c0.4,0,0.7-0.3,0.7-0.7
			S607.9,363.5,607.5,363.5z"/>
		<path class="st6" d="M607.5,367.5h-27.4c-0.4,0-0.7,0.3-0.7,0.7c0,0.4,0.3,0.7,0.7,0.7h27.4c0.4,0,0.7-0.3,0.7-0.7
			C608.2,367.8,607.9,367.5,607.5,367.5z"/>
		<path class="st6" d="M607.5,371.5h-27.4c-0.4,0-0.7,0.3-0.7,0.7s0.3,0.7,0.7,0.7h27.4c0.4,0,0.7-0.3,0.7-0.7
			S607.9,371.5,607.5,371.5z"/>
		<path class="st6" d="M607.5,379.6h-27.4c-0.4,0-0.7,0.3-0.7,0.7c0,0.4,0.3,0.7,0.7,0.7h27.4c0.4,0,0.7-0.3,0.7-0.7
			C608.2,379.9,607.9,379.6,607.5,379.6z"/>
		<path class="st6" d="M607.5,375.6h-27.4c-0.4,0-0.7,0.3-0.7,0.7s0.3,0.7,0.7,0.7h27.4c0.4,0,0.7-0.3,0.7-0.7
			S607.9,375.6,607.5,375.6z"/>
	</g>
</g>
<g>
	<g>
		<path class="st6" d="M489.4,19.9h-78.9c-0.7,0-1.2,0.5-1.2,1.2v67.9c0,0.7,0.5,1.2,1.2,1.2c0,0,0,0,0,0h78.9
			c0.7,0,1.2-0.5,1.2-1.2v0V21.1C490.7,20.4,490.1,19.9,489.4,19.9L489.4,19.9z M488.2,87.7h-76.4V36.5h76.4L488.2,87.7L488.2,87.7z
			 M488.2,34.6h-76.4V22.3h76.4L488.2,34.6L488.2,34.6z"/>
		<path class="st6" d="M478.8,28.4l-2.7,2.8c-0.2,0.3-0.2,0.6,0,0.9c0.2,0.2,0.6,0.2,0.8,0l2.7-2.8l2.8,2.7c0.3,0.2,0.7,0.1,0.8-0.2
			c0.1-0.2,0.1-0.5,0-0.7l-2.8-2.7l2.8-2.8c0.3-0.3,0.2-0.7,0-0.9c-0.3-0.3-0.7-0.2-0.9,0l0,0l-2.7,2.8l-2.8-2.7
			c-0.2-0.2-0.6-0.3-0.9,0s-0.3,0.6,0,0.9c0,0,0,0,0,0L478.8,28.4z"/>
		<path class="st6" d="M459.7,31.8h7.8c0.4,0,0.6-0.3,0.6-0.6c0-0.4-0.3-0.6-0.6-0.6c0,0,0,0,0,0h-7.8c-0.4,0-0.6,0.3-0.6,0.6
			C459.1,31.5,459.3,31.8,459.7,31.8C459.7,31.8,459.7,31.8,459.7,31.8z"/>
		<path class="st6" d="M416,84.1h7.8c0.4,0,0.6-0.3,0.6-0.6c0-0.4-0.3-0.6-0.6-0.6c0,0,0,0,0,0H416c-0.4,0-0.6,0.3-0.6,0.6
			C415.3,83.9,415.6,84.1,416,84.1C416,84.1,416,84.1,416,84.1z"/>
	</g>
	<path class="st6" d="M465.8,54.2c-0.3-0.2-0.5-0.6-0.6-0.9c-0.1-0.4-0.2-0.8-0.2-1.3v-3.6c0-0.9-0.2-1.6-0.7-2.1
		c-0.5-0.5-1.2-0.7-2-0.7h-3.1v1.2h1.6c0.8,0,1.4,0.2,1.8,0.7c0.4,0.5,0.5,1.1,0.5,2v3.3c0,0.3,0,0.6,0.1,0.9
		c0.1,0.3,0.2,0.5,0.4,0.7c0.2,0.2,0.4,0.4,0.6,0.5c0.2,0.1,0.5,0.2,0.7,0.3l0.4,0.1v0.7l-0.3,0.1c-0.3,0.1-0.5,0.2-0.8,0.3
		c-0.2,0.1-0.4,0.3-0.6,0.5c-0.2,0.2-0.3,0.4-0.4,0.7c-0.1,0.2-0.1,0.5-0.1,0.8v3.3c0,0.9-0.2,1.5-0.5,2c-0.4,0.5-1,0.7-1.8,0.7
		h-1.6v1.2h3.1c0.4,0,0.8-0.1,1.2-0.2c0.3-0.1,0.6-0.3,0.9-0.5c0.2-0.2,0.4-0.5,0.5-0.9c0.1-0.4,0.2-0.8,0.2-1.2v-3.6
		c0-0.5,0.1-0.9,0.2-1.3c0.1-0.4,0.3-0.7,0.6-0.9c0.3-0.2,0.6-0.4,1-0.5c0.2-0.1,0.5-0.1,0.7-0.1v-1.3c-0.3,0-0.5-0.1-0.7-0.1
		C466.3,54.7,466,54.5,465.8,54.2z"/>
	<rect x="449" y="45.6" class="st6" width="1.9" height="20.1"/>
	<path class="st6" d="M437.5,63.5c-0.4-0.5-0.5-1.1-0.5-2v-3.3c0-0.3,0-0.6-0.1-0.8c-0.1-0.2-0.2-0.5-0.4-0.7
		c-0.2-0.2-0.4-0.4-0.6-0.5c-0.2-0.1-0.5-0.2-0.8-0.3l-0.3-0.1v-0.7l0.4-0.1c0.3-0.1,0.5-0.2,0.7-0.3c0.2-0.1,0.4-0.3,0.6-0.5
		c0.2-0.2,0.3-0.4,0.4-0.7c0.1-0.3,0.1-0.5,0.1-0.9v-3.3c0-0.9,0.2-1.5,0.5-2c0.4-0.5,1-0.7,1.8-0.7h1.6v-1.2h-3.1
		c-0.9,0-1.6,0.2-2,0.7c-0.5,0.5-0.7,1.2-0.7,2.1V52c0,0.5-0.1,0.9-0.2,1.3c-0.1,0.4-0.3,0.7-0.6,0.9c-0.3,0.2-0.6,0.4-1,0.5
		c-0.2,0.1-0.5,0.1-0.7,0.1v1.3h0c0.2,0,0.5,0.1,0.7,0.1c0.4,0.1,0.7,0.3,1,0.5c0.3,0.2,0.5,0.6,0.6,0.9c0.1,0.4,0.2,0.8,0.2,1.3
		v3.6c0,0.4,0.1,0.8,0.2,1.2c0.1,0.3,0.3,0.6,0.5,0.9c0.2,0.2,0.5,0.4,0.9,0.5c0.3,0.1,0.7,0.2,1.2,0.2h3.1v-1.2h-1.6
		C438.5,64.3,437.9,64,437.5,63.5z"/>
	<path class="st6" d="M440.9,65.4h-3.1c-0.4,0-0.8-0.1-1.2-0.2c-0.3-0.1-0.6-0.3-0.9-0.5c-0.2-0.2-0.4-0.5-0.5-0.9
		c-0.1-0.4-0.2-0.8-0.2-1.2v-3.6c0-0.5-0.1-0.9-0.2-1.3c-0.1-0.4-0.3-0.7-0.6-0.9c-0.3-0.2-0.6-0.4-1-0.5c-0.2-0.1-0.5-0.1-0.7-0.1
		h0v-1.3c0.3,0,0.5-0.1,0.7-0.1c0.4-0.1,0.7-0.3,1-0.5c0.3-0.2,0.5-0.6,0.6-0.9c0.1-0.4,0.2-0.8,0.2-1.3v-3.6c0-0.9,0.2-1.6,0.7-2.1
		c0.5-0.5,1.1-0.7,2-0.7h3.1v1.2h-1.6c-0.8,0-1.4,0.2-1.8,0.7c-0.4,0.5-0.5,1.1-0.5,2v3.3c0,0.3,0,0.6-0.1,0.9
		c-0.1,0.3-0.2,0.5-0.4,0.7c-0.2,0.2-0.4,0.4-0.6,0.5c-0.2,0.1-0.5,0.2-0.7,0.3l-0.4,0.1v0.7l0.3,0.1c0.3,0.1,0.5,0.2,0.8,0.3
		c0.2,0.1,0.4,0.3,0.6,0.5c0.2,0.2,0.3,0.4,0.4,0.7c0.1,0.2,0.1,0.5,0.1,0.8v3.3c0,0.9,0.2,1.5,0.5,2c0.4,0.5,1,0.7,1.8,0.7h1.6
		V65.4z"/>
	<path class="st6" d="M449,45.6h1.9v20.1H449V45.6z"/>
	<path class="st6" d="M467.4,56.2c-0.2,0-0.5,0.1-0.7,0.1c-0.4,0.1-0.7,0.3-1,0.5c-0.3,0.2-0.5,0.6-0.6,0.9
		c-0.1,0.4-0.2,0.8-0.2,1.3v3.6c0,0.4-0.1,0.8-0.2,1.2c-0.1,0.3-0.3,0.6-0.5,0.9c-0.2,0.2-0.5,0.4-0.9,0.5c-0.3,0.1-0.7,0.2-1.2,0.2
		h-3.1h0h0v-1.2h1.6c0.8,0,1.4-0.2,1.8-0.7c0.4-0.5,0.5-1.1,0.5-2v-3.3c0-0.3,0-0.6,0.1-0.8c0.1-0.3,0.2-0.5,0.4-0.7
		c0.2-0.2,0.4-0.4,0.6-0.5c0.2-0.1,0.5-0.2,0.8-0.3l0.3-0.1v-0.7l-0.4-0.1c-0.3-0.1-0.5-0.2-0.7-0.3c-0.2-0.1-0.4-0.3-0.6-0.5
		c-0.2-0.2-0.3-0.4-0.4-0.7c-0.1-0.3-0.1-0.5-0.1-0.9v-3.3c0-0.9-0.2-1.5-0.5-2c-0.4-0.5-1-0.7-1.8-0.7h-1.6v-1.2h3.1
		c0.9,0,1.5,0.2,2,0.7c0.5,0.5,0.7,1.2,0.7,2.1V52c0,0.5,0.1,0.9,0.2,1.3c0.1,0.4,0.3,0.7,0.6,0.9c0.3,0.2,0.6,0.4,1,0.5
		c0.2,0.1,0.5,0.1,0.7,0.1V56.2z"/>
	<line class="st7" x1="490" y1="78.5" x2="411.8" y2="78.5"/>
	<line class="st8" x1="484.7" y1="40.6" x2="465.4" y2="53.2"/>
	<line class="st8" x1="476.2" y1="51.5" x2="461.1" y2="61.4"/>
</g>
<g>
</g>
</svg>
